<svg xmlns="http://www.w3.org/2000/svg" xmlns:xlink="http://www.w3.org/1999/xlink" version="1.1" x="0px" y="0px" viewBox="0 0 100 100" enable-background="new 0 0 100 100" xml:space="preserve"><path d="M83.129,41.194L83.083,41H76V20.4C76,19.61,77.069,0,55.91,0H45.579C24.394,0,25.136,20,25.172,21H25v20h-6.63  C14.621,41,11,44.348,11,48.098v44.801c0,0.001,0,0.178,0,0.178c0,3.748,3.62,6.924,7.37,6.924h64.713h0.156  C86.988,100,90,96.826,90,93.076c0,0,0-0.177,0-0.178V48.098C90,44.347,86.879,41.194,83.129,41.194z M62,41H39V20.43  c0-3.077,2.459-6.43,6.579-6.43h10.396C60.094,14,62,17.262,62,20.4V41z"></path></svg>