<?xml version="1.0" encoding="UTF-8" standalone="no"?>
<svg
   xmlns:dc="http://purl.org/dc/elements/1.1/"
   xmlns:cc="http://creativecommons.org/ns#"
   xmlns:rdf="http://www.w3.org/1999/02/22-rdf-syntax-ns#"
   xmlns:svg="http://www.w3.org/2000/svg"
   xmlns="http://www.w3.org/2000/svg"
   version="1.1"
   id="svg2"
   viewBox="0 0 32 32"
   height="32"
   width="32">
  <defs
     id="defs4" />
  <metadata
     id="metadata7">
    <rdf:RDF>
      <cc:Work
         rdf:about="">
        <dc:format>image/svg+xml</dc:format>
        <dc:type
           rdf:resource="http://purl.org/dc/dcmitype/StillImage" />
        <dc:title></dc:title>
      </cc:Work>
    </rdf:RDF>
  </metadata>
  <g
     transform="translate(0,-1020.3622)"
     id="layer1">
    <text
       id="text4136"
       y="580.93365"
       x="188.57143"
       style="font-style:normal;font-variant:normal;font-weight:normal;font-stretch:normal;font-size:90px;line-height:125%;font-family:'GOG Font';-inkscape-font-specification:'GOG Font';letter-spacing:0px;word-spacing:0px;fill:#000000;fill-opacity:1;stroke:none;stroke-width:1px;stroke-linecap:butt;stroke-linejoin:miter;stroke-opacity:1"
       xml:space="preserve"><tspan
         y="580.93365"
         x="188.57143"
         id="tspan4138" /></text>
    <text
       id="text4140"
       y="243.79077"
       x="-751.42859"
       style="font-style:normal;font-variant:normal;font-weight:normal;font-stretch:normal;font-size:90px;line-height:125%;font-family:'GOG Font';-inkscape-font-specification:'GOG Font';letter-spacing:0px;word-spacing:0px;fill:#000000;fill-opacity:1;stroke:none;stroke-width:1px;stroke-linecap:butt;stroke-linejoin:miter;stroke-opacity:1"
       xml:space="preserve"><tspan
         y="243.79077"
         x="-751.42859"
         id="tspan4142"></tspan><tspan
         id="tspan4144"
         y="356.29077"
         x="-751.42859" /></text>
    <g
       transform="matrix(0.04612504,0,0,0.04612504,-1.4242657,1004.8104)"
       style="fill:#000000"
       id="g4158">
      <g
         id="text4150"
         style="font-style:normal;font-weight:normal;font-size:375.31802368px;line-height:125%;font-family:Sans;letter-spacing:0px;word-spacing:0px;fill:#000000;fill-opacity:1;stroke:none;stroke-width:1px;stroke-linecap:butt;stroke-linejoin:miter;stroke-opacity:1">
        <path
           id="path4373"
           style="font-style:normal;font-variant:normal;font-weight:normal;font-stretch:normal;font-family:'GOG Font';-inkscape-font-specification:'GOG Font';fill:#000000"
           d="m 209.97091,418.79082 q 15.01273,0 25.52163,10.5089 10.5089,10.50891 10.5089,25.52163 l 0,198.54323 q 0,7.50636 -3.00254,13.88677 -2.62723,6.38041 -7.50636,11.25954 -4.87913,5.25445 -11.63486,7.88168 -6.3804,3.00254 -13.88677,3.00254 l -152.003795,0 0,-46.53943 128.358765,0 q 6.00509,0 9.38295,-3.75318 3.75318,-3.75318 3.75318,-9.38295 l 0,-151.25317 q 0,-6.00509 -3.75318,-9.75827 -3.37786,-3.75318 -9.38295,-3.75318 l -68.6832,0 q -6.00509,0 -9.75827,3.75318 -3.75318,3.75318 -3.75318,9.75827 l 0,68.30788 q 0,5.62977 3.75318,9.75827 3.75318,3.75318 9.75827,3.75318 l 54.79643,0 0,46.16412 -78.441465,0 q -15.012721,0 -25.521625,-10.50891 -10.508905,-10.5089 -10.508905,-25.89694 l 0,-115.22263 q 0,-15.01272 10.508905,-25.52163 10.508904,-10.5089 25.521625,-10.5089 l 115.973265,0 0,0 z" />
        <path
           id="path4375"
           style="font-style:normal;font-variant:normal;font-weight:normal;font-stretch:normal;font-family:'GOG Font';-inkscape-font-specification:'GOG Font';fill:#000000"
           d="m 435.74817,418.79082 q 7.13104,0 13.51145,3.00254 6.75572,2.62723 11.63485,7.88168 5.25446,4.87913 7.88168,11.63486 3.00255,6.38041 3.00255,13.51145 l 0,115.22263 q 0,7.50636 -3.00255,14.26209 -2.62722,6.3804 -7.88168,11.63485 -4.87913,4.87914 -11.63485,7.88168 -6.38041,2.62723 -13.51145,2.62723 l -115.59795,0 q -7.50636,0 -14.26209,-2.62723 -6.38041,-3.00254 -11.63486,-7.88168 -4.87913,-5.25445 -7.88168,-11.63485 -2.62722,-6.75573 -2.62722,-14.26209 l 0,-115.22263 q 0,-7.13104 2.62722,-13.51145 3.00255,-6.75573 7.88168,-11.63486 5.25445,-5.25445 11.63486,-7.88168 6.75573,-3.00254 14.26209,-3.00254 l 115.59795,0 z m -10.13359,59.30025 q 0,-5.25446 -4.1285,-9.00764 -3.75318,-4.1285 -9.00763,-4.1285 l -69.43384,0 q -5.25445,0 -9.38295,4.1285 -3.75318,3.75318 -3.75318,9.00764 l 0,69.05851 q 0,5.25445 3.75318,9.38295 4.1285,3.75318 9.38295,3.75318 l 69.43384,0 q 5.25445,0 9.00763,-3.75318 4.1285,-4.1285 4.1285,-9.38295 l 0,-69.05851 z" />
        <path
           id="path4377"
           style="font-style:normal;font-variant:normal;font-weight:normal;font-stretch:normal;font-family:'GOG Font';-inkscape-font-specification:'GOG Font';fill:#000000"
           d="m 661.52542,418.79082 q 15.01272,0 25.52162,10.5089 10.50891,10.50891 10.50891,25.52163 l 0,198.54323 q 0,7.50636 -3.00254,13.88677 -2.62723,6.38041 -7.50637,11.25954 -4.87913,5.25445 -11.63485,7.88168 -6.38041,3.00254 -13.88677,3.00254 l -152.0038,0 0,-46.53943 128.35876,0 q 6.00509,0 9.38295,-3.75318 3.75318,-3.75318 3.75318,-9.38295 l 0,-151.25317 q 0,-6.00509 -3.75318,-9.75827 -3.37786,-3.75318 -9.38295,-3.75318 l -68.68319,0 q -6.00509,0 -9.75827,3.75318 -3.75318,3.75318 -3.75318,9.75827 l 0,68.30788 q 0,5.62977 3.75318,9.75827 3.75318,3.75318 9.75827,3.75318 l 54.79643,0 0,46.16412 -78.44147,0 q -15.01272,0 -25.52163,-10.50891 -10.5089,-10.5089 -10.5089,-25.89694 l 0,-115.22263 q 0,-15.01272 10.5089,-25.52163 10.50891,-10.5089 25.52163,-10.5089 l 115.97327,0 0,0 z" />
      </g>
      <g
         id="text4154"
         style="font-style:normal;font-weight:normal;font-size:375.31802368px;line-height:125%;font-family:Sans;letter-spacing:0px;word-spacing:0px;fill:#000000;fill-opacity:1;stroke:none;stroke-width:1px;stroke-linecap:butt;stroke-linejoin:miter;stroke-opacity:1">
        <path
           id="path4380"
           style="font-style:normal;font-variant:normal;font-weight:normal;font-stretch:normal;font-family:'GOG Font';-inkscape-font-specification:'GOG Font';fill:#000000"
           d="m 209.76273,902.39219 0,46.91476 -118.975812,0 q -6.755725,0 -13.511449,-3.00255 -6.380407,-3.00254 -11.634859,-7.88168 -4.879134,-5.25445 -7.881678,-11.63486 -3.002545,-6.75572 -3.002545,-13.51144 l 0,-115.59796 q 0,-7.88167 3.002545,-14.6374 3.002544,-6.75572 7.881678,-11.25954 5.254452,-4.87913 11.634859,-7.50636 6.755724,-2.62723 13.511449,-2.62723 l 115.597952,0 3.37786,0 0,46.91476 -93.8295,0 q -5.25446,0 -9.75827,3.00254 -4.50382,2.62723 -4.50382,7.88168 l 0,68.6832 q 0,5.25445 4.50382,9.75827 4.50381,4.50381 9.75827,4.50381 l 93.8295,0 z" />
        <path
           id="path4382"
           style="font-style:normal;font-variant:normal;font-weight:normal;font-stretch:normal;font-family:'GOG Font';-inkscape-font-specification:'GOG Font';fill:#000000"
           d="m 399.5505,761.64793 q 7.13104,0 13.51145,3.00255 6.75572,2.62722 11.63486,7.88168 5.25445,4.87913 7.88168,11.63486 3.00254,6.3804 3.00254,13.51144 l 0,115.22264 q 0,7.50636 -3.00254,14.26208 -2.62723,6.38041 -7.88168,11.63486 -4.87914,4.87914 -11.63486,7.88168 -6.38041,2.62723 -13.51145,2.62723 l -115.59795,0 q -7.50636,0 -14.26209,-2.62723 -6.3804,-3.00254 -11.63485,-7.88168 -4.87914,-5.25445 -7.88168,-11.63486 -2.62723,-6.75572 -2.62723,-14.26208 l 0,-115.22264 q 0,-7.13104 2.62723,-13.51144 3.00254,-6.75573 7.88168,-11.63486 5.25445,-5.25446 11.63485,-7.88168 6.75573,-3.00255 14.26209,-3.00255 l 115.59795,0 z m -10.13359,59.30025 q 0,-5.25445 -4.12849,-9.00763 -3.75318,-4.1285 -9.00764,-4.1285 l -69.43383,0 q -5.25445,0 -9.38295,4.1285 -3.75318,3.75318 -3.75318,9.00763 l 0,69.05852 q 0,5.25445 3.75318,9.38295 4.1285,3.75318 9.38295,3.75318 l 69.43383,0 q 5.25446,0 9.00764,-3.75318 4.12849,-4.1285 4.12849,-9.38295 l 0,-69.05852 z" />
        <path
           id="path4384"
           style="font-style:normal;font-variant:normal;font-weight:normal;font-stretch:normal;font-family:'GOG Font';-inkscape-font-specification:'GOG Font';fill:#000000"
           d="m 700.76668,761.64793 0,187.65902 -45.7888,0 0,-141.11958 -31.52672,0 q -5.62977,0 -9.75827,3.75318 -3.75318,3.75318 -3.75318,9.38295 l 0,127.98345 -45.7888,0 0,-141.11958 -31.15139,0 q -5.62977,0 -9.38295,3.75318 -3.75318,3.75318 -3.75318,9.38295 l 0,127.98345 -46.53944,0 0,-151.25317 q 0,-7.50636 2.62723,-13.88676 3.00254,-6.75573 7.88168,-11.63486 5.25445,-5.25446 11.63486,-7.88168 6.3804,-3.00255 13.88676,-3.00255 l 191.4122,0 z" />
      </g>
    </g>
  </g>
</svg>
