<svg height="32" viewBox="0 0 32 32.000001" width="32" xmlns="http://www.w3.org/2000/svg"><g transform="matrix(.05997563 0 0 .05878913 .026095 .036013)"><path d="m533.5 278.4c0-18.5-1.5-37.1-4.7-55.3h-256.7v104.8h147c-6.1 33.8-25.7 63.7-54.4 82.7v68h87.7c51.5-47.4 81.1-117.4 81.1-200.2z" fill="#808080"/><path d="m272.1 544.3c73.4 0 135.3-24.1 180.4-65.7l-87.7-68c-24.4 16.6-55.9 26-92.6 26-71 0-131.2-47.9-152.8-112.3h-90.5v70.1c46.2 91.9 140.3 149.9 243.2 149.9z" fill="#b2b2b2"/><path d="m119.3 324.3c-11.4-33.8-11.4-70.4 0-104.2v-70.1h-90.4c-38.6 76.9-38.6 167.5 0 244.4z" fill="#d0d0d0"/><path d="m272.1 107.7c38.8-.6 76.3 14 104.4 40.8l77.7-77.7c-49.2-46.2-114.5-71.6-182.1-70.8-102.9 0-197 58-243.2 150l90.4 70.1c21.5-64.5 81.8-112.4 152.8-112.4z" fill="#a6a6a6"/></g></svg>