<svg xmlns="http://www.w3.org/2000/svg" height="32" width="32"><g stroke="#222"><path transform="matrix(1.07 0 0 1.073 .82 6.846)" d="M28.804 8.532c0 8.098-6.565 14.663-14.663 14.663-8.098 0-14.663-6.565-14.663-14.663 0-8.098 6.565-14.663 14.663-14.663 8.098 0 14.663 6.565 14.663 14.663z" fill="#fff" stroke-width=".5" stroke-linecap="round" stroke-linejoin="round"/><path d="M8.619 2.264c.58.593.996 1.2 1.119 1.828l.895.784c-.77.597-1.006 1.194-1.269 1.791-.461-.359-.994-.623-1.604-.784 0 0 .672-.97.634-1.231-.037-.261-.933-1.269-.933-1.269-.299.945-.515 1.973-1.119 2.612-.874.657-1.236 1.333-1.418 2.015-.21 1.083.694 1.11 1.38 1.343l.746 1.38.149-1.045c.853-.589.356-1.967.41-3.022l1.045.56.336 1.492 1.119-.933c-.5.678-.097 1.523 1.418 2.574l-2.239 1.007.41.298s1.161-.118 1.194.149c.055.449-1.913.848-2.276.858l-.261 1.157c-.235 1.222-.711 1.924-1.418 2.127.182.487.585 1.555.168 1.52-.235.133-.793-1.374-1.166-1.38l-1.278.121c-.551 1.283-.098 1.794.634 2.089.188-.24.363-.509.672-.485l.298.149s-.261 1.38-.112 1.343c.149-.037.709.373.709.373l1.306.746.373-.56c2.515-.382 3.152.033 3.858 1.435.627 1.244 2.938.739 2.69 2.407-.278.524-.31.583-.331 1.081-.065 1.503-.904 1.61-1.604 1.992-1.156.632-1.48 2.48-2.486 4.165-.509-.115-.771-.696-.496-1.645.583-3.06-.939-4.012-2.34-5.78-.503-.721-.685-1.481 0-2.351l-3.283-2.164c-.848-1.148-2.12-2.172-2.439-3.475-.693-.122-1.368-.262-1.889-.555.604-6.414 4.128-9.937 8.395-12.723z" fill="#222" stroke-width=".25" stroke-linecap="round" stroke-linejoin="round" transform="matrix(.997 0 0 1 -.007 0)"/><path d="M11.661.856c0 .488-.04 1.332-.04 1.332l.554.026.04.277c0 .119-.554.132-.554.211l.053.514.62-.211-.171.726s-.422.092-.422.185c0 .092.171 1.438.171 1.438l1.425 2.322.567-1.345.29-1.227s1.636-1.266 1.57-1.266l1.642-.923c-.066 0-.693-.185-.64-.303.053-.119.145-.818.277-.607.132.211.534.547.534.547l.059-.455s-.594-.317-.514-.475c.079-.158.237-.435.317-.33.079.106.158-.119.158-.119l-.567-.501-.158-.488c-1.861-.085-3.56.234-5.211.673z" fill="#222" stroke-width=".25" stroke-linecap="round" stroke-linejoin="round" transform="matrix(.997 0 0 1 -.007 0)"/><path d="M17.393 4.773l.026.501s.526.699.658.752c.132.053 1.157-.475 1.144-.554-.013-.079-.289-.791-.368-.791-.079 0-1.46.092-1.46.092z" fill="#222"/><path d="M23.982 29.309c-.317-1.055-.765-4.221-.765-4.221s.554-1.372.449-1.741c-.106-.369-.633-1.108-.633-1.108s.633-1.319-.079-1.187c-.712.132-2.48.739-2.48.739-.825-.441-1.399-.913-1.662-1.425-.257-1.353-.311-2.246 1.385-4.498.132-.158 1.834-1.016 1.834-1.016s1.688-.237 1.741-.079c.053.158.501 1.688.791 1.504.29-.185 1.24-.449 1.715-.449.475 0 1.187.343 1.425.132.237-.211.607-1.082.29-1.082s-.976.053-1.557-.317c-.58-.369-.607-.818-.818-.923-.211-.106-.475.369-.422.712.053.343.237 1.055-.422.633-.66-.422-.739.026-.739-.66s.343-.369-.132-1.082c-.475-.712-.158-1.82-1.029-.712-.871 1.108-.422.554-.976 1.266s-1.029 1.557-1.345 1.372c-.317-.185-.976-.185-.66-.897l.317-.739c.449-.396 1.003-.712 1.003-.712s0 .369.026-.237c.026-.607-.026-.686-.026-.686s-.422-.211.026-.343l.554-.158 1.662-2.031s.607-.712.079-1.029c-.528-.317-.739 0-.818-.475-.079-.475-.897.237.026-1.108.923-1.345.976-1.53 1.24-1.926.264-.396.633-.844.633-.844l.633-.739c13.202 12.577 3.764 23.125-1.266 26.066z" fill="#222" stroke-width=".25" stroke-linecap="round" stroke-linejoin="round" transform="matrix(.997 0 0 1 -.007 0)"/><path d="M21.37 7.807c-.145.106-.884.528-.831.607.053.079.317.04.224.317-.092.277-.251.699-.449.791-.198.092-.646.541-.633.686.013.145.739.791.871.58.132-.211.488-1.082.488-1.082s.475-.514.264.145c-.211.66-.317 1.068-.251 1.108.066.04.317.119.567-.092.251-.211.383-.119.409-.356.026-.237.079-.132-.106-.765s-.013-.607-.264-1.055c-.251-.448-.29-.884-.29-.884z" fill="#222" stroke-width=".25" stroke-linecap="round" stroke-linejoin="round" transform="matrix(.997 0 0 1 -.007 0)"/></g></svg>