<svg xmlns="http://www.w3.org/2000/svg" enable-background="new 0 0 56.693 56.693" height="32" viewBox="0 0 32 32" width="32"><g fill="#222"><path d="M26.155 15.242h-20.31c-3.228 0-5.845 2.678-5.845 5.978v4.803c0 3.3 2.617 5.977 5.845 5.977h20.31c3.228 0 5.845-2.677 5.845-5.977v-4.803c0-3.3-2.618-5.978-5.845-5.978zm-16.043 3.739h-1.888v9.592h-1.824v-9.592h-1.887v-1.632h5.599v1.632zm5.334 9.592h-1.618v-.907c-.301.336-.611.592-.934.764-.324.18-.636.264-.94.264-.376 0-.655-.122-.846-.37-.188-.247-.284-.614-.284-1.11v-6.922h1.618v6.352c0 .196.036.337.1.424.07.09.181.131.333.131.117 0 .269-.057.451-.173.183-.117.35-.264.502-.446v-6.289h1.618v8.281zm5.875-1.71c0 .585-.127 1.035-.381 1.348-.252.314-.622.468-1.1.468-.318 0-.602-.059-.848-.18-.247-.12-.48-.305-.692-.561v.634h-1.638v-11.223h1.638v3.615c.219-.25.451-.444.693-.574.247-.133.496-.197.748-.197.512 0 .902.175 1.172.528.271.353.406.87.406 1.548v4.595zm5.613-2.231h-3.096v1.56c0 .435.052.738.158.906.108.169.29.252.549.252.269 0 .455-.071.563-.214.104-.144.16-.458.16-.945v-.377h1.666v.425c0 .848-.202 1.488-.611 1.92-.403.428-1.009.64-1.816.64-.726 0-1.298-.226-1.714-.681-.414-.452-.626-1.08-.626-1.878v-3.719c0-.716.231-1.305.69-1.756.457-.452 1.047-.677 1.771-.677.742 0 1.311.209 1.709.628.397.42.596 1.02.596 1.805v2.111z"/><path d="M24.56 21.536c-.258 0-.442.074-.555.229-.115.145-.168.394-.168.742v.837h1.431v-.837c0-.348-.057-.597-.171-.742-.109-.154-.291-.229-.537-.229z"/><path d="M18.977 21.508c-.115 0-.231.026-.343.08-.114.053-.224.14-.334.253v5.158c.13.133.258.236.384.295.125.057.254.089.391.089.199 0 .344-.059.437-.177.092-.117.139-.305.139-.57v-4.276c0-.281-.055-.492-.17-.637-.119-.143-.287-.215-.505-.215z"/><path d="M10.556 7.236l2.389-7.236h-2.085l-1.27 4.943h-.129l-1.333-4.943h-2.066l2.443 7.467v4.899h2.051z"/><path d="M15.724 12.595c.829 0 1.478-.222 1.952-.666.47-.446.706-1.055.706-1.836v-4.712c0-.694-.241-1.266-.72-1.707-.483-.44-1.101-.661-1.856-.661-.829 0-1.488.209-1.979.628-.489.418-.735.979-.735 1.688v4.728c0 .776.239 1.389.718 1.85.478.458 1.118.688 1.914.688zm-.756-7.335c0-.198.07-.358.206-.484.142-.123.321-.182.544-.182.241 0 .436.059.585.182.148.125.222.285.222.484v4.97c0 .243-.072.437-.219.576-.145.14-.341.209-.587.209-.241 0-.427-.067-.557-.207-.129-.137-.194-.329-.194-.579v-4.969z"/><path d="M21.133 12.499c.343 0 .694-.1 1.056-.292.366-.195.716-.48 1.05-.851v1.011h1.822v-9.122h-1.822v6.924c-.17.198-.358.361-.56.49-.206.128-.376.192-.51.192-.171 0-.297-.048-.371-.147-.075-.095-.117-.251-.117-.466v-6.993h-1.82v7.623c0 .544.107.95.318 1.219.215.273.53.412.953.412z"/></g></svg>