<svg xmlns="http://www.w3.org/2000/svg" version="1" width="32" height="32"><defs><linearGradient x1="112.499" y1="6.137" x2="112.499" y2="129.347" id="a" gradientUnits="userSpaceOnUse" gradientTransform="translate(287 -83)"><stop offset="0" stop-color="#fff" stop-opacity="0"/><stop offset="1" stop-color="#fff" stop-opacity=".275"/><midPointStop offset=".5" stop-color="#fff"/></linearGradient><linearGradient id="b"><stop offset="0" stop-opacity="0"/><stop offset="1" stop-opacity=".371"/></linearGradient></defs><path d="M14.352 1.029C9.895 1.723.716 14.811.624 23.699c-.098 9.501 30.744 10.304 30.744.151C31.69 14.141 22.267 1.76 17.135.935c-.824-.108-1.458-.157-2.783.094z" fill="none" stroke="#222" stroke-width="1.24797"/><path d="M16.363 8.542c-2.839 1.912-5.663 3.894-8.699 4.824-.818.22-1.86 6.939-.911 6.787 3.947-1.058 9.137-7.607 10.256-11.586zM18.706 8.555c-1.57 9.06-4.645 13.36-7.876 17.17-.678.709 6.29 2.47 7.167 1.595.332-.332 4.305-11.345.709-18.765zM21.34 9.922c1.87 4.16 3.04 8.43 2.532 13.371 3.483-4.765 1.86-9.885-2.533-13.37z" fill="#222" fill-rule="evenodd"/></svg>