<?xml version="1.0" encoding="UTF-8" standalone="no"?>
<!-- Created using Karbon, part of Calligra: http://www.calligra.org/karbon -->

<svg
   xmlns:dc="http://purl.org/dc/elements/1.1/"
   xmlns:cc="http://creativecommons.org/ns#"
   xmlns:rdf="http://www.w3.org/1999/02/22-rdf-syntax-ns#"
   xmlns:svg="http://www.w3.org/2000/svg"
   xmlns="http://www.w3.org/2000/svg"
   xmlns:sodipodi="http://sodipodi.sourceforge.net/DTD/sodipodi-0.dtd"
   xmlns:inkscape="http://www.inkscape.org/namespaces/inkscape"
   width="32"
   height="32"
   id="svg2"
   version="1.1"
   inkscape:version="0.48.4 r9939"
   sodipodi:docname="chakr.svg"
   inkscape:export-filename="C:\Users\Julian Richen\Desktop\gol\assets\template\images\distros\chakr.png"
   inkscape:export-xdpi="90"
   inkscape:export-ydpi="90">
  <metadata
     id="metadata19">
    <rdf:RDF>
      <cc:Work
         rdf:about="">
        <dc:format>image/svg+xml</dc:format>
        <dc:type
           rdf:resource="http://purl.org/dc/dcmitype/StillImage" />
        <dc:title></dc:title>
      </cc:Work>
    </rdf:RDF>
  </metadata>
  <sodipodi:namedview
     pagecolor="#ffffff"
     bordercolor="#666666"
     borderopacity="1"
     objecttolerance="10"
     gridtolerance="10"
     guidetolerance="10"
     inkscape:pageopacity="0"
     inkscape:pageshadow="2"
     inkscape:window-width="1920"
     inkscape:window-height="1018"
     id="namedview17"
     showgrid="false"
     inkscape:zoom="10.429825"
     inkscape:cx="30.911473"
     inkscape:cy="12.176144"
     inkscape:window-x="1912"
     inkscape:window-y="-8"
     inkscape:window-maximized="1"
     inkscape:current-layer="svg2" />
  <defs
     id="defs4" />
  <g
     id="g3788"
     transform="translate(-2.05949,-94.70989)">
    <path
       style="fill:#222222;fill-opacity:1"
       inkscape:connector-curvature="0"
       d="m 34.05949,110.70989 c 0,-8.83656 -7.163442,-16 -16,-16 -8.8365578,0 -16.0000002,7.16344 -16,16 -2e-7,8.83656 7.1634422,16 16,16 8.836558,0 16,-7.16344 16,-16 z"
       id="path7797" />
    <path
       style="fill:#ffffff"
       inkscape:connector-curvature="0"
       d="m 33.054176,110.70968 c 0,-8.28133 -6.713349,-14.994674 -14.994687,-14.994674 -8.281339,0 -14.9946875,6.713344 -14.9946873,14.994674 -2e-7,8.28134 6.7133483,14.99468 14.9946873,14.99468 8.281338,0 14.994687,-6.71334 14.994687,-14.99468 z"
       id="path7946" />
    <path
       style="fill:#222222;fill-opacity:1"
       inkscape:connector-curvature="0"
       d="m 32.384484,110.70966 c 0,-7.91145 -6.4135,-14.32495 -14.324957,-14.32495 -7.911457,0 -14.3249568,6.4135 -14.3249566,14.32495 -2e-7,7.91145 6.4134996,14.32495 14.3249566,14.32495 7.911457,0 14.324957,-6.4135 14.324957,-14.32495 z"
       id="path7948" />
    <path
       id="path7811"
       d="m 28.056807,114.27828 c 3.22081,-2.33347 0.778322,-2.2093 0.450384,-5.93822 -0.313095,-3.56127 -10.333819,10.50493 -11.833389,3.11726 0.275598,6.27194 8.131623,5.17659 11.383005,2.82096 z"
       inkscape:connector-curvature="0"
       style="fill:#ffffff;fill-rule:evenodd" />
    <path
       id="path7813"
       d="m 17.249556,121.52962 c 3.214544,2.34203 2.341684,0.0575 5.786787,-1.40668 3.290218,-1.39826 -13.1841068,-6.58187 -6.621429,-10.29096 -5.879832,2.20026 -2.410442,9.3333 0.834642,11.69764 z"
       inkscape:connector-curvature="0"
       style="fill:#ffffff;fill-rule:evenodd" />
    <path
       id="path7815"
       d="m 7.0127537,113.4917 c -1.2340951,3.78092 0.6689352,2.24482 3.1259783,5.06893 2.346586,2.69701 2.185642,-14.5728 7.741211,-9.47748 -3.90957,-4.91214 -9.6213647,0.59167 -10.8671893,4.40855 z"
       inkscape:connector-curvature="0"
       style="fill:#ffffff;fill-rule:evenodd" />
    <path
       id="path7817"
       d="m 11.494511,101.27289 c -3.9772591,-0.005 -1.9282658,1.32989 -3.8548135,4.53935 -1.8399388,3.06518 14.5348805,-2.42455 11.4057035,4.43357 3.463615,-5.23608 -3.535846,-8.96756 -7.55089,-8.97292 z"
       inkscape:connector-curvature="0"
       style="fill:#ffffff;fill-rule:evenodd" />
    <path
       id="path7819"
       d="m 24.499317,101.75833 c -1.22398,-3.784241 -1.860664,-1.42294 -5.508386,-2.263416 -3.483733,-0.802692 6.797416,13.074296 -0.69205,12.217586 6.050164,1.67604 7.436043,-6.13397 6.200436,-9.95417 z"
       inkscape:connector-curvature="0"
       style="fill:#ffffff;fill-rule:evenodd" />
  </g>
</svg>
