<?xml version="1.0" encoding="UTF-8" standalone="no"?>
<!-- Created with Inkscape (http://www.inkscape.org/) -->

<svg
   xmlns:dc="http://purl.org/dc/elements/1.1/"
   xmlns:cc="http://creativecommons.org/ns#"
   xmlns:rdf="http://www.w3.org/1999/02/22-rdf-syntax-ns#"
   xmlns:svg="http://www.w3.org/2000/svg"
   xmlns="http://www.w3.org/2000/svg"
   xmlns:sodipodi="http://sodipodi.sourceforge.net/DTD/sodipodi-0.dtd"
   xmlns:inkscape="http://www.inkscape.org/namespaces/inkscape"
   width="32"
   height="32"
   id="svg2"
   version="1.1"
   inkscape:version="0.48.4 r9939"
   sodipodi:docname="elementary.svg"
   inkscape:export-filename="C:\Users\Julian Richen\Desktop\gol\assets\template\images\distros\elementary.png"
   inkscape:export-xdpi="90"
   inkscape:export-ydpi="90">
  <defs
     id="defs4">
    <inkscape:path-effect
       is_visible="true"
       id="path-effect2991"
       effect="spiro" />
    <inkscape:path-effect
       effect="spiro"
       id="path-effect3177"
       is_visible="true" />
  </defs>
  <sodipodi:namedview
     id="base"
     pagecolor="#ffffff"
     bordercolor="#666666"
     borderopacity="1.0"
     inkscape:pageopacity="0.0"
     inkscape:pageshadow="2"
     inkscape:zoom="3.905"
     inkscape:cx="24.068781"
     inkscape:cy="95.720008"
     inkscape:document-units="px"
     inkscape:current-layer="layer1"
     showgrid="false"
     showguides="true"
     inkscape:guide-bbox="true"
     inkscape:window-width="1920"
     inkscape:window-height="1018"
     inkscape:window-x="1912"
     inkscape:window-y="-8"
     inkscape:window-maximized="1"
     fit-margin-top="4"
     fit-margin-left="4"
     fit-margin-right="4"
     fit-margin-bottom="4" />
  <metadata
     id="metadata7">
    <rdf:RDF>
      <cc:Work
         rdf:about="">
        <dc:format>image/svg+xml</dc:format>
        <dc:type
           rdf:resource="http://purl.org/dc/dcmitype/StillImage" />
        <dc:title></dc:title>
      </cc:Work>
    </rdf:RDF>
  </metadata>
  <g
     inkscape:label="Layer 1"
     inkscape:groupmode="layer"
     id="layer1"
     transform="translate(-96,-924.36218)">
    <path
       style="fill:#222222;fill-opacity:1;stroke:none"
       d="m 112,924.36218 c -8.83656,0 -16,7.16344 -16,16 0,8.83656 7.16344,16 16,16 8.83656,0 16,-7.16344 16,-16 0,-8.83656 -7.16344,-16 -16,-16 z m 0,1.33333 c 6.71826,0 12.38154,4.51726 14.11833,10.68 -1.4959,3.08546 -3.62446,5.86346 -6.21666,8.10834 -1.24527,1.07841 -2.60485,2.03977 -4.10667,2.71666 -1.50182,0.6769 -3.15372,1.06098 -4.79833,0.96667 -1.23564,-0.0709 -2.45624,-0.41506 -3.53834,-1.015 2.86774,-1.55393 5.45525,-3.62578 7.57334,-6.10667 1.39026,-1.6284 2.60664,-3.47903 3.075,-5.56833 0.23417,-1.04465 0.27386,-2.1387 0.055,-3.18667 -0.21886,-1.04796 -0.7034,-2.04663 -1.43667,-2.82666 -0.71636,-0.76205 -1.65678,-1.30185 -2.665,-1.58 -1.00822,-0.27816 -2.08115,-0.29969 -3.11,-0.11167 -2.0577,0.37604 -3.89485,1.57195 -5.36833,3.05667 -2.59723,2.61703 -4.20286,6.30971 -3.90834,9.985 0.14727,1.83764 0.76309,3.64336 1.81834,5.155 0.23554,0.33742 0.4945,0.6588 0.77166,0.96333 -1.53727,0.53801 -3.129,0.92098 -4.74333,1.13667 -1.38602,-2.23961 -2.18667,-4.87933 -2.18667,-7.70667 0,-8.10018 6.56649,-14.66667 14.66667,-14.66667 z m 0.0933,2.96334 c 1.03101,10e-4 2.06902,0.31352 2.89167,0.935 0.74116,0.55992 1.29034,1.3565 1.60167,2.23166 0.31132,0.87517 0.39122,1.82554 0.285,2.74834 -0.21244,1.84559 -1.14349,3.53813 -2.26834,5.01666 -1.99168,2.61792 -4.63903,4.71325 -7.58333,6.18 -0.30137,0.15014 -0.60752,0.29284 -0.915,0.43 -0.64066,-0.56063 -1.18977,-1.22558 -1.60833,-1.96666 -0.8746,-1.54852 -1.16302,-3.38801 -0.99334,-5.15834 0.16969,-1.77032 0.77722,-3.47654 1.59334,-5.05666 0.94625,-1.83209 2.23607,-3.56747 4.04166,-4.56334 0.9028,-0.49793 1.92399,-0.79806 2.955,-0.79666 z m 14.44167,9.74 c 0.0859,0.64226 0.13167,1.29755 0.13167,1.96333 0,8.10018 -6.56649,14.66667 -14.66667,14.66667 -4.54914,0 -8.61481,-2.07094 -11.305,-5.32167 1.66046,-0.37712 3.28336,-0.91882 4.84,-1.60833 0.68073,0.51842 1.43252,0.94362 2.23167,1.25 2.30138,0.88229 4.91423,0.75463 7.24333,-0.0517 2.3291,-0.8063 4.39449,-2.25352 6.195,-3.93667 2.14487,-2.00506 3.95328,-4.36837 5.33,-6.96166 z"
       id="path2993"
       inkscape:connector-curvature="0" />
  </g>
</svg>
