<?xml version="1.0" encoding="UTF-8"?>
<!-- Created with Inkscape (http://www.inkscape.org/) -->
<svg id="svg2" width="32" height="32" version="1.1" xmlns="http://www.w3.org/2000/svg" xmlns:cc="http://creativecommons.org/ns#" xmlns:dc="http://purl.org/dc/elements/1.1/" xmlns:rdf="http://www.w3.org/1999/02/22-rdf-syntax-ns#">
 <metadata id="metadata7">
  <rdf:RDF>
   <cc:Work rdf:about="">
    <dc:format>image/svg+xml</dc:format>
    <dc:type rdf:resource="http://purl.org/dc/dcmitype/StillImage"/>
    <dc:title/>
   </cc:Work>
  </rdf:RDF>
 </metadata>
 <g id="layer1" transform="translate(-96 -924.36)">
  <path id="path2993" d="m112 924.36c-8.8366 0-16 7.1634-16 16s7.1634 16 16 16 16-7.1634 16-16-7.1634-16-16-16zm0 1.3333c6.7183 0 12.382 4.5173 14.118 10.68-1.4959 3.0855-3.6245 5.8635-6.2167 8.1083-1.2453 1.0784-2.6048 2.0398-4.1067 2.7167-1.5018 0.6769-3.1537 1.061-4.7983 0.96667-1.2356-0.0709-2.4562-0.41506-3.5383-1.015 2.8677-1.5539 5.4552-3.6258 7.5733-6.1067 1.3903-1.6284 2.6066-3.479 3.075-5.5683 0.23417-1.0446 0.27386-2.1387 0.055-3.1867-0.21886-1.048-0.7034-2.0466-1.4367-2.8267-0.71636-0.76205-1.6568-1.3018-2.665-1.58-1.0082-0.27816-2.0812-0.29969-3.11-0.11167-2.0577 0.37604-3.8948 1.572-5.3683 3.0567-2.5972 2.617-4.2029 6.3097-3.9083 9.985 0.14727 1.8376 0.76309 3.6434 1.8183 5.155 0.23554 0.33742 0.4945 0.6588 0.77166 0.96333-1.5373 0.53801-3.129 0.92098-4.7433 1.1367-1.386-2.2396-2.1867-4.8793-2.1867-7.7067 0-8.1002 6.5665-14.667 14.667-14.667zm0.0933 2.9633c1.031 1e-3 2.069 0.31352 2.8917 0.935 0.74116 0.55992 1.2903 1.3565 1.6017 2.2317 0.31132 0.87517 0.39122 1.8255 0.285 2.7483-0.21244 1.8456-1.1435 3.5381-2.2683 5.0167-1.9917 2.6179-4.639 4.7132-7.5833 6.18-0.30137 0.15014-0.60752 0.29284-0.915 0.43-0.64066-0.56063-1.1898-1.2256-1.6083-1.9667-0.8746-1.5485-1.163-3.388-0.99334-5.1583 0.16969-1.7703 0.77722-3.4765 1.5933-5.0567 0.94625-1.8321 2.2361-3.5675 4.0417-4.5633 0.9028-0.49793 1.924-0.79806 2.955-0.79666zm14.442 9.74c0.0859 0.64226 0.13167 1.2976 0.13167 1.9633 0 8.1002-6.5665 14.667-14.667 14.667-4.5491 0-8.6148-2.0709-11.305-5.3217 1.6605-0.37712 3.2834-0.91882 4.84-1.6083 0.68073 0.51842 1.4325 0.94362 2.2317 1.25 2.3014 0.88229 4.9142 0.75463 7.2433-0.0517 2.3291-0.8063 4.3945-2.2535 6.195-3.9367 2.1449-2.0051 3.9533-4.3684 5.33-6.9617z" fill="#222"/>
 </g>
</svg>
