<?xml version="1.0" encoding="UTF-8"?>
<svg width="32" height="32" version="1" xmlns="http://www.w3.org/2000/svg">
 <g fill-rule="evenodd">
  <path d="M3.802 6.898c-.198-.118-2.459-1.497-2.707-3.231-.259-1.814 0-2.85 0-2.85s1.992.627 3.239 1.943c.635.67 1.087 1.215 1.409 1.654" fill="#fff" stroke="#222" stroke-width="1.283"/>
  <path d="M7.444 26.989c-2.534-2.93-5.1-6.147-5.862-10.039-.277-3.19-.066-6.604 1.648-9.401 1.174-1.973 2.694-3.904 4.94-4.689 2.955-1.141 6.257-1.277 9.355-.734 4.991 1.012 10.057 4.722 11.844 9.483 1.451 3.907 3.019 7.27-.269 14.473-1.822 3.425-6.334 5.056-8.768 5.251-1.853.157-4.876-.478-6.72-.882-1.714-.21-4.847-2.067-6.169-3.462z" fill="#fff" stroke="#222" stroke-width="1.283"/>
  <path d="M24.082 5.128c.754-.478 2.739-1.384 4.481.871 1.179 1.525.428 2.531-.525 3.137" fill="#fff" stroke="#222" stroke-width="1.283"/>
  <path d="M13.987 1.821c-1.983.008-3.973.321-5.82 1.034-.791.276-1.489.698-2.116 1.21l-.032.12c.907 5.312.647 3.112.906 5.315.259 2.203-.389-3.629 2.461-6.221 2.85-2.591 1.583 2.544 1.583 2.544s.62.434 2.434 1.729c1.814 1.296.521.128.521.128s-.648-3.498 0-4.016c.648-.518 2.333-2.2 3.11-.257.777 1.943-.265 4.016-.265 4.016s3.505 1.812 4.93-2.205c.251-.708.453-1.11.617-1.299-1.527-.847-3.166-1.466-4.794-1.796-1.162-.204-2.345-.309-3.535-.305zm8.81 2.373c.234.84.192 2.71.192 2.71s.003.776 1.299.906-1.445 2.122-1.445 2.122-.629 1.381.796 1.381-.65-.906 2.589-.906 3.524 5.05 3.524 5.05c.399 1.677 1.176 4.924-1.156 8.682-2.332 3.757-4.82 5.3-7.86 5.721-6.445.286-10.181-2.225-10.181-2.225s-2.595-1.162-5.187-3.623c-.174-.165-.356-.244-.545-.257.824 1.126 1.724 2.194 2.621 3.231 1.322 1.396 4.451 3.253 6.165 3.463 1.845.404 4.873 1.039 6.726.882 2.434-.194 7.181-1.826 9.003-5.251 3.288-7.203 1.483-10.562.032-14.47-1.143-3.045-3.626-5.661-6.574-7.415z" fill="#222" stroke="#222" stroke-width=".257"/>
  <path d="m5.759 20.769s0.777-5.701 6.867-5.571 10.365 2.332 10.365 2.332 3.498 2.462 3.369 4.794c-0.13 2.332-2.332 4.276-5.183 4.664-1.788 0.244-10.495-0.648-12.568-1.555s-2.98-3.628-2.85-4.664z" fill="#444" stroke="#222" stroke-width="1.283"/>
  <path d="M11.73 11.073s-2.428-.219-1.684 1.425c.615 1.36 1.296 1.328 1.296 1.328s1.101.356 1.555-1.198c.509-1.746-.745-1.587-1.166-1.555z" fill="#444" stroke="#222" stroke-width="2.052"/>
  <path d="m19.391 9.011s-2.138 0.615-1.976 2.397 1.328 2.721 2.138 2.591 2.267-0.389 2.008-2.332-1.296-2.786-2.17-2.656z" fill="#444" stroke="#222" stroke-width="2.052"/>
  <path d="m21.566 19.7s-1.879-0.162-2.138 1.782c-0.259 1.943 1.198 2.624 1.652 2.591 0.453-0.032 1.879 0.324 2.073-1.911s-1.62-2.559-1.587-2.462z" fill="#222"/>
  <path d="M11.169 18.599s-1.717.292-1.522 1.555c.194 1.263.842 1.555 1.814 1.49.972-.065 1.522-1.458 1.166-2.17-.356-.713-1.425-.907-1.458-.875z" fill="#222"/>
 </g>
</svg>
