<?xml version="1.0" encoding="UTF-8"?>
<svg id="svg2" width="32" height="32" version="1.0" xmlns="http://www.w3.org/2000/svg" xmlns:cc="http://creativecommons.org/ns#" xmlns:dc="http://purl.org/dc/elements/1.1/" xmlns:rdf="http://www.w3.org/1999/02/22-rdf-syntax-ns#" xmlns:xlink="http://www.w3.org/1999/xlink">
 <metadata id="metadata12">
  <rdf:RDF>
   <cc:Work rdf:about="">
    <dc:format>image/svg+xml</dc:format>
    <dc:type rdf:resource="http://purl.org/dc/dcmitype/StillImage"/>
    <dc:title/>
   </cc:Work>
  </rdf:RDF>
 </metadata>
 <g id="g3901">
  <path id="voice" d="m32 16.001c0-8.8367-7.1636-16.001-16-16.001-8.8327 0-15.993 7.1578-16 15.989v12.382c0.0047534 2.0052 1.6311 3.6286 3.6376 3.6286h12.369c8.8337-0.003462 15.994-7.1647 15.994-15.999" fill="#222"/>
  <g id="g3893" fill="#444">
   <path id="free-9" d="m16.689 15.273h-7.4932c-4.1469 0-7.5093 3.3623-7.5093 7.5094 0 0.62917 0.07103 1.0765 0.22327 1.6589 0.22224 0.84924 0.91853 1.5433 1.7284 1.5435 0.97894 0 1.691-0.71059 1.691-1.7728 0-0.50555-0.09707-0.68899-0.09707-1.4296 0-2.1864 1.771-3.9599 3.9574-3.9637h3.4442c0.30861 0 0.55866 0.25079 0.55866 0.55991l4.81e-4 2.6039c0 0.97017 0.77382 1.754 1.7466 1.754 0.97887 5.18e-4 1.7495-0.79189 1.7495-1.7725"/>
   <g id="g3886" transform="matrix(-1 0 0 -1 29.911 34.085)">
    <path id="path3888" d="m16.689 15.273h-7.4932c-4.1469 0-7.5093 3.3623-7.5093 7.5094 0 0.62917 0.07103 1.0765 0.22327 1.6589 0.22224 0.84924 0.91853 1.5433 1.7284 1.5435 0.97894 0 1.691-0.71059 1.691-1.7728 0-0.50555-0.09707-0.68899-0.09707-1.4296 0-2.1864 1.771-3.9599 3.9574-3.9637h3.4442c0.30861 0 0.55866 0.25079 0.55866 0.55991l4.81e-4 2.6039c0 0.97017 0.77382 1.754 1.7466 1.754 0.97887 5.18e-4 1.7495-0.79189 1.7495-1.7725"/>
    <path id="path3890" d="m13.153 28.084-3.9577 2.1876c-4.1469 0-7.5093-3.3623-7.5093-7.5094 0-0.62917 0.07103-1.0765 0.22327-1.6589 0.22224-0.84924 0.91853-1.5433 1.7284-1.5435 0.97894 0 1.691 0.71059 1.691 1.7728 0 0.50555-0.09707 0.68899-0.09707 1.4296 0 2.1864 1.771 3.9599 3.9574 3.9637h3.4442c0.30861 0 0.55866-0.25079 0.55866-0.55991l4.81e-4 -2.6039c0-0.97017 0.77382-1.754 1.7466-1.754 0.97887-5.18e-4 1.7495 0.79189 1.7495 1.7725"/>
   </g>
  </g>
  <g id="g3880">
   <path id="path3878" d="m13.153 28.084-3.9577 2.1876c-4.1469 0-7.5093-3.3623-7.5093-7.5094 0-0.62917 0.07103-1.0765 0.22327-1.6589 0.22224-0.84924 0.91853-1.5433 1.7284-1.5435 0.97894 0 1.691 0.71059 1.691 1.7728 0 0.50555-0.09707 0.68899-0.09707 1.4296 0 2.1864 1.771 3.9599 3.9574 3.9637h3.4442c0.30861 0 0.55866-0.25079 0.55866-0.55991l4.81e-4 -2.6039c0-0.97017 0.77382-1.754 1.7466-1.754 0.97887-5.18e-4 1.7495 0.79189 1.7495 1.7725" fill="#444"/>
  </g>
  <path id="free" d="m16.734 15.282v7.4932c0 4.1469-3.3623 7.5093-7.5094 7.5093-0.62917 0-1.0765-0.07103-1.6589-0.22327-0.84924-0.22224-1.5433-0.91853-1.5435-1.7284 0-0.97894 0.71059-1.691 1.7728-1.691 0.50555 0 0.68899 0.09707 1.4296 0.09707 2.1864 0 3.9599-1.771 3.9637-3.9574v-3.4442c0-0.30861-0.25079-0.55866-0.55991-0.55866l-2.6039-4.81e-4c-0.97016 0-1.754-0.77382-1.754-1.7466-5.168e-4 -0.97887 0.79189-1.7495 1.7725-1.7495" fill="#fff"/>
  <use id="dom" transform="matrix(-1 0 0 -1 29.922 34.078)" width="267" height="267" xlink:href="#free"/>
 </g>
</svg>
