<?xml version="1.0" encoding="UTF-8"?>
<!-- Created with Inkscape (http://www.inkscape.org/) -->
<svg id="svg1" width="32" height="32" version="1.1" xmlns="http://www.w3.org/2000/svg" xmlns:cc="http://creativecommons.org/ns#" xmlns:dc="http://purl.org/dc/elements/1.1/" xmlns:rdf="http://www.w3.org/1999/02/22-rdf-syntax-ns#" xmlns:xlink="http://www.w3.org/1999/xlink">
 <title id="title3153">Gentoo Logo Vector</title>
 <metadata id="metadata4">
  <rdf:RDF>
   <cc:Work rdf:about="">
    <dc:format>image/svg+xml</dc:format>
    <dc:type rdf:resource="http://purl.org/dc/dcmitype/StillImage"/>
    <dc:title>Gentoo Logo Vector</dc:title>
    <dc:creator>
     <cc:Agent>
      <dc:title>Matteo 'Peach' Pescarin</dc:title>
     </cc:Agent>
    </dc:creator>
    <dc:description/>
    <cc:license rdf:resource="http://creativecommons.org/licenses/by-sa/2.5/"/>
    <dc:contributor>
     <cc:Agent>
      <dc:title>Daniel Robbins as creator of the original logo</dc:title>
     </cc:Agent>
    </dc:contributor>
   </cc:Work>
   <cc:License rdf:about="http://creativecommons.org/licenses/by-sa/2.5/">
    <cc:permits rdf:resource="http://creativecommons.org/ns#Reproduction"/>
    <cc:permits rdf:resource="http://creativecommons.org/ns#Distribution"/>
    <cc:requires rdf:resource="http://creativecommons.org/ns#Notice"/>
    <cc:requires rdf:resource="http://creativecommons.org/ns#Attribution"/>
    <cc:permits rdf:resource="http://creativecommons.org/ns#DerivativeWorks"/>
    <cc:requires rdf:resource="http://creativecommons.org/ns#ShareAlike"/>
   </cc:License>
  </rdf:RDF>
 </metadata>
 <g id="layer1" transform="translate(-151.99 -626.28)">
  <g id="g3842" transform="translate(-19.99 32.056)">
   <g id="g3834" transform="matrix(.071582 0 0 .067922 159.67 583.69)" fill-rule="evenodd">
    <path id="path919" d="m352.86 155.09c-36.384 0.10781-65.233 11.183-79.031 18.781-40.545 22.326-70.759 56.575-80.781 77.719-20.594 43.385-18.712 64.412 3.8438 91.688 17.12 20.702 79.625 53.281 79.625 53.281s-53.819 47.23-74.688 67c-20.869 19.77-37.327 48.316-26.344 92.25 10.984 43.934 45.031 59.312 45.031 59.312s44.473 26.37 110.38-2.1875c65.902-28.557 114.78-59.312 114.78-59.312s97.202-66.433 123.56-97.188c26.361-30.754 62.069-60.98 45.594-110.41-16.475-49.426-90.062-115.31-90.062-115.31s-73.361-56.099-126.19-69.844c-16.098-4.1885-31.481-5.8234-45.719-5.7812zm26.875 151.5c2.4844 0 5 0.1875 7.25 0.6875 6.2907 1.3979 15.911 6.6506 21.188 9.7188-2.2483 0.8834-4.918 1.5793-8.0938 2.125-8.1861 1.4067-21.883-3.8654-32.625-11.344 2.762-0.49872 7.459-1.1875 12.281-1.1875z" fill="#222"/>
    <path id="path2165" d="m356.02 164.22c-0.87015 2.6e-4 -1.7271 6e-3 -2.5938 0.0312-55.467 1.6475-91.719 28.562-91.719 28.562-11.533 9.8852-51.633 39.262-60.969 64.25-9.405 25.172-4.9354 45.601 13.188 58.781 18.123 13.18 75.781 37.344 75.781 37.344l28.562 14.281s-20.877 24.716-42.844 43.938c-21.967 19.221-30.444 27.955-53.156 51.156-13.175 13.458-24.457 27.485-27.594 53.75-2.2854 19.139 2.3098 37.452 15.031 48.219s30.226 20.983 65.188 14.281c40.724-7.8069 71.531-24.719 71.531-24.719s92.9-46.982 142.88-84.875c49.975-37.893 100.62-94.625 100.62-94.625s17.535-11.532-1.5625-46.219c-19.543-35.496-76.948-85.971-96.719-100.25-19.462-14.056-80.805-63.923-135.62-63.906zm23.719 142.38c2.4844 0 5 0.1875 7.25 0.6875 6.2907 1.3979 15.911 6.6506 21.188 9.7188-2.2483 0.8834-4.918 1.5793-8.0938 2.125-8.1861 1.4067-21.883-3.8654-32.625-11.344 2.762-0.49872 7.459-1.1875 12.281-1.1875z" fill="#222"/>
    <path id="path2166" d="m367.71 245.53c-20.32 0.54918-39.549 20.324-39 36.25 0.54918 15.926 20.875 32.969 20.875 32.969s31.286 26.884 59.844 24.688c28.557-2.1967 30.75-19.75 30.75-19.75s6.5871-23.078-10.438-41.75c-17.025-18.672-41.712-32.955-62.031-32.406zm12.031 61.062c2.4844 0 5 0.1875 7.25 0.6875 6.2907 1.3979 15.911 6.6506 21.188 9.7188-2.2483 0.8834-4.918 1.5793-8.0938 2.125-8.1861 1.4067-21.883-3.8654-32.625-11.344 2.762-0.49872 7.459-1.1875 12.281-1.1875z" fill="#fff"/>
    <path id="path2167" d="m376.49 265.31c-18.123 0.27458-26.374 8.4378-24.719 23.062 0.72243 6.3815 7.299 13.566 15.688 19.406 2.762-0.49872 7.459-1.1875 12.281-1.1875 2.4844 0 5 0.1875 7.25 0.6875 6.2826 1.3961 15.876 6.649 21.156 9.7188 7e-3 4e-3 0.0245-4e-3 0.0312 0 8.4506-3.3204 10.776-9.1938 10.031-18.75-0.90047-11.553-24.145-33.212-41.719-32.938zm8.25 51.469c1.2803 0.45954 2.5436 0.87374 3.7812 1.2188-1.2438-0.34576-2.4943-0.75712-3.7812-1.2188zm23.188 0.3125c-0.37866 0.14463-0.785 0.27173-1.1875 0.40625 0.40474-0.13519 0.80731-0.26122 1.1875-0.40625zm-7.8438 2.0312c-0.51163 0.0879-1.0411 0.15067-1.5938 0.1875 0.55373-0.0368 1.0812-0.0994 1.5938-0.1875z" fill="#222"/>
    <path id="path2168" d="m187.01 290.02s3.2951 17.574 25.811 33.5c22.516 15.926 64.228 31.939 86.139 44.642 4.1989 2.4342 4.9104 6.049-2.9721 13.06-7.5542 6.7191-12.485 10.972-12.485 10.972s-63.089-34.932-79.841-50.682c-27.077-25.459-16.652-51.491-16.652-51.491z" fill="#fff"/>
    <path id="path2169" d="m181.48 552.22s20.587 37.552 69.233 37.657c39.232 0.0847 76.555-11.629 135.1-41.188 82.889-41.853 146.58-92.164 178.43-120.17 31.852-28.008 49.18-50.484 49.18-50.484s-18.377 42.697-44.738 67.959c-26.361 25.262-91.713 82.926-154.87 117.52-63.156 34.598-106.16 58.396-150.3 56.231-41.876-2.0536-61.685-26.575-70.472-38.108-8.7869-11.533-11.569-29.419-11.569-29.419z" fill="#fff"/>
   </g>
  </g>
 </g>
</svg>
