<?xml version="1.0" encoding="UTF-8" standalone="no"?>
<!-- Created with Inkscape (http://www.inkscape.org/) -->

<svg
   xmlns:dc="http://purl.org/dc/elements/1.1/"
   xmlns:cc="http://creativecommons.org/ns#"
   xmlns:rdf="http://www.w3.org/1999/02/22-rdf-syntax-ns#"
   xmlns:svg="http://www.w3.org/2000/svg"
   xmlns="http://www.w3.org/2000/svg"
   xmlns:xlink="http://www.w3.org/1999/xlink"
   xmlns:sodipodi="http://sodipodi.sourceforge.net/DTD/sodipodi-0.dtd"
   xmlns:inkscape="http://www.inkscape.org/namespaces/inkscape"
   id="svg1"
   sodipodi:version="0.32"
   inkscape:version="0.48.4 r9939"
   width="32"
   height="32"
   sodipodi:docname="Gentoo Logo Vector.svg"
   version="1.1"
   inkscape:export-filename="C:\Users\Julian Richen\Desktop\gol\assets\template\images\distros\gentoo.png"
   inkscape:export-xdpi="90"
   inkscape:export-ydpi="90">
  <title
     id="title3153">Gentoo Logo Vector</title>
  <defs
     id="defs3">
    <linearGradient
       id="linearGradient4036">
      <stop
         style="stop-color:#7b7bdf;stop-opacity:1;"
         offset="0"
         id="stop4038" />
      <stop
         style="stop-color:#a6a6e9;stop-opacity:1;"
         offset="1"
         id="stop4040" />
    </linearGradient>
    <linearGradient
       id="linearGradient3933">
      <stop
         id="stop3935"
         offset="0.0000000"
         style="stop-color:#ffffff;stop-opacity:1.0000000;" />
      <stop
         style="stop-color:#ffffff;stop-opacity:1;"
         offset="0.48660609"
         id="stop3937" />
      <stop
         style="stop-color:#d9d9f6;stop-opacity:1;"
         offset="0.59311914"
         id="stop3939" />
      <stop
         id="stop3941"
         offset="1"
         style="stop-color:#adadeb;stop-opacity:1;" />
    </linearGradient>
    <linearGradient
       id="linearGradient3915">
      <stop
         id="stop3917"
         offset="0.0000000"
         style="stop-color:#ffffff;stop-opacity:1.0000000;" />
      <stop
         id="stop3919"
         offset="1"
         style="stop-color:#ffffff;stop-opacity:0;" />
    </linearGradient>
    <linearGradient
       id="linearGradient4049">
      <stop
         style="stop-color:#000000;stop-opacity:0.45918366;"
         offset="0.0000000"
         id="stop4050" />
      <stop
         style="stop-color:#9999e6;stop-opacity:1.0000000;"
         offset="1.0000000"
         id="stop4051" />
    </linearGradient>
    <linearGradient
       id="linearGradient2797">
      <stop
         style="stop-color:#000000;stop-opacity:1.0000000;"
         offset="0.0000000"
         id="stop2798" />
      <stop
         style="stop-color:#9999e6;stop-opacity:1.0000000;"
         offset="1.0000000"
         id="stop2799" />
    </linearGradient>
    <linearGradient
       id="linearGradient2791">
      <stop
         style="stop-color:#ffffff;stop-opacity:1.0000000;"
         offset="0.0000000"
         id="stop2792" />
      <stop
         id="stop3931"
         offset="0.30357143"
         style="stop-color:#ffffff;stop-opacity:1;" />
      <stop
         id="stop3921"
         offset="0.60714287"
         style="stop-color:#e6e6f9;stop-opacity:1;" />
      <stop
         style="stop-color:#9999e6;stop-opacity:1.0000000;"
         offset="1.0000000"
         id="stop2793" />
    </linearGradient>
    <linearGradient
       id="linearGradient2791-7">
      <stop
         id="stop2792-2"
         offset="0.0000000"
         style="stop-color:#ffffff;stop-opacity:1.0000000;" />
      <stop
         id="stop2793-7"
         offset="1"
         style="stop-color:#c0c0c0;stop-opacity:1;" />
    </linearGradient>
    <linearGradient
       id="linearGradient2797-8">
      <stop
         id="stop2798-7"
         offset="0.0000000"
         style="stop-color:#000000;stop-opacity:1.0000000;" />
      <stop
         id="stop2799-1"
         offset="1"
         style="stop-color:#c0c0c0;stop-opacity:1;" />
    </linearGradient>
    <linearGradient
       id="linearGradient4049-5">
      <stop
         id="stop4050-0"
         offset="0.0000000"
         style="stop-color:#000000;stop-opacity:0.45918366;" />
      <stop
         id="stop4051-4"
         offset="1"
         style="stop-color:#c0c0c0;stop-opacity:1;" />
    </linearGradient>
    <linearGradient
       id="linearGradient2791-5">
      <stop
         id="stop2792-6"
         offset="0.0000000"
         style="stop-color:#ffffff;stop-opacity:1.0000000;" />
      <stop
         id="stop2793-3"
         offset="1"
         style="stop-color:#c0c0c0;stop-opacity:1;" />
    </linearGradient>
    <linearGradient
       id="linearGradient2797-6">
      <stop
         id="stop2798-73"
         offset="0.0000000"
         style="stop-color:#000000;stop-opacity:1.0000000;" />
      <stop
         id="stop2799-6"
         offset="1"
         style="stop-color:#c0c0c0;stop-opacity:1;" />
    </linearGradient>
    <linearGradient
       id="linearGradient4049-59">
      <stop
         id="stop4050-7"
         offset="0.0000000"
         style="stop-color:#000000;stop-opacity:0.45918366;" />
      <stop
         id="stop4051-7"
         offset="1"
         style="stop-color:#c0c0c0;stop-opacity:1;" />
    </linearGradient>
    <radialGradient
       inkscape:collect="always"
       xlink:href="#linearGradient3933"
       id="radialGradient3135"
       cx="240.19441"
       cy="350.79166"
       fx="240.19441"
       fy="350.79166"
       r="303.34283"
       gradientTransform="matrix(0.69099478,1.0116748,-0.81542574,0.5569526,374.42974,-116.469)"
       gradientUnits="userSpaceOnUse" />
    <radialGradient
       inkscape:collect="always"
       xlink:href="#linearGradient2791"
       id="radialGradient3137"
       cx="402.91513"
       cy="273.53452"
       fx="402.91516"
       fy="273.53452"
       r="77.791382"
       gradientTransform="scale(1.0948953,0.91332936)"
       gradientUnits="userSpaceOnUse" />
    <radialGradient
       inkscape:collect="always"
       xlink:href="#linearGradient2797"
       id="radialGradient3139"
       cx="363.3147"
       cy="343.67725"
       fx="362.55896"
       fy="342.73846"
       r="35.682201"
       gradientTransform="scale(1.1116231,0.89958546)"
       gradientUnits="userSpaceOnUse" />
    <filter
       inkscape:collect="always"
       id="filter3951"
       color-interpolation-filters="sRGB">
      <feGaussianBlur
         inkscape:collect="always"
         stdDeviation="1.3094535"
         id="feGaussianBlur3953" />
    </filter>
    <linearGradient
       inkscape:collect="always"
       xlink:href="#linearGradient4036"
       id="linearGradient4042"
       x1="354.16965"
       y1="83.331688"
       x2="314.37476"
       y2="322.3338"
       gradientUnits="userSpaceOnUse" />
    <radialGradient
       inkscape:collect="always"
       xlink:href="#linearGradient2797"
       id="radialGradient4049"
       gradientUnits="userSpaceOnUse"
       gradientTransform="matrix(1.5036118,-0.05644673,0.04112021,1.0953482,-156.89173,-46.745246)"
       cx="364.28299"
       cy="340.96454"
       fx="364.28299"
       fy="340.96454"
       r="35.682201" />
    <linearGradient
       inkscape:collect="always"
       xlink:href="#linearGradient3915"
       id="linearGradient3046"
       gradientUnits="userSpaceOnUse"
       gradientTransform="matrix(1.2005549,0,0,0.83294815,-20.80541,8.921608)"
       x1="508.15967"
       y1="428.62717"
       x2="271.03165"
       y2="659.76666" />
    <linearGradient
       inkscape:collect="always"
       xlink:href="#linearGradient4049"
       id="linearGradient3049"
       gradientUnits="userSpaceOnUse"
       gradientTransform="matrix(1.3482945,0,0,0.74167773,-20.80541,8.921608)"
       x1="188.64751"
       y1="785.09644"
       x2="450.44757"
       y2="519.51471" />
  </defs>
  <sodipodi:namedview
     id="base"
     pagecolor="#ffffff"
     bordercolor="#666666"
     borderopacity="1.0"
     inkscape:pageopacity="0"
     inkscape:pageshadow="2"
     inkscape:zoom="11.313708"
     inkscape:cx="20.003425"
     inkscape:cy="25.939999"
     inkscape:window-width="1920"
     inkscape:window-height="1018"
     inkscape:window-x="1912"
     inkscape:window-y="-8"
     showgrid="false"
     fit-margin-top="10"
     fit-margin-left="10"
     fit-margin-right="10"
     fit-margin-bottom="10"
     inkscape:window-maximized="1"
     inkscape:current-layer="layer1" />
  <metadata
     id="metadata4">
    <rdf:RDF>
      <cc:Work
         rdf:about="">
        <dc:format>image/svg+xml</dc:format>
        <dc:type
           rdf:resource="http://purl.org/dc/dcmitype/StillImage" />
        <dc:title>Gentoo Logo Vector</dc:title>
        <dc:creator>
          <cc:Agent>
            <dc:title>Matteo 'Peach' Pescarin</dc:title>
          </cc:Agent>
        </dc:creator>
        <dc:description />
        <cc:license
           rdf:resource="http://creativecommons.org/licenses/by-sa/2.5/" />
        <dc:contributor>
          <cc:Agent>
            <dc:title>Daniel Robbins as creator of the original logo</dc:title>
          </cc:Agent>
        </dc:contributor>
      </cc:Work>
      <cc:License
         rdf:about="http://creativecommons.org/licenses/by-sa/2.5/">
        <cc:permits
           rdf:resource="http://creativecommons.org/ns#Reproduction" />
        <cc:permits
           rdf:resource="http://creativecommons.org/ns#Distribution" />
        <cc:requires
           rdf:resource="http://creativecommons.org/ns#Notice" />
        <cc:requires
           rdf:resource="http://creativecommons.org/ns#Attribution" />
        <cc:permits
           rdf:resource="http://creativecommons.org/ns#DerivativeWorks" />
        <cc:requires
           rdf:resource="http://creativecommons.org/ns#ShareAlike" />
      </cc:License>
    </rdf:RDF>
  </metadata>
  <g
     inkscape:groupmode="layer"
     id="layer1"
     inkscape:label="Logo"
     transform="translate(-151.98946,-626.27679)">
    <g
       id="g3842"
       transform="translate(-19.990155,32.055541)">
      <g
         transform="matrix(0.07158217,0,0,0.06792184,159.66894,583.68715)"
         id="g3834">
        <path
           inkscape:connector-curvature="0"
           id="path919"
           d="m 352.86446,155.09228 c -36.38436,0.10781 -65.23292,11.18342 -79.03125,18.78125 -40.54515,22.32559 -70.75872,56.57532 -80.78125,77.71875 -20.59426,43.38522 -18.71212,64.41241 3.84375,91.6875 17.11978,20.70165 79.625,53.28125 79.625,53.28125 0,0 -53.81866,47.22952 -74.6875,67 -20.86883,19.77048 -37.32736,48.31561 -26.34375,92.25 10.98359,43.93438 45.03125,59.3125 45.03125,59.3125 0,0 44.47342,26.36986 110.375,-2.1875 65.90159,-28.55735 114.78125,-59.3125 114.78125,-59.3125 0,0 97.20187,-66.43343 123.5625,-97.1875 26.36064,-30.75408 62.06914,-60.98007 45.59375,-110.40625 -16.4754,-49.4262 -90.0625,-115.3125 -90.0625,-115.3125 0,0 -73.36088,-56.09916 -126.1875,-69.84375 -16.09833,-4.18852 -31.48139,-5.82344 -45.71875,-5.78125 z m 26.875,151.5 c 2.48438,0 5,0.1875 7.25,0.6875 6.29066,1.39792 15.91113,6.65064 21.1875,9.71875 -2.24834,0.8834 -4.91795,1.57926 -8.09375,2.125 -8.18606,1.40672 -21.88308,-3.8654 -32.625,-11.34375 2.76198,-0.49872 7.45896,-1.1875 12.28125,-1.1875 z"
           style="fill:#222222;fill-opacity:1;fill-rule:evenodd;stroke:none" />
        <path
           inkscape:connector-curvature="0"
           id="path2165"
           d="m 356.02071,164.21728 c -0.87015,2.6e-4 -1.72708,0.006 -2.59375,0.0312 -55.46717,1.64754 -91.71875,28.5625 -91.71875,28.5625 -11.53279,9.88523 -51.63269,39.26231 -60.96875,64.25 -9.40505,25.17235 -4.93544,45.60093 13.1875,58.78125 18.12294,13.18033 75.78125,37.34375 75.78125,37.34375 l 28.5625,14.28125 c 0,0 -20.87656,24.71621 -42.84375,43.9375 -21.96719,19.2213 -30.44395,27.95542 -53.15625,51.15625 -13.17508,13.45848 -24.45743,27.48457 -27.59375,53.75 -2.28539,19.13924 2.30981,37.45189 15.03125,48.21875 12.72144,10.76686 30.22588,20.98342 65.1875,14.28125 40.72427,-7.80687 71.53125,-24.71875 71.53125,-24.71875 0,0 92.89963,-46.98158 142.875,-84.875 49.97538,-37.89341 100.625,-94.625 100.625,-94.625 0,0 17.53538,-11.53163 -1.5625,-46.21875 -19.54322,-35.49598 -76.94828,-85.97133 -96.71875,-100.25 -19.46158,-14.0556 -80.80526,-63.92277 -135.625,-63.90625 z m 23.71875,142.375 c 2.48438,0 5,0.1875 7.25,0.6875 6.29066,1.39792 15.91113,6.65064 21.1875,9.71875 -2.24834,0.8834 -4.91795,1.57926 -8.09375,2.125 -8.18606,1.40672 -21.88308,-3.8654 -32.625,-11.34375 2.76198,-0.49872 7.45896,-1.1875 12.28125,-1.1875 z"
           style="fill:#222222;fill-opacity:1;fill-rule:evenodd;stroke:none" />
        <path
           inkscape:connector-curvature="0"
           id="path2166"
           d="m 367.70821,245.52978 c -20.31966,0.54918 -39.54918,20.32379 -39,36.25 0.54918,15.92622 20.875,32.96875 20.875,32.96875 0,0 31.2864,26.88422 59.84375,24.6875 28.55736,-2.19672 30.75,-19.75 30.75,-19.75 0,0 6.58709,-23.07788 -10.4375,-41.75 -17.02457,-18.6721 -41.7116,-32.95543 -62.03125,-32.40625 z m 12.03125,61.0625 c 2.48438,0 5,0.1875 7.25,0.6875 6.29066,1.39792 15.91113,6.65064 21.1875,9.71875 -2.24834,0.8834 -4.91795,1.57926 -8.09375,2.125 -8.18606,1.40672 -21.88308,-3.8654 -32.625,-11.34375 2.76198,-0.49872 7.45896,-1.1875 12.28125,-1.1875 z"
           style="fill:#ffffff;fill-opacity:1;fill-rule:evenodd;stroke:none" />
        <path
           inkscape:connector-curvature="0"
           id="path2167"
           d="m 376.48946,265.31103 c -18.12294,0.27458 -26.37437,8.4378 -24.71875,23.0625 0.72243,6.38149 7.29895,13.56628 15.6875,19.40625 2.76198,-0.49872 7.45896,-1.1875 12.28125,-1.1875 2.48438,0 5,0.1875 7.25,0.6875 6.28265,1.39614 15.87556,6.649 21.15625,9.71875 0.007,0.004 0.0245,-0.004 0.0312,0 8.45065,-3.32036 10.77611,-9.19378 10.03125,-18.75 -0.90047,-11.55277 -24.145,-33.21209 -41.71875,-32.9375 z m 8.25,51.46875 c 1.28033,0.45954 2.54356,0.87374 3.78125,1.21875 -1.24375,-0.34576 -2.49431,-0.75712 -3.78125,-1.21875 z m 23.1875,0.3125 c -0.37866,0.14463 -0.785,0.27173 -1.1875,0.40625 0.40474,-0.13519 0.80731,-0.26122 1.1875,-0.40625 z m -7.84375,2.03125 c -0.51163,0.0879 -1.04113,0.15067 -1.59375,0.1875 0.55373,-0.0368 1.08124,-0.0994 1.59375,-0.1875 z"
           style="fill:#222222;fill-opacity:1;fill-rule:evenodd;stroke:none" />
        <path
           inkscape:connector-curvature="0"
           sodipodi:nodetypes="ccsscsc"
           id="path2168"
           d="m 187.01284,290.02147 c 0,0 3.29507,17.57377 25.81146,33.49998 22.51638,15.92622 64.22753,31.93931 86.13869,44.64151 4.19889,2.43415 4.91042,6.04898 -2.97209,13.06009 -7.55417,6.71907 -12.48494,10.97187 -12.48494,10.97187 0,0 -63.08933,-34.93175 -79.84094,-50.68249 -27.07688,-25.45908 -16.65218,-51.49096 -16.65218,-51.49096 z"
           style="fill:#ffffff;fill-opacity:1;fill-rule:evenodd;stroke:none" />
        <path
           inkscape:connector-curvature="0"
           sodipodi:nodetypes="cssccccscc"
           id="path2169"
           d="m 181.48443,552.2169 c 0,0 20.58737,37.55172 69.23327,37.65681 39.23215,0.0847 76.55506,-11.62851 135.09824,-41.1885 82.88906,-41.85287 146.58187,-92.16386 178.4343,-120.17204 31.85243,-28.00817 49.18028,-50.48357 49.18028,-50.48357 0,0 -18.37703,42.6967 -44.73767,67.95898 -26.36063,25.26227 -91.71304,82.92616 -154.86873,117.52449 -63.15569,34.59834 -106.15746,58.39556 -150.29852,56.23083 -41.87578,-2.05364 -61.6849,-26.57512 -70.47178,-38.10789 -8.78687,-11.53278 -11.56939,-29.41911 -11.56939,-29.41911 z"
           style="fill:#ffffff;fill-opacity:1;fill-rule:evenodd;stroke:none" />
      </g>
    </g>
  </g>
</svg>
