<svg xmlns="http://www.w3.org/2000/svg" version="1" width="32" height="32"><defs><linearGradient x1="112.499" y1="6.137" x2="112.499" y2="129.347" gradientUnits="userSpaceOnUse" gradientTransform="translate(287 -83)"><stop offset="0" stop-color="#fff" stop-opacity="0"/><stop offset="1" stop-color="#fff" stop-opacity=".275"/></linearGradient><linearGradient><stop offset="0" stop-opacity="0"/><stop offset="1" stop-opacity=".371"/></linearGradient></defs><path d="M139.067 4.567c-4.457.694-13.636 13.782-13.728 22.67-.098 9.501 30.744 10.304 30.744.151.322-9.709-9.101-22.09-14.233-22.915-.824-.108-1.458-.157-2.783.094z" stroke="#222" stroke-width="1.248" fill="none"/><path d="M141.078 12.08c-2.839 1.912-5.663 3.894-8.699 4.824-.818.22-1.86 6.939-.911 6.787 3.947-1.058 9.137-7.607 10.256-11.586zm2.343.013c-1.57 9.06-4.645 13.36-7.876 17.17-.678.709 6.29 2.47 7.167 1.595.332-.332 4.305-11.345.709-18.765zm2.634 1.367c1.87 4.16 3.04 8.43 2.532 13.371 3.483-4.765 1.86-9.885-2.533-13.37z" fill="#222" fill-rule="evenodd"/><path style="paint-order:stroke markers fill" d="M31.493 10.48c.023 5.505-4.462 9.967-9.967 9.967-5.504 0-9.967-4.462-9.967-9.967 0-5.505 4.463-10.023 9.967-9.967l9.924-.012z" stroke="#222" stroke-linecap="square" fill="none"/><path d="M.507 21.52c-.023-5.505 4.462-9.967 9.967-9.967 5.504 0 9.967 4.462 9.967 9.967 0 5.505-4.463 10.023-9.967 9.967l-9.924.013z" style="paint-order:stroke markers fill" stroke="#222" stroke-linecap="square" fill="none"/></svg>