<?xml version="1.0" encoding="UTF-8" standalone="no"?>
<svg
   xmlns:dc="http://purl.org/dc/elements/1.1/"
   xmlns:cc="http://creativecommons.org/ns#"
   xmlns:rdf="http://www.w3.org/1999/02/22-rdf-syntax-ns#"
   xmlns:svg="http://www.w3.org/2000/svg"
   xmlns="http://www.w3.org/2000/svg"
   xmlns:sodipodi="http://sodipodi.sourceforge.net/DTD/sodipodi-0.dtd"
   xmlns:inkscape="http://www.inkscape.org/namespaces/inkscape"
   version="1.1"
   width="32"
   height="32"
   xml:space="preserve"
   id="svg2"
   inkscape:version="0.48.4 r9939"
   sodipodi:docname="kubuntu.svg"
   inkscape:export-filename="C:\Users\Julian Richen\Desktop\gol\assets\template\images\distros\kubuntu.png"
   inkscape:export-xdpi="90"
   inkscape:export-ydpi="90"><metadata
     id="metadata18"><rdf:RDF><cc:Work
         rdf:about=""><dc:format>image/svg+xml</dc:format><dc:type
           rdf:resource="http://purl.org/dc/dcmitype/StillImage" /><dc:title></dc:title></cc:Work></rdf:RDF></metadata><defs
     id="defs16" /><sodipodi:namedview
     pagecolor="#ffffff"
     bordercolor="#666666"
     borderopacity="1"
     objecttolerance="10"
     gridtolerance="10"
     guidetolerance="10"
     inkscape:pageopacity="0"
     inkscape:pageshadow="2"
     inkscape:window-width="1920"
     inkscape:window-height="1018"
     id="namedview14"
     showgrid="false"
     inkscape:zoom="2.36"
     inkscape:cx="-16.101695"
     inkscape:cy="50"
     inkscape:window-x="1912"
     inkscape:window-y="-8"
     inkscape:window-maximized="1"
     inkscape:current-layer="svg2" /><g
     id="g3763"
     transform="translate(0,-68)"><path
       inkscape:connector-curvature="0"
       style="fill:#222222;fill-opacity:1"
       id="path4"
       d="M 31.989011,83.982669 C 32.088205,90.275241 28.0308,96.343763 22.216677,98.725082 16.50495,101.19922 9.4108883,99.925343 4.9535008,95.565993 0.43883622,91.369879 -1.2090852,84.456372 0.89865429,78.666311 2.936637,72.665003 8.8285158,68.242855 15.167413,68.00514 c 6.162907,-0.398199 12.319413,3.174739 15.071281,8.695942 1.151946,2.240489 1.753517,4.759438 1.750317,7.281587 z" /><path
       style="fill:#ffffff"
       inkscape:connector-curvature="0"
       id="path6"
       d="m 10.751624,89.699115 c 0.179192,-3.933657 0.361583,-7.864114 0.543974,-11.797771 -1.206342,-1.097839 -2.4126848,-2.195678 -3.6158271,-3.293518 -0.5695728,0.05761 -0.8959575,0.77777 -1.3599354,1.117044 -0.5247747,0.361679 -0.83516,0.883392 -0.2847862,1.389102 0.540774,0.892995 1.0847481,1.78599 1.6255225,2.678984 -0.5823725,0.82258 -0.524775,2.179675 -1.7983142,2.077253 -0.9055568,0.220848 -1.8591114,0.32327 -2.7374695,0.620935 -0.078716,0.857787 -0.081276,1.773186 0,2.630974 1.1663444,0.393685 2.4078852,0.604931 3.6046279,0.928202 0.099196,1.091438 1.3599353,2.093256 0.3071856,2.999053 -0.486377,0.800175 -1.0943479,1.549138 -1.5039283,2.38452 0.5503737,0.662544 1.193543,1.309085 1.8591113,1.862806 0.6751677,-0.467302 1.171144,-1.251473 1.7759152,-1.843602 0.5279747,-0.585728 1.0559492,-1.168255 1.5871242,-1.753982 z" /><path
       style="fill:#ffffff"
       inkscape:connector-curvature="0"
       id="path8"
       d="m 13.497093,76.637068 c 3.369439,2.06445 6.735679,4.132101 10.105118,6.196551 1.580725,-0.345675 3.161449,-0.694552 4.742174,-1.040227 0.246388,-0.515312 -0.195191,-1.168254 -0.246388,-1.741179 -0.0352,-0.633738 -0.319985,-1.171456 -1.036751,-0.96341 -1.04635,0 -2.0895,0 -3.13585,0 -0.399981,-0.928202 -1.587125,-1.584345 -0.84156,-2.61497 0.281586,-0.892995 0.694367,-1.760383 0.895957,-2.66298 -0.694367,-0.515313 -1.47193,-0.992217 -2.249493,-1.369899 -0.940755,0.790572 -1.766315,1.74118 -2.662273,2.595766 -0.985552,-0.480105 -2.49588,0.07682 -2.72307,-1.293082 -0.431979,-0.832181 -0.755164,-1.74118 -1.25434,-2.52535 -0.851159,0.124827 -1.740717,0.339274 -2.556678,0.620935 0.0384,0.979413 0.399981,1.978031 0.566373,2.963846 0.131194,0.611333 0.265587,1.225867 0.396781,1.8372 z" /><path
       style="fill:#ffffff"
       inkscape:connector-curvature="0"
       id="path10"
       d="m 23.40382,85.618226 c -3.398237,1.866006 -6.796475,3.728812 -10.194713,5.591618 -0.41278,1.555539 -0.822361,3.111078 -1.235141,4.669818 0.332784,0.464101 1.119947,0.387284 1.644721,0.620935 0.575973,0.272059 1.183944,0.281661 1.347136,-0.448098 0.502376,-0.915399 1.004752,-1.830799 1.507128,-2.746198 1.004752,0.09282 2.153498,-0.633738 2.700671,0.521714 0.64317,0.672146 1.206343,1.453116 1.903909,2.061249 0.780763,-0.358478 1.574326,-0.812977 2.278292,-1.309086 -0.239989,-1.206662 -0.675168,-2.390921 -0.991953,-3.587981 0.892757,-0.630538 1.132746,-2.221284 2.441484,-1.763585 0.937555,0.03201 1.89111,0.172838 2.819065,0.115225 0.297586,-0.809776 0.537575,-1.689968 0.684767,-2.541353 -0.742364,-0.358478 -1.66712,-0.403288 -2.479881,-0.64014 -0.809561,-0.179239 -1.619123,-0.361679 -2.425485,-0.544118 z" /><path
       inkscape:connector-curvature="0"
       style="fill:#222222;fill-opacity:1"
       id="path12"
       d="m 23.714206,83.982669 c 0.09279,3.911252 -3.225446,7.492833 -7.12926,7.700878 -3.894214,0.393686 -7.7180318,-2.643776 -8.2268075,-6.523021 -0.671968,-3.792827 1.9583065,-7.774494 5.7021275,-8.657887 3.711823,-1.043427 7.935622,1.181058 9.183562,4.826652 0.310385,0.848185 0.470378,1.750782 0.470378,2.653378 z" /></g></svg>