<?xml version="1.0" encoding="UTF-8"?>
<!-- Created with Inkscape (http://www.inkscape.org/) -->
<svg id="svg9247" width="32" height="32" version="1.1" xmlns="http://www.w3.org/2000/svg" xmlns:cc="http://creativecommons.org/ns#" xmlns:dc="http://purl.org/dc/elements/1.1/" xmlns:rdf="http://www.w3.org/1999/02/22-rdf-syntax-ns#">
 <metadata id="metadata9252">
  <rdf:RDF>
   <cc:Work rdf:about="">
    <dc:format>image/svg+xml</dc:format>
    <dc:type rdf:resource="http://purl.org/dc/dcmitype/StillImage"/>
    <dc:title/>
   </cc:Work>
  </rdf:RDF>
 </metadata>
 <g id="g5423" transform="matrix(.14959 0 0 .14959 -12.903 -76.947)" fill="#444">
  <path id="path3042-0-6-4" d="m177.89 597.13h-0.01c-6.6729 0-12.107-5.4267-12.114-12.095-0.01-6.6905 5.4251-12.125 12.104-12.132 6.683 0 12.116 5.4267 12.124 12.095 0 6.6905-5.4251 12.126-12.104 12.133z"/>
  <path id="path3056-6-4-1" d="m210.61 588.24c-6.2309 0-11.302-5.0662-11.307-11.292-0.01-6.242 5.0612-11.316 11.296-11.321 6.2392 0 11.311 5.0651 11.317 11.291 0 6.242-5.0622 11.316-11.296 11.323h-0.01z"/>
  <path id="path4104" transform="matrix(1.4422 0 0 1.4422 215.72 578.6)" d="m-10-15.701a7 7 0 1 1-14 0 7 7 0 1 1 14 0z"/>
  <path id="path4106" transform="matrix(.80761 0 0 .80761 140.73 552.34)" d="m94-16.522a11.5 11.5 0 1 1-23 0 11.5 11.5 0 1 1 23 0z"/>
  <path id="path4132" transform="matrix(.76915 0 0 .76915 187.19 551.3)" d="m11-37.522a10.5 10.5 0 1 1-21 0 10.5 10.5 0 1 1 21 0z"/>
 </g>
 <path id="path3347-1" d="m8.6588 14.013c-1.5633 2.0263-2.8312 4.3055-2.8312 7.0665 0 5.9847 4.5415 10.92 10.172 10.92 5.6308 0 10.172-4.9356 10.172-10.92 0-2.7616-1.2699-4.9683-2.9216-7.0665-0.61936-0.64993-1.5135-0.5533-2.1645-0.13741-1.9048 0.98561-2.933 1.3794-5.0863 1.3698-2.0827-0.0093-3.1769-0.34946-5.0818-1.3878-0.65095-0.3978-1.6401-0.49444-2.2595 0.15549zm1.3575 1.6811c1.9744 1.0917 3.7352 1.6455 5.9838 1.6455 2.2504 0 4.0084-0.55388 5.9838-1.6455 1.0779 1.5199 2.0943 3.4045 2.0943 5.3854 0 4.9069-3.6165 8.8261-8.0781 8.8261-4.4618 0-8.2277-3.9192-8.2277-8.8261 0-1.9783 1.1637-3.8644 2.2439-5.3854z" color="#000000" fill="#222" style="block-progression:tb;text-indent:0;text-transform:none"/>
</svg>
