<?xml version="1.0" encoding="UTF-8"?>
<!-- Created with Inkscape (http://www.inkscape.org/) -->
<svg id="svg2619" width="32" height="32" version="1.0" xmlns="http://www.w3.org/2000/svg" xmlns:cc="http://creativecommons.org/ns#" xmlns:dc="http://purl.org/dc/elements/1.1/" xmlns:rdf="http://www.w3.org/1999/02/22-rdf-syntax-ns#" xmlns:xlink="http://www.w3.org/1999/xlink">
 <metadata id="metadata71">
  <rdf:RDF>
   <cc:Work rdf:about="">
    <dc:format>image/svg+xml</dc:format>
    <dc:type rdf:resource="http://purl.org/dc/dcmitype/StillImage"/>
    <dc:title>Linux Mint Official Logo</dc:title>
   </cc:Work>
  </rdf:RDF>
 </metadata>
 <title id="title3079">Linux Mint Official Logo</title>
 <defs id="defs2621">
  <filter id="filter3291" color-interpolation-filters="sRGB">
   <feGaussianBlur id="feGaussianBlur3293" stdDeviation="0.400625"/>
  </filter>
  <filter id="filter3546" color-interpolation-filters="sRGB">
   <feGaussianBlur id="feGaussianBlur3548" stdDeviation="0.15992437"/>
  </filter>
  <filter id="filter3469" color-interpolation-filters="sRGB">
   <feGaussianBlur id="feGaussianBlur3471" stdDeviation="2.7119931"/>
  </filter>
  <linearGradient id="linearGradient3933" x1="70.492" x2="113.64" y1="416.39" y2="375.88" gradientTransform="translate(0,80)" gradientUnits="userSpaceOnUse">
   <stop id="stop3433" stop-color="#3d3d3d" offset="0"/>
   <stop id="stop3435" stop-opacity=".11401" offset="1"/>
  </linearGradient>
 </defs>
 <text id="text2972" transform="scale(1.1483 .87082)" x="326.29156" y="646.8938" fill="#ffffff" font-family="Skia" font-size="19.756px" style="line-height:100%" xml:space="preserve"><tspan id="tspan2976" x="326.29156" y="646.8938">freedom for the masses</tspan></text>
 <g id="g3926" transform="matrix(.10895 0 0 .10895 -2.8741 -.051197)">
  <path id="path3543" transform="matrix(2.5653 0 0 2.5653 -688.07 -1031.7)" d="m331.79 510.93c-21.29 0-39.766-16.14-39.766-37.411l-0.0191-21.992v-6.586h-13.498v-36.651l56.92 0.26806 17.806 0.0383c21.309 0 39.766 16.121 39.766 37.411v64.923h-61.209z" fill="#222" fill-rule="evenodd"/>
  <path id="path3419" transform="matrix(2.579 0 0 2.579 -79.463 -1044.9)" d="m142.94 500.53c-10.752-7.4094-18.367-15.92-24.781-27.188-12.644-23.358-9.6879-34.953-41-37.688-9.0363 0-15.051-2-24.562-2v3.3125c1e-6 1e-5 3.7587 1.9075 7.0625 1.9075 4.9267 1e-5 5.7812 3.4176 5.7812 8.125l0.03125 29.155c-3e-6 15.138 13.295 27.406 29.656 27.406h40.375c2.9636 0 5.6257-1.1679 7.4375-3.0312z" fill="url(#linearGradient3933)" filter="url(#filter3291)"/>
  <path id="path2620" transform="matrix(2.579 0 0 2.579 -79.463 -1044.9)" d="m105.52 438.54c-3.8367 0-7.2457 1.4244-9.9848 4.1914-2.7377 2.7655-4.1752 6.218-4.1752 10.114v19.695h8.933v-19.695c0-1.4934 0.48728-2.6611 1.5536-3.7382 1.0698-1.0806 2.2026-1.5697 3.6735-1.5697 1.5018 0 2.6176 0.4867 3.6897 1.5697 1.0663 1.0771 1.5536 2.2448 1.5536 3.7382v19.695h8.933v-19.695c0-1.4934 0.48728-2.6611 1.5536-3.7382 1.0721-1.083 2.1879-1.5697 3.6897-1.5697 1.4709 0 2.6037 0.48916 3.6735 1.5697 1.0663 1.0771 1.5536 2.2448 1.5536 3.7382l0.0486 23.012c0 4.9089-4.6749 9.0462-10.681 9.0462l-28.806-0.11326c-4.6347 0-8.5931-4.5112-8.5931-10.309v-43.335h-8.4475v45.002c0 4.7747 1.7472 8.9618 5.1462 12.348 2.9052 2.8676 6.3991 4.5644 10.325 4.9843v0.16191h32.074c4.9287 0 9.2588-1.8326 12.752-5.389h0.0162c2.971-3.0524 4.7079-6.71 5.13-10.826l-0.0324-24.582c0-3.8962-1.4374-7.3487-4.1752-10.114-2.7391-2.767-6.1481-4.1914-9.9848-4.1914-3.766 0-7.0613 1.4004-9.7259 3.9648-2.6568-2.5601-5.9291-3.9648-9.6936-3.9648z" fill-opacity=".080402" fill-rule="evenodd" filter="url(#filter3546)"/>
  <path id="path4130" d="m190.83 86.722c-9.8948 0-18.687 3.6736-25.751 10.81-7.0606 7.1321-10.768 16.036-10.768 26.084v50.792h23.038v-50.792c0-3.8514 1.2567-6.8629 4.0066-9.6407 2.7589-2.7867 5.6805-4.0483 9.474-4.0483 3.873 0 6.7507 1.2552 9.5156 4.0483 2.7499 2.7778 4.0066 5.7893 4.0066 9.6407v50.792h23.038v-50.792c0-3.8514 1.2567-6.8629 4.0066-9.6407 2.7649-2.793 5.6426-4.0483 9.5157-4.0483 3.7935 0 6.715 1.2616 9.4739 4.0483 2.7499 2.7778 4.0066 5.7893 4.0066 9.6407l0.1252 59.348c0 12.66-12.056 23.33-27.545 23.33l-74.289-0.29208c-11.953 0-22.162-11.634-22.162-26.586v-111.76h-21.786v116.06c0 12.314 4.506 23.112 13.272 31.844 7.4924 7.3955 16.503 12.189 26.627 13.272l82.72-2e-4c12.711 0 23.878-4.7264 32.887-13.898h0.0418c7.6622-7.8722 12.142-17.305 13.23-27.921l-0.0834-63.396c0-10.048-3.7071-18.952-10.768-26.084-7.064-7.1359-15.856-10.81-25.751-10.81-9.7126 0-18.211 3.6117-25.083 10.225-6.8519-6.6026-15.291-10.225-25-10.225z" fill="#fff" fill-rule="evenodd"/>
  <path id="path6141" d="m164.72 274.89c-52.367 0-97.811-39.699-97.811-92.019l-0.04698-63.528v-16.2h-33.2v-80.717l140.01 0.65934 43.796 0.09421c52.414 0 97.811 39.652 97.811 92.019v159.69h-150.56zm129.22-42.837v-116.85c0-39.04-34.236-70.686-76.478-70.686h-43.843v-0.09421l-118.58-0.51813v37.91h13.283c9.0182 0 19.87 8.4748 19.87 20.911l0.09421 80.103c0 39.04 34.236 70.686 76.431 70.686h104.18c13.356 0 25.043-8.4582 25.043-21.457z" fill="#fff" fill-rule="evenodd"/>
 </g>
 <text id="text2311" transform="scale(1.1483 .87082)" x="321.44916" y="678.8222" fill="#ffffff" font-family="Skia" font-size="19.756px" font-weight="bold" style="line-height:100%" xml:space="preserve"><tspan id="tspan2313" x="321.44916" y="678.8222">from freedom came elegance</tspan></text>
</svg>
