<?xml version="1.0" encoding="UTF-8"?>
<svg width="32" height="32" version="1" xmlns="http://www.w3.org/2000/svg">
 <g transform="matrix(.31492 0 0 .31492 101.58 -42.507)">
  <circle cx="-271.74" cy="185.78" r="50.807" fill="#222"/>
  <g fill-rule="evenodd">
   <path d="m-297.88 142.29a50.807 50.807 0 0 0-3.283 2.166l25.859 90.772 14.217-37.182 37.672 3.402a50.807 50.807 0 0 0 0.787-2.8l-75.252-56.358z" fill="#666" opacity=".385"/>
   <path d="M-279.899 135.658a50.807 50.807 0 0 0-3.931.836l-12.258 93.867a50.807 50.807 0 0 0 .83.403l26.748-26.856 34.463 15.88a50.807 50.807 0 0 0 1.746-2.009l-47.598-82.12z" fill="#333" opacity=".6"/>
   <path d="m-242.62 144.16-78.705 52.317a50.807 50.807 0 0 0 0.47 2.091l34.024 1.164 8.508 36.37a50.807 50.807 0 0 0 3.114 0.31l35.2-90.265a50.807 50.807 0 0 0-2.61-1.987z" fill="#4d4d4d" opacity=".615"/>
   <path d="m-229.53 157.53-92.257 20.012a50.807 50.807 0 0 0-0.303 2.006l30.43 12.656-5.67 37.389a50.807 50.807 0 0 0 2.505 1.375l66.643-71.283a50.807 50.807 0 0 0-1.348-2.155z" fill="#1a1a1a" opacity=".7"/>
  </g>
  <g fill-rule="evenodd">
   <path d="M-245.575 161.064l-76.32 16.553a50.807 50.807 0 0 0-.34 2.246l35.593 16.201 11.07 40.307a50.807 50.807 0 0 0 .54.027l29.457-75.334z" fill="#fff"/>
   <path d="m-274.13 218.38-7.416-27.007 26.961-22.979z" fill="#222"/>
   <path d="m-281.54 191.38-25.49-11.602 52.451-11.377z" fill="#3c3c3c"/>
  </g>
 </g>
</svg>
