<?xml version="1.0" encoding="UTF-8"?>
<!-- Generator: Adobe Illustrator 15.0.0, SVG Export Plug-In . SVG Version: 6.00 Build 0)  -->
<svg id="svg4578" width="32" height="32" enable-background="new 72.8 75.424 248.4 157.156" version="1.1" viewBox="72.8 75.424 32 32" xml:space="preserve" xmlns="http://www.w3.org/2000/svg" xmlns:cc="http://creativecommons.org/ns#" xmlns:dc="http://purl.org/dc/elements/1.1/" xmlns:rdf="http://www.w3.org/1999/02/22-rdf-syntax-ns#"><metadata id="metadata40"><rdf:RDF><cc:Work rdf:about=""><dc:format>image/svg+xml</dc:format><dc:type rdf:resource="http://purl.org/dc/dcmitype/StillImage"/><dc:title/></cc:Work></rdf:RDF></metadata>

<g id="layer1" transform="translate(0 -125.16)">
	<path id="path12" d="m101.47 210.67c1.0511 0.0369 1.8754 0.9226 1.8397 1.9723-0.0191 0.50845-0.23222 0.97864-0.60413 1.3258-0.37177 0.34853-0.85562 0.52895-1.3668 0.51118-1.0497-0.0383-1.8724-0.92259-1.8382-1.9723 0.01777-0.50846 0.23085-0.98001 0.60413-1.3272 0.37164-0.34717 0.85685-0.52758 1.3653-0.50982zm1.3408 1.9327c0.0246-0.74764-0.56053-1.3764-1.308-1.4023-0.36207-0.0137-0.70664 0.11481-0.97043 0.3622-0.26394 0.24603-0.41838 0.58089-0.42932 0.9431-0.0246 0.74764 0.56053 1.3764 1.3068 1.4037 0.36357 0.0109 0.708-0.11754 0.97317-0.36357 0.26379-0.24739 0.41687-0.58226 0.42781-0.9431z" fill="#fff"/><path id="path14" d="m101.5 211.2c0.74765 0.026 1.3326 0.6547 1.308 1.4023-0.0109 0.36084-0.16402 0.69571-0.42781 0.9431-0.26517 0.24603-0.6096 0.37451-0.97317 0.36357-0.74628-0.0273-1.3313-0.65607-1.3068-1.4037 0.0109-0.36221 0.16538-0.69707 0.42932-0.9431 0.26379-0.24739 0.60823-0.37587 0.97043-0.3622zm0.82282 1.0811c0-0.22279-0.2694-0.40184-0.6014-0.40184-0.33199 0-0.60003 0.17905-0.60003 0.40184 0 0.22006 0.2679 0.40048 0.60003 0.40048 0.33214 0 0.6014-0.18042 0.6014-0.40048z" fill="#222"/><path id="path16" d="m101.73 211.88c0.33214 0 0.6014 0.17905 0.6014 0.40184 0 0.22006-0.2694 0.40048-0.6014 0.40048-0.33199 0-0.60003-0.18042-0.60003-0.40048 0-0.22279 0.2679-0.40184 0.60003-0.40184z" fill="#fff"/><path id="path24" d="m104.51 215.22 0.13955-0.026c0.0381 0.0301 0.0327 0.0916 0.0204 0.14625-0.0258 0.12711-0.0875 0.35811-0.12985 0.46745l-0.0355 0.0902c-0.0491 0.13395-0.0984 0.26106-0.19272 0.3376-0.25955 0.23646-0.67506 0.42508-1.3257 0.70938-1.006 0.44011-2.6366 0.71757-4.151 0.708-0.54276-0.0123-1.0676-0.0724-1.5282-0.12438-1.4104-0.16128-2.43-0.27609-2.642 1.006-0.2679 1.6074 1.2439 3.5592 1.259 3.5768l-0.0015 0.0534-0.04907 0.0123s-2.4097-1.1098-2.4686-1.1426l-0.07654-0.0545-0.06151-0.0589c-0.18179-0.17481-0.54672-0.56708-1.2875-1.4256-1.4365-1.6607-3.1177-1.8794-4.4134-1.5636-0.31573 0.0752-0.71758 0.30617-0.97864 0.56586-0.67657 0.667-0.60003 2.0106-0.56176 2.4999 0.0451 0.55355 0.07381 0.59456 0.08611 0.63966l-0.0082 0.056-0.04784 5e-3 -0.02734-0.0191-1.9764-0.96633-0.07517-0.32257c-0.05057-0.21322-0.10934-0.44968-0.22142-0.74628-0.70664-1.863-2.2949-3.2639-4.0444-3.566-1.1823-0.20366-3.3377-0.22689-4.479 1.9272-0.47702 0.89936-0.44831 2.0707 0.07517 3.0576 0.53306 1.0102 1.4857 1.6579 2.6133 1.7823 1.118 0.12178 1.9586-0.13668 2.4302-0.74764 0.47565-0.61643 0.56449-1.4556 0.22689-2.1391-0.3622-0.73384-0.90893-1.1235-1.6689-1.1876-0.57816-0.0519-1.0073 0.18862-1.1618 0.43465-0.04511 0.0767-0.12711 0.21882-0.12848 0.42097v7e-3c0 0.55082 0.50435 0.70117 0.60686 0.70814 0.03144 0 0.18315-4e-3 0.38407-0.0547l0.09704-0.0313 0.06697-0.0234 0.04921-9e-3c0.3663-0.067 0.71894 0.14899 0.82145 0.50572 0.01777 0.0655 0.02734 0.13122 0.02734 0.19669 0 0.23646-0.12028 0.45651-0.31983 0.59046l0.0082-3e-3 -0.02187 0.0123-0.0328 0.0205c-0.10524 0.067-0.20229 0.10388-0.3048 0.13532-0.28703 0.0942-0.54126 0.13804-0.79685 0.13804-0.87202-1e-3 -2.0871-0.75174-2.1035-2.1609-0.0082-0.79548 0.39091-1.5199 1.0934-1.986 0.80915-0.53443 2.2074-0.71621 3.5045 0.0793 1.5964 0.97727 2.0133 2.8907 1.5964 4.1961-0.6055 1.8903-2.3085 2.9004-4.5569 2.6994-1.5923-0.14214-3.0712-0.98273-3.9514-2.2484-0.39091-0.56053-0.68067-1.185-0.83649-1.8083-0.35947-1.4256 0.0041-2.94 0.27473-3.6111 0.86109-2.1336 2.5095-3.9692 4.8945-5.4577l0.15035-0.0943c5.0736-3.1178 8.6642-2.9921 11.293-2.9005 3.1001 0.10797 6.4062 1.1768 6.8628 1.3285 0.0015-0.10252 0.01927-1.0265 0.01927-1.0265l0.01367-0.0314 0.03554-0.01c0.20789 0.0287 4.6622 0.69024 6.539 1.7837 0.23222 0.13668 0.34703 0.27883 0.49068 0.42645 0.51802 0.53579 1.2042 2.7678 1.2766 3.2284l-0.0273 0.0465c-0.0273 0.01-0.0916 0.0574-0.17768 0.11482-0.43738 0.30616-1.4611 1.0224-2.7733 0.90482-1.1796-0.10387-2.7199-0.78044-4.5774-2.0037 0.08214 0.19272 0.46882 1.1085 0.53442 1.2629l0.0246 0.0301c0.2694 0.13942 2.8499 1.4543 4.1306 1.4283 1.0329-0.0205 2.1359-0.52486 2.5774-0.79002zm-1.2001-2.5737c0.0357-1.0497-0.78865-1.9354-1.8397-1.9723-0.50846-0.0178-0.99367 0.16265-1.3653 0.50982-0.37314 0.34717-0.58636 0.81872-0.60413 1.3272-0.03417 1.0497 0.78865 1.934 1.8382 1.9723 0.51119 0.0178 0.99504-0.16265 1.3668-0.51118 0.37177-0.34717 0.585-0.81736 0.60413-1.3258z" fill="#222"/>
</g>
</svg>
