<?xml version="1.0" encoding="UTF-8" standalone="no"?>
<!-- Generator: Adobe Illustrator 15.0.0, SVG Export Plug-In . SVG Version: 6.00 Build 0)  -->

<svg
   xmlns:dc="http://purl.org/dc/elements/1.1/"
   xmlns:cc="http://creativecommons.org/ns#"
   xmlns:rdf="http://www.w3.org/1999/02/22-rdf-syntax-ns#"
   xmlns:svg="http://www.w3.org/2000/svg"
   xmlns="http://www.w3.org/2000/svg"
   xmlns:sodipodi="http://sodipodi.sourceforge.net/DTD/sodipodi-0.dtd"
   xmlns:inkscape="http://www.inkscape.org/namespaces/inkscape"
   version="1.1"
   id="svg4578"
   sodipodi:version="0.32"
   inkscape:version="0.48.4 r9939"
   sodipodi:docname="opensuse.svg"
   inkscape:output_extension="org.inkscape.output.svg.inkscape"
   x="0px"
   y="0px"
   width="32"
   height="32"
   viewBox="72.8 75.424 32.000001 31.999999"
   enable-background="new 72.8 75.424 248.4 157.156"
   xml:space="preserve"
   inkscape:export-filename="C:\Users\Julian Richen\Desktop\gol\assets\template\images\distros\opensuse.png"
   inkscape:export-xdpi="90"
   inkscape:export-ydpi="90"><metadata
   id="metadata40"><rdf:RDF><cc:Work
       rdf:about=""><dc:format>image/svg+xml</dc:format><dc:type
         rdf:resource="http://purl.org/dc/dcmitype/StillImage" /><dc:title></dc:title></cc:Work></rdf:RDF></metadata><defs
   id="defs38">
		
		
	
		
			
			
			
			
			
			
			
			
			
			
			
			
			
			
		</defs>
<sodipodi:namedview
   inkscape:window-y="-8"
   inkscape:window-x="1912"
   inkscape:window-height="1018"
   inkscape:window-width="1920"
   inkscape:showpageshadow="true"
   inkscape:current-layer="layer1"
   inkscape:document-units="px"
   inkscape:pageshadow="2"
   inkscape:pageopacity="0.0"
   width="400px"
   height="300px"
   id="base"
   objecttolerance="10"
   guidetolerance="10"
   gridtolerance="10000"
   borderopacity="1"
   inkscape:cy="18.440736"
   bordercolor="#d6d6d6"
   inkscape:cx="20.48982"
   pagecolor="#ffffff"
   inkscape:zoom="11.313708"
   borderlayer="false"
   showgrid="false"
   inkscape:window-maximized="1">
	</sodipodi:namedview>
<g
   id="layer1"
   inkscape:groupmode="layer"
   inkscape:label="Layer 1"
   transform="translate(0,-125.15601)">
	<path
   d="m 101.47155,210.67135 c 1.05107,0.0369 1.8754,0.9226 1.83972,1.97231 -0.0191,0.50845 -0.23222,0.97864 -0.60413,1.32581 -0.37177,0.34853 -0.85562,0.52895 -1.36681,0.51118 -1.04971,-0.0383 -1.872389,-0.92259 -1.838219,-1.9723 0.01777,-0.50846 0.230854,-0.98001 0.604129,-1.32718 0.37164,-0.34717 0.85685,-0.52758 1.36531,-0.50982 z m 1.34084,1.93267 c 0.0246,-0.74764 -0.56053,-1.37637 -1.30804,-1.40234 -0.36207,-0.0137 -0.70664,0.11481 -0.97043,0.3622 -0.26394,0.24603 -0.41838,0.58089 -0.42932,0.9431 -0.0246,0.74764 0.56053,1.37638 1.30681,1.40371 0.36357,0.0109 0.708,-0.11754 0.97317,-0.36357 0.26379,-0.24739 0.41687,-0.58226 0.42781,-0.9431 z"
   id="path12"
   inkscape:connector-curvature="0"
   style="fill:#ffffff" /><path
   d="m 101.50435,211.20168 c 0.74765,0.026 1.33264,0.6547 1.30804,1.40234 -0.0109,0.36084 -0.16402,0.69571 -0.42781,0.9431 -0.26517,0.24603 -0.6096,0.37451 -0.97317,0.36357 -0.74628,-0.0273 -1.33128,-0.65607 -1.30681,-1.40371 0.0109,-0.36221 0.16538,-0.69707 0.42932,-0.9431 0.26379,-0.24739 0.60823,-0.37587 0.97043,-0.3622 z m 0.82282,1.08114 c 0,-0.22279 -0.2694,-0.40184 -0.6014,-0.40184 -0.33199,0 -0.60003,0.17905 -0.60003,0.40184 0,0.22006 0.2679,0.40048 0.60003,0.40048 0.33214,0 0.6014,-0.18042 0.6014,-0.40048 z"
   id="path14"
   inkscape:connector-curvature="0"
   style="fill:#222222;fill-opacity:1" /><path
   d="m 101.72577,211.88098 c 0.33214,0 0.6014,0.17905 0.6014,0.40184 0,0.22006 -0.2694,0.40048 -0.6014,0.40048 -0.33199,0 -0.60003,-0.18042 -0.60003,-0.40048 0,-0.22279 0.2679,-0.40184 0.60003,-0.40184 z"
   id="path16"
   inkscape:connector-curvature="0"
   style="fill:#ffffff" /><path
   d="m 104.51133,215.21736 0.13955,-0.026 c 0.0381,0.0301 0.0327,0.0916 0.0204,0.14625 -0.0258,0.12711 -0.0875,0.35811 -0.12985,0.46745 l -0.0355,0.0902 c -0.0491,0.13395 -0.0984,0.26106 -0.19272,0.3376 -0.25955,0.23646 -0.67506,0.42508 -1.32566,0.70938 -1.00598,0.44011 -2.63658,0.71757 -4.151005,0.708 -0.54276,-0.0123 -1.067615,-0.0724 -1.52823,-0.12438 -1.41041,-0.16128 -2.43005,-0.27609 -2.642042,1.00598 -0.267895,1.60736 1.243933,3.55917 1.258968,3.5768 l -0.0015,0.0534 -0.04907,0.0123 c 0,0 -2.409685,-1.10985 -2.468594,-1.14265 l -0.07654,-0.0545 -0.06151,-0.0589 c -0.181786,-0.17481 -0.546724,-0.56708 -1.287535,-1.42558 -1.436516,-1.66067 -3.117692,-1.87936 -4.413427,-1.56363 -0.315733,0.0752 -0.717575,0.30617 -0.978636,0.56586 -0.67657,0.667 -0.600029,2.01058 -0.561758,2.4999 0.0451,0.55355 0.07381,0.59456 0.08611,0.63966 l -0.0082,0.056 -0.04784,0.005 -0.02734,-0.0191 -1.976406,-0.96633 -0.07517,-0.32257 c -0.05057,-0.21322 -0.109344,-0.44968 -0.221423,-0.74628 -0.70664,-1.86296 -2.294873,-3.26394 -4.044389,-3.566 -1.18229,-0.20366 -3.337748,-0.22689 -4.479034,1.9272 -0.477017,0.89936 -0.448314,2.07072 0.07517,3.05755 0.533056,1.01021 1.485722,1.65794 2.61334,1.78232 1.11805,0.12178 1.958638,-0.13668 2.430187,-0.74764 0.47565,-0.61643 0.564492,-1.45565 0.22689,-2.13906 -0.362204,-0.73384 -0.908928,-1.12352 -1.668874,-1.18762 -0.57816,-0.0519 -1.007338,0.18862 -1.161788,0.43465 -0.04511,0.0767 -0.127113,0.21882 -0.12848,0.42097 v 0.007 c 0,0.55082 0.504353,0.70117 0.606863,0.70814 0.03144,0 0.183153,-0.004 0.384074,-0.0547 l 0.09704,-0.0313 0.06697,-0.0234 0.04921,-0.009 c 0.366305,-0.067 0.718942,0.14899 0.821453,0.50572 0.01777,0.0655 0.02734,0.13122 0.02734,0.19669 0,0.23646 -0.120279,0.45651 -0.319834,0.59046 l 0.0082,-0.003 -0.02187,0.0123 -0.0328,0.0205 c -0.105244,0.067 -0.202288,0.10388 -0.304799,0.13532 -0.28703,0.0942 -0.541256,0.13804 -0.796849,0.13804 -0.872025,-0.001 -2.087118,-0.75174 -2.10352,-2.16092 -0.0082,-0.79548 0.390907,-1.51989 1.093447,-1.98597 0.809152,-0.53443 2.207398,-0.71621 3.5045,0.0793 1.596433,0.97727 2.01331,2.89067 1.596433,4.1961 -0.605497,1.8903 -2.308541,2.90037 -4.556942,2.69945 -1.592333,-0.14214 -3.071221,-0.98273 -3.951446,-2.2484 -0.390908,-0.56053 -0.680672,-1.18502 -0.836488,-1.80829 -0.359471,-1.42558 0.0041,-2.94 0.274729,-3.61111 0.86109,-2.13359 2.509462,-3.96921 4.894544,-5.45767 l 0.150349,-0.0943 c 5.073597,-3.11783 8.664205,-2.99208 11.29258,-2.9005 3.10006,0.10797 6.406235,1.17682 6.86275,1.32854 0.0015,-0.10252 0.01927,-1.02648 0.01927,-1.02648 l 0.01367,-0.0314 0.03554,-0.01 c 0.207891,0.0287 4.662186,0.69024 6.538956,1.78368 0.23222,0.13668 0.34703,0.27883 0.49068,0.42645 0.51802,0.53579 1.20416,2.76779 1.2766,3.2284 l -0.0273,0.0465 c -0.0273,0.01 -0.0916,0.0574 -0.17768,0.11482 -0.43738,0.30616 -1.46112,1.02237 -2.77326,0.90482 -1.17955,-0.10387 -2.719947,-0.78044 -4.577441,-2.00374 0.08214,0.19272 0.468815,1.10848 0.534422,1.26293 l 0.0246,0.0301 c 0.269398,0.13942 2.849936,1.45429 4.130636,1.42832 1.0329,-0.0205 2.13591,-0.52486 2.57739,-0.79002 z m -1.20006,-2.5737 c 0.0357,-1.04971 -0.78865,-1.9354 -1.83972,-1.97231 -0.50846,-0.0178 -0.99367,0.16265 -1.36531,0.50982 -0.373138,0.34717 -0.58636,0.81872 -0.604129,1.32718 -0.03417,1.04971 0.788649,1.93403 1.838219,1.9723 0.51119,0.0178 0.99504,-0.16265 1.36681,-0.51118 0.37177,-0.34717 0.585,-0.81736 0.60413,-1.32581 z"
   id="path24"
   inkscape:connector-curvature="0"
   style="fill:#222222;fill-opacity:1" />
</g>
</svg>