<svg height="32" viewBox="0 0 8.4666664 8.4666669" width="32" xmlns="http://www.w3.org/2000/svg" xmlns:xlink="http://www.w3.org/1999/xlink"><filter id="a" color-interpolation-filters="sRGB"><feColorMatrix values="0.21 0.72 0.072 -2.99 0 0.21 0.72 0.072 -2.99 0 0.21 0.72 0.072 -2.99 0 0 0 0 1 0"/></filter><path d="m33.149397 237.46873c-14.604548 0-26.4330102 11.85577-26.4330102 26.46712 0 14.61138 11.8284622 26.44955 26.4330102 26.44955 11.208 0 20.7826-6.98574 24.63209-16.83462-3.7851 4.54681-9.47285 7.44038-15.84968 7.44038-11.396218 0-20.640082-9.2215-20.640082-20.62306 0-11.40155 9.243864-20.6566 20.640082-20.6566.71918 0 1.42322.0299 2.12338.10178-3.32542-1.50833-7.016854-2.34455-10.90579-2.34455zm9.05423 5.63996c-9.509641 0-17.208254 7.71621-17.208254 17.22584 0 9.50965 7.698613 17.20823 17.208254 17.20823 9.50964 0 17.22582-7.69858 17.22582-17.20823 0-9.50963-7.71618-17.22584-17.22582-17.22584zm0 3.82252c7.39841 0 13.40332 6.00491 13.40332 13.40332s-6.00491 13.38625-13.40332 13.38625c-7.398415 0-13.386263-5.98784-13.386263-13.38625s5.987848-13.40332 13.386263-13.40332z" fill="#2080bb" filter="url(#a)" transform="matrix(.13384833 0 0 .13384833 -.168832 -31.06734)"/></svg>