<svg xmlns="http://www.w3.org/2000/svg" version="1" width="32" height="32"><defs><linearGradient id="a"><stop offset="0" stop-color="#bde9ff"/><stop offset=".2" stop-color="#1c7dbd"/><stop offset=".304" stop-color="#1e5ba1"/><stop offset=".538" stop-color="#262e36"/><stop offset=".734" stop-color="#186d99"/><stop offset="1" stop-color="#0071bf"/></linearGradient><linearGradient gradientTransform="translate(287 -83)" gradientUnits="userSpaceOnUse" id="b" y2="129.347" x2="112.499" y1="6.137" x1="112.499"><stop offset="0" stop-color="#fff" stop-opacity="0"/><stop offset="1" stop-color="#fff" stop-opacity=".275"/><midPointStop offset=".5" stop-color="#fff"/></linearGradient><linearGradient id="c"><stop offset="0" stop-opacity="0"/><stop offset="1" stop-opacity=".371"/></linearGradient></defs><g fill="#222"><path d="M4.218 10.512H8.59c1.3 0 2.297.311 2.99.933.699.616 1.048 1.497 1.048 2.643 0 1.15-.349 2.036-1.047 2.657-.694.617-1.69.925-2.99.925h-1.74v3.803H4.219v-10.96m2.635 2.048v3.06H8.31c.51 0 .905-.131 1.184-.396.278-.269.417-.648.417-1.137 0-.49-.14-.867-.417-1.131-.279-.264-.673-.396-1.184-.396H6.853m14.917 8.31c-.484.27-.988.472-1.513.61a6.475 6.475 0 0 1-1.642.205c-1.702 0-3.05-.51-4.045-1.527-.995-1.023-1.492-2.408-1.492-4.155 0-1.752.497-3.138 1.492-4.156.995-1.022 2.343-1.534 4.045-1.534.57 0 1.118.069 1.642.206.525.137 1.03.34 1.513.609v2.269a5.61 5.61 0 0 0-1.444-.786 4.497 4.497 0 0 0-1.499-.25c-.94 0-1.68.323-2.217.97-.539.645-.808 1.536-.808 2.672 0 1.13.27 2.019.808 2.665.538.646 1.277.969 2.217.969.525 0 1.024-.084 1.499-.25a5.609 5.609 0 0 0 1.444-.785v2.268m1.048-10.357h2.635v8.825h4.626v2.136h-7.261v-10.96" style="line-height:125%;text-align:start;marker:none" font-weight="700" font-size="49.006" font-family="Bitstream Vera Sans" overflow="visible" fill-rule="evenodd"/><path d="M16 0A16 16 0 0 0 0 16a16 16 0 0 0 16 16 16 16 0 0 0 16-16A16 16 0 0 0 16 0zm-.03 3.01A13.032 13.032 0 0 1 29.002 16.04 13.032 13.032 0 0 1 15.97 29.074 13.032 13.032 0 0 1 2.938 16.04 13.032 13.032 0 0 1 15.97 3.01z"/></g></svg>