<?xml version="1.0" encoding="UTF-8"?>
<svg width="32" height="32" version="1" xmlns="http://www.w3.org/2000/svg">
 <g fill="#222">
  <path d="M16 0a16 16 0 0 0-16 16 16 16 0 0 0 16 16 16 16 0 0 0 16-16 16 16 0 0 0-16-16zm0 .85a15.15 15.15 0 0 1 15.15 15.15 15.15 15.15 0 0 1-15.15 15.15 15.15 15.15 0 0 1-15.15-15.15 15.15 15.15 0 0 1 15.15-15.15z" style="paint-order:stroke markers fill"/>
  <path d="M9.322 29.654c.21-2.713-.01-4.031 1.759-6.582.193.707.42 1.114.886 1.797-.25-2.494-.182-4.17 1.063-5.722.229.734.59 1.154.962 1.443.332-1.805.919-2.984 2.017-4.594-.908 2.384-.29 4.787.578 6.417-.734-.21-1.39-.611-1.797-.911-.193 2.033.427 4.191 1.823 6.468-.58-.455-1.234-.782-1.949-1 .139 1.537 1.026 3.186 1.633 4.456-2.568-.043-5.168-.131-6.975-1.772z" fill-rule="evenodd"/>
  <path d="M24.486 28.611c-2.245-1.538-3.496-2.007-4.821-4.815.709.186 1.175.193 2 .131-2.285-1.03-3.702-1.928-4.423-3.782.75.168 1.294.067 1.731-.112-1.397-1.191-2.124-2.288-2.97-4.044 1.61 1.979 4.001 2.644 5.846 2.708-.549.531-1.224.898-1.688 1.101 1.664 1.184 3.843 1.725 6.513 1.656-.684.275-1.294.678-1.841 1.188 1.401.648 3.272.705 4.675.814-1.321 2.203-2.697 4.41-5.022 5.154z" fill-rule="evenodd"/>
  <path d="M31.164 14.957c-2.455 1.175-3.486 2.024-6.58 1.767.515-.521.755-.921 1.114-1.666-2.035 1.463-3.521 2.242-5.487 1.94.521-.565.705-1.088.769-1.555-1.73.615-3.044.696-4.987.55 2.519-.405 4.291-2.143 5.269-3.709.185.741.166 1.509.109 2.012 1.857-.849 3.416-2.465 4.69-4.813-.104.73-.06 1.459.109 2.188 1.262-.889 2.246-2.481 3.042-3.642 1.247 2.245 2.471 4.541 1.953 6.926z" fill-rule="evenodd"/>
  <path d="M22.678 2.346c-.21 2.713.01 4.031-1.759 6.582-.193-.707-.42-1.114-.886-1.797.25 2.494.182 4.17-1.063 5.722-.229-.734-.59-1.154-.962-1.443-.332 1.805-.919 2.984-2.017 4.594.908-2.384.29-4.787-.578-6.417.734.21 1.39.611 1.797.911.193-2.033-.427-4.191-1.823-6.468.58.455 1.234.782 1.949 1-.139-1.537-1.026-3.186-1.633-4.456 2.568.043 5.168.131 6.975 1.772z" fill-rule="evenodd"/>
  <path d="M7.514 3.389c2.245 1.538 3.496 2.007 4.821 4.815-.709-.186-1.175-.193-2-.131 2.285 1.03 3.702 1.928 4.423 3.782-.75-.168-1.294-.067-1.731.112 1.397 1.191 2.124 2.288 2.97 4.044-1.61-1.979-4.001-2.644-5.846-2.708.549-.531 1.224-.898 1.688-1.101-1.664-1.184-3.843-1.725-6.513-1.656.684-.275 1.294-.678 1.841-1.188-1.401-.648-3.272-.705-4.675-.814 1.321-2.203 2.697-4.41 5.022-5.154z" fill-rule="evenodd"/>
  <path d="M.836 17.043c2.455-1.175 3.486-2.024 6.58-1.767-.515.521-.755.921-1.114 1.666 2.035-1.463 3.521-2.242 5.487-1.94-.521.565-.705 1.088-.769 1.555 1.73-.615 3.044-.696 4.987-.55-2.519.405-4.291 2.143-5.269 3.709-.185-.741-.166-1.509-.109-2.012-1.857.849-3.416 2.465-4.69 4.813.104-.73.06-1.459-.109-2.188-1.262.889-2.246 2.481-3.042 3.642-1.247-2.245-2.471-4.541-1.953-6.926z" fill-rule="evenodd"/>
  <path transform="rotate(-90)" d="M-15.699 16a.301.301 0 0 1-.301.301.301.301 0 0 1-.301-.301.301.301 0 0 1 .301-.301.301.301 0 0 1 .301.301z" style="paint-order:stroke markers fill"/>
 </g>
</svg>
