<svg height="34.133333" width="34.133333" xmlns="http://www.w3.org/2000/svg"><g transform="matrix(1.2140409 0 0 1.2140409 -83.149068 -28.717586)"><path d="m88.870174 23.709479c-1.49017.0016-2.823341.115658-3.425862.29233-.03431.01007-.06598.02545-.09395.04462-.902314-.182599-1.835808-.278658-2.791942-.278658-2.245516 0-4.36717.528239-6.247904 1.467075-.363406-.157177-.733792-.257593-1.09999-.286856-1.129837-.09026-2.159502.06138-3.018152.303243-1.347504.379591-2.301517 1.009103-2.562093 1.281307-.605221.443135-.902107 1.5614-1.018816 2.865858-.176858 1.976955.0342 4.436318.195194 5.438472.0053.03989.01801.07825.0374.113829-.183011.90152-.279108 1.834854-.279108 2.790274 0 3.858243 1.566835 7.351041 4.098988 9.879787 2.533167 2.529749 6.031363 4.094339 9.894485 4.094339 3.863027 0 7.360817-1.564704 9.89357-4.094339 2.531888-2.528777 4.098078-6.021451 4.098078-9.879787 0-2.40519-.60888-4.668836-1.68101-6.645104.0282-.02902.0559-.05873.083-.08924.45049-.507432.73611-1.217815.87744-1.98251.13798-.746554.13954-1.551385.0237-2.268459-.13792-.853816-.44791-1.597488-.90116-2.003461-.0102-.0096-.0211-.01892-.0328-.02732-.733009-.529129-2.301189-.81993-3.97312-.942537-.688256-.05047-1.398592-.07356-2.075938-.07286z" fill="#fff" fill-rule="evenodd" stroke-width=".103367"/><path d="m88.870171 23.709479c-1.49017.0016-2.823341.115657-3.425862.292328-.03431.01007-.06598.02545-.09395.04462-.902314-.182598-1.835808-.278657-2.791942-.278657-2.245516 0-4.367167.528238-6.247901 1.467075-.363406-.157176-.733792-.257593-1.09999-.286856-1.129837-.09026-2.159502.06138-3.018152.303243-1.347503.379591-2.301516 1.009103-2.562092 1.281307-.605221.443135-.902107 1.561401-1.018816 2.865858-.176858 1.976955.0342 4.436319.195194 5.438473.0053.03989.01801.07825.0374.113829-.183011.90152-.279108 1.834854-.279108 2.790274 0 3.858243 1.566835 7.351042 4.098987 9.879788 2.533167 2.529749 6.03136 4.094339 9.894482 4.094339 3.863027 0 7.360817-1.564704 9.893571-4.094339 2.531884-2.528777 4.098079-6.021452 4.098079-9.879788 0-2.40519-.608882-4.668837-1.681012-6.645105.02824-.02902.05591-.05873.08301-.08924.450496-.507433.736109-1.217815.877442-1.98251.137982-.746554.139543-1.551385.02371-2.268458-.137921-.853816-.44791-1.597489-.901156-2.003461-.01024-.0096-.02115-.01892-.03283-.02732-.733014-.529131-2.301194-.819931-3.973126-.942538-.688256-.05047-1.398592-.07356-2.075938-.07286zm.06202.656586c.640581.0017 1.31258.02483 1.967401.07286 1.556298.114119 2.993053.366694 3.621957.809581.332049.303274.567038.903348.681347 1.610963.104588.647437.103441 1.373081-.02098 2.046261-.121066.655026-.356748 1.253747-.722388 1.665595-.248641.280073-.560533.473399-.940373.534568-.83809.134967-1.325258-.686933-2.001157-1.827708-.599977-1.012645-1.332704-2.248096-2.570304-3.346681-.496051-.357576-.929989.0068-.667748.299474l.0048.0045c1.31197 1.088342 2.057893 2.351549 2.665927 3.377792.808718 1.364966 1.39091 2.3481 2.671553 2.141876.263212-.04239.50269-.128255.718733-.249519.988618 1.859921 1.548749 3.982364 1.548749 6.235302 0 3.678009-1.492447 7.006951-3.904706 9.41626-2.411587 2.408608-5.744238 3.898545-9.42658 3.898545-3.682448 0-7.015491-1.489802-9.427491-3.898545-2.412537-2.409261-3.904704-5.738336-3.904704-9.416222 0-.9034.08994-1.786158.261775-2.639097-.09227-.491489-.134238-1.022939-.160527-1.428829-.000362-.0037-.000559-.0072-.00092-.01093-.110235-1.167371-.184997-2.81218-.06019-4.207255.102985-1.151173.330466-2.108793.767072-2.40233.03051-.0204.05632-.04531.07753-.07285.144384-.185985.979279-.734947 2.25927-1.095528.644417-.181535 1.393484-.307993 2.211852-.304162.188855.000879.381556.0089.57736.02459 1.154337.09225 2.38445 1.066968 3.23796 2.256625.352453.491272.637881 1.014451.824542 1.525353.181874.497809.270339.982411.236231 1.407889-.03579.446594-.212578.827114-.570058 1.082777-.626452.447967-1.50561.172552-2.511933-.142969-1.568159-.491706-3.407816-1.067618-5.372278.411621l.000021.000497c-.491925.345163-.14065.852034.151385.744422 1.841807-1.525587 3.564206-.986135 5.024768-.528183 1.17348.36793 2.198698.688889 3.092035.05009.530821-.379632.792606-.929978.843685-1.567255.04171-.520406-.06194-1.098517-.275448-1.682906-.208721-.571277-.522206-1.149801-.906637-1.685639-.524791-.731468-1.187865-1.390883-1.904469-1.854111 1.684402-.767597 3.556833-1.194789 5.529167-1.194789.992381 0 1.959219.108884 2.889539.314178.393469-.169165.922657-.228135 1.38398-.293413l.0051-.0016c.525608-.04642 1.151482-.07554 1.822384-.08014.09007-.000621.181202-.0011.272717-.00092zm1.425617 7.088605c-1.288761 0-2.334073 1.043641-2.334073 2.330386 0 1.286719 1.045312 2.330381 2.334073 2.330381s2.334064-1.043662 2.334064-2.330381c0-1.286734-1.045303-2.330386-2.334064-2.330386zm-14.554427 1.702021c-2.519608 0-4.563248 2.040416-4.563248 4.556048 0 2.515633 2.04364 4.555142 4.563248 4.555142s4.563249-2.039509 4.563249-4.555142c0-2.515632-2.043641-4.556048-4.563249-4.556048zm1.260528 2.384115c1.154988.00001 2.092361.935895 2.092361 2.08906 0 1.153176-.937373 2.089071-2.092361 2.089071-1.154989 0-2.092362-.935895-2.092362-2.089071 0-1.153165.937373-2.08906 2.092362-2.08906zm11.595596 1.818601c-.05736 0-.11221.01082-.163268.02914l-6.499643 1.892358c-.01276.0032-.02506.0068-.0374.01092l-.0018.00093-.0036.00093-.00093.00093c-.187457.0663-.321975.244357-.321975.454422 0 .199873.121372.371113.294611.444404.0011.000517.0025.000414.0036.000931l4.000481 2.253888v.01731c0 .693231-.308231 1.32293-.80721 1.780345-.50841.466078-1.214361.754029-1.996595.754029-.493383 0-.966134-.114811-1.378188-.325103-.402612-.205479-.749813-.502723-1.003314-.871504-.0034-.0056-.0073-.011-.01094-.0164-.07878-.116204-.212041-.193058-.363012-.193058-.241701 0-.437816.195794-.437816.437115 0 .097.03215.186099.08574.258626.33569.490994.796837.886765 1.332581 1.160188.537316.274228 1.146426.425282 1.774947.425282 1.007844 0 1.923623-.377609 2.588547-.987162.483176-.442928.833914-1.007564.994193-1.64101.652524.539854 1.513026.866041 2.449903.866041 1.007844 0 1.923623-.37671 2.588547-.986252.674379-.618206 1.09087-1.474614 1.09087-2.422362 0-.04013-.001-.08887-.0036-.14206.000051-.0028 0-.0054 0-.0082 0-.24132-.196115-.437116-.437817-.437116-.241701 0-.437804.195796-.437804.437116 0 .0038-.000094.0081 0 .01183.000206.0068.0013.01331.0018.02004.0015.03203.0018.07055.0018.118384 0 .693231-.308232 1.322929-.807211 1.780344-.50842.466078-1.21435.754029-1.996595.754029-.750815 0-1.4336-.265967-1.938214-.702122-.104072-.08996-.200345-.186883-.288231-.290502l2.145271-4.161723c.04148-.07122.06567-.153955.06567-.242239 0-.266495-.216498-.482651-.483413-.482651z" fill="#222" fill-rule="evenodd" stroke-width=".103367"/></g></svg>