<?xml version="1.0" encoding="UTF-8"?>
<!-- Created with Inkscape (http://www.inkscape.org/) -->
<svg id="svg2" width="32" height="32" version="1.0" xmlns="http://www.w3.org/2000/svg" xmlns:cc="http://creativecommons.org/ns#" xmlns:dc="http://purl.org/dc/elements/1.1/" xmlns:rdf="http://www.w3.org/1999/02/22-rdf-syntax-ns#" xmlns:xlink="http://www.w3.org/1999/xlink">
 <metadata id="metadata36">
  <rdf:RDF>
   <cc:Work rdf:about="">
    <dc:format>image/svg+xml</dc:format>
    <dc:type rdf:resource="http://purl.org/dc/dcmitype/StillImage"/>
    <dc:title/>
   </cc:Work>
  </rdf:RDF>
 </metadata>
 <defs id="defs4">
  <linearGradient id="linearGradient3738" x1="100" x2="100" y1="34.889" y2="165.05" gradientUnits="userSpaceOnUse">
   <stop id="stop3711" stop-color="#fff" offset="0"/>
   <stop id="stop3740" stop-color="#d7d7d7" offset=".60383"/>
   <stop id="stop3713" stop-color="#606060" offset="1"/>
  </linearGradient>
  <linearGradient id="linearGradient3821" x1="123.67" x2="107.86" y1="25.943" y2="84.971" gradientUnits="userSpaceOnUse">
   <stop id="stop3629" stop-color="#fff" offset="0"/>
   <stop id="stop3631" stop-color="#fff" stop-opacity="0" offset="1"/>
  </linearGradient>
 </defs>
 <rect id="rect2383" x="245.71" y="272.93" width="625.71" height="534.29" rx="3.7143" ry="3.7143" opacity="0" stroke-width="0pt"/>
 <g id="g3815" transform="matrix(.16 0 0 .15995 0 .01032)">
  <path id="path3157" d="m101.9 199.98c-55.218 1.0563-100.83-42.865-101.88-98.101-1.049-55.236 42.864-100.87 98.082-101.93 55.218-1.0563 100.83 42.865 101.88 98.101 1.049 55.236-42.864 100.87-98.082 101.93z" fill="#111"/>
  <path id="path4777" d="m101.8 193c-50.842 0.94306-92.864-39.509-93.86-90.353-0.99584-50.844 39.412-92.825 90.254-93.768 50.842-0.94304 92.864 39.509 93.86 90.353 0.99583 50.844-39.412 92.825-90.254 93.768z" fill="#222"/>
  <path id="path3659" transform="translate(-23.708 -17.069)" d="m195.24 97.512c0 39.527-32.043 71.57-71.57 71.57-39.527 0-71.57-32.043-71.57-71.57 0-39.527 32.043-71.57 71.57-71.57 39.402 0 71.393 31.848 71.569 71.25" fill="url(#linearGradient3821)" opacity=".27232"/>
  <path id="path3793" d="m46.532 138.28c-1.5054-1.7204-3.1183-3.4946-4.8387-5.3226-1.7204-1.9354-1.9592-2.7814-1.9592-4.6094-1.4e-5 -1.1828 0.65156-3.2712 2.2107-4.2389s3.1355-1.4743 5.7162-1.4743c6.4516 4e-5 10.125 0.64184 16.684 5.0504 5.6768 2.4093 7.3943 2.8776 10.579 4.2463 3.2074 1.3786 4.1232 1.7466 6.6762 2.9017 0.47848 0.17162 2.5136-0.40563 2.9479-0.47088 0.43433-0.0652 0.5994-0.29696 1.3521-1.0497 0.8809-2.4854 1.3607-2.0251 1.761-2.452 0.43004-0.21502 0.6451-0.37631 0.64516-0.48387-6.3e-5 -0.10749-0.16135-0.21502-0.48387-0.32258-0.21512-0.21502-0.32264-0.43007-0.32258-0.64516-6.2e-5 -0.21502 0.0537-0.37631 0.16129-0.48387-6.3e-5 -10.323 0.0537-20.699 0.16129-31.129 0.21499-11.935 1.6128-21.29 4.1935-28.065 0.64509-3.1182 2.4193-5.6988 5.3226-7.7419 0.53756-0.10742 1.0752-0.16119 1.6129-0.16129 2.3655 1.03e-4 4.4085 1.1291 6.129 3.3871 0.21497 1.1829 0.96766 2.5807 2.2581 4.1935 0.53755 4.1936 1.3978 10.376 2.5806 18.548v22.258c-0.43019 5e-5 -0.59148 0.26887-0.48387 0.80645-9e-5 0.86026-9e-5 1.2904 0 1.2903 0.10744 1.7205-0.10761 4.0323-0.64516 6.9355 0.43002 5e-5 0.64507 0.26886 0.64516 0.80645-9e-5 0.75273-9e-5 1.1291 0 1.129-0.43019 0.53768-0.64525 1.3979-0.64516 2.5806 0.10744 1.9355 0.10744 2.957 0 3.0645 0.43002 2.4732 3.387 4.4086 8.871 5.8064 4.4085-0.64513 9.2472-3.0107 14.516-7.0968 6.6666-5.0537 11.129-8.1182 13.387-9.1935 3.6163-0.43111 6.2006 0.0143 8.136 1.0358 1.9355 1.0215 2.7507 3.0971 2.7508 3.7422-1.3e-4 2.3656-1.2096 2.4263-3.1449 6.1897-3.1184 6.2366-7.4195 10.699-12.903 13.387-0.86033 1.0753-2.1506 2.0968-3.871 3.0645-1.7205 0.96776-3.3334 1.8817-4.8387 2.7419-2.2582 1.5054-7.9033 4.8387-16.935 10-3.3334 2.6882-5.3227 4.2473-5.9677 4.6774-2.3657 1.7204-4.8388 2.9032-7.4194 3.5484-1.613 0.21505-3.1721 0.32258-4.6774 0.32258-6.3441 0-12.581-1.7742-18.71-5.3226-2.9033-1.6129-8.0108-5.3226-15.323-11.129-6.3441-5.0537-11.72-8.4946-16.129-10.323m-21.452-27.581h4.0323c0.21505 0.32263 0.96774 0.8065 2.2581 1.4516 1.2903 0.53769 1.9355 0.54608 2.8332 1.7515 2.8194 2.2956 4.3795 2.7504 5.9924 5.4385-0.43012 1.613-2.5955 3.471-5.3911 4.3312-4.8387-1.1828-7.2517-5.2308-9.7248-12.973m131.57 3.6184c0.86008-6.0214 6.4964-9.1022 14.561-11.038 2.473 0.10759 3.4407 1.3979 2.9032 3.871-0.43025 1.5054-1.5593 3.3334-3.3871 5.4839-3.6561 4.3011-6.8789 4.8324-11.395 4.0796l-2.7858-2.811m-60.335-58.849c-7.1e-5 -0.43-0.26889-1.6666-0.80645-3.7097-0.32265-1.5053-0.37641-2.8493-0.16129-4.0323 0.10746 1.18e-4 0.26875-0.10741 0.48387-0.32258-0.21512-1.0752-0.1076-2.6343 0.32258-4.6774 0.53756-3.3332 0.80638-5.0536 0.80645-5.1613 0.32251-1.5052 1.2902-2.2579 2.9032-2.2581 0.75261 1.3e-4 1.2902 0.37647 1.6129 1.129 0.43003 0.21518 0.59132 0.96787 0.48387 2.2581-7e-5 1.1829 0.37627 1.7743 1.129 1.7742 0.96766 6.5593 0.86013 11.882-0.32258 15.968-0.53772-0.10742-0.80653 0.1614-0.80646 0.80645-7e-5 0.53774-0.16136 0.80656-0.48387 0.80645-1.613-0.10742-2.6882-0.26871-3.2258-0.48387-1.1829-0.43-1.828-1.1289-1.9355-2.0968" fill="#fff"/>
 </g>
</svg>
