<?xml version="1.0" encoding="UTF-8" standalone="no"?>
<svg
   xmlns:dc="http://purl.org/dc/elements/1.1/"
   xmlns:cc="http://creativecommons.org/ns#"
   xmlns:rdf="http://www.w3.org/1999/02/22-rdf-syntax-ns#"
   xmlns:svg="http://www.w3.org/2000/svg"
   xmlns="http://www.w3.org/2000/svg"
   xmlns:sodipodi="http://sodipodi.sourceforge.net/DTD/sodipodi-0.dtd"
   xmlns:inkscape="http://www.inkscape.org/namespaces/inkscape"
   version="1.0"
   width="32"
   height="32"
   viewBox="0 0 25.599999 25.6"
   preserveAspectRatio="xMidYMid meet"
   id="svg2"
   inkscape:version="0.48.4 r9939"
   sodipodi:docname="slackware.svg"
   inkscape:export-filename="C:\Users\Julian Richen\Desktop\gol\assets\template\images\distros\slackware.png"
   inkscape:export-xdpi="90"
   inkscape:export-ydpi="90">
  <defs
     id="defs42" />
  <sodipodi:namedview
     pagecolor="#ffffff"
     bordercolor="#666666"
     borderopacity="1"
     objecttolerance="10"
     gridtolerance="10"
     guidetolerance="10"
     inkscape:pageopacity="0"
     inkscape:pageshadow="2"
     inkscape:window-width="1920"
     inkscape:window-height="1018"
     id="namedview40"
     showgrid="false"
     inkscape:zoom="5.8724762"
     inkscape:cx="22.371613"
     inkscape:cy="28.386957"
     inkscape:window-x="1912"
     inkscape:window-y="-8"
     inkscape:window-maximized="1"
     inkscape:current-layer="svg2" />
  <metadata
     id="metadata4">
Created by potrace 1.11, written by Peter Selinger 2001-2013
<rdf:RDF>
  <cc:Work
     rdf:about="">
    <dc:format>image/svg+xml</dc:format>
    <dc:type
       rdf:resource="http://purl.org/dc/dcmitype/StillImage" />
    <dc:title></dc:title>
  </cc:Work>
</rdf:RDF>
</metadata>
  <g
     id="g3038"
     transform="translate(129.19776,84.392216)"
     style="fill:#222222;fill-opacity:1">
    <g
       id="g3035"
       style="fill:#222222;fill-opacity:1">
      <path
         style="fill:#222222;stroke:none;fill-opacity:1"
         inkscape:connector-curvature="0"
         id="path14"
         d="m -119.58788,-84.34202 c -4.03888,0.461337 -6.78949,2.132595 -7.79921,4.743936 -0.35688,0.905265 -0.45263,1.645145 -0.4004,2.907293 0.0783,1.984619 0.68765,3.29029 2.07166,4.500211 2.01074,1.740894 4.89192,2.472069 9.84476,2.472069 4.4915,0 6.08442,0.678949 6.42389,2.750613 0.51357,3.063973 -2.57652,5.039888 -7.24211,4.639482 -3.08139,-0.261134 -5.73625,-1.497169 -6.92876,-3.229358 -0.13928,-0.208907 -0.40041,-0.66154 -0.5832,-1.018423 -0.62672,-1.244739 -1.05324,-1.601623 -1.93239,-1.601623 -0.70506,0.0087 -1.20122,0.269839 -1.50588,0.809516 l -0.21761,0.391701 0,3.307699 0,3.307698 0.22631,0.487451 c 0.26985,0.56579 0.65284,0.89656 1.21863,1.035831 0.5745,0.147976 1.30567,-0.06093 2.3328,-0.661539 l 0.81822,-0.478746 1.3579,0.304656 c 2.98564,0.66154 4.50892,0.861743 6.66762,0.861743 1.81053,0.0087 2.54171,-0.07834 4.03017,-0.470042 1.84535,-0.48745 3.23806,-1.288261 4.45669,-2.576523 1.31437,-1.38401 1.88887,-3.037859 1.80183,-5.16175 -0.11316,-2.672272 -1.14029,-4.430575 -3.28159,-5.605679 -1.57551,-0.861742 -3.76033,-1.296966 -7.18119,-1.444942 -3.35122,-0.139271 -4.58725,-0.252429 -5.77106,-0.522268 -0.83563,-0.200203 -1.28826,-0.40911 -1.76701,-0.844333 -1.07065,-0.966196 -0.96619,-2.88118 0.22632,-4.073692 1.05324,-1.044537 2.48077,-1.523282 4.55244,-1.523282 2.35021,0.0087 3.92571,0.443928 5.59697,1.566804 0.30465,0.208907 1.18381,1.018423 1.9585,1.793121 1.45365,1.47976 1.86276,1.775712 2.47207,1.775712 0.40041,0 0.9662,-0.269839 1.20122,-0.565791 0.42653,-0.539677 0.49616,-1.035832 0.49616,-3.612355 0,-2.724499 -0.0697,-3.133609 -0.61802,-3.742922 -0.63543,-0.696357 -1.39272,-0.687653 -2.87248,0.05222 l -0.96619,0.487452 -1.03583,-0.278543 c -2.45466,-0.64413 -3.34252,-0.783402 -5.21398,-0.826924 -0.95749,-0.01741 -2.05426,0 -2.43725,0.04352 z" />
    </g>
  </g>
</svg>
