<?xml version="1.0" encoding="UTF-8"?>
<svg id="svg2" width="32" height="32" version="1.0" viewBox="0 0 25.6 25.6" xmlns="http://www.w3.org/2000/svg" xmlns:cc="http://creativecommons.org/ns#" xmlns:dc="http://purl.org/dc/elements/1.1/" xmlns:rdf="http://www.w3.org/1999/02/22-rdf-syntax-ns#">
 <metadata id="metadata4">Created by potrace 1.11, written by Peter Selinger 2001-2013
  <rdf:RDF>
   <cc:Work rdf:about="">
    <dc:format>image/svg+xml</dc:format>
    <dc:type rdf:resource="http://purl.org/dc/dcmitype/StillImage"/>
    <dc:title/>
   </cc:Work>
  </rdf:RDF>
 </metadata>
 <g id="g3038" transform="translate(129.2 84.392)" fill="#222">
  <g id="g3035" fill="#222">
   <path id="path14" d="m-119.59-84.342c-4.0389 0.46134-6.7895 2.1326-7.7992 4.7439-0.35688 0.90526-0.45263 1.6451-0.4004 2.9073 0.0783 1.9846 0.68765 3.2903 2.0717 4.5002 2.0107 1.7409 4.8919 2.4721 9.8448 2.4721 4.4915 0 6.0844 0.67895 6.4239 2.7506 0.51357 3.064-2.5765 5.0399-7.2421 4.6395-3.0814-0.26113-5.7362-1.4972-6.9288-3.2294-0.13928-0.20891-0.40041-0.66154-0.5832-1.0184-0.62672-1.2447-1.0532-1.6016-1.9324-1.6016-0.70506 0.0087-1.2012 0.26984-1.5059 0.80952l-0.21761 0.3917v3.3077 3.3077l0.22631 0.48745c0.26985 0.56579 0.65284 0.89656 1.2186 1.0358 0.5745 0.14798 1.3057-0.06093 2.3328-0.66154l0.81822-0.47875 1.3579 0.30466c2.9856 0.66154 4.5089 0.86174 6.6676 0.86174 1.8105 0.0087 2.5417-0.07834 4.0302-0.47004 1.8454-0.48745 3.2381-1.2883 4.4567-2.5765 1.3144-1.384 1.8889-3.0379 1.8018-5.1618-0.11316-2.6723-1.1403-4.4306-3.2816-5.6057-1.5755-0.86174-3.7603-1.297-7.1812-1.4449-3.3512-0.13927-4.5872-0.25243-5.7711-0.52227-0.83563-0.2002-1.2883-0.40911-1.767-0.84433-1.0706-0.9662-0.96619-2.8812 0.22632-4.0737 1.0532-1.0445 2.4808-1.5233 4.5524-1.5233 2.3502 0.0087 3.9257 0.44393 5.597 1.5668 0.30465 0.20891 1.1838 1.0184 1.9585 1.7931 1.4536 1.4798 1.8628 1.7757 2.4721 1.7757 0.40041 0 0.9662-0.26984 1.2012-0.56579 0.42653-0.53968 0.49616-1.0358 0.49616-3.6124 0-2.7245-0.0697-3.1336-0.61802-3.7429-0.63543-0.69636-1.3927-0.68765-2.8725 0.05222l-0.96619 0.48745-1.0358-0.27854c-2.4547-0.64413-3.3425-0.7834-5.214-0.82692-0.95749-0.01741-2.0543 0-2.4372 0.04352z" fill="#222"/>
  </g>
 </g>
</svg>
