<?xml version="1.0" encoding="UTF-8"?>
<!-- Generator: Adobe Illustrator 14.0.0, SVG Export Plug-In  -->
<svg id="svg2" width="32" height="32" enable-background="new -0.866 -0.866 285 285" version="1.1" viewBox="-.866 -.866 32 32" xml:space="preserve" xmlns="http://www.w3.org/2000/svg" xmlns:cc="http://creativecommons.org/ns#" xmlns:dc="http://purl.org/dc/elements/1.1/" xmlns:rdf="http://www.w3.org/1999/02/22-rdf-syntax-ns#"><metadata id="metadata12"><rdf:RDF><cc:Work rdf:about=""><dc:format>image/svg+xml</dc:format><dc:type rdf:resource="http://purl.org/dc/dcmitype/StillImage"/><dc:title/></cc:Work></rdf:RDF></metadata><g id="g4257" transform="matrix(1.6173 0 0 1.6173 -118.8 48.912)"><path id="path4254" d="m74.592-15.264c-0.99908-1.5071-1.581-3.3148-1.581-5.2585 0-5.2629 4.2664-9.5293 9.5293-9.5293s9.5293 4.2664 9.5293 9.5293c0 0.4778-0.03517 0.94739-0.10305 1.4063-3.8147 4.4868-10.746 4.3343-17.374 3.8522zm17.129-2.6965c-1.119 4.0186-4.8056 6.9673-9.1809 6.9673-2.9953 0-5.6679-1.382-7.4148-3.5431 7.2282 0.62787 13.23-0.02304 16.596-3.4242z" fill="#222"/><path id="path4252" d="m89.683-17.391c1.0804-0.60415 1.9955-1.4365 2.7423-2.5504-2.3304-1.2096-4.4283-1.8975-6.5254-2.6405 1.6161 1.6401 3.203 2.2893 3.7832 5.1909zm-7.3212-7.4858-3.5427-5.7031 0.28451 1.2881c-0.48513 4.2963-2.9572 8.3175-5.8115 12.286 3.6161 0.54718 6.7964 0.95792 9.5269 0.9809zm1.4183 8.8428c1.9577-0.05482 3.6638-0.34247 5.1124-0.96749-1.8181-3.4893-3.5015-5.1091-5.4867-6.9961 1.3217 2.8988 0.72757 5.4066 0.37432 7.9636z" fill="#fff" fill-rule="evenodd" stroke="#222" stroke-linecap="round" stroke-linejoin="round" stroke-width=".4"/></g></svg>
