<?xml version="1.0" encoding="UTF-8" standalone="no"?>
<!-- Generator: Adobe Illustrator 14.0.0, SVG Export Plug-In  -->

<svg
   xmlns:dc="http://purl.org/dc/elements/1.1/"
   xmlns:cc="http://creativecommons.org/ns#"
   xmlns:rdf="http://www.w3.org/1999/02/22-rdf-syntax-ns#"
   xmlns:svg="http://www.w3.org/2000/svg"
   xmlns="http://www.w3.org/2000/svg"
   xmlns:sodipodi="http://sodipodi.sourceforge.net/DTD/sodipodi-0.dtd"
   xmlns:inkscape="http://www.inkscape.org/namespaces/inkscape"
   version="1.1"
   x="0px"
   y="0px"
   width="32"
   height="32"
   viewBox="-0.866 -0.866 32 32"
   enable-background="new -0.866 -0.866 285 285"
   xml:space="preserve"
   id="svg2"
   inkscape:version="0.91 r13725"
   sodipodi:docname="solus.svg"
   inkscape:export-filename="E:\Web Development\Clients\distros\solus.png"
   inkscape:export-xdpi="90"
   inkscape:export-ydpi="90"><metadata
     id="metadata12"><rdf:RDF><cc:Work
         rdf:about=""><dc:format>image/svg+xml</dc:format><dc:type
           rdf:resource="http://purl.org/dc/dcmitype/StillImage" /><dc:title /></cc:Work></rdf:RDF></metadata><sodipodi:namedview
     pagecolor="#ffffff"
     bordercolor="#666666"
     borderopacity="1"
     objecttolerance="10"
     gridtolerance="10"
     guidetolerance="10"
     inkscape:pageopacity="0"
     inkscape:pageshadow="2"
     inkscape:window-width="1920"
     inkscape:window-height="1018"
     id="namedview10"
     showgrid="false"
     inkscape:zoom="16"
     inkscape:cx="15.889942"
     inkscape:cy="11.489749"
     inkscape:window-x="1912"
     inkscape:window-y="-8"
     inkscape:window-maximized="1"
     inkscape:current-layer="svg2" /><defs
     id="defs4" /><g
     id="g4257"
     transform="matrix(1.6172574,0,0,1.6172574,-118.80393,48.912494)"><path
       sodipodi:nodetypes="cssscccccc"
       inkscape:connector-curvature="0"
       id="path4254"
       d="m 74.591972,-15.263785 c -0.999083,-1.507107 -1.580979,-3.314831 -1.580979,-5.258464 0,-5.262865 4.266395,-9.52926 9.52926,-9.52926 5.262865,0 9.529259,4.266395 9.529259,9.52926 0,0.4778 -0.03517,0.947386 -0.103048,1.406313 -3.814674,4.486767 -10.745969,4.33432 -17.374492,3.852151 z m 17.129203,-2.69651 c -1.119012,4.018578 -4.805611,6.967305 -9.180922,6.967305 -2.995322,0 -5.667864,-1.381986 -7.414786,-3.543118 7.228209,0.627871 13.230375,-0.02304 16.595708,-3.424187 z"
       style="opacity:1;fill:#222222;fill-opacity:1;stroke:none;stroke-width:0.1;stroke-linecap:round;stroke-linejoin:round;stroke-miterlimit:4;stroke-dasharray:none;stroke-opacity:1" /><path
       sodipodi:nodetypes="cccccccccccccc"
       inkscape:connector-curvature="0"
       id="path4252"
       d="m 89.682639,-17.390734 c 1.080383,-0.604154 1.995477,-1.436495 2.742266,-2.550435 -2.330444,-1.209624 -4.428338,-1.897538 -6.525441,-2.640478 1.616089,1.640093 3.202963,2.28933 3.783175,5.190913 z m -7.321233,-7.485827 -3.542685,-5.703103 0.284509,1.288098 c -0.485127,4.296301 -2.957159,8.317494 -5.8115,12.285751 3.616053,0.547179 6.796427,0.95792 9.526938,0.980897 z m 1.418267,8.842843 c 1.957721,-0.05482 3.663823,-0.342469 5.112406,-0.967489 -1.818105,-3.489284 -3.501451,-5.109124 -5.486722,-6.996088 1.321666,2.89879 0.727573,5.406609 0.374316,7.963577 z"
       style="fill:#ffffff;fill-opacity:1;fill-rule:evenodd;stroke:#222222;stroke-width:0.40000001;stroke-linecap:round;stroke-linejoin:round;stroke-miterlimit:4;stroke-dasharray:none;stroke-opacity:1" /></g></svg>