<svg xmlns="http://www.w3.org/2000/svg" version="1" width="32" height="32"><defs><linearGradient x1="112.499" y1="6.137" x2="112.499" y2="129.347" id="a" gradientUnits="userSpaceOnUse" gradientTransform="translate(287 -83)"><stop offset="0" stop-color="#fff" stop-opacity="0"/><stop offset="1" stop-color="#fff" stop-opacity=".275"/><midPointStop offset=".5" stop-color="#fff"/></linearGradient><linearGradient id="b"><stop offset="0" stop-opacity="0"/><stop offset="1" stop-opacity=".371"/></linearGradient></defs><g transform="matrix(.62288 0 0 .62296 57.956 6.251)"><circle r="25.684" cy="15.649" cx="-67.355" fill="#222"/><path d="M-58.908-.053a9.228 9.228 0 0 0-9.227 9.229l.004.084c-1.065 1.478-5.263 7.3-6.207 8.594a7.094 7.094 0 0 0-4.643 1.357l-13.986-5.55c-.237 2.817.074 5.928.737 8.401l10.459 4.143a7.094 7.094 0 0 0 6.972 5.82 7.094 7.094 0 0 0 7.094-7.093 7.083 7.083 0 0 0-.025-.495c1.26-.821 7.753-5.516 8.482-6.044.113.006.226.01.34.011a9.228 9.228 0 0 0 9.228-9.228 9.228 9.228 0 0 0-9.228-9.229zm0 2.598a6.63 6.63 0 1 1 0 13.261 6.63 6.63 0 0 1 0-13.261zm0 2.01a4.62 4.62 0 1 0 .002 9.24 4.62 4.62 0 0 0-.002-9.24zm-15.89 14.822a5.555 5.555 0 1 1-5.188 7.539l3.683 1.465a3.74 3.74 0 0 0 1.504.316 3.76 3.76 0 1 0 1.354-7.271l.004-.012-3.748-1.49a5.555 5.555 0 0 1 2.39-.547z" fill="#fff"/></g></svg>