<?xml version="1.0" encoding="UTF-8" standalone="no"?>
<!-- Generator: Adobe Illustrator 14.0.0, SVG Export Plug-In  -->

<svg
   xmlns:dc="http://purl.org/dc/elements/1.1/"
   xmlns:cc="http://creativecommons.org/ns#"
   xmlns:rdf="http://www.w3.org/1999/02/22-rdf-syntax-ns#"
   xmlns:svg="http://www.w3.org/2000/svg"
   xmlns="http://www.w3.org/2000/svg"
   xmlns:sodipodi="http://sodipodi.sourceforge.net/DTD/sodipodi-0.dtd"
   xmlns:inkscape="http://www.inkscape.org/namespaces/inkscape"
   version="1.1"
   x="0px"
   y="0px"
   width="32"
   height="32"
   viewBox="-0.866 -0.866 32 32"
   enable-background="new -0.866 -0.866 285 285"
   xml:space="preserve"
   id="svg2"
   inkscape:version="0.48.4 r9939"
   sodipodi:docname="ubuntu.svg"
   inkscape:export-filename="C:\Users\Julian Richen\Desktop\gol\assets\template\images\distros\ubuntu.png"
   inkscape:export-xdpi="90"
   inkscape:export-ydpi="90"><metadata
   id="metadata12"><rdf:RDF><cc:Work
       rdf:about=""><dc:format>image/svg+xml</dc:format><dc:type
         rdf:resource="http://purl.org/dc/dcmitype/StillImage" /><dc:title></dc:title></cc:Work></rdf:RDF></metadata><sodipodi:namedview
   pagecolor="#ffffff"
   bordercolor="#666666"
   borderopacity="1"
   objecttolerance="10"
   gridtolerance="10"
   guidetolerance="10"
   inkscape:pageopacity="0"
   inkscape:pageshadow="2"
   inkscape:window-width="1920"
   inkscape:window-height="1018"
   id="namedview10"
   showgrid="false"
   inkscape:zoom="6.6245614"
   inkscape:cx="40.370578"
   inkscape:cy="46.229235"
   inkscape:window-x="1912"
   inkscape:window-y="-8"
   inkscape:window-maximized="1"
   inkscape:current-layer="svg2" />
<defs
   id="defs4">
</defs>

<g
   id="g3757"
   transform="translate(-0.866,-252.33006)"><path
     inkscape:connector-curvature="0"
     style="fill:#222222;fill-opacity:1"
     id="path6"
     d="M 32,267.46428 C 32,276.30042 24.836421,283.464 15.999831,283.464 7.1632406,283.464 0,276.30053 0,267.46428 0,258.62747 7.1631277,251.46411 15.999718,251.46411 24.836308,251.46411 32,258.62747 32,267.46428 z" /><path
     style="fill:#ffffff"
     inkscape:connector-curvature="0"
     id="path8"
     d="m 5.1201806,265.3282 c -1.1800257,0 -2.1361932,0.95617 -2.1361932,2.1362 0,1.17957 0.9561675,2.13585 2.1361932,2.13585 1.1795742,0 2.1358545,-0.95628 2.1358545,-2.13585 0,-1.18014 -0.9561674,-2.1362 -2.1358545,-2.1362 z m 15.2520554,9.70866 c -1.021755,0.58984 -1.371485,1.89574 -0.781867,2.91704 0.589957,1.02176 1.89574,1.37171 2.917496,0.78187 1.021417,-0.58973 1.371372,-1.89563 0.781529,-2.91727 -0.589731,-1.02131 -1.89574,-1.37137 -2.917158,-0.78164 z m -10.6121034,-7.5728 c 0,-2.11114 1.0490744,-3.97583 2.6533364,-5.10494 l -1.561702,-2.61597 c -1.8694376,1.249 -3.2600008,3.1584 -3.8376524,5.39472 0.6747359,0.55 1.1058579,1.38752 1.1058579,2.32641 0,0.93867 -0.431122,1.77619 -1.1059708,2.32607 0.5775387,2.23656 1.9682148,4.14596 3.8376523,5.39484 l 1.561815,-2.61619 c -1.604262,-1.12889 -2.6533364,-2.99347 -2.6533364,-5.10494 z m 6.2399234,-6.23993 c 3.259888,0 5.933883,2.49947 6.214186,5.68655 l 3.044383,-0.0445 c -0.149804,-2.35305 -1.177656,-4.46611 -2.757307,-6.01912 -0.812122,0.30684 -1.75034,0.26033 -2.56122,-0.20794 -0.811895,-0.46871 -1.321362,-1.25938 -1.460892,-2.11745 -0.789318,-0.21844 -1.620066,-0.33754 -2.479037,-0.33754 -1.477261,0 -2.872905,0.3468 -4.112648,0.96091 l 1.484035,2.65966 c 0.798913,-0.37174 1.689153,-0.58059 2.6285,-0.58059 z m 0,12.47996 c -0.939459,0 -1.829587,-0.20884 -2.628613,-0.58058 l -1.484261,2.65988 c 1.239857,0.61389 2.635613,0.9608 4.112874,0.9608 0.858971,0 1.689719,-0.1191 2.47915,-0.33754 0.13953,-0.85807 0.64911,-1.64874 1.461118,-2.11779 0.81088,-0.46804 1.749098,-0.51455 2.561219,-0.20761 1.579539,-1.55312 2.607391,-3.66617 2.756969,-6.01922 l -3.044383,-0.0445 c -0.280077,3.18753 -2.954185,5.68654 -6.214073,5.68654 z m 4.371842,-13.81295 c 1.021643,0.59007 2.327652,0.24 2.91727,-0.7813 0.589956,-1.02176 0.240227,-2.32765 -0.781529,-2.91761 -1.02153,-0.58973 -2.327426,-0.23977 -2.917383,0.78198 -0.58973,1.02131 -0.239775,2.32731 0.781642,2.91693 z" /></g>
</svg>