<?xml version="1.0" encoding="UTF-8"?>
<!-- Generator: Adobe Illustrator 14.0.0, SVG Export Plug-In  -->
<svg id="svg2" width="32" height="32" enable-background="new -0.866 -0.866 285 285" version="1.1" viewBox="-.866 -.866 32 32" xml:space="preserve" xmlns="http://www.w3.org/2000/svg" xmlns:cc="http://creativecommons.org/ns#" xmlns:dc="http://purl.org/dc/elements/1.1/" xmlns:rdf="http://www.w3.org/1999/02/22-rdf-syntax-ns#" xmlns:xlink="http://www.w3.org/1999/xlink"><metadata id="metadata12"><rdf:RDF><cc:Work rdf:about=""><dc:format>image/svg+xml</dc:format><dc:type rdf:resource="http://purl.org/dc/dcmitype/StillImage"/><dc:title/></cc:Work></rdf:RDF></metadata><g id="layer3" transform="matrix(.39109 0 0 .39109 -181.61 352.68)"/><g id="g4342" transform="matrix(.49277 0 0 .49277 -25.512 6.572)"><circle id="path4807" cx="82.485" cy="17.375" r="32.469" color="#000000" enable-background="accumulate" fill="#222"/><g id="g4798" transform="matrix(.19841 0 0 .19841 -48.115 -85.337)" fill="#fff"><g id="g4800" transform="matrix(3.5217 0 0 3.5217 -7997.3 -3141.3)" fill="#fff"><path id="circle4802" transform="matrix(.72605 0 0 .72605 2038.1 672.87)" d="m574.38 462.99c-1.8751 1.125-4.2657 2.7187-7.1719 4.7812-2.8596 2.0157-5.9063 4.6406-9.1406 7.875-2.8125 2.8125-4.7814 5.5782-5.9062 8.2969-1.0786 2.7658-1.4531 5.4844-1.125 8.1562 0.32822 2.6719 1.2422 5.2734 2.7422 7.8047 1.5469 2.5782 3.5626 5.1095 6.0469 7.5938l20.531 20.531 6.5391-6.5391-19.125-19.125c-4.4533-4.4533-6.9375-8.3437-7.4531-11.672-0.51553-3.3283 0.8906-6.6562 4.2188-9.9844 0.70312-0.70326 1.4532-1.4061 2.25-2.1094s1.547-1.3593 2.25-1.9688c0.74995-0.5625 1.4063-1.078 1.9688-1.5469 0.65616-0.46884 1.1486-0.77316 1.4766-0.91406l42.066 42.066 6.5391-6.5391-46.707-46.707zm-2.0352 20.777-6.541 6.5391 30.869 30.867c-0.14076 0.32807-0.44508 0.82054-0.91406 1.4766-0.46884 0.56249-0.9841 1.2189-1.5469 1.9688-0.6096 0.70298-1.2655 1.4532-1.9688 2.25s-1.4062 1.5469-2.1094 2.25c-3.3282 3.3282-6.6562 4.7344-9.9844 4.2188-3.3282-0.51553-7.2187-3-11.672-7.4531l-19.125-19.125-6.5391 6.5391 20.531 20.531c2.4844 2.4844 5.0157 4.5 7.5938 6.0469 2.5314 1.5 5.1328 2.4141 7.8047 2.7422 2.6719 0.32807 5.3906-0.0468 8.1562-1.125 2.7188-1.125 5.4843-3.0938 8.2969-5.9062 3.2344-3.2344 5.8594-6.2813 7.875-9.1406 2.0624-2.9063 3.6562-5.2969 4.7812-7.1719l-35.508-35.508z" fill="#fff"/></g></g></g></svg>
