<?xml version="1.0" encoding="UTF-8"?>
<svg id="svg13" width="32" height="32" version="1.1" viewBox="0 0 32 32" xmlns="http://www.w3.org/2000/svg" xmlns:cc="http://creativecommons.org/ns#" xmlns:dc="http://purl.org/dc/elements/1.1/" xmlns:rdf="http://www.w3.org/1999/02/22-rdf-syntax-ns#" xmlns:xlink="http://www.w3.org/1999/xlink">
 <title id="title2">budgie-remix Logo</title>
 <metadata id="metadata4">
  <rdf:RDF>
   <cc:Work rdf:about="">
    <dc:format>image/svg+xml</dc:format>
    <dc:type rdf:resource="http://purl.org/dc/dcmitype/StillImage"/>
    <dc:title>budgie-remix Logo</dc:title>
    <dc:creator>
     <cc:Agent>
      <dc:title>HEXcube and Joshua "Foggalong" Fogg</dc:title>
     </cc:Agent>
    </dc:creator>
    <cc:license rdf:resource="http://creativecommons.org/licenses/by-sa/4.0/"/>
    <dc:source>Budgie Logo by Yuri Henrique</dc:source>
    <dc:description>Official logo for budgie-remix</dc:description>
   </cc:Work>
   <cc:License rdf:about="http://creativecommons.org/licenses/by-sa/4.0/">
    <cc:permits rdf:resource="http://creativecommons.org/ns#Reproduction"/>
    <cc:permits rdf:resource="http://creativecommons.org/ns#Distribution"/>
    <cc:requires rdf:resource="http://creativecommons.org/ns#Notice"/>
    <cc:requires rdf:resource="http://creativecommons.org/ns#Attribution"/>
    <cc:permits rdf:resource="http://creativecommons.org/ns#DerivativeWorks"/>
    <cc:requires rdf:resource="http://creativecommons.org/ns#ShareAlike"/>
   </cc:License>
  </rdf:RDF>
 </metadata>
 <circle id="circle6" cx="16" cy="16" r="16" fill="#404552" stroke-width=".125"/>
 <path id="budgie" d="m21.5 18.75c-2.1945 0-4.0394 1.559-4.625 3.625-0.12362 0.43611-0.20868 0.58551-0.375 0.875-0.21446 0.37327-0.64982 0.91235-1.25 1.25-0.48829 0.2747-0.90908 0.50842-1.5379 0.4137-0.16368-0.0247-0.45369-0.0703-0.74388-0.2372-0.4625-0.26625-0.615-0.5-0.96875-1.1762 0.0505 0.72172-0.04256 0.98504 0.3125 2.25 0.70676 2.518 3.4226 4.5 6.625 4.5 2.3739 0 4.574-0.98939 5.812-2.4998 0.45278-0.55239 0.79372-0.98823 1.125-1.75 0.3014-0.6931 0.37528-1.5816 0.3755-2.3752 7.5e-4 -2.6945-2.1266-4.875-4.75-4.875z" fill="#fff" stroke-width=".125"/>
 <use id="use9" transform="matrix(-.5 .86603 -.86603 -.5 37.856 10.144)" width="100%" height="100%" xlink:href="#budgie"/>
 <use id="use11" transform="matrix(-.5 -.86603 .86603 -.5 10.144 37.856)" width="100%" height="100%" xlink:href="#budgie"/>
</svg>
