<?xml version="1.0" encoding="UTF-8"?>
<svg width="32" height="32" version="1" xmlns="http://www.w3.org/2000/svg">
 <g fill="#222">
  <path d="m16 0a16 16 0 0 0-9.283 2.984l3.639 3.639a10.957 10.957 0 0 1 5.645-1.58 10.957 10.957 0 0 1 10.957 10.957 10.957 10.957 0 0 1-1.58 5.645l3.633 3.633a16 16 0 0 0 2.99-9.277 16 16 0 0 0-16-16zm-13.01 6.723a16 16 0 0 0-2.99 9.277 16 16 0 0 0 16 16 16 16 0 0 0 9.283-2.984l-3.639-3.639a10.957 10.957 0 0 1-5.645 1.58 10.957 10.957 0 0 1-10.957-10.957 10.957 10.957 0 0 1 1.58-5.645l-3.633-3.633z" style="paint-order:stroke markers fill"/>
  <circle cx="16" cy="16" r="5.005" style="paint-order:stroke markers fill"/>
 </g>
</svg>
