<svg xmlns="http://www.w3.org/2000/svg" version="1" width="32" height="32"><defs><linearGradient x1="112.499" y1="6.137" x2="112.499" y2="129.347" gradientUnits="userSpaceOnUse" gradientTransform="translate(287 -83)"><stop offset="0" stop-color="#fff" stop-opacity="0"/><stop offset="1" stop-color="#fff" stop-opacity=".275"/></linearGradient><linearGradient><stop offset="0" stop-opacity="0"/><stop offset="1" stop-opacity=".371"/></linearGradient></defs><g fill="#222"><path d="M16 0a16 16 0 0 0-9.283 2.984l3.639 3.639a10.957 10.957 0 0 1 5.645-1.58 10.957 10.957 0 0 1 10.957 10.957 10.957 10.957 0 0 1-1.58 5.645l3.633 3.633a16 16 0 0 0 2.99-9.277 16 16 0 0 0-16-16zm-13.01 6.723a16 16 0 0 0-2.99 9.277 16 16 0 0 0 16 16 16 16 0 0 0 9.283-2.984l-3.639-3.639a10.957 10.957 0 0 1-5.645 1.58 10.957 10.957 0 0 1-10.957-10.957 10.957 10.957 0 0 1 1.58-5.645l-3.633-3.633z" style="paint-order:stroke markers fill"/><circle r="5.005" cy="16" cx="16" style="paint-order:stroke markers fill"/></g></svg>