<?xml version="1.0" encoding="UTF-8" standalone="no"?>
<!-- Created with Inkscape (http://www.inkscape.org/) -->

<svg
   xmlns:dc="http://purl.org/dc/elements/1.1/"
   xmlns:cc="http://creativecommons.org/ns#"
   xmlns:rdf="http://www.w3.org/1999/02/22-rdf-syntax-ns#"
   xmlns:svg="http://www.w3.org/2000/svg"
   xmlns="http://www.w3.org/2000/svg"
   xmlns:sodipodi="http://sodipodi.sourceforge.net/DTD/sodipodi-0.dtd"
   xmlns:inkscape="http://www.inkscape.org/namespaces/inkscape"
   version="1.0"
   width="32"
   height="32"
   viewBox="0 0 18.528267 18.986136"
   id="svg2"
   inkscape:version="0.48.4 r9939"
   sodipodi:docname="xubuntu.svg"
   inkscape:export-filename="C:\Users\Julian Richen\Desktop\gol\assets\template\images\distros\xubuntu.png"
   inkscape:export-xdpi="90"
   inkscape:export-ydpi="90">
  <metadata
     id="metadata19">
    <rdf:RDF>
      <cc:Work
         rdf:about="">
        <dc:format>image/svg+xml</dc:format>
        <dc:type
           rdf:resource="http://purl.org/dc/dcmitype/StillImage" />
        <dc:title></dc:title>
      </cc:Work>
    </rdf:RDF>
  </metadata>
  <sodipodi:namedview
     pagecolor="#ffffff"
     bordercolor="#666666"
     borderopacity="1"
     objecttolerance="10"
     gridtolerance="10"
     guidetolerance="10"
     inkscape:pageopacity="0"
     inkscape:pageshadow="2"
     inkscape:window-width="1920"
     inkscape:window-height="1018"
     id="namedview17"
     showgrid="false"
     inkscape:zoom="9.1207729"
     inkscape:cx="17.477406"
     inkscape:cy="5.9574967"
     inkscape:window-x="1912"
     inkscape:window-y="-8"
     inkscape:window-maximized="1"
     inkscape:current-layer="svg2" />
  <defs
     id="defs29" />
  <g
     id="g3764"
     transform="matrix(0.16,0,0,0.15476271,3e-7,-0.0106446)">
    <circle
       style="fill:#3a5065;fill-opacity:1"
       id="circle4"
       transform="matrix(1.308032,0,0,1.308032,-1.4308425,0.06616217)"
       r="9.1239996"
       cy="46.903999"
       cx="9.1239996"
       sodipodi:cx="9.1239996"
       sodipodi:cy="46.903999"
       sodipodi:rx="9.1239996"
       sodipodi:ry="9.1239996"
       d="m 18.247999,46.903999 c 0,5.039046 -4.084954,9.124 -9.1239994,9.124 C 4.0849538,56.027999 0,51.943045 0,46.903999 0,41.864953 4.0849538,37.78 9.1239996,37.78 c 5.0390454,0 9.1239994,4.084953 9.1239994,9.123999 z" />
    <circle
       style="fill:#a0b7c9;fill-opacity:1"
       id="circle6"
       transform="matrix(1.308032,0,0,1.308032,-1.4308425,0.06616217)"
       r="9.1239996"
       cy="84.667"
       cx="74.547997"
       sodipodi:cx="74.547997"
       sodipodi:cy="84.667"
       sodipodi:rx="9.1239996"
       sodipodi:ry="9.1239996"
       d="m 83.671996,84.667 c 0,5.039046 -4.084954,9.123999 -9.123999,9.123999 -5.039046,0 -9.124,-4.084953 -9.124,-9.123999 0,-5.039046 4.084954,-9.124 9.124,-9.124 5.039045,0 9.123999,4.084954 9.123999,9.124 z" />
    <circle
       style="fill:#789abd;fill-opacity:1"
       id="circle8"
       transform="matrix(1.308032,0,0,1.308032,-1.4308425,0.06616217)"
       r="9.1239996"
       cy="9.1260004"
       cx="74.540001"
       sodipodi:cx="74.540001"
       sodipodi:cy="9.1260004"
       sodipodi:rx="9.1239996"
       sodipodi:ry="9.1239996"
       d="m 83.664001,9.1260004 c 0,5.0390456 -4.084954,9.1239996 -9.124,9.1239996 -5.039046,0 -9.124,-4.084954 -9.124,-9.1239996 0,-5.0390458 4.084954,-9.12399959 9.124,-9.12399959 5.039046,0 9.124,4.08495379 9.124,9.12399959 z" />
    <path
       style="fill:#3a5065;fill-opacity:1"
       id="path10"
       d="m 67.553457,31.886656 c 14.860552,0 27.190061,11.034558 29.231899,25.340504 l 20.447154,0 c -0.9287,-11.241227 -5.58922,-21.718563 -13.38116,-29.981401 -4.990147,2.541506 -11.126125,2.589903 -16.338633,-0.41857 -5.216431,-3.012398 -8.243217,-8.354401 -8.5336,-13.952777 -3.703039,-0.863302 -7.529032,-1.310649 -11.42566,-1.310649 -7.461014,0 -14.670887,1.6285 -21.228051,4.716764 L 56.562064,34.0109 c 3.399575,-1.368201 7.109154,-2.124244 10.991393,-2.124244 z"
       inkscape:connector-curvature="0" />
    <path
       style="fill:#a0b7c9;fill-opacity:1"
       id="path12"
       d="m 38.023327,61.418095 c 0,-9.408674 4.422456,-17.802316 11.296164,-23.213644 L 39.085449,20.476693 c -2.400239,1.676897 -4.670983,3.574852 -6.78607,5.688631 -5.922769,5.922769 -10.169949,13.07378 -12.507402,20.878807 4.708915,3.050331 7.827263,8.345244 7.827263,14.373964 0,6.027411 -3.118348,11.323633 -7.827263,14.372655 2.337453,7.805027 6.584633,14.956038 12.507402,20.878807 2.113779,2.11378 4.381907,4.009123 6.780838,5.687323 l 10.23535,-17.729065 c -6.8724,-5.411329 -11.29224,-13.80497 -11.29224,-23.20972 z"
       inkscape:connector-curvature="0" />
    <path
       style="fill:#789abd;fill-opacity:1"
       id="path14"
       d="m 96.786664,65.595949 c -2.036605,14.311178 -14.368731,25.352276 -29.233207,25.352276 -3.884855,0 -7.595742,-0.756042 -10.995317,-2.12686 L 46.320174,106.55305 c 6.555856,3.08957 13.768345,4.71938 21.231975,4.71938 3.899244,0 7.730469,-0.44997 11.434816,-1.31327 0.285151,-5.60491 3.313245,-10.956074 8.533601,-13.969779 5.213815,-3.01109 11.352409,-2.962693 16.343864,-0.415955 7.7854,-8.264146 12.44069,-18.740174 13.36677,-29.977477 l -20.444536,0 z"
       inkscape:connector-curvature="0" />
    <circle
       style="fill:#111111;fill-opacity:1"
       id="circle3256"
       transform="matrix(1.308032,0,0,1.308032,-1.4308425,0.06616217)"
       r="9.1239996"
       cy="46.903999"
       cx="9.1239996"
       sodipodi:cx="9.1239996"
       sodipodi:cy="46.903999"
       sodipodi:rx="9.1239996"
       sodipodi:ry="9.1239996"
       d="m 18.247999,46.903999 c 0,5.039046 -4.084954,9.124 -9.1239994,9.124 C 4.0849538,56.027999 0,51.943045 0,46.903999 0,41.864953 4.0849538,37.78 9.1239996,37.78 c 5.0390454,0 9.1239994,4.084953 9.1239994,9.123999 z" />
    <circle
       style="fill:#444444;fill-opacity:1"
       id="circle3258"
       transform="matrix(1.308032,0,0,1.308032,-1.4308425,0.06616217)"
       r="9.1239996"
       cy="84.667"
       cx="74.547997"
       sodipodi:cx="74.547997"
       sodipodi:cy="84.667"
       sodipodi:rx="9.1239996"
       sodipodi:ry="9.1239996"
       d="m 83.671996,84.667 c 0,5.039046 -4.084954,9.123999 -9.123999,9.123999 -5.039046,0 -9.124,-4.084953 -9.124,-9.123999 0,-5.039046 4.084954,-9.124 9.124,-9.124 5.039045,0 9.123999,4.084954 9.123999,9.124 z" />
    <circle
       style="fill:#333333;fill-opacity:1"
       id="circle3260"
       transform="matrix(1.308032,0,0,1.308032,-1.4308425,0.06616217)"
       r="9.1239996"
       cy="9.1260004"
       cx="74.540001"
       sodipodi:cx="74.540001"
       sodipodi:cy="9.1260004"
       sodipodi:rx="9.1239996"
       sodipodi:ry="9.1239996"
       d="m 83.664001,9.1260004 c 0,5.0390456 -4.084954,9.1239996 -9.124,9.1239996 -5.039046,0 -9.124,-4.084954 -9.124,-9.1239996 0,-5.0390458 4.084954,-9.12399959 9.124,-9.12399959 5.039046,0 9.124,4.08495379 9.124,9.12399959 z" />
    <path
       style="fill:#111111;fill-opacity:1"
       id="path3262"
       d="m 67.553457,31.886656 c 14.860552,0 27.190061,11.034558 29.231899,25.340504 l 20.447154,0 c -0.9287,-11.241227 -5.58922,-21.718563 -13.38116,-29.981401 -4.990147,2.541506 -11.126125,2.589903 -16.338633,-0.41857 -5.216431,-3.012398 -8.243217,-8.354401 -8.5336,-13.952777 -3.703039,-0.863302 -7.529032,-1.310649 -11.42566,-1.310649 -7.461014,0 -14.670887,1.6285 -21.228051,4.716764 L 56.562064,34.0109 c 3.399575,-1.368201 7.109154,-2.124244 10.991393,-2.124244 z"
       inkscape:connector-curvature="0" />
    <path
       style="fill:#444444;fill-opacity:1"
       id="path3264"
       d="m 38.023327,61.418095 c 0,-9.408674 4.422456,-17.802316 11.296164,-23.213644 L 39.085449,20.476693 c -2.400239,1.676897 -4.670983,3.574852 -6.78607,5.688631 -5.922769,5.922769 -10.169949,13.07378 -12.507402,20.878807 4.708915,3.050331 7.827263,8.345244 7.827263,14.373964 0,6.027411 -3.118348,11.323633 -7.827263,14.372655 2.337453,7.805027 6.584633,14.956038 12.507402,20.878807 2.113779,2.11378 4.381907,4.009123 6.780838,5.687323 l 10.23535,-17.729065 c -6.8724,-5.411329 -11.29224,-13.80497 -11.29224,-23.20972 z"
       inkscape:connector-curvature="0" />
    <path
       style="fill:#333333;fill-opacity:1"
       id="path3266"
       d="m 96.786664,65.595949 c -2.036605,14.311178 -14.368731,25.352276 -29.233207,25.352276 -3.884855,0 -7.595742,-0.756042 -10.995317,-2.12686 L 46.320174,106.55305 c 6.555856,3.08957 13.768345,4.71938 21.231975,4.71938 3.899244,0 7.730469,-0.44997 11.434816,-1.31327 0.285151,-5.60491 3.313245,-10.956074 8.533601,-13.969779 5.213815,-3.01109 11.352409,-2.962693 16.343864,-0.415955 7.7854,-8.264146 12.44069,-18.740174 13.36677,-29.977477 l -20.444536,0 z"
       inkscape:connector-curvature="0" />
    <path
       style="fill:#222222;fill-opacity:1;fill-rule:evenodd;stroke:none"
       id="path3268"
       d="m 31.239161,45.97109 c 0.185946,-0.03109 4.822446,2.416234 7.938907,3.261971 5.557233,1.420155 10.629906,5.694447 13.08174,8.149734 0.181797,0.210138 2.105868,-1.440546 4.119452,-1.321652 2.75045,0.166588 11.261011,2.559665 12.398102,0.930064 0.689516,-0.956678 0.640089,-2.130405 1.500343,-2.611163 0.463127,-0.129613 -1.721539,-4.125327 0.600342,-5.405503 1.655521,-0.827422 3.058397,3.804934 3.483511,4.324056 0.190437,0.232257 1.200685,0.288939 1.081098,-0.240207 -0.129613,-0.574766 -1.763701,-5.019788 0.240208,-5.765637 3.254708,-1.288825 2.677869,5.687527 2.762548,5.885914 0.180065,0.422347 11.335317,0.747922 12.011696,5.765642 0.391248,2.76151 -8.937057,6.330733 -9.849497,6.966676 -0.912092,0.635941 -0.836055,1.653104 -0.480411,2.282478 0.40887,0.682601 3.126482,2.986507 2.762889,4.083853 -0.249884,0.633869 -5.321863,-1.689394 -5.645712,-1.201031 -0.738592,0.93283 3.692266,3.267842 2.162203,4.924749 -0.606563,0.396771 -7.585335,-2.921877 -7.56771,-2.882822 -0.187322,0.0712 -9.861247,1.767158 -17.296932,-0.480758 -0.261975,-0.07397 -4.772327,4.356893 -5.285226,4.204474 -0.701267,-0.257142 1.03375,-3.853669 0.840895,-4.564612 -0.315209,-0.39608 -3.197337,1.608173 -3.363236,0.600689 -0.198385,-1.324074 2.529254,-2.846186 2.402408,-3.723717 -0.703336,-4.985231 0.314169,-7.896393 2.041929,-10.329909 0.576148,-0.895848 -6.771402,-6.444441 -12.090846,-8.634293 -5.319103,-2.189857 -8.164941,-4.045834 -7.848701,-4.218996 z m 47.80361,16.668384 c -0.05842,-0.203917 3.630054,-2.434898 4.164036,-1.921998 0.961172,0.348387 -4.130163,2.180866 -4.164036,1.921998 z m 1.761626,2.028793 c -0.324881,-0.196312 2.208175,-3.149989 2.8296,-2.829597 0.907254,0.901378 -2.872111,2.899757 -2.8296,2.829597 z M 90.787649,51.00139 c -0.307951,-0.254724 -2.722798,3.555399 -2.188812,3.950789 0.321081,0.240207 2.326367,-3.814961 2.188812,-3.950789 z m -9.95861,5.453373 c 0,0.605389 -0.431541,1.09672 -0.963257,1.09672 -0.53172,0 -0.96326,-0.491331 -0.96326,-1.09672 0,-0.605392 0.43154,-1.096723 0.96326,-1.096723 0.531716,0 0.963257,0.491331 0.963257,1.096723 z m 7.182559,-5.987232 c -0.152419,-0.176959 -0.961174,3.929015 -0.587211,4.110811 0.321079,0.240207 0.880294,-3.897217 0.587211,-4.110811 z m -10.308073,5.556766 c -0.957712,0.67707 0.525689,4.508621 2.965429,2.271418 -1.916817,0.05634 -2.556211,-0.504951 -2.965429,-2.271418 z"
       inkscape:connector-curvature="0" />
  </g>
</svg>
