<?xml version="1.0" encoding="UTF-8"?>
<!-- Created with Inkscape (http://www.inkscape.org/) -->
<svg id="svg2" width="32" height="32" version="1.0" viewBox="0 0 18.528 18.986" xmlns="http://www.w3.org/2000/svg" xmlns:cc="http://creativecommons.org/ns#" xmlns:dc="http://purl.org/dc/elements/1.1/" xmlns:rdf="http://www.w3.org/1999/02/22-rdf-syntax-ns#">
 <metadata id="metadata19">
  <rdf:RDF>
   <cc:Work rdf:about="">
    <dc:format>image/svg+xml</dc:format>
    <dc:type rdf:resource="http://purl.org/dc/dcmitype/StillImage"/>
    <dc:title/>
   </cc:Work>
  </rdf:RDF>
 </metadata>
 <g id="g3764" transform="matrix(.16 0 0 .15476 3e-7 -.010645)">
  <circle id="circle4" transform="matrix(1.308 0 0 1.308 -1.4308 .066162)" cx="9.124" cy="46.904" r="9.124" d="m 18.247999,46.903999 c 0,5.039046 -4.084954,9.124 -9.1239994,9.124 C 4.0849538,56.027999 0,51.943045 0,46.903999 0,41.864953 4.0849538,37.78 9.1239996,37.78 c 5.0390454,0 9.1239994,4.084953 9.1239994,9.123999 z" fill="#3a5065"/>
  <circle id="circle6" transform="matrix(1.308 0 0 1.308 -1.4308 .066162)" cx="74.548" cy="84.667" r="9.124" d="m 83.671996,84.667 c 0,5.039046 -4.084954,9.123999 -9.123999,9.123999 -5.039046,0 -9.124,-4.084953 -9.124,-9.123999 0,-5.039046 4.084954,-9.124 9.124,-9.124 5.039045,0 9.123999,4.084954 9.123999,9.124 z" fill="#a0b7c9"/>
  <circle id="circle8" transform="matrix(1.308 0 0 1.308 -1.4308 .066162)" cx="74.54" cy="9.126" r="9.124" d="m 83.664001,9.1260004 c 0,5.0390456 -4.084954,9.1239996 -9.124,9.1239996 -5.039046,0 -9.124,-4.084954 -9.124,-9.1239996 0,-5.0390458 4.084954,-9.12399959 9.124,-9.12399959 5.039046,0 9.124,4.08495379 9.124,9.12399959 z" fill="#789abd"/>
  <path id="path10" d="m67.553 31.887c14.861 0 27.19 11.035 29.232 25.341h20.447c-0.9287-11.241-5.5892-21.719-13.381-29.981-4.9901 2.5415-11.126 2.5899-16.339-0.41857-5.2164-3.0124-8.2432-8.3544-8.5336-13.953-3.703-0.8633-7.529-1.3106-11.426-1.3106-7.461 0-14.671 1.6285-21.228 4.7168l10.237 17.73c3.3996-1.3682 7.1092-2.1242 10.991-2.1242z" fill="#3a5065"/>
  <path id="path12" d="m38.023 61.418c0-9.4087 4.4225-17.802 11.296-23.214l-10.234-17.728c-2.4002 1.6769-4.671 3.5749-6.7861 5.6886-5.9228 5.9228-10.17 13.074-12.507 20.879 4.7089 3.0503 7.8273 8.3452 7.8273 14.374 0 6.0274-3.1183 11.324-7.8273 14.373 2.3375 7.805 6.5846 14.956 12.507 20.879 2.1138 2.1138 4.3819 4.0091 6.7808 5.6873l10.235-17.729c-6.8724-5.4113-11.292-13.805-11.292-23.21z" fill="#a0b7c9"/>
  <path id="path14" d="m96.787 65.596c-2.0366 14.311-14.369 25.352-29.233 25.352-3.8849 0-7.5957-0.75604-10.995-2.1269l-10.238 17.732c6.5559 3.0896 13.768 4.7194 21.232 4.7194 3.8992 0 7.7305-0.44997 11.435-1.3133 0.28515-5.6049 3.3132-10.956 8.5336-13.97 5.2138-3.0111 11.352-2.9627 16.344-0.41596 7.7854-8.2641 12.441-18.74 13.367-29.977h-20.445z" fill="#789abd"/>
  <circle id="circle3256" transform="matrix(1.308 0 0 1.308 -1.4308 .066162)" cx="9.124" cy="46.904" r="9.124" d="m 18.247999,46.903999 c 0,5.039046 -4.084954,9.124 -9.1239994,9.124 C 4.0849538,56.027999 0,51.943045 0,46.903999 0,41.864953 4.0849538,37.78 9.1239996,37.78 c 5.0390454,0 9.1239994,4.084953 9.1239994,9.123999 z" fill="#111"/>
  <circle id="circle3258" transform="matrix(1.308 0 0 1.308 -1.4308 .066162)" cx="74.548" cy="84.667" r="9.124" d="m 83.671996,84.667 c 0,5.039046 -4.084954,9.123999 -9.123999,9.123999 -5.039046,0 -9.124,-4.084953 -9.124,-9.123999 0,-5.039046 4.084954,-9.124 9.124,-9.124 5.039045,0 9.123999,4.084954 9.123999,9.124 z" fill="#444"/>
  <circle id="circle3260" transform="matrix(1.308 0 0 1.308 -1.4308 .066162)" cx="74.54" cy="9.126" r="9.124" d="m 83.664001,9.1260004 c 0,5.0390456 -4.084954,9.1239996 -9.124,9.1239996 -5.039046,0 -9.124,-4.084954 -9.124,-9.1239996 0,-5.0390458 4.084954,-9.12399959 9.124,-9.12399959 5.039046,0 9.124,4.08495379 9.124,9.12399959 z" fill="#333"/>
  <path id="path3262" d="m67.553 31.887c14.861 0 27.19 11.035 29.232 25.341h20.447c-0.9287-11.241-5.5892-21.719-13.381-29.981-4.9901 2.5415-11.126 2.5899-16.339-0.41857-5.2164-3.0124-8.2432-8.3544-8.5336-13.953-3.703-0.8633-7.529-1.3106-11.426-1.3106-7.461 0-14.671 1.6285-21.228 4.7168l10.237 17.73c3.3996-1.3682 7.1092-2.1242 10.991-2.1242z" fill="#111"/>
  <path id="path3264" d="m38.023 61.418c0-9.4087 4.4225-17.802 11.296-23.214l-10.234-17.728c-2.4002 1.6769-4.671 3.5749-6.7861 5.6886-5.9228 5.9228-10.17 13.074-12.507 20.879 4.7089 3.0503 7.8273 8.3452 7.8273 14.374 0 6.0274-3.1183 11.324-7.8273 14.373 2.3375 7.805 6.5846 14.956 12.507 20.879 2.1138 2.1138 4.3819 4.0091 6.7808 5.6873l10.235-17.729c-6.8724-5.4113-11.292-13.805-11.292-23.21z" fill="#444"/>
  <path id="path3266" d="m96.787 65.596c-2.0366 14.311-14.369 25.352-29.233 25.352-3.8849 0-7.5957-0.75604-10.995-2.1269l-10.238 17.732c6.5559 3.0896 13.768 4.7194 21.232 4.7194 3.8992 0 7.7305-0.44997 11.435-1.3133 0.28515-5.6049 3.3132-10.956 8.5336-13.97 5.2138-3.0111 11.352-2.9627 16.344-0.41596 7.7854-8.2641 12.441-18.74 13.367-29.977h-20.445z" fill="#333"/>
  <path id="path3268" d="m31.239 45.971c0.18595-0.03109 4.8224 2.4162 7.9389 3.262 5.5572 1.4202 10.63 5.6944 13.082 8.1497 0.1818 0.21014 2.1059-1.4405 4.1195-1.3217 2.7504 0.16659 11.261 2.5597 12.398 0.93006 0.68952-0.95668 0.64009-2.1304 1.5003-2.6112 0.46313-0.12961-1.7215-4.1253 0.60034-5.4055 1.6555-0.82742 3.0584 3.8049 3.4835 4.3241 0.19044 0.23226 1.2007 0.28894 1.0811-0.24021-0.12961-0.57477-1.7637-5.0198 0.24021-5.7656 3.2547-1.2888 2.6779 5.6875 2.7625 5.8859 0.18006 0.42235 11.335 0.74792 12.012 5.7656 0.39125 2.7615-8.9371 6.3307-9.8495 6.9667-0.91209 0.63594-0.83606 1.6531-0.48041 2.2825 0.40887 0.6826 3.1265 2.9865 2.7629 4.0839-0.24988 0.63387-5.3219-1.6894-5.6457-1.201-0.73859 0.93283 3.6923 3.2678 2.1622 4.9247-0.60656 0.39677-7.5853-2.9219-7.5677-2.8828-0.18732 0.0712-9.8612 1.7672-17.297-0.48076-0.26198-0.07397-4.7723 4.3569-5.2852 4.2045-0.70127-0.25714 1.0338-3.8537 0.8409-4.5646-0.31521-0.39608-3.1973 1.6082-3.3632 0.60069-0.19838-1.3241 2.5293-2.8462 2.4024-3.7237-0.70334-4.9852 0.31417-7.8964 2.0419-10.33 0.57615-0.89585-6.7714-6.4444-12.091-8.6343-5.3191-2.1899-8.1649-4.0458-7.8487-4.219zm47.804 16.668c-0.05842-0.20392 3.6301-2.4349 4.164-1.922 0.96117 0.34839-4.1302 2.1809-4.164 1.922zm1.7616 2.0288c-0.32488-0.19631 2.2082-3.15 2.8296-2.8296 0.90725 0.90138-2.8721 2.8998-2.8296 2.8296zm9.9833-13.667c-0.30795-0.25472-2.7228 3.5554-2.1888 3.9508 0.32108 0.24021 2.3264-3.815 2.1888-3.9508zm-9.9586 5.4534c0 0.60539-0.43154 1.0967-0.96326 1.0967-0.53172 0-0.96326-0.49133-0.96326-1.0967 0-0.60539 0.43154-1.0967 0.96326-1.0967 0.53172 0 0.96326 0.49133 0.96326 1.0967zm7.1826-5.9872c-0.15242-0.17696-0.96117 3.929-0.58721 4.1108 0.32108 0.24021 0.88029-3.8972 0.58721-4.1108zm-10.308 5.5568c-0.95771 0.67707 0.52569 4.5086 2.9654 2.2714-1.9168 0.05634-2.5562-0.50495-2.9654-2.2714z" fill="#222" fill-rule="evenodd"/>
 </g>
</svg>
