<?xml version="1.0" encoding="UTF-8" standalone="no"?>
<!-- Created with Inkscape (http://www.inkscape.org/) -->

<svg
   xmlns:dc="http://purl.org/dc/elements/1.1/"
   xmlns:cc="http://creativecommons.org/ns#"
   xmlns:rdf="http://www.w3.org/1999/02/22-rdf-syntax-ns#"
   xmlns:svg="http://www.w3.org/2000/svg"
   xmlns="http://www.w3.org/2000/svg"
   xmlns:sodipodi="http://sodipodi.sourceforge.net/DTD/sodipodi-0.dtd"
   xmlns:inkscape="http://www.inkscape.org/namespaces/inkscape"
   height="32"
   width="32"
   version="1.1"
   id="svg2"
   inkscape:version="0.48.4 r9939"
   sodipodi:docname="desura.svg"
   inkscape:export-filename="C:\Users\Julian Richen\Desktop\gol\assets\template\images\social\desura.png"
   inkscape:export-xdpi="90"
   inkscape:export-ydpi="90">
  <defs
     id="defs22" />
  <sodipodi:namedview
     pagecolor="#ffffff"
     bordercolor="#666666"
     borderopacity="1"
     objecttolerance="10"
     gridtolerance="10"
     guidetolerance="10"
     inkscape:pageopacity="0"
     inkscape:pageshadow="2"
     inkscape:window-width="1920"
     inkscape:window-height="1018"
     id="namedview20"
     showgrid="false"
     inkscape:zoom="9.4760343"
     inkscape:cx="-0.26598988"
     inkscape:cy="14.533732"
     inkscape:window-x="1912"
     inkscape:window-y="-8"
     inkscape:window-maximized="1"
     inkscape:current-layer="svg2" />
  <metadata
     id="metadata4">
    <rdf:RDF>
      <cc:Work
         rdf:about="">
        <dc:format>image/svg+xml</dc:format>
        <dc:type
           rdf:resource="http://purl.org/dc/dcmitype/StillImage" />
        <dc:title></dc:title>
      </cc:Work>
    </rdf:RDF>
  </metadata>
  <path
     style="fill:#ffffff;fill-opacity:1"
     inkscape:connector-curvature="0"
     id="path18"
     d="m 19.023206,22.611345 c 1.590642,-2.369929 2.66163,-5.967879 2.66163,-8.941655 0,-0.564399 0.02632,-0.87426 0.07054,-0.87426 0.03685,0 1.014662,-0.107922 2.168407,-0.239531 1.153694,-0.131612 2.111397,-0.225842 2.128243,-0.208996 0.03159,0.03159 1.015872,3.56348 1.049196,3.764364 0.03159,0.183201 -7.308366,6.385142 -8.338549,7.047136 -0.154249,0.09897 -0.107923,0.0021 0.26006,-0.54676 z m -6.389578,0.09792 C 11.515941,21.84053 6.7813068,17.877921 5.0576808,16.368608 l -0.186359,-0.163195 0.514332,-1.890502 c 0.282698,-1.039773 0.53676,-1.914664 0.564451,-1.944196 0.02631,-0.03159 0.989444,0.05369 2.137243,0.185832 1.147796,0.131609 2.1048162,0.239529 2.1267152,0.239529 0.02106,0 0.06001,0.439579 0.08423,0.976548 0.150561,3.311853 1.081782,6.407568 2.639783,8.774865 0.242688,0.368509 0.432207,0.67932 0.421153,0.69032 -0.01054,0.01051 -0.337448,-0.226368 -0.725067,-0.528018 z M 3.6576668,20.123124 C 1.0479942,17.901914 -0.01556824,16.957277 1.7176432e-4,16.874718 0.03702376,16.682039 2.6931268,7.8635393 2.7235038,7.8331531 c 0.0158,-0.015801 1.606801,0.1374034 3.536315,0.3400823 1.929508,0.2021533 3.591861,0.3679829 3.694141,0.3685086 0.1479292,3.039e-4 0.7788682,-0.5148607 3.1011542,-2.5329689 1.60338,-1.3933832 2.938695,-2.5251779 2.967282,-2.5150167 0.02632,0.010514 1.346686,1.1425847 2.929011,2.5165421 2.026479,1.7596281 2.930587,2.5037009 3.058401,2.5170192 0.100025,0.010514 1.774897,-0.1484579 3.722521,-0.3527169 1.947567,-0.204259 3.547892,-0.3642971 3.556279,-0.355874 0.04738,0.047381 2.726647,9.0746852 2.711327,9.1375242 -0.01051,0.04212 -1.667446,1.477666 -3.682625,3.19049 l -3.663907,3.11422 -1.298623,-0.0053 c -0.714222,-0.0033 -1.446921,-0.02631 -1.628281,-0.05264 l -0.329551,-0.04211 3.891226,-3.227713 c 2.140191,-1.775262 3.891287,-3.246096 3.891287,-3.268552 0,-0.04211 -2.029482,-6.304133 -2.064387,-6.369129 -0.01051,-0.02106 -1.411861,0.134769 -3.113217,0.344817 l -3.093315,0.38223 -0.67516,-0.581032 C 19.862242,10.121983 18.756823,9.1671243 17.77743,8.3196625 l -1.780789,-1.5408931 -0.17741,0.1626695 c -0.09739,0.089496 -1.197812,1.0445132 -2.445159,2.1220837 l -2.267907,1.9592534 -2.8972142,-0.35956 c -1.593428,-0.197942 -2.994499,-0.360611 -3.11343,-0.362191 -0.214788,-0.0024 -0.217945,0.0024 -0.426416,0.655789 -0.115817,0.362191 -0.572716,1.768418 -1.015978,3.125159 -0.443264,1.356795 -0.80414,2.511331 -0.802034,2.565713 0.0021,0.05422 1.74868,1.541945 3.88135,3.305836 l 3.8775522,3.207141 -0.320076,0.04212 c -0.17583,0.02631 -0.9122692,0.04738 -1.6363882,0.04738 l -1.316576,0.0031 -3.679707,-3.131996 z m 11.7490352,2.816931 c -0.85673,-0.857572 -1.428865,-1.864443 -1.915403,-3.370863 -0.52923,-1.638548 -0.788239,-3.571259 -0.783025,-5.843387 l 0.0033,-1.436656 1.634018,-1.674766 1.634021,-1.6747652 1.676765,1.6747652 1.676768,1.674766 -0.03685,1.755468 c -0.04738,2.44037 -0.266906,3.926079 -0.821667,5.617709 -0.341662,1.042405 -0.78287,1.930456 -1.315418,2.648731 -0.35798,0.482746 -1.038245,1.152275 -1.170963,1.152275 -0.03159,0 -0.295332,-0.23532 -0.582716,-0.523284 z m -3.288637,3.608239 -3.8614782,-1.970889 3.8784032,-0.0158 c 2.133087,-0.01051 5.622449,-0.01051 7.75404,0 l 3.875608,0.0158 -3.856221,1.957993 c -2.120926,1.076886 -3.872538,1.963832 -3.892502,1.970888 -0.02106,0.0053 -1.774001,-0.873998 -3.89782,-1.957992 z" />
</svg>
