<?xml version="1.0" encoding="UTF-8" standalone="no"?>
<!-- Generator: IcoMoon.io -->

<svg
   xmlns:dc="http://purl.org/dc/elements/1.1/"
   xmlns:cc="http://creativecommons.org/ns#"
   xmlns:rdf="http://www.w3.org/1999/02/22-rdf-syntax-ns#"
   xmlns:svg="http://www.w3.org/2000/svg"
   xmlns="http://www.w3.org/2000/svg"
   xmlns:sodipodi="http://sodipodi.sourceforge.net/DTD/sodipodi-0.dtd"
   xmlns:inkscape="http://www.inkscape.org/namespaces/inkscape"
   width="32"
   height="32"
   viewBox="0 0 32 32"
   fill="#000000"
   id="svg2"
   version="1.1"
   inkscape:version="0.48.4 r9939"
   sodipodi:docname="google-plus.svg"
   inkscape:export-filename="C:\Users\Julian Richen\Desktop\gol\assets\template\images\social\google-plus.png"
   inkscape:export-xdpi="90"
   inkscape:export-ydpi="90">
  <metadata
     id="metadata12">
    <rdf:RDF>
      <cc:Work
         rdf:about="">
        <dc:format>image/svg+xml</dc:format>
        <dc:type
           rdf:resource="http://purl.org/dc/dcmitype/StillImage" />
        <dc:title></dc:title>
      </cc:Work>
    </rdf:RDF>
  </metadata>
  <defs
     id="defs10" />
  <sodipodi:namedview
     pagecolor="#ffffff"
     bordercolor="#666666"
     borderopacity="1"
     objecttolerance="10"
     gridtolerance="10"
     guidetolerance="10"
     inkscape:pageopacity="0"
     inkscape:pageshadow="2"
     inkscape:window-width="1920"
     inkscape:window-height="1058"
     id="namedview8"
     showgrid="false"
     inkscape:zoom="7.375"
     inkscape:cx="-26.305085"
     inkscape:cy="16"
     inkscape:window-x="-8"
     inkscape:window-y="-8"
     inkscape:window-maximized="1"
     inkscape:current-layer="svg2" />
  <g
     id="g4"
     style="fill:#ffffff;fill-opacity:1"
     transform="translate(0,0.4815)">
    <path
       d="m 17.471,2 c 0,0 -6.28,0 -8.373,0 -3.754,0 -7.287,2.844 -7.287,6.138 0,3.366 2.559,6.083 6.378,6.083 0.266,0 0.524,-0.005 0.776,-0.024 -0.248,0.475 -0.425,1.009 -0.425,1.564 0,0.936 0.503,1.694 1.14,2.313 -0.481,0 -0.945,0.014 -1.452,0.014 C 3.579,18.089 0,21.05 0,24.121 c 0,3.024 3.923,4.916 8.573,4.916 5.301,0 8.228,-3.008 8.228,-6.032 0,-2.425 -0.716,-3.877 -2.928,-5.442 -0.757,-0.536 -2.204,-1.839 -2.204,-2.604 0,-0.897 0.256,-1.34 1.607,-2.395 1.385,-1.082 2.365,-2.603 2.365,-4.372 0,-2.106 -0.938,-4.159 -2.699,-4.837 l 2.655,0 L 17.471,2 z m -2.925,20.483 c 0.066,0.28 0.103,0.569 0.103,0.863 0,2.444 -1.575,4.353 -6.093,4.353 -3.214,0 -5.535,-2.034 -5.535,-4.478 0,-2.395 2.879,-4.389 6.093,-4.354 0.75,0.008 1.449,0.129 2.083,0.334 1.745,1.214 2.996,1.9 3.349,3.282 z M 9.401,13.368 C 7.244,13.303 5.194,10.955 4.821,8.122 4.449,5.289 5.895,3.121 8.052,3.185 c 2.157,0.065 4.207,2.338 4.58,5.171 0.372,2.833 -1.075,5.077 -3.231,5.012 z M 26,8 l 0,-6 -2,0 0,6 -6,0 0,2 6,0 0,6 2,0 0,-6 6,0 0,-2 z"
       id="path6"
       style="fill:#ffffff;fill-opacity:1"
       inkscape:connector-curvature="0" />
  </g>
</svg>
