<?xml version="1.0" encoding="UTF-8" standalone="no"?>
<!-- Generator: Adobe Illustrator 16.0.4, SVG Export Plug-In . SVG Version: 6.00 Build 0)  -->

<svg
   xmlns:dc="http://purl.org/dc/elements/1.1/"
   xmlns:cc="http://creativecommons.org/ns#"
   xmlns:rdf="http://www.w3.org/1999/02/22-rdf-syntax-ns#"
   xmlns:svg="http://www.w3.org/2000/svg"
   xmlns="http://www.w3.org/2000/svg"
   xmlns:sodipodi="http://sodipodi.sourceforge.net/DTD/sodipodi-0.dtd"
   xmlns:inkscape="http://www.inkscape.org/namespaces/inkscape"
   version="1.1"
   id="Layer_1"
   x="0px"
   y="0px"
   width="32"
   height="32"
   viewBox="0 0 32 32"
   enable-background="new 0 0 56.693 56.693"
   xml:space="preserve"
   inkscape:version="0.48.4 r9939"
   sodipodi:docname="rss-forum.svg"
   inkscape:export-filename="C:\wamp\www\gol\assets\template\images\social\white\rss-forum.png"
   inkscape:export-xdpi="90"
   inkscape:export-ydpi="90"><metadata
   id="metadata9"><rdf:RDF><cc:Work
       rdf:about=""><dc:format>image/svg+xml</dc:format><dc:type
         rdf:resource="http://purl.org/dc/dcmitype/StillImage" /><dc:title></dc:title></cc:Work></rdf:RDF></metadata><defs
   id="defs7" /><sodipodi:namedview
   pagecolor="#ffffff"
   bordercolor="#666666"
   borderopacity="1"
   objecttolerance="10"
   gridtolerance="10"
   guidetolerance="10"
   inkscape:pageopacity="0"
   inkscape:pageshadow="2"
   inkscape:window-width="1920"
   inkscape:window-height="1018"
   id="namedview5"
   showgrid="false"
   inkscape:zoom="8.3255431"
   inkscape:cx="37.103427"
   inkscape:cy="3.0277886"
   inkscape:window-x="1912"
   inkscape:window-y="-8"
   inkscape:window-maximized="1"
   inkscape:current-layer="Layer_1" />

<path
   d="M -3.5008465e-8,17.006389 C 3.9964474,17.006389 7.7533616,18.561309 10.576699,21.389491 c 2.8285,2.828181 4.385761,6.595228 4.385761,10.605358 l 6.158655,0 C 21.121115,20.347091 11.64586,10.87159 -3.5008465e-8,10.87159 z M 0.00970827,6.1315902 c 14.24323073,0 25.83162673,11.6053178 25.83162673,25.8709758 l 6.158665,0 C 32.000018,14.353762 17.648326,-0.00256613 0.00973486,-0.00256613 l 0,6.13415633 z"
   id="path3"
   style="fill:#ffffff;fill-opacity:1"
   inkscape:export-xdpi="58.099998"
   inkscape:export-ydpi="58.099998"
   inkscape:connector-curvature="0"
   sodipodi:nodetypes="cccccccccccc" /><path
   d="m 9.564811,26.584717 c 0.0671,2.074567 -1.6797437,3.20273 -3.6507979,3.879322 C 5.2211322,30.701884 1.1104406,32.475891 0,31.877341 1.3409122,30.833587 2.7602612,29.908415 2.0201702,26.828736 1.9496981,24.649855 3.58754,23.016797 5.6703957,22.94943 7.7532527,22.88206 9.497677,24.509009 9.564811,26.584717 z"
   id="path3-1"
   style="fill:#ffffff;fill-opacity:1"
   inkscape:export-xdpi="58.099998"
   inkscape:export-ydpi="58.099998"
   inkscape:connector-curvature="0"
   sodipodi:nodetypes="ssccss" /></svg>