<?xml version="1.0" encoding="UTF-8" standalone="no"?>
<!-- Generator: Adobe Illustrator 16.0.4, SVG Export Plug-In . SVG Version: 6.00 Build 0)  -->

<svg
   xmlns:dc="http://purl.org/dc/elements/1.1/"
   xmlns:cc="http://creativecommons.org/ns#"
   xmlns:rdf="http://www.w3.org/1999/02/22-rdf-syntax-ns#"
   xmlns:svg="http://www.w3.org/2000/svg"
   xmlns="http://www.w3.org/2000/svg"
   xmlns:sodipodi="http://sodipodi.sourceforge.net/DTD/sodipodi-0.dtd"
   xmlns:inkscape="http://www.inkscape.org/namespaces/inkscape"
   version="1.1"
   id="Layer_1"
   x="0px"
   y="0px"
   width="32"
   height="32"
   viewBox="0 0 32 32"
   enable-background="new 0 0 56.693 56.693"
   xml:space="preserve"
   inkscape:version="0.48.4 r9939"
   sodipodi:docname="rss-website.svg"
   inkscape:export-filename="C:\wamp\www\gol\assets\template\images\social\white\rss-website.png"
   inkscape:export-xdpi="90"
   inkscape:export-ydpi="90"><metadata
   id="metadata9"><rdf:RDF><cc:Work
       rdf:about=""><dc:format>image/svg+xml</dc:format><dc:type
         rdf:resource="http://purl.org/dc/dcmitype/StillImage" /><dc:title></dc:title></cc:Work></rdf:RDF></metadata><defs
   id="defs7" /><sodipodi:namedview
   pagecolor="#ffffff"
   bordercolor="#666666"
   borderopacity="1"
   objecttolerance="10"
   gridtolerance="10"
   guidetolerance="10"
   inkscape:pageopacity="0"
   inkscape:pageshadow="2"
   inkscape:window-width="1920"
   inkscape:window-height="1018"
   id="namedview5"
   showgrid="false"
   inkscape:zoom="16"
   inkscape:cx="17.833445"
   inkscape:cy="16.092489"
   inkscape:window-x="1912"
   inkscape:window-y="-8"
   inkscape:window-maximized="1"
   inkscape:current-layer="g3806" />

<g
   id="g3806"
   transform="matrix(1.0850839,0,0,1.0653373,-0.01983753,-2.1975399)"><path
     inkscape:connector-curvature="0"
     inkscape:export-ydpi="58.099998"
     inkscape:export-xdpi="58.099998"
     style="fill:#ffffff;fill-opacity:1"
     id="path3"
     d="m 0.01828226,18.025999 c 3.68307834,0 7.14540694,1.459322 9.74736174,4.113627 2.606713,2.654302 4.041864,6.18975 4.041864,9.953332 l 5.675746,0 c 0,-10.931646 -8.732283,-19.824587 -19.46497174,-19.824587 z M 0.02721446,7.8197889 C 13.153609,7.8197889 23.833344,18.711603 23.833344,32.1002 l 5.675745,0 c 0,-16.563741 -13.226352,-30.0374356 -29.4818731,-30.0374356 z"
     sodipodi:nodetypes="ccccccccccc" /><g
     id="g3822"
     transform="matrix(0.55424226,0,0,0.55424226,-0.0453177,14.635629)"
     style="fill:#ffffff"><path
       style="fill:#ffffff;fill-opacity:1;stroke:none"
       d="m 4.8293574,15.353517 c 0.3256443,0.334219 0.5593132,0.675532 0.6286143,1.029523 l 0.5028912,0.441224 c -0.4322996,0.33617 -0.5649326,0.672341 -0.7124294,1.008511 -0.2591307,-0.202166 -0.5580724,-0.351107 -0.9010137,-0.441223 0,0 0.3771685,-0.546278 0.3562148,-0.693352 -0.020954,-0.147075 -0.5238453,-0.714363 -0.5238453,-0.714363 -0.1679797,0.53192 -0.2890965,1.11083 -0.6286141,1.470747 -0.4909574,0.370115 -0.6943074,0.750529 -0.7962447,1.134575 -0.1180707,0.609781 0.3898993,0.624862 0.7752908,0.756384 l 0.4190762,0.777395 0.083815,-0.588299 C 4.5122744,19.202681 4.233226,18.427234 4.2636046,17.832775 l 0.5867066,0.31516 0.1885843,0.840427 0.6286142,-0.525267 c -0.2807907,0.381822 -0.054195,0.857859 0.7962448,1.449736 l -1.2572286,0.567288 0.2304919,0.168085 c 0,0 0.6522687,-0.06636 0.6705223,0.08404 0.030707,0.253023 -1.0744847,0.477731 -1.2781827,0.483245 L 4.6826807,21.86682 c -0.1317722,0.688371 -0.3990602,1.08352 -0.7962446,1.197607 0.1021,0.274245 0.328596,0.875802 0.094292,0.856185 C 3.8490246,23.99556 3.53536,23.146599 3.3259217,23.14322 L 2.6082538,23.2115 c -0.3096108,0.722592 -0.055063,1.010039 0.3562147,1.176597 0.1056479,-0.135331 0.2041199,-0.286492 0.3771686,-0.273139 l 0.1676304,0.08404 c 0,0 -0.1466767,0.777394 -0.062861,0.756383 0.083815,-0.02101 0.3981223,0.210107 0.3981223,0.210107 l 0.7333833,0.420214 0.2095381,-0.31516 c 1.4125626,-0.215169 1.7700778,0.01886 2.1666201,0.808378 0.3519915,0.700817 1.6502325,0.415908 1.5107734,1.35572 -0.1559107,0.29507 -0.1741074,0.328542 -0.1861401,0.60868 -0.03635,0.846223 -0.5075632,0.906579 -0.9008631,1.12199 C 6.7283497,29.521046 6.5466329,30.5617 5.9818166,31.510716 5.6957221,31.44585 5.5489706,31.118979 5.7035382,30.584629 6.0310514,28.86147 5.1762402,28.325312 4.3893274,27.329595 c -0.2824905,-0.405817 -0.3846886,-0.834232 0,-1.323672 L 2.5453924,24.787304 C 2.0691878,24.140842 1.3547705,23.564048 1.1757241,22.83068 0.78641972,22.762248 0.40769576,22.683206 0.11475076,22.518153 0.45422838,18.906306 2.4329562,16.922503 4.8293574,15.353517 z"
       id="path3765"
       inkscape:connector-curvature="0"
       sodipodi:nodetypes="cccccscccccccccccccscccccccccscccscsscccccccc" /><path
       style="fill:#ffffff;fill-opacity:1;stroke:none"
       d="m 6.5379558,14.560584 c 0,0.274851 -0.022221,0.750268 -0.022221,0.750268 l 0.3111484,0.01486 c 0,0 0.022221,0.08914 0.022221,0.155996 0,0.06686 -0.3111479,0.07428 -0.3111479,0.118854 0,0.04457 0.029631,0.289707 0.029631,0.289707 l 0.3481922,-0.118854 -0.096308,0.408562 c 0,0 -0.2370654,0.052 -0.2370654,0.103997 0,0.052 0.096308,0.809695 0.096308,0.809695 l 0.8000954,1.307397 0.3185563,-0.757696 0.1629823,-0.690841 c 0,0 0.9186284,-0.713125 0.8815869,-0.713125 -0.037042,0 0.9593729,-0.519987 0.9223314,-0.519987 -0.037036,0 -0.3889351,-0.103998 -0.3593014,-0.170853 0.029637,-0.06686 0.081491,-0.460561 0.1555733,-0.341706 0.074083,0.118854 0.3000364,0.308278 0.3000364,0.308278 l 0.033337,-0.25628 c 0,0 -0.3333736,-0.178281 -0.2889231,-0.267422 0.044453,-0.08914 0.1333486,-0.245137 0.1777986,-0.18571 0.044453,0.05943 0.088899,-0.06686 0.088899,-0.06686 L 9.5531298,14.456587 9.4642305,14.181736 c -1.0449009,-0.04788 -1.9990824,0.131657 -2.9262747,0.378848 z"
       id="path3767"
       inkscape:connector-curvature="0"
       sodipodi:nodetypes="cccsscccsccccsscsccsccccc" /><path
       style="fill:#ffffff;fill-opacity:1;stroke:none"
       d="m 9.7901951,16.766816 0.014816,0.282279 c 0,0 0.2963309,0.393705 0.3704149,0.423418 0.07408,0.02971 0.651929,-0.267422 0.644521,-0.311992 -0.0074,-0.04457 -0.162982,-0.445703 -0.207432,-0.445703 -0.04445,0 -0.8223201,0.052 -0.8223201,0.052 z"
       id="path3777"
       inkscape:connector-curvature="0" /><path
       style="fill:#ffffff;fill-opacity:1;stroke:none"
       d="m 13.457298,30.583623 c -0.177799,-0.594271 -0.42968,-2.377085 -0.42968,-2.377085 0,0 0.311147,-0.772553 0.251881,-0.980548 -0.05926,-0.207995 -0.355597,-0.623984 -0.355597,-0.623984 0,0 0.355597,-0.74284 -0.04445,-0.668555 -0.400049,0.07428 -1.392759,0.415989 -1.392759,0.415989 -0.463481,-0.248329 -0.785966,-0.514329 -0.933444,-0.802266 -0.14414,-0.7619 -0.174381,-1.264869 0.77787,-2.533081 0.07408,-0.08914 1.029753,-0.571986 1.029753,-0.571986 0,0 0.948261,-0.133711 0.977893,-0.04457 0.02964,0.08914 0.281515,0.950834 0.444498,0.846836 0.162982,-0.103997 0.696379,-0.252565 0.963077,-0.252565 0.266699,0 0.666747,0.193138 0.800096,0.07428 0.133349,-0.118854 0.340781,-0.609128 0.162982,-0.609128 -0.177799,0 -0.548213,0.02972 -0.874178,-0.178282 -0.325965,-0.207994 -0.340782,-0.460559 -0.459314,-0.519987 -0.118533,-0.05943 -0.266699,0.207995 -0.237065,0.401134 0.02963,0.193137 0.133349,0.594271 -0.237066,0.356562 -0.370414,-0.237709 -0.414864,0.01485 -0.414864,-0.371419 0,-0.386277 0.192616,-0.207995 -0.07408,-0.609129 -0.266698,-0.401133 -0.0889,-1.025118 -0.577846,-0.401133 -0.488948,0.623985 -0.237066,0.311993 -0.548213,0.713126 -0.311149,0.401133 -0.577848,0.87655 -0.755646,0.772552 -0.177799,-0.103997 -0.548214,-0.103997 -0.370414,-0.50513 0.177798,-0.401133 -0.07408,-0.193138 0.177798,-0.41599 0.251882,-0.222851 0.56303,-0.401133 0.56303,-0.401133 0,0 0,0.207995 0.01482,-0.133711 0.01482,-0.341705 -0.01482,-0.386276 -0.01482,-0.386276 0,0 -0.237065,-0.118854 0.01482,-0.193138 0.251882,-0.07428 0.311148,-0.08914 0.311148,-0.08914 l 0.933445,-1.143972 c 0,0 0.340781,-0.401133 0.04445,-0.579415 -0.296332,-0.178281 -0.414864,0 -0.459314,-0.267422 -0.04445,-0.267422 -0.503763,0.133711 0.01482,-0.623985 0.51858,-0.757695 0.548214,-0.861693 0.696379,-1.084545 0.148166,-0.222851 0.355598,-0.475417 0.355598,-0.475417 l 0.355597,-0.415991 c 7.41431,7.082602 2.113834,13.022501 -0.711194,14.678502 z"
       id="path3779"
       inkscape:connector-curvature="0"
       sodipodi:nodetypes="ccscscccccsssssscsssssssscscsccssssccc" /><path
       style="fill:#ffffff;fill-opacity:1;stroke:none"
       d="m 11.990457,18.475346 c -0.08149,0.05943 -0.496356,0.297136 -0.466722,0.341706 0.02964,0.04457 0.177799,0.02229 0.125941,0.178282 -0.05186,0.155996 -0.140758,0.393704 -0.251882,0.445703 -0.111124,0.052 -0.363006,0.304564 -0.355598,0.386277 0.0074,0.08171 0.414865,0.445703 0.488947,0.326849 0.07408,-0.118855 0.274107,-0.609128 0.274107,-0.609128 0,0 0.266698,-0.289708 0.148165,0.08171 -0.118532,0.371419 -0.177798,0.6017 -0.140757,0.623985 0.03704,0.02228 0.177799,0.06686 0.318557,-0.052 0.140757,-0.118854 0.21484,-0.06686 0.229657,-0.200567 0.01482,-0.133711 0.04445,-0.07428 -0.05927,-0.430846 -0.103716,-0.356563 -0.0074,-0.341706 -0.148165,-0.594272 -0.140758,-0.252565 -0.162983,-0.497702 -0.162983,-0.497702 z"
       id="path3781"
       inkscape:connector-curvature="0" /></g></g></svg>