<?xml version="1.0" encoding="UTF-8" standalone="no"?>
<!-- Generator: Adobe Illustrator 16.0.4, SVG Export Plug-In . SVG Version: 6.00 Build 0)  -->

<svg
   xmlns:dc="http://purl.org/dc/elements/1.1/"
   xmlns:cc="http://creativecommons.org/ns#"
   xmlns:rdf="http://www.w3.org/1999/02/22-rdf-syntax-ns#"
   xmlns:svg="http://www.w3.org/2000/svg"
   xmlns="http://www.w3.org/2000/svg"
   xmlns:sodipodi="http://sodipodi.sourceforge.net/DTD/sodipodi-0.dtd"
   xmlns:inkscape="http://www.inkscape.org/namespaces/inkscape"
   version="1.1"
   id="Layer_1"
   x="0px"
   y="0px"
   width="32"
   height="32"
   viewBox="0 0 32 32"
   enable-background="new 0 0 56.693 56.693"
   xml:space="preserve"
   inkscape:version="0.48.4 r9939"
   sodipodi:docname="rss.svg"
   inkscape:export-filename="C:\Users\Julian Richen\Desktop\gol\assets\template\images\social\rss.png"
   inkscape:export-xdpi="90"
   inkscape:export-ydpi="90"><metadata
   id="metadata9"><rdf:RDF><cc:Work
       rdf:about=""><dc:format>image/svg+xml</dc:format><dc:type
         rdf:resource="http://purl.org/dc/dcmitype/StillImage" /><dc:title></dc:title></cc:Work></rdf:RDF></metadata><defs
   id="defs7" /><sodipodi:namedview
   pagecolor="#ffffff"
   bordercolor="#666666"
   borderopacity="1"
   objecttolerance="10"
   gridtolerance="10"
   guidetolerance="10"
   inkscape:pageopacity="0"
   inkscape:pageshadow="2"
   inkscape:window-width="1920"
   inkscape:window-height="1058"
   id="namedview5"
   showgrid="false"
   inkscape:zoom="4.1627714"
   inkscape:cx="-37.835371"
   inkscape:cy="28.3465"
   inkscape:window-x="-8"
   inkscape:window-y="-8"
   inkscape:window-maximized="1"
   inkscape:current-layer="Layer_1" />
<path
   d="m 0.0051642,17.006229 c 3.995804,0 7.7521178,1.554671 10.5750018,4.382399 2.828048,2.827727 4.385056,6.594172 4.385056,10.603657 h 6.15767 c 0,-11.645891 -9.473735,-21.119872 -21.1177278,-21.119872 v 6.133816 z M 0.0148442,6.133173 C 14.255789,6.133173 25.84233,17.736629 25.84233,32 H 32 C 32,14.354028 17.650609,0 0.0148471,0 V 6.133173 z M 8.529973,27.715331 c 0,2.345509 -1.91011,4.24802 -4.2649877,4.24802 C 1.9101105,31.963351 0,30.061483 0,27.715331 0,25.368535 1.909465,23.46731 4.2643427,23.46731 c 2.3548773,0 4.2656333,1.901225 4.2656333,4.248021 z"
   id="path3"
   style="fill:#ffffff;fill-opacity:1"
   inkscape:export-xdpi="58.099998"
   inkscape:export-ydpi="58.099998"
   inkscape:connector-curvature="0" />
</svg>