<?xml version="1.0" encoding="UTF-8" standalone="no"?>
<svg
   xmlns:dc="http://purl.org/dc/elements/1.1/"
   xmlns:cc="http://creativecommons.org/ns#"
   xmlns:rdf="http://www.w3.org/1999/02/22-rdf-syntax-ns#"
   xmlns:svg="http://www.w3.org/2000/svg"
   xmlns="http://www.w3.org/2000/svg"
   xmlns:sodipodi="http://sodipodi.sourceforge.net/DTD/sodipodi-0.dtd"
   xmlns:inkscape="http://www.inkscape.org/namespaces/inkscape"
   enable-background="new 0 0 56.693 56.693"
   height="32"
   id="Layer_1"
   version="1.1"
   viewBox="0 0 32 32"
   width="32"
   xml:space="preserve"
   inkscape:version="0.48.4 r9939"
   sodipodi:docname="steam.svg"
   inkscape:export-filename="C:\Users\Julian Richen\Desktop\gol\assets\template\images\social\steam.png"
   inkscape:export-xdpi="90"
   inkscape:export-ydpi="90"><metadata
     id="metadata21"><rdf:RDF><cc:Work
         rdf:about=""><dc:format>image/svg+xml</dc:format><dc:type
           rdf:resource="http://purl.org/dc/dcmitype/StillImage" /><dc:title></dc:title></cc:Work></rdf:RDF></metadata><defs
     id="defs19" /><sodipodi:namedview
     pagecolor="#ffffff"
     bordercolor="#666666"
     borderopacity="1"
     objecttolerance="10"
     gridtolerance="10"
     guidetolerance="10"
     inkscape:pageopacity="0"
     inkscape:pageshadow="2"
     inkscape:window-width="1920"
     inkscape:window-height="1018"
     id="namedview17"
     showgrid="false"
     inkscape:zoom="16.651086"
     inkscape:cx="18.33135"
     inkscape:cy="18.07826"
     inkscape:window-x="1912"
     inkscape:window-y="-8"
     inkscape:window-maximized="1"
     inkscape:current-layer="Layer_1" /><path
     inkscape:connector-curvature="0"
     d="m 29.99738,13.009914 c 0,1.281965 -1.04044,2.322401 -2.3224,2.322401 -1.28197,0 -2.32241,-1.040436 -2.32241,-2.322401 0,-1.281965 1.04044,-2.3224 2.32241,-2.3224 1.28196,0 2.3224,1.040435 2.3224,2.3224 z M 27.66336,8.6866762 c -2.3811,0 -4.31501,1.9202948 -4.33663,4.2964408 l -2.70203,3.872157 c -0.11007,-0.01139 -0.22195,-0.01787 -0.33496,-0.01787 -0.60369,-1e-6 -1.16785,0.16595 -1.65248,0.455548 L 6.4,12.371249 C 6.08018,10.919382 4.78271,9.8255408 3.23796,9.8255408 1.45445,9.8255398 -1.5000001e-8,11.284455 -1.5000001e-8,13.067969 -1.5000001e-8,14.851482 1.45445,16.305932 3.23796,16.305932 c 0.60366,-10e-7 1.16785,-0.165942 1.65248,-0.455548 l 12.23726,4.91277 c 0.31659,1.45526 1.6142,2.550175 3.16204,2.550175 1.6766,0 3.0599,-1.285188 3.2201,-2.920866 l 4.15352,-3.036985 C 30.0574,17.355478 32,15.416649 32,13.023308 32,10.628597 30.05757,8.6866712 27.66336,8.6866712 z m 0,1.4291698 c 1.60408,0 2.90747,1.303353 2.90747,2.907467 0,1.604112 -1.30339,2.903 -2.90747,2.903 -1.60407,0 -2.90746,-1.298887 -2.90746,-2.903 0,-1.604114 1.30339,-2.907467 2.90746,-2.907467 z m -24.4254,0.567201 c 0.9143,0 1.70448,0.510815 2.10356,1.263922 l -1.18353,-0.473412 0,0.0045 c -0.95354,-0.342429 -2.01284,0.123623 -2.39386,1.071877 -0.38102,0.948253 0.0573,2.021596 0.98256,2.434055 l 0,0.0045 1.00488,0.401954 c -0.16519,0.03598 -0.33726,0.05806 -0.51361,0.05806 -1.31955,0 -2.38046001,-1.060909 -2.38046001,-2.380461 0,-1.319552 1.06091001,-2.384927 2.38046001,-2.384927 z m 17.05178,7.011864 c 1.31963,-1e-6 2.38046,1.06083 2.38046,2.38046 0,1.319632 -1.06083,2.380461 -2.38046,2.380461 -0.9179,0 -1.71046,-0.511785 -2.10802,-1.268388 0.39146,0.157968 0.7836,0.314322 1.1746,0.473413 0.97025,0.389877 2.07529,-0.079 2.46531,-1.049547 0.39002,-0.970264 -0.0836,-2.070974 -1.05401,-2.460851 l -0.99149,-0.397488 c 0.1652,-0.03598 0.33725,-0.05806 0.51361,-0.05806 z"
     id="Gears"
     style="fill:#ffffff;fill-opacity:1;fill-rule:nonzero;stroke:none" /></svg>