<?xml version="1.0" encoding="UTF-8" standalone="no"?>
<!-- Created with Inkscape (http://www.inkscape.org/) -->

<svg
   xmlns:dc="http://purl.org/dc/elements/1.1/"
   xmlns:cc="http://creativecommons.org/ns#"
   xmlns:rdf="http://www.w3.org/1999/02/22-rdf-syntax-ns#"
   xmlns:svg="http://www.w3.org/2000/svg"
   xmlns="http://www.w3.org/2000/svg"
   xmlns:sodipodi="http://sodipodi.sourceforge.net/DTD/sodipodi-0.dtd"
   xmlns:inkscape="http://www.inkscape.org/namespaces/inkscape"
   height="32"
   width="32"
   version="1.1"
   id="svg2"
   inkscape:version="0.48.4 r9939"
   sodipodi:docname="website.svg"
   inkscape:export-filename="C:\Users\Julian Richen\Desktop\gol\assets\template\images\social\website.png"
   inkscape:export-xdpi="90"
   inkscape:export-ydpi="90">
  <defs
     id="defs22" />
  <sodipodi:namedview
     pagecolor="#ffffff"
     bordercolor="#666666"
     borderopacity="1"
     objecttolerance="10"
     gridtolerance="10"
     guidetolerance="10"
     inkscape:pageopacity="0"
     inkscape:pageshadow="2"
     inkscape:window-width="1920"
     inkscape:window-height="1018"
     id="namedview20"
     showgrid="false"
     inkscape:zoom="18.952069"
     inkscape:cx="24.577417"
     inkscape:cy="16.411484"
     inkscape:window-x="1912"
     inkscape:window-y="-8"
     inkscape:window-maximized="1"
     inkscape:current-layer="svg2" />
  <metadata
     id="metadata4">
    <rdf:RDF>
      <cc:Work
         rdf:about="">
        <dc:format>image/svg+xml</dc:format>
        <dc:type
           rdf:resource="http://purl.org/dc/dcmitype/StillImage" />
        <dc:title></dc:title>
      </cc:Work>
    </rdf:RDF>
  </metadata>
  <path
     sodipodi:type="arc"
     style="fill:#222222;fill-opacity:1;stroke:#222222;stroke-width:0.5;stroke-linecap:round;stroke-linejoin:round;stroke-miterlimit:4;stroke-opacity:1;stroke-dasharray:none"
     id="path2995"
     sodipodi:cx="14.140592"
     sodipodi:cy="8.5318403"
     sodipodi:rx="14.662936"
     sodipodi:ry="14.662936"
     d="m 28.803528,8.5318403 a 14.662936,14.662936 0 1 1 -29.32587259,0 14.662936,14.662936 0 1 1 29.32587259,0 z"
     transform="matrix(1.0700151,0,0,1.0729184,0.86935344,6.8460315)" />
  <path
     style="fill:#ffffff;fill-opacity:1;stroke:#222222;stroke-width:0.24966720000000001;stroke-linecap:round;stroke-linejoin:round;stroke-miterlimit:4;stroke-opacity:1;stroke-dasharray:none"
     d="M 8.5886088,2.2634036 C 9.166894,2.8569152 9.5818475,3.4630248 9.7049135,4.0916483 L 10.597957,4.8751818 C 9.8302714,5.4721596 9.5947393,6.0691375 9.3328119,6.6661153 8.8726428,6.3071043 8.3417766,6.0426117 7.7327753,5.8825818 c 0,0 0.6697827,-0.970089 0.6325726,-1.2312667 C 8.3281377,4.3901373 7.435094,3.3827371 7.435094,3.3827371 7.1367925,4.32733 6.9217111,5.355369 6.3187895,5.9945153 5.4469384,6.6517722 5.0858258,7.3273192 4.9048036,8.0093155 4.6951315,9.0921755 5.597194,9.1189556 6.2815793,9.3525157 L 7.0257824,10.733027 7.174623,9.6883157 C 8.0255271,9.0988188 7.5299878,7.7217654 7.5839347,6.6661153 L 8.625819,7.225782 8.9607104,8.7182267 10.077015,7.7854488 C 9.5783818,8.4634946 9.980774,9.3088496 11.491001,10.359916 l -2.2326094,1.0074 0.4093117,0.298489 c 0,0 1.1583107,-0.11784 1.1907257,0.149244 0.05453,0.449324 -1.9080895,0.848364 -2.2698202,0.858156 L 8.3281377,13.82985 c -0.2340035,1.222422 -0.7086584,1.924136 -1.4139858,2.126733 0.1813111,0.48701 0.5835269,1.555265 0.1674456,1.520429 C 6.847716,17.6101 6.2907046,16.1025 5.9187802,16.0965 L 4.6443326,16.217761 C 4.09452,17.500954 4.5465507,18.011407 5.2769051,18.307183 5.4645165,18.06686 5.639385,17.798427 5.946688,17.822139 l 0.2976811,0.149245 c 0,0 -0.2604711,1.380511 -0.1116304,1.343199 0.1488406,-0.03731 0.7069929,0.373112 0.7069929,0.373112 l 1.3023554,0.746223 0.3721016,-0.559667 c 2.5084544,-0.382101 3.1433364,0.03349 3.8475234,1.435533 0.625073,1.244523 2.930513,0.738577 2.682859,2.407511 -0.276869,0.523991 -0.309183,0.583432 -0.330551,1.080906 -0.06455,1.502738 -0.90134,1.609919 -1.599769,1.992451 -1.153377,0.631708 -1.476073,2.479719 -2.479084,4.164999 -0.508052,-0.115189 -0.7686559,-0.695653 -0.494172,-1.644562 0.581604,-3.060016 -0.9363853,-4.012135 -2.3337994,-5.780349 -0.5016519,-0.720656 -0.6831371,-1.481443 0,-2.3506 L 4.5327021,19.016094 C 3.6870492,17.868095 2.418374,16.843813 2.1004202,15.541485 1.4090863,15.419962 0.73654138,15.279599 0.21632431,14.986494 0.81917485,8.5725102 4.3330358,5.0496361 8.5886088,2.2634036 z"
     id="path3765"
     inkscape:connector-curvature="0"
     sodipodi:nodetypes="cccccscccccccccccccscccccccccscccscsscccccccc" />
  <path
     style="fill:#ffffff;fill-opacity:1;stroke:#222222;stroke-width:0.24966720000000001;stroke-linecap:round;stroke-linejoin:round;stroke-miterlimit:4;stroke-opacity:1;stroke-dasharray:none"
     d="m 11.622769,0.85529867 c 0,0.48808443 -0.03946,1.33233863 -0.03946,1.33233863 l 0.552543,0.026383 c 0,0 0.03946,0.1582976 0.03946,0.2770209 0,0.1187232 -0.552542,0.1319147 -0.552542,0.2110636 0,0.079149 0.05262,0.5144673 0.05262,0.5144673 l 0.618326,-0.2110632 -0.171025,0.725531 c 0,0 -0.420985,0.09234 -0.420985,0.1846806 0,0.09234 0.171025,1.4378704 0.171025,1.4378704 l 1.420824,2.321699 0.565698,-1.3455301 0.289427,-1.2268069 c 0,0 1.631317,-1.2663812 1.565538,-1.2663812 -0.06578,0 1.703672,-0.9234031 1.637893,-0.9234031 -0.06577,0 -0.690678,-0.18468 -0.638054,-0.3034038 0.05263,-0.1187232 0.144713,-0.8178712 0.27627,-0.6068077 0.131558,0.2110636 0.53281,0.5474461 0.53281,0.5474461 l 0.0592,-0.4551058 c 0,0 -0.592011,-0.3165953 -0.513075,-0.474893 0.07894,-0.158298 0.236803,-0.435319 0.315738,-0.3297872 0.07894,0.1055318 0.157869,-0.1187232 0.157869,-0.1187232 L 16.97717,0.67061807 16.819301,0.18253362 C 14.963747,0.09750971 13.269294,0.41633249 11.622769,0.85529867 z"
     id="path3767"
     inkscape:connector-curvature="0"
     sodipodi:nodetypes="cccsscccsccccsscsccsccccc" />
  <path
     style="fill:#ffffff;fill-opacity:1;stroke:#222222;stroke-width:0.25000000000000000;stroke-linecap:butt;stroke-linejoin:miter;stroke-opacity:1;stroke-miterlimit:4;stroke-dasharray:none"
     d="m 17.398155,4.7731658 0.02631,0.5012758 c 0,0 0.526231,0.6991481 0.65779,0.7519139 0.131557,0.052766 1.157708,-0.474893 1.144552,-0.5540418 -0.01316,-0.079149 -0.289427,-0.7914882 -0.368362,-0.7914882 -0.07894,0 -1.460291,0.09234 -1.460291,0.09234 z"
     id="path3777"
     inkscape:connector-curvature="0" />
  <path
     style="fill:#ffffff;fill-opacity:1;stroke:#222222;stroke-width:0.24966720000000001;stroke-linecap:round;stroke-linejoin:round;stroke-miterlimit:4;stroke-opacity:1;stroke-dasharray:none"
     d="m 23.910264,29.309303 c -0.315739,-1.055318 -0.763035,-4.221271 -0.763035,-4.221271 0,0 0.552542,-1.371913 0.447296,-1.741274 -0.105245,-0.369362 -0.631477,-1.108083 -0.631477,-1.108083 0,0 0.631477,-1.319148 -0.07894,-1.187233 -0.710413,0.131915 -2.473287,0.738722 -2.473287,0.738722 -0.823057,-0.440987 -1.395733,-0.913356 -1.657627,-1.424679 -0.255965,-1.352996 -0.309669,-2.246178 1.381357,-4.498291 0.131558,-0.158298 1.828653,-1.015744 1.828653,-1.015744 0,0 1.683939,-0.237446 1.736561,-0.07915 0.05263,0.158298 0.49992,1.688508 0.789348,1.503828 0.289426,-0.184681 1.236642,-0.44851 1.71025,-0.44851 0.473608,0 1.18402,0.342978 1.420824,0.131915 0.236804,-0.211064 0.605166,-1.081701 0.289427,-1.081701 -0.315739,0 -0.973527,0.05277 -1.552382,-0.316596 -0.578854,-0.36936 -0.605166,-0.81787 -0.815658,-0.923403 -0.210492,-0.105531 -0.473608,0.369362 -0.420984,0.712341 0.05262,0.342977 0.236803,1.055317 -0.420986,0.63319 -0.657788,-0.422128 -0.736723,0.02638 -0.736723,-0.659574 0,-0.685957 0.34205,-0.369361 -0.131558,-1.081701 -0.473607,-0.712339 -0.157869,-1.820423 -1.02615,-0.712339 -0.868282,1.108083 -0.420985,0.554042 -0.973527,1.266381 -0.552543,0.71234 -1.026152,1.556594 -1.34189,1.371913 -0.315738,-0.18468 -0.973527,-0.18468 -0.657788,-0.897019 0.315738,-0.71234 -0.131558,-0.342979 0.315738,-0.738723 0.447297,-0.395744 0.999839,-0.712339 0.999839,-0.712339 0,0 0,0.36936 0.02631,-0.237447 0.02631,-0.606807 -0.02631,-0.685956 -0.02631,-0.685956 0,0 -0.420985,-0.211064 0.02631,-0.342979 0.447297,-0.131915 0.552543,-0.158298 0.552543,-0.158298 l 1.657628,-2.0314861 c 0,0 0.605166,-0.7123395 0.07894,-1.0289348 -0.526231,-0.3165953 -0.736722,0 -0.815657,-0.474893 -0.07894,-0.4748929 -0.894593,0.2374465 0.02631,-1.1080836 0.920904,-1.3455301 0.973528,-1.5302107 1.236643,-1.9259548 0.263115,-0.3957442 0.631477,-0.8442542 0.631477,-0.8442542 L 25.173215,3.242952 c 13.166467,12.577413 3.753784,23.125594 -1.262951,26.066351 z"
     id="path3779"
     inkscape:connector-curvature="0"
     sodipodi:nodetypes="ccscscccccsssssscsssssssscscsccssssccc" />
  <path
     style="fill:#ffffff;fill-opacity:1;stroke:#222222;stroke-width:0.24966720000000001;stroke-linecap:round;stroke-linejoin:round;stroke-miterlimit:4;stroke-opacity:1;stroke-dasharray:none"
     d="m 21.30542,7.8072042 c -0.144713,0.1055318 -0.881437,0.5276589 -0.828814,0.6068077 0.05263,0.079149 0.315739,0.039574 0.223649,0.3165953 -0.09209,0.277021 -0.24996,0.6991481 -0.447297,0.7914884 -0.197336,0.09234 -0.644632,0.5408504 -0.631477,0.6859574 0.01316,0.145105 0.736724,0.791487 0.868281,0.580424 0.131558,-0.211064 0.486764,-1.0817008 0.486764,-1.0817008 0,0 0.473608,-0.5144674 0.263115,0.1451061 -0.210492,0.6595727 -0.315738,1.0685097 -0.249959,1.1080837 0.06578,0.03957 0.315738,0.118723 0.565698,-0.09234 0.24996,-0.211064 0.381517,-0.118723 0.40783,-0.356171 0.02631,-0.237446 0.07894,-0.131914 -0.105247,-0.7651044 C 21.673782,9.1131599 21.844807,9.1395429 21.594848,8.6910328 21.344887,8.2425228 21.30542,7.8072042 21.30542,7.8072042 z"
     id="path3781"
     inkscape:connector-curvature="0" />
</svg>
