<svg xmlns="http://www.w3.org/2000/svg" width="32" height="32" viewBox="0 0 32 32" enable-background="new 0 0 56.693 56.693"><path d="M.005 17.006c3.996 0 7.752 1.555 10.575 4.382 2.828 2.828 4.385 6.594 4.385 10.604h6.158c0-11.646-9.474-21.12-21.118-21.12v6.134zm.01-10.873c14.241 0 25.827 11.603 25.827 25.867h6.158c0-17.646-14.349-32-31.985-32v6.133zm8.515 21.582c0 2.346-1.91 4.248-4.265 4.248-2.355 0-4.265-1.902-4.265-4.248 0-2.347 1.909-4.248 4.264-4.248 2.355 0 4.266 1.901 4.266 4.248z" fill="#222"/></svg>