<?xml version="1.0" encoding="UTF-8"?>
<!-- Created with Inkscape (http://www.inkscape.org/) -->
<svg id="svg2" width="1920" height="177" version="1.1" xmlns="http://www.w3.org/2000/svg" xmlns:cc="http://creativecommons.org/ns#" xmlns:dc="http://purl.org/dc/elements/1.1/" xmlns:rdf="http://www.w3.org/1999/02/22-rdf-syntax-ns#" xmlns:xlink="http://www.w3.org/1999/xlink">
 <defs id="defs4">
  <filter id="filter4138" x="-.14682" y="-.1199" width="1.2936" height="1.2398" color-interpolation-filters="sRGB">
   <feGaussianBlur id="feGaussianBlur4140" stdDeviation="0.14193438"/>
  </filter>
  <filter id="filter4138-7" x="-.14682" y="-.1199" width="1.2936" height="1.2398" color-interpolation-filters="sRGB">
   <feGaussianBlur id="feGaussianBlur4140-6" stdDeviation="0.14193438"/>
  </filter>
  <filter id="filter4138-7-4" x="-.14682" y="-.1199" width="1.2936" height="1.2398" color-interpolation-filters="sRGB">
   <feGaussianBlur id="feGaussianBlur4140-6-1" stdDeviation="0.14193438"/>
  </filter>
  <filter id="filter4138-7-2" x="-.14682" y="-.1199" width="1.2936" height="1.2398" color-interpolation-filters="sRGB">
   <feGaussianBlur id="feGaussianBlur4140-6-4" stdDeviation="0.14193438"/>
  </filter>
 </defs>
 <metadata id="metadata7">
  <rdf:RDF>
   <cc:Work rdf:about="">
    <dc:format>image/svg+xml</dc:format>
    <dc:type rdf:resource="http://purl.org/dc/dcmitype/StillImage"/>
    <dc:title/>
   </cc:Work>
  </rdf:RDF>
 </metadata>
 <g id="layer1" transform="translate(0 -875.36)">
  <path id="path3913" d="m-402.98 614.01c-1.4193 2.3436-5.1609 11.224-5.1609 11.224h94.961l26.063-76.225 4.7366-10.159c-7.7331-27.62-21.22-48.823-33.003-71.926 8.0573-13.04 16.379-25.808 22.282-39.525l-23.209-35.92-60.838 8.1142-9.0321 58.958 24.45 20.234c-70.348 28.185-36.289 87.528-41.25 135.23z" fill="#efefef" stroke="#efefef" stroke-width="1.9981"/>
  <path id="path3813-8-0-4" d="m-299.57 449.77c1.6821 2.0803 1.4289 2.8367 4.2304 6.5435l-0.2242-13.906s6.0298 2.635 5.5972 1.5811c-1.7646-4.1532-4.4576-7.981-6.4626-11.513-6.319 12.178-13.103 23.535-18.662 32.128 4.9998-4.1993 11.115-8.0823 15.521-14.835z" fill="#efefef" stroke="#efefef" stroke-width="1.9981"/>
  <path id="path3813-8-0" d="m-366.2 451c-0.47171-0.51613-3.7168 3.9099-7.9052 6.9185l0.98513-11.839s-7.9349 1.2951-7.3543 0.30836c3.9483-5.3844 7.4813-9.3131 11.114-12.131 0.28077 1.7937 2.7529 9.2068 3.6427 11.477 1.6392-1.1444 1.9738-1.9225 3.4736-3.7743 2.0127 11.367 11.609 24.062 11.436 28.53 0.27854-1.2042-12.206-16.004-15.391-19.49z" fill="#efefef" stroke="#efefef" stroke-width="1.9981"/>
  <path id="path3813" d="m-418.83 580.98c-0.60649 1.4983-3.2738 36.707-3.4798 37.167 8.7062-0.0813 15.822-2.66 22.244-5.8421m23.052-101.83c1.6869-0.25786 12.529-0.54514 12.661-0.92411 12.897-36.904 9.331-27.182 13.311-38.77 0.39092-1.1382-12.094-15.938-15.279-19.424-0.47171-0.51614-3.7168 3.9099-7.9052 6.9185l0.98513-11.839s-7.9349 1.2951-7.3543 0.30836c0.58059-0.98673 10.451-12.088 10.451-12.088l-11.935 1.6651c7.4853-8.077 8.3079-17.598 8.6362-28.379l6.266-6.2799c-1.8599-24.296 37.597-16.997 53.64-24.078 3.9392-12.859 26.881-26.952 27.983-38.567l-38.571 1.6669c-6.6736 3.0436-13.347 5.1404-20.021 10.099-0.78396-9.9174-1.3127-17.196-0.63864-19.68-20.734 5.0819-37.638 22.612-54.841 39.168-8.5846 13.512-0.82282 45.311-15.999 61.918 7.7825 8.1592 15.923 15.908 20.386 27.875-33.213 33.003-14.084 46.151-45.674 86.833 15.832 20.337 27.41 41.448 33.03 63.645l35.868 7.4005 15.741-15.38-24.514 0.185c-6.3962-19.877-11.281-38.379-11.87-57.33 7.4746-17.469 13.492-32.694 26.837-59.204" fill="#efefef" stroke="#efefef" stroke-linecap="round" stroke-linejoin="round" stroke-width="1.9981px"/>
  <path id="path3815" d="m-403.5 382.28c1.2773 0 43.143 1.7866 43.143 1.7866-5.0565 5.0022-6.0283 9.2241-6.3863 17.618l-37.583-11.839z" fill="#efefef" stroke="#efefef" stroke-linecap="round" stroke-linejoin="round" stroke-width="1.9981px"/>
  <path id="path4008" d="m-357.41 381.31c-6.408-4.2119-15.492-6.1664-24.772-7.9556l20.192 0.0617v-6.8455c4.7218 2.2024 8.4832 5.7817 12.193 9.4357v-8.3256c3.8832 2.693 7.1267 6.4344 9.8058 11.101l11.612-0.92506c2.1358-4.5825 4.6069-9.0794 9.2897-13.013v6.4138c2.9483-3.2848 5.6817-6.9804 9.6122-8.3873 0 0-0.0646 7.2155 0 7.2155h14.386c-6.9167 1.9883-15.011 3.1511-17.031 8.5723z" fill="#efefef" stroke="#efefef" stroke-linecap="round" stroke-linejoin="round" stroke-width="1.9981px"/>
  <path id="path3855" d="m-315.05 467.04c4.4437 1.1101 47.387 57.725 46.082 56.368-1.3589-1.4121 24.203-22.526 24.203-22.526 2.2056-9.492 2.703-18.984 1.8128-28.476l-15.392-21.956 26.45 14.431 10.725-2.2227 14.693 28.125-9.8058 5.3037c-9.8674 30.035-31.654 53.613-51.351 78.322 0 0-13.676-19.303-19.353-24.175-1.2881-1.1055 4.7739-11.471 4.7739-11.471-6.5024-23.646-21.04-48.957-32.836-71.723z" fill="#efefef" stroke="#efefef" stroke-linecap="round" stroke-linejoin="round" stroke-width="1.9981px"/>
  <path id="path3857" d="m-231.63 464.89c-0.77415 1.1717-7.8059 10.916-7.8059 10.916l23.095 20.351" fill="#efefef" stroke="#efefef" stroke-linecap="round" stroke-linejoin="round" stroke-width="1.9981px"/>
  <path id="path4076" d="m-339.75 406.9-15.601 10.03 16.878 14.914c-3.7999-7.0602-13.776-11.824-1.2773-24.944z" fill="#efefef" stroke="#efefef" stroke-width="1.9981"/>
  <path id="path3915" d="m-324.69 395.23c-0.42182 0.34886-26.019 22.066-25.545 22.066 6.2992 8.9572 15.508 17.12 26.914 24.682 23.601-8.1139 33.683-28.77 79.647-16.135-21.181-15.135-51.643-22.413-81.015-30.613z" fill="#efefef" stroke="#efefef" stroke-width="1.9981px"/>
  <path id="path3817" d="m-365.92 401.94c3.3323 14.676 18.42 6.9651 28.657 1.7112 6.5563-2.5759 10.564-9.6549 12.591-9.3519 5.0529 1.6992 21.342 6.6334 22.588 2.5424 2.9865-4.7898-3.0912-19.725-10.283-18.886-16.81 2.5705-56.195-8.3992-53.554 23.984z" fill="#efefef" stroke="#efefef" stroke-width="1.9981px"/>
  <path id="path3955" d="m-340.05 419.13c1.3819 3.5665 1.94 8.63 4.1578 13.132 4.2481-2.7071 9.9948-4.6791 14.647-5.7623-7.4888-0.33846-15.758-2.2947-18.805-7.3697z" fill="#efefef" stroke="#efefef" stroke-width="1.9981"/>
  <path id="path3917" d="m-254.89 422.96c-27.611-12.889-70.839 16.513-85.303-4.7969 0.57162 4.3871 1.2455 9.8963 4.2044 14.446 6.6779-3.3583 12.936-4.6916 20.073-6.7331" fill="#efefef" stroke="#efefef" stroke-linecap="round" stroke-linejoin="round" stroke-width="1.9981px"/>
  <path id="path3917-2" d="m-311.87 407.5c-0.63947 0.15297 7.4067 1.7588 7.6704 2.1551-1.3494-2.0249-4.4965-2.9145-7.6704-2.1551z" fill="#efefef" stroke="#efefef" stroke-linecap="round" stroke-linejoin="round" stroke-width="1.9981px"/>
  <path id="path4006" d="m-249.74 550.73-17.83 21.998c-6.42-8.8044-12.054-16.501-18.594-23.032 0.24926-1.4494 0.97595-2.9525 1.3946-3.9298 11.793 13.022 23.45 14.151 35.03 4.9639z" fill="#efefef" stroke="#efefef" stroke-width="1.9981"/>
  <path id="path4010" d="m-315.61 465.36c-7.0141 5.8033-9.4038 7.1157-18.098 5.898 10.499 4.2208 12.448 3.4532 18.098-5.898z" fill="#efefef" stroke="#efefef" stroke-width="1.9981"/>
  <path id="path4010-9" d="m-353.11 624.21c-13.218 0.10962-42.533 0.0201-53.51 0.0251 1.5094-3.6327 2.8857-6.788 4.6576-9.9372 9.2869 1.5047 37.839 6.0553 48.852 9.9125z" fill="#efefef" stroke="#efefef" stroke-width="1.9981"/>
  <path id="path4006-0" d="m-224.49 487.66c-6.1135-5.428-7.0764-6.3057-13.601-12.02 3.1039-4.3633 5.921-8.2286 6.7106-9.3601-0.36414 6.3032 1.4597 10.159 6.8904 21.38z" fill="#efefef" stroke="#efefef" stroke-width="1.9981"/>
  <path id="path4006-0-3" d="m-372.31 616.89c-8.2073-1.7082-26.193-5.37-34.746-7.1558-1.2884-5.1277-3.1291-10.501-4.518-14.343 5.0306 4.4766 25.317 25.92 47.938 13.578-2.5979 2.4743-4.7707 4.3279-8.6743 7.9206z" fill="#efefef" stroke="#efefef" stroke-width="1.9981"/>
  <path id="path4092" transform="matrix(2.0436 0 0 1.9536 -1207.8 -102.68)" d="m432.72 279.37-1.1522 1.2785 0.99436 1.5626 1.3258-1.5152z" fill="#efefef" filter="url(#filter4138)" stroke="#efefef"/>
  <g id="g4035" transform="translate(-819.29 -325.27)" fill="#efefef" stroke="#efefef">
   <path id="path3913-3" d="m31.858 1050.2c-0.91462 1.5799-3.3259 7.5665-3.3259 7.5665h61.196l16.796-51.385 3.0524-6.8486c-4.9835-18.619-13.675-32.913-21.268-48.487 5.1924-8.7908 10.555-17.398 14.359-26.644l-14.957-24.215-39.206 5.4699-5.8206 39.745 15.757 13.64z" stroke-width="1.317"/>
   <path id="path3813-8-0-4-2" d="m98.495 939.47c1.084 1.4024 0.92082 1.9122 2.7262 4.4111l-0.14448-9.374s3.8858 1.7763 3.607 1.0658c-1.1372-2.7997-2.8726-5.3801-4.1647-7.7608-4.0722 8.2096-8.4441 15.866-12.027 21.658 3.222-2.8308 7.1627-5.4485 10.003-10z"/>
   <path id="path3813-8-0-2" d="m55.557 940.3c-0.30399-0.34794-2.3953 2.6358-5.0944 4.6639l0.63485-7.9812s-5.1136 0.87305-4.7394 0.20787c2.5444-3.6298 4.8212-6.2782 7.1622-8.1776 0.18094 1.2092 1.7741 6.2065 2.3475 7.737 1.0564-0.77143 1.272-1.296 2.2385-2.5443 1.297 7.663 7.4811 16.221 7.3696 19.233 0.1795-0.8118-7.8661-10.789-9.9188-13.138z"/>
   <path id="path3813-1" d="m19.617 1005.4c0 4.9539-0.55284 47.576-0.21605 47.592 5.6048 0.2608 13.232-0.3645 17.371-2.5097m1.7182-46.522c0.9741 12.666 1.5492 14.875 2.884 20.04 4.6677-10.458 15.303-43.992 15.377-44.212 8.3117-24.878 6.0133-18.324 8.578-26.135 0.25193-0.76728-7.7936-10.744-9.8464-13.094-0.30399-0.34793-2.3953 2.6358-5.0944 4.6639l0.63485-7.9812s-5.1136 0.87306-4.7394 0.20787c0.37416-0.66517 6.7349-8.1484 6.7349-8.1484l-7.6911 1.1225c4.8238-5.4448 5.3539-11.863 5.5655-19.131l4.038-4.2334c-1.1986-16.378 24.229-11.458 34.567-16.231 2.5386-8.6682 17.323-18.169 18.033-25.999l-24.857 1.1237c-4.3007 2.0517-8.6014 3.4652-12.902 6.808-0.50521-6.6855-0.84594-11.592-0.41156-13.267-13.362 3.4258-24.255 15.243-35.342 26.404-5.5322 9.1087-0.53026 30.545-10.31 41.74 5.0153 5.5003 10.261 10.724 13.137 18.791-21.404 22.248-17.3 38.993-17.375 60.872-0.10467 30.381 5.6051 25.605 9.227 40.568l23.115 4.9889 10.144-10.368-15.798 0.1247c-4.1219-13.399-7.27-25.872-7.6495-38.647 4.8169-11.776 8.6949-22.04 17.295-39.911" stroke-linecap="round" stroke-linejoin="round" stroke-width="1.317px"/>
   <path id="path3815-6" d="m31.519 893.97c0.82312 0 27.803 1.2044 27.803 1.2044-3.2586 3.3721-3.8849 6.2181-4.1156 11.876l-24.22-7.9811z" stroke-linecap="round" stroke-linejoin="round" stroke-width="1.317px"/>
   <path id="path4008-8" d="m61.223 893.32c-4.1295-2.8394-9.9838-4.1569-15.964-5.363l13.013 0.0416v-4.6147c3.0429 1.4847 5.4669 3.8976 7.8574 6.3608v-5.6124c2.5025 1.8154 4.5927 4.3376 6.3192 7.4833l7.4832-0.62361c1.3764-3.0891 2.9688-6.1206 5.9866-8.772v4.3236c1.9-2.2143 3.6615-4.7056 6.1945-5.654 0 0-0.04162 4.8641 0 4.8641h9.2709c-4.4574 1.3404-9.6737 2.1242-10.975 5.7788z" stroke-linecap="round" stroke-linejoin="round" stroke-width="1.317px"/>
   <path id="path3855-5" d="m88.523 951.12c2.8637 0.74833 30.538 38.913 29.697 37.999-0.87572-0.95193 15.597-15.185 15.597-15.185 1.4214-6.3987 1.7419-12.797 1.1682-19.196l-9.9189-14.801 17.045 9.7282 6.9113-1.4984 9.4687 18.959-6.3192 3.5753c-6.3589 20.247-20.399 36.141-33.093 52.799 0 0-8.8136-13.013-12.472-16.297-0.83013-0.7452 3.0764-7.7327 3.0764-7.7327-4.1904-15.94-13.559-33.003-21.161-48.35z" stroke-linecap="round" stroke-linejoin="round" stroke-width="1.317px"/>
   <path id="path3857-7" d="m142.28 949.66c-0.49888 0.78989-5.0304 7.3585-5.0304 7.3585l14.883 13.719" stroke-linecap="round" stroke-linejoin="round" stroke-width="1.317px"/>
   <path id="path4076-6" d="m72.606 910.57-10.054 6.7613 10.877 10.054c-2.4488-4.7594-8.8777-7.971-0.82312-16.815z"/>
   <path id="path3915-1" d="m82.311 902.7c-0.27184 0.23517-16.767 14.875-16.462 14.875 4.0595 6.0382 9.9938 11.541 17.344 16.639 15.209-5.4697 21.707-19.395 51.327-10.877-13.65-10.203-33.28-15.109-52.209-20.637z" stroke-width="1.317px"/>
   <path id="path3817-8" d="m55.736 907.23c2.1475 9.8932 11.87 4.6953 18.468 1.1536 4.2251-1.7364 6.8079-6.5085 8.1141-6.3043 3.2563 1.1454 13.753 4.4717 14.557 1.7139 1.9246-3.2289-1.9921-13.297-6.6265-12.732-10.833 1.7328-36.214-5.6621-34.512 16.168z" stroke-width="1.317px"/>
   <path id="path3955-9" d="m72.413 918.81c0.89052 2.4042 1.2502 5.8177 2.6794 8.8525 2.7376-1.8249 6.441-3.1543 9.4393-3.8844-4.8261-0.22817-10.155-1.5469-12.119-4.9681z"/>
   <path id="path3917-27" d="m127.29 921.4c-17.794-8.6888-45.651 11.132-54.972-3.2337 0.36838 2.9574 0.80266 6.6713 2.7094 9.7387 4.3035-2.2639 8.3365-3.1628 12.936-4.5389" stroke-linecap="round" stroke-linejoin="round" stroke-width="1.317px"/>
   <path id="path3917-2-9" d="m90.567 910.98c-0.4121 0.10312 4.7731 1.1856 4.9431 1.4528-0.86963-1.365-2.8977-1.9648-4.9431-1.4528z" stroke-linecap="round" stroke-linejoin="round" stroke-width="1.317px"/>
   <path id="path4006-5" d="m130.61 1007.5-11.49 14.829c-4.1373-5.9353-7.7678-11.123-11.983-15.526 0.16063-0.977 0.62894-1.9903 0.89872-2.6491 7.5996 8.7786 15.112 9.5395 22.575 3.3462z"/>
   <path id="path4010-4" d="m88.161 949.98c-4.5202 3.9122-6.0602 4.7968-11.663 3.976 6.7662 2.8453 8.0218 2.3279 11.663-3.976z"/>
   <path id="path4010-9-3" d="m63.996 1057.1c-8.5181 0.074-27.41 0.013-34.484 0.017 0.97274-2.4488 1.8596-4.5759 3.0015-6.6988 5.9848 1.0143 24.385 4.082 31.482 6.6822z"/>
   <path id="path4006-0-1" d="m146.88 965.02c-3.9398-3.6591-4.5603-4.2508-8.7649-8.1028 2.0003-2.9414 3.8157-5.5471 4.3245-6.3098-0.23466 4.2491 0.94068 6.8486 4.4404 14.413z"/>
   <path id="path4006-0-3-2" d="m51.62 1052.1c-5.2891-1.1515-16.88-3.6201-22.391-4.8239-0.83029-3.4567-2.0165-7.0789-2.9116-9.6689 3.2419 3.0177 16.315 17.473 30.893 9.1534-1.6742 1.6679-3.0744 2.9175-5.59 5.3394z"/>
   <path id="path4092-33" transform="matrix(1.317 0 0 1.317 -486.82 567.05)" d="m432.72 279.37-1.1522 1.2785 0.99436 1.5626 1.3258-1.5152z" filter="url(#filter4138-7)"/>
  </g>
  <path id="path3913-3-1" d="m-783.45 465.11c-0.91462 1.5799-3.3259 7.5665-3.3259 7.5665h61.196l16.796-51.385 3.0524-6.8486c-4.9835-18.619-13.675-32.913-21.268-48.487 5.1924-8.7908 10.555-17.398 14.359-26.644l-14.957-24.215-39.206 5.4699-5.8206 39.745 15.757 13.64z" fill="#fff" stroke="#023c59" stroke-width="1.317"/>
  <path id="path3813-8-0-4-2-3" d="m-716.82 354.39c1.084 1.4024 0.92082 1.9122 2.7262 4.4111l-0.14448-9.374s3.8858 1.7763 3.607 1.0658c-1.1372-2.7997-2.8726-5.3801-4.1647-7.7608-4.0722 8.2096-8.4442 15.866-12.027 21.658 3.222-2.8308 7.1627-5.4485 10.003-10z" fill="#000c14"/>
  <path id="path3813-8-0-2-8" d="m-759.76 355.22c-0.30399-0.34794-2.3953 2.6358-5.0944 4.6639l0.63485-7.9812s-5.1136 0.87305-4.7394 0.20787c2.5444-3.6298 4.8212-6.2782 7.1622-8.1776 0.18094 1.2092 1.7741 6.2065 2.3475 7.737 1.0564-0.77143 1.272-1.296 2.2385-2.5443 1.297 7.663 7.4811 16.221 7.3696 19.233 0.17951-0.8118-7.866-10.789-9.9188-13.138z" fill="#000c14"/>
  <path id="path3813-1-7" d="m-793.67 442.85c-0.39084 1.0099-2.1097 24.745-2.2425 25.055 5.6106-0.055 10.196-1.7931 14.335-3.9383m4.7539-45.093c0.9741 12.665 1.5492 14.875 2.884 20.04 4.6678-10.458 15.303-43.992 15.377-44.212 8.3117-24.878 6.0133-18.324 8.578-26.135 0.25193-0.76728-7.7936-10.744-9.8464-13.094-0.30399-0.34793-2.3953 2.6358-5.0944 4.6639l0.63485-7.9812s-5.1136 0.87306-4.7394 0.20787c0.37415-0.66517 6.7349-8.1484 6.7349-8.1484l-7.6911 1.1225c4.8238-5.4448 5.3539-11.863 5.5655-19.131l4.038-4.2334c-1.1986-16.378 24.229-11.458 34.567-16.231 2.5386-8.6682 17.323-18.169 18.033-25.999l-24.857 1.1237c-4.3007 2.0517-8.6014 3.4652-12.902 6.808-0.50521-6.6855-0.84594-11.592-0.41155-13.267-13.362 3.4258-24.255 15.243-35.342 26.404-5.5322 9.1087-0.53026 30.545-10.31 41.74 5.0153 5.5003 10.261 10.724 13.137 18.791-21.404 22.248-9.0762 31.111-29.434 58.536 10.203 13.709 17.664 27.941 21.286 42.904l23.115 4.9889 10.144-10.368-15.798 0.1247c-4.1219-13.399-7.27-25.872-7.6496-38.647 4.8169-11.776 8.6949-22.04 17.295-39.911" fill="#006ea1" stroke="#023c59" stroke-linecap="round" stroke-linejoin="round" stroke-width="1.317px"/>
  <path id="path3815-6-4" d="m-783.79 308.89c0.82311 0 27.803 1.2044 27.803 1.2044-3.2586 3.3721-3.8849 6.2181-4.1156 11.876l-24.22-7.9811z" stroke="#000" stroke-linecap="round" stroke-linejoin="round" stroke-width="1.317px"/>
  <path id="path4008-8-2" d="m-754.09 308.24c-4.1295-2.8394-9.9838-4.1569-15.964-5.363l13.013 0.0416v-4.6147c3.0429 1.4847 5.4669 3.8976 7.8574 6.3608v-5.6124c2.5025 1.8154 4.5927 4.3376 6.3192 7.4833l7.4832-0.62361c1.3764-3.0891 2.9688-6.1206 5.9866-8.772v4.3236c1.9-2.2143 3.6615-4.7056 6.1945-5.654 0 0-0.0416 4.8641 0 4.8641h9.2709c-4.4574 1.3404-9.6737 2.1242-10.975 5.7788z" fill="#000c14" stroke="#000" stroke-linecap="round" stroke-linejoin="round" stroke-width="1.317px"/>
  <path id="path3855-5-7" d="m-726.79 366.04c2.8637 0.74833 30.538 38.913 29.697 37.999-0.87572-0.95193 15.597-15.185 15.597-15.185 1.4214-6.3987 1.7419-12.797 1.1682-19.196l-9.9189-14.801 17.045 9.7282 6.9113-1.4984 9.4687 18.959-6.3192 3.5753c-6.3589 20.247-20.399 36.141-33.093 52.799 0 0-8.8136-13.013-12.472-16.297-0.83013-0.74516 3.0764-7.7327 3.0764-7.7327-4.1904-15.94-13.559-33.003-21.161-48.35z" fill="#006ea1" stroke="#023c59" stroke-linecap="round" stroke-linejoin="round" stroke-width="1.317px"/>
  <path id="path3857-7-7" d="m-673.04 364.58c-0.49888 0.78989-5.0304 7.3585-5.0304 7.3585l14.883 13.719" fill="none" stroke="#023c59" stroke-linecap="round" stroke-linejoin="round" stroke-width="1.317px"/>
  <path id="path4076-6-9" d="m-742.71 325.5-10.054 6.7613 10.877 10.054c-2.4488-4.7594-8.8777-7.971-0.82312-16.815z" fill-opacity=".1164"/>
  <path id="path3915-1-3" d="m-733 317.62c-0.27184 0.23517-16.767 14.875-16.462 14.875 4.0595 6.0382 9.9938 11.541 17.344 16.639 15.209-5.4697 21.707-19.395 51.327-10.877-13.65-10.203-33.28-15.109-52.209-20.637z" fill="#ffe300" stroke="#a59c00" stroke-opacity=".99216" stroke-width="1.317px"/>
  <path id="path3817-8-1" d="m-759.58 322.15c2.1475 9.8932 11.87 4.6953 18.468 1.1536 4.2251-1.7364 6.8079-6.5085 8.1141-6.3043 3.2563 1.1454 13.753 4.4717 14.557 1.7139 1.9246-3.2289-1.9921-13.297-6.6265-12.732-10.833 1.7328-36.214-5.6621-34.512 16.168z" fill="#96d8ff" stroke="#000" stroke-width="1.317px"/>
  <path id="path3955-9-9" d="m-742.9 333.74c0.89052 2.4042 1.2502 5.8177 2.6794 8.8525 2.7376-1.8249 6.441-3.1543 9.4393-3.8844-4.8261-0.22817-10.155-1.5469-12.119-4.9681z" fill="#fff"/>
  <path id="path3917-27-8" d="m-688.02 336.32c-17.794-8.6888-45.651 11.132-54.972-3.2337 0.36838 2.9574 0.80267 6.6713 2.7094 9.7387 4.3035-2.2639 8.3365-3.1628 12.936-4.5389" fill="none" stroke="#a59c00" stroke-linecap="round" stroke-linejoin="round" stroke-opacity=".99216" stroke-width="1.317px"/>
  <path id="path3917-2-9-6" d="m-724.75 325.9c-0.4121 0.10312 4.7731 1.1856 4.9431 1.4528-0.86963-1.365-2.8977-1.9648-4.9431-1.4528z" fill="none" stroke="#a59c00" stroke-linecap="round" stroke-linejoin="round" stroke-opacity=".99216" stroke-width="1.317px"/>
  <path id="path4006-5-5" d="m-684.7 422.45-11.49 14.829c-4.1373-5.9353-7.7678-11.123-11.983-15.526 0.16063-0.97696 0.62894-1.9903 0.89872-2.6491 7.5996 8.7786 15.112 9.5395 22.575 3.3462z" fill-opacity=".2963"/>
  <path id="path4010-4-0" d="m-727.15 364.9c-4.5202 3.9122-6.0602 4.7968-11.663 3.976 6.7662 2.8453 8.0218 2.3279 11.663-3.976z" fill-opacity=".1164"/>
  <path id="path4010-9-3-2" d="m-751.32 471.99c-8.5181 0.074-27.41 0.013-34.484 0.017 0.97274-2.4488 1.8596-4.5759 3.0015-6.6988 5.9848 1.0143 24.385 4.082 31.482 6.6822z" fill-opacity=".1164"/>
  <path id="path4006-0-1-8" d="m-668.43 379.94c-3.9398-3.6591-4.5603-4.2508-8.7649-8.1028 2.0003-2.9414 3.8157-5.5471 4.3245-6.3098-0.23466 4.2491 0.94068 6.8486 4.4404 14.413z" fill-opacity=".2963"/>
  <path id="path4006-0-3-2-6" d="m-763.69 467.05c-5.2891-1.1515-16.88-3.6201-22.391-4.8239-0.83029-3.4567-2.0165-7.0789-2.9116-9.6689 3.2419 3.0177 16.315 17.473 30.893 9.1534-1.6742 1.6679-3.0744 2.9175-5.59 5.3394z" fill-opacity=".2963"/>
  <path id="path4092-33-0" transform="matrix(1.317 0 0 1.317 -1302.1 -18.025)" d="m432.72 279.37-1.1522 1.2785 0.99436 1.5626 1.3258-1.5152z" fill-opacity=".11765" filter="url(#filter4138-7-4)"/>
  <path id="path3813-8-0-4-2-5" d="m85.353 961.93c1.1457 1.4822 0.97321 2.021 2.8813 4.662l-0.1527-9.9073s4.1069 1.8774 3.8122 1.1265c-1.2018-2.959-3.0361-5.6862-4.4017-8.2023-4.3039 8.6767-8.9245 16.768-12.711 22.89 3.4053-2.9919 7.5702-5.7584 10.572-10.569z" fill="#333" stroke="#333" stroke-width="1.0569"/>
  <path id="path3813-8-0-2-0" d="m39.973 962.8c-0.32128-0.36773-2.5315 2.7857-5.3842 4.9292l0.67097-8.4352s-5.4045 0.92271-5.009 0.21968c2.6892-3.8362 5.0955-6.6353 7.5697-8.6428 0.19124 1.278 1.875 6.5596 2.4811 8.1772 1.1165-0.81533 1.3443-1.3697 2.3659-2.6891 1.3708 8.099 7.9067 17.144 7.7888 20.327 0.18972-0.85799-8.3136-11.403-10.483-13.886z" fill="#333" stroke="#333" stroke-width="1.0569"/>
  <path id="path3813-1-9" d="m0.85415 1031.6c0 5.2359-0.35595 49.616 0 49.633h19.678m1.4034-51.154c1.0295 13.386 1.6373 15.722 3.0481 21.18 4.9333-11.052 16.174-46.495 16.251-46.727 8.7846-26.293 6.3554-19.367 9.066-27.622 0.26626-0.81093-8.237-11.355-10.407-13.839-0.32128-0.36771-2.5315 2.7857-5.3842 4.9292l0.67097-8.4352s-5.4045 0.92273-5.009 0.2197c0.39544-0.70302 7.1181-8.612 7.1181-8.612l-8.1287 1.1863c5.0982-5.7546 5.6585-12.538 5.8821-20.219l4.2678-4.4742c-1.2667-17.31 25.607-12.11 36.534-17.155 2.683-9.1613 18.309-19.203 19.059-27.478l-26.271 1.1876c-4.5454 2.1684-9.0907 3.6624-13.636 7.1953-0.53395-7.0658-0.89406-12.252-0.43497-14.021-14.122 3.6207-25.635 16.11-37.352 27.906-5.847 9.6269-0.56042 32.283-10.897 44.115 5.3007 5.8132 10.845 11.334 13.885 19.86-22.621 23.514-19.264 41.411-19.344 64.535-0.11063 32.109 6.9038 26.862 10.732 42.676l24.666 2.6778 10.485-8.3627-16.697 0.1319c-4.3564-14.162-7.6836-27.344-8.0847-40.846 5.0909-12.446 9.1895-23.294 18.279-42.181" fill="#333" stroke="#333" stroke-linecap="round" stroke-linejoin="round" stroke-width="1.3919px"/>
  <path id="path3815-6-0" d="m14.568 913.84c0.86994 0 29.385 1.2729 29.385 1.2729-3.444 3.5639-4.1059 6.5719-4.3497 12.552l-25.597-8.4352z" fill="#333" stroke="#333" stroke-linecap="round" stroke-linejoin="round" stroke-width="1.3919px"/>
  <path id="path4008-8-0" d="m45.961 913.15c-4.3644-3.0009-10.552-4.3934-16.872-5.6681l13.753 0.044v-4.8772c3.216 1.5691 5.7779 4.1193 8.3044 6.7226v-5.9317c2.6448 1.9187 4.854 4.5843 6.6787 7.909l7.909-0.65909c1.4547-3.2649 3.1377-6.4688 6.3272-9.2711v4.5696c2.0081-2.3403 3.8698-4.9734 6.5469-5.9757 0 0-0.04398 5.1408 0 5.1408h9.7983c-4.711 1.4166-10.224 2.245-11.6 6.1075z" fill="#333" stroke="#333" stroke-linecap="round" stroke-linejoin="round" stroke-width="1.3919px"/>
  <path id="path4076-6-3" d="m57.992 931.39-10.626 7.146 11.496 10.626c-2.5881-5.0302-9.3828-8.4245-0.86994-17.772z" fill="#333" stroke="#333" stroke-width="1.0569"/>
  <path id="path3915-1-8" d="m68.249 923.07c-0.2873 0.24854-17.721 15.721-17.399 15.721 4.2904 6.3818 10.562 12.197 18.331 17.585 16.074-5.7809 22.942-20.498 54.247-11.496-14.426-10.784-35.174-15.969-55.179-21.811z" fill="#333" stroke="#333" stroke-width="1.3919px"/>
  <path id="path3817-8-9" d="m40.162 927.85c2.2696 10.456 12.546 4.9625 19.519 1.2192 4.4655-1.8352 7.1952-6.8788 8.5757-6.663 3.4415 1.2106 14.536 4.7261 15.385 1.8114 2.0341-3.4126-2.1054-14.053-7.0035-13.456-11.45 1.8314-38.274-5.9842-36.475 17.088z" fill="#333" stroke="#333" stroke-width="1.3919px"/>
  <path id="path3955-9-3" d="m57.788 940.09c0.94118 2.541 1.3213 6.1487 2.8319 9.3561 2.8934-1.9287 6.8075-3.3337 9.9763-4.1054-5.1006-0.24116-10.733-1.635-12.808-5.2507z" fill="#333" stroke="#333" stroke-width="1.0569"/>
  <path id="path3917-2-9-4" d="m76.975 931.81c-0.43554 0.10898 5.0447 1.2531 5.2243 1.5354-0.91911-1.4427-3.0626-2.0765-5.2243-1.5354z" fill="#333" stroke="#333" stroke-linecap="round" stroke-linejoin="round" stroke-width="1.3919px"/>
  <path id="path4010-4-06" d="m74.432 973.03c-4.7773 4.1347-6.4049 5.0697-12.327 4.2022 7.1512 3.0072 8.4781 2.4603 12.327-4.2022z" fill="#333" stroke="#333" stroke-width="1.0569"/>
  <path id="path4092-33-4" transform="matrix(1.3919 0 0 1.3919 -533.25 568.32)" d="m432.72 279.37-1.1522 1.2785 0.99436 1.5626 1.3258-1.5152z" fill="#333" filter="url(#filter4138-7-2)" stroke="#333"/>
  <path id="path3913-3-6" d="m14.925 1081.2h63.142l15.772-48.598 3.2261-7.2383c-5.267-19.679-14.453-34.785-22.478-51.245 5.4878-9.2909 11.156-18.388 15.176-28.16l-15.808-25.592-41.436 5.7811-6.1517 42.006 16.653 14.416z" fill="#333" stroke="#333" stroke-width="1.3919"/>
  <path id="path3855-5-6" d="m73.514 969.66c28.799 20.562 33.373 48.638 32.295 70.783 0 0-18.366 1.9593-41.631-17.235-0.90954-0.7503 31.701-2.4471 31.701-2.4471-4.4288-16.847-14.33-34.881-22.365-51.101z" fill="#333" stroke="#333" stroke-linecap="round" stroke-linejoin="round" stroke-width="1.3919px"/>
  <path id="path3920" d="m14.925 1081.2h63.142c6.6263-18.505 16.795-35.084 18.998-55.836-4.6075-21.144-15.353-36.605-24.8-49.906 8.1373-11.53-40.953-9.4181-28.709 2.8259z" fill="#222" stroke="#333" stroke-width="1.3919"/>
  <rect id="rect3107" y="1032.4" width="1920" height="20" fill="#222"/>
  <path id="path3917-27-4" d="m115.79 942.83c-18.806-9.1831-46.408 7.4243-58.1-3.4176 0.38933 3.1257 0.84833 7.0509 2.8636 10.293 2.3307-5.7898 42.313-12.18 55.24-6.826" fill="#222" stroke="#333" stroke-linecap="round" stroke-linejoin="round" stroke-width="1.3919px"/>
  <path id="path3893" d="m135.93 937.52c13.92 4.1829 38.927 6.8865 50.937 4.0037 0-13.65-0.12906-7.5589-0.12906-26.863-12.504 12.504-26.886 21.107-50.808 22.859z" fill="#222"/>
  <path id="path3918" d="m59.838 1036.1c11.916 1.8128 47.276-5.9661 44.35 10.389-30.54 8.5685-72.41 4.6136-100.28-2.4913 0 0-7.8687-20.775 0.64303-49.711 10.295 34.024 24.793 37.854 55.284 41.813z" fill="#333" stroke="#333" stroke-linecap="round" stroke-linejoin="round" stroke-width="1.3919px"/>
  <path id="path3922" transform="translate(0 875.36)" d="m66.386 49.752c-44.257 84.832-22.129 42.416 0 0z" fill="#333" stroke="#333"/>
 </g>
</svg>
