<?xml version="1.0" encoding="UTF-8"?>
<!-- GamingOnLinux Block Icon -->
<svg id="svg8" width="14" height="14" enable-background="new 0 0 1000 1000" version="1.1" viewBox="0 0 14 14" xml:space="preserve" xmlns="http://www.w3.org/2000/svg" xmlns:cc="http://creativecommons.org/ns#" xmlns:dc="http://purl.org/dc/elements/1.1/" xmlns:rdf="http://www.w3.org/1999/02/22-rdf-syntax-ns#"><metadata id="metadata14"><rdf:RDF><cc:Work rdf:about=""><dc:format>image/svg+xml</dc:format><dc:type rdf:resource="http://purl.org/dc/dcmitype/StillImage"/><dc:title/></cc:Work></rdf:RDF></metadata><g id="g6" transform="matrix(.014284 0 0 .014284 -.14198 -.14198)"><g id="g4"><path id="path2" d="m431.81 14.769c267.97-37.66 515.77 149.07 553.43 417.04 37.674 268.07-149.07 515.77-417.04 553.43-267.97 37.66-515.77-149.07-553.43-417.04s149.07-515.77 417.04-553.43zm452.32 431.25c-29.811-212.12-225.9-359.96-438.11-330.14-92.392 12.985-172.57 57.577-231.27 121.27l616.55 464.51c45.055-73.89 65.821-163.25 52.836-255.64zm-330.15 438.01c92.392-12.985 172.57-57.577 231.17-121.25l-616.44-464.43c-45.041 73.989-65.821 163.25-52.836 255.64 29.811 212.12 225.98 359.85 438.1 330.04z"/></g></g></svg>
