<svg xmlns="http://www.w3.org/2000/svg" height="32" width="32"><path d="M19.023 22.611c1.591-2.37 2.662-5.968 2.662-8.942 0-.564.026-.874.071-.874.037 0 1.015-.108 2.168-.24 1.154-.132 2.111-.226 2.128-.209.032.032 1.016 3.563 1.049 3.764.032.183-7.308 6.385-8.339 7.047-.154.099-.108.002.26-.547zm-6.39.098c-1.118-.869-5.852-4.831-7.576-6.341l-.186-.163.514-1.891c.283-1.04.537-1.915.564-1.944.026-.032.989.054 2.137.186 1.148.132 2.105.24 2.127.24.021 0 .06.44.084.977.151 3.312 1.082 6.408 2.64 8.775.243.369.432.679.421.69-.011.011-.337-.226-.725-.528zm-8.976-2.586c-2.61-2.221-3.673-3.166-3.657-3.248.037-.193 2.693-9.011 2.723-9.042.016-.016 1.607.137 3.536.34 1.93.202 3.592.368 3.694.369.148 0 .779-.515 3.101-2.533 1.603-1.393 2.939-2.525 2.967-2.515.026.011 1.347 1.143 2.929 2.517 2.026 1.76 2.931 2.504 3.058 2.517.1.011 1.775-.148 3.723-.353 1.948-.204 3.548-.364 3.556-.356.047.047 2.727 9.075 2.711 9.138-.011.042-1.667 1.478-3.683 3.19l-3.664 3.114-1.299-.005c-.714-.003-1.447-.026-1.628-.053l-.33-.042 3.891-3.228c2.14-1.775 3.891-3.246 3.891-3.269 0-.042-2.029-6.304-2.064-6.369-.011-.021-1.412.135-3.113.345l-3.093.382-.675-.581c-.371-.32-1.477-1.274-2.456-2.122l-1.781-1.541-.177.163c-.097.089-1.198 1.045-2.445 2.122l-2.268 1.959-2.897-.36c-1.593-.198-2.994-.361-3.113-.362-.215-.002-.218.002-.426.656-.116.362-.573 1.768-1.016 3.125-.443 1.357-.804 2.511-.802 2.566.002.054 1.749 1.542 3.881 3.306l3.878 3.207-.32.042c-.176.026-.912.047-1.636.047l-1.317.003-3.68-3.132zm11.749 2.817c-.857-.858-1.429-1.864-1.915-3.371-.529-1.639-.788-3.571-.783-5.843l.003-1.437 1.634-1.675 1.634-1.675 1.677 1.675 1.677 1.675-.037 1.755c-.047 2.44-.267 3.926-.822 5.618-.342 1.042-.783 1.93-1.315 2.649-.358.483-1.038 1.152-1.171 1.152-.032 0-.295-.235-.583-.523zm-3.289 3.608l-3.861-1.971 3.878-.016c2.133-.011 5.622-.011 7.754 0l3.876.016-3.856 1.958c-2.121 1.077-3.873 1.964-3.893 1.971-.021.005-1.774-.874-3.898-1.958z" fill="#222"/></svg>