<svg xmlns="http://www.w3.org/2000/svg" enable-background="new 0 0 56.693 56.693" height="32" viewBox="0 0 32 32" width="32"><path d="M29.997 13.01c0 1.282-1.04 2.322-2.322 2.322s-2.322-1.04-2.322-2.322 1.04-2.322 2.322-2.322 2.322 1.04 2.322 2.322zm-2.334-4.323c-2.381 0-4.315 1.92-4.337 4.296l-2.702 3.872-.335-.018c-.604 0-1.168.166-1.652.456l-12.237-4.922c-.32-1.452-1.617-2.546-3.162-2.546-1.784 0-3.238 1.459-3.238 3.242 0 1.784 1.454 3.238 3.238 3.238.604 0 1.168-.166 1.652-.456l12.237 4.913c.317 1.455 1.614 2.55 3.162 2.55 1.677 0 3.06-1.285 3.22-2.921l4.154-3.037c2.394 0 4.337-1.939 4.337-4.332 0-2.395-1.942-4.337-4.337-4.337zm0 1.429c1.604 0 2.907 1.303 2.907 2.907s-1.303 2.903-2.907 2.903-2.907-1.299-2.907-2.903 1.303-2.907 2.907-2.907zm-24.425.567c.914 0 1.704.511 2.104 1.264l-1.184-.473v.004c-.954-.342-2.013.124-2.394 1.072-.381.948.057 2.022.983 2.434v.004l1.005.402c-.165.036-.337.058-.514.058-1.32 0-2.38-1.061-2.38-2.38 0-1.32 1.061-2.385 2.38-2.385zm17.052 7.012c1.32 0 2.38 1.061 2.38 2.38 0 1.32-1.061 2.38-2.38 2.38-.918 0-1.71-.512-2.108-1.268l1.175.473c.97.39 2.075-.079 2.465-1.05.39-.97-.084-2.071-1.054-2.461l-.991-.397c.165-.036.337-.058.514-.058z" fill="#222"/></svg>