<?xml version="1.0" encoding="UTF-8" standalone="no"?>
<!-- Generator: Adobe Illustrator 16.0.4, SVG Export Plug-In . SVG Version: 6.00 Build 0)  -->

<svg
   xmlns:dc="http://purl.org/dc/elements/1.1/"
   xmlns:cc="http://creativecommons.org/ns#"
   xmlns:rdf="http://www.w3.org/1999/02/22-rdf-syntax-ns#"
   xmlns:svg="http://www.w3.org/2000/svg"
   xmlns="http://www.w3.org/2000/svg"
   xmlns:sodipodi="http://sodipodi.sourceforge.net/DTD/sodipodi-0.dtd"
   xmlns:inkscape="http://www.inkscape.org/namespaces/inkscape"
   version="1.1"
   id="Layer_1"
   x="0px"
   y="0px"
   width="32"
   height="32"
   viewBox="0 0 32 32"
   enable-background="new 0 0 56.693 56.693"
   xml:space="preserve"
   inkscape:version="0.48.4 r9939"
   sodipodi:docname="flickr.svg"
   inkscape:export-filename="C:\Users\Julian Richen\Desktop\gol\assets\template\images\social\flickr.png"
   inkscape:export-xdpi="90"
   inkscape:export-ydpi="90"><metadata
   id="metadata13"><rdf:RDF><cc:Work
       rdf:about=""><dc:format>image/svg+xml</dc:format><dc:type
         rdf:resource="http://purl.org/dc/dcmitype/StillImage" /><dc:title></dc:title></cc:Work></rdf:RDF></metadata><defs
   id="defs11" /><sodipodi:namedview
   pagecolor="#ffffff"
   bordercolor="#666666"
   borderopacity="1"
   objecttolerance="10"
   gridtolerance="10"
   guidetolerance="10"
   inkscape:pageopacity="0"
   inkscape:pageshadow="2"
   inkscape:window-width="1920"
   inkscape:window-height="1058"
   id="namedview9"
   showgrid="false"
   inkscape:zoom="4.1627714"
   inkscape:cx="-37.835371"
   inkscape:cy="28.3465"
   inkscape:window-x="-8"
   inkscape:window-y="-8"
   inkscape:window-maximized="1"
   inkscape:current-layer="Layer_1" />
<g
   id="g3"
   style="fill:#ffffff;fill-opacity:1"
   transform="matrix(0.65777304,0,0,0.65777304,-2.6455634,-2.6458924)">
	<circle
   cx="14.811"
   cy="28.347"
   r="10.789"
   id="circle5"
   style="fill:#ffffff;fill-opacity:1"
   sodipodi:cx="14.811"
   sodipodi:cy="28.347"
   sodipodi:rx="10.789"
   sodipodi:ry="10.789"
   d="m 25.599999,28.347 c 0,5.9586 -4.830399,10.789 -10.788999,10.789 -5.9586001,0 -10.7889997,-4.8304 -10.7889997,-10.789 0,-5.9586 4.8303996,-10.788999 10.7889997,-10.788999 5.9586,0 10.788999,4.830399 10.788999,10.788999 z" />
	<circle
   cx="41.882"
   cy="28.347"
   r="10.789"
   id="circle7"
   style="fill:#ffffff;fill-opacity:1"
   sodipodi:cx="41.882"
   sodipodi:cy="28.347"
   sodipodi:rx="10.789"
   sodipodi:ry="10.789"
   d="m 52.671,28.347 c 0,5.9586 -4.8304,10.789 -10.789,10.789 -5.9586,0 -10.789,-4.8304 -10.789,-10.789 0,-5.9586 4.8304,-10.788999 10.789,-10.788999 5.9586,0 10.789,4.830399 10.789,10.788999 z" />
</g>
</svg>