<?xml version="1.0" encoding="UTF-8" standalone="no"?>
<!-- Created with Inkscape (http://www.inkscape.org/) -->

<svg
   xmlns:dc="http://purl.org/dc/elements/1.1/"
   xmlns:cc="http://creativecommons.org/ns#"
   xmlns:rdf="http://www.w3.org/1999/02/22-rdf-syntax-ns#"
   xmlns:svg="http://www.w3.org/2000/svg"
   xmlns="http://www.w3.org/2000/svg"
   xmlns:sodipodi="http://sodipodi.sourceforge.net/DTD/sodipodi-0.dtd"
   xmlns:inkscape="http://www.inkscape.org/namespaces/inkscape"
   id="svg2985"
   version="1.1"
   inkscape:version="0.48.4 r9939"
   width="32"
   height="32"
   xml:space="preserve"
   sodipodi:docname="twitch.svg"
   inkscape:export-filename="C:\Users\Julian Richen\Desktop\gol\assets\template\images\social\twitch.png"
   inkscape:export-xdpi="90"
   inkscape:export-ydpi="90"><metadata
     id="metadata2991"><rdf:RDF><cc:Work
         rdf:about=""><dc:format>image/svg+xml</dc:format><dc:type
           rdf:resource="http://purl.org/dc/dcmitype/StillImage" /><dc:title /></cc:Work></rdf:RDF></metadata><defs
     id="defs2989" /><sodipodi:namedview
     pagecolor="#ffffff"
     bordercolor="#666666"
     borderopacity="1"
     objecttolerance="10"
     gridtolerance="10"
     guidetolerance="10"
     inkscape:pageopacity="0"
     inkscape:pageshadow="2"
     inkscape:window-width="1920"
     inkscape:window-height="1058"
     id="namedview2987"
     showgrid="false"
     fit-margin-left="0.5"
     fit-margin-bottom="0.5"
     fit-margin-top="0.5"
     fit-margin-right="0.5"
     inkscape:zoom="3.8141414"
     inkscape:cx="43.631943"
     inkscape:cy="4.7261724"
     inkscape:window-x="-8"
     inkscape:window-y="-8"
     inkscape:window-maximized="1"
     inkscape:current-layer="g2993" /><g
     id="g2993"
     inkscape:groupmode="layer"
     inkscape:label="Twitch_IntegrationGuidelines"
     transform="matrix(1.25,0,0,-1.25,-168.75089,645.59292)"><g
       id="g2995"
       transform="matrix(0.2679506,0,0,0.2679506,156.94453,502.89138)"
       style="fill:#ffffff;fill-opacity:1"><path
         d="m 0,0 -13.652,-13.651 -21.445,0 -11.699,-11.697 0,11.697 -17.548,0 0,56.544 L 0,42.893 0,0 z m -72.146,50.692 -3.899,-15.599 0,-70.19 17.55,0 0,-9.751 9.746,0 9.752,9.751 15.596,0 31.196,31.192 0,54.597 -79.941,0 z"
         style="fill:#ffffff;fill-opacity:1;fill-rule:evenodd;stroke:none"
         id="path2997"
         inkscape:connector-curvature="0" /></g><path
       d="m 143.88261,500.53918 2.08974,0 0,6.27031 -2.08974,0 0,-6.27031 z m 5.74647,0 2.08974,0 0,6.27031 -2.08974,0 0,-6.27031 z"
       style="fill:#ffffff;fill-opacity:1;fill-rule:evenodd;stroke:none"
       id="path2999"
       inkscape:connector-curvature="0" /></g></svg>