<?xml version="1.0" encoding="UTF-8" standalone="no"?>
<svg
   xmlns:dc="http://purl.org/dc/elements/1.1/"
   xmlns:cc="http://creativecommons.org/ns#"
   xmlns:rdf="http://www.w3.org/1999/02/22-rdf-syntax-ns#"
   xmlns:svg="http://www.w3.org/2000/svg"
   xmlns="http://www.w3.org/2000/svg"
   xmlns:sodipodi="http://sodipodi.sourceforge.net/DTD/sodipodi-0.dtd"
   xmlns:inkscape="http://www.inkscape.org/namespaces/inkscape"
   enable-background="new 0 0 56.693 56.693"
   height="32"
   id="Layer_1"
   version="1.1"
   viewBox="0 0 32 32"
   width="32"
   xml:space="preserve"
   inkscape:version="0.48.4 r9939"
   sodipodi:docname="youtube.svg"
   inkscape:export-filename="C:\Users\Julian Richen\Desktop\gol\assets\template\images\social\youtube.png"
   inkscape:export-xdpi="90"
   inkscape:export-ydpi="90"><metadata
     id="metadata21"><rdf:RDF><cc:Work
         rdf:about=""><dc:format>image/svg+xml</dc:format><dc:type
           rdf:resource="http://purl.org/dc/dcmitype/StillImage" /><dc:title></dc:title></cc:Work></rdf:RDF></metadata><defs
     id="defs19" /><sodipodi:namedview
     pagecolor="#ffffff"
     bordercolor="#666666"
     borderopacity="1"
     objecttolerance="10"
     gridtolerance="10"
     guidetolerance="10"
     inkscape:pageopacity="0"
     inkscape:pageshadow="2"
     inkscape:window-width="1920"
     inkscape:window-height="1058"
     id="namedview17"
     showgrid="false"
     inkscape:zoom="5.8870478"
     inkscape:cx="-39.38319"
     inkscape:cy="33.342071"
     inkscape:window-x="-8"
     inkscape:window-y="-8"
     inkscape:window-maximized="1"
     inkscape:current-layer="Layer_1" /><g
     id="g3"
     style="fill:#ffffff;fill-opacity:1"
     transform="matrix(0.65243542,0,0,0.66702797,-2.4942606,-3.5752698)"><path
       d="M 43.911,28.21 H 12.782 c -4.948,0 -8.959,4.015 -8.959,8.962 v 7.201 c 0,4.947 4.011,8.961 8.959,8.961 h 31.129 c 4.947,0 8.959,-4.014 8.959,-8.961 v -7.201 c 0,-4.947 -4.012,-8.962 -8.959,-8.962 z m -24.589,5.606 h -2.894 v 14.38 H 13.632 V 33.816 H 10.74 V 31.37 h 8.582 v 2.446 z m 8.175,14.38 h -2.48 v -1.36 c -0.461,0.503 -0.936,0.887 -1.432,1.146 -0.496,0.27 -0.975,0.396 -1.441,0.396 -0.576,0 -1.004,-0.183 -1.297,-0.555 -0.288,-0.371 -0.435,-0.921 -0.435,-1.664 V 35.782 h 2.48 v 9.523 c 0,0.294 0.055,0.505 0.154,0.636 0.107,0.135 0.277,0.197 0.51,0.197 0.18,0 0.412,-0.086 0.691,-0.26 0.281,-0.176 0.537,-0.396 0.77,-0.668 v -9.429 h 2.48 v 12.415 z m 9.004,-2.563 c 0,0.877 -0.195,1.551 -0.584,2.021 -0.387,0.47 -0.953,0.701 -1.686,0.701 -0.488,0 -0.922,-0.088 -1.299,-0.27 -0.379,-0.18 -0.736,-0.457 -1.061,-0.841 v 0.951 h -2.51 V 31.37 h 2.51 v 5.419 c 0.336,-0.375 0.691,-0.666 1.062,-0.861 0.379,-0.199 0.76,-0.295 1.146,-0.295 0.785,0 1.383,0.262 1.797,0.791 0.416,0.529 0.623,1.304 0.623,2.32 v 6.889 z m 8.603,-3.345 h -4.746 v 2.339 c 0,0.652 0.08,1.106 0.242,1.359 0.166,0.254 0.445,0.378 0.842,0.378 0.412,0 0.697,-0.107 0.863,-0.321 0.16,-0.216 0.246,-0.686 0.246,-1.416 v -0.565 h 2.553 v 0.637 c 0,1.272 -0.309,2.231 -0.936,2.878 -0.617,0.641 -1.547,0.959 -2.783,0.959 -1.113,0 -1.99,-0.339 -2.627,-1.021 -0.635,-0.678 -0.959,-1.619 -0.959,-2.815 v -5.576 c 0,-1.073 0.354,-1.956 1.057,-2.633 0.701,-0.677 1.604,-1.015 2.715,-1.015 1.137,0 2.01,0.313 2.619,0.941 0.609,0.629 0.914,1.529 0.914,2.706 v 3.165 z"
       id="path5"
       style="fill:#ffffff;fill-opacity:1"
       inkscape:connector-curvature="0" /><path
       d="m 41.466,37.646 c -0.396,0 -0.678,0.111 -0.85,0.343 -0.176,0.218 -0.258,0.591 -0.258,1.112 v 1.255 h 2.193 v -1.255 c 0,-0.521 -0.088,-0.895 -0.262,-1.112 -0.167,-0.231 -0.446,-0.343 -0.823,-0.343 z"
       id="path7"
       style="fill:#ffffff;fill-opacity:1"
       inkscape:connector-curvature="0" /><path
       d="m 32.909,37.604 c -0.176,0 -0.354,0.039 -0.525,0.12 -0.174,0.079 -0.344,0.21 -0.512,0.38 v 7.733 c 0.199,0.2 0.396,0.354 0.588,0.442 0.191,0.085 0.389,0.133 0.6,0.133 0.305,0 0.527,-0.088 0.67,-0.266 0.141,-0.176 0.213,-0.457 0.213,-0.854 v -6.411 c 0,-0.422 -0.084,-0.738 -0.26,-0.955 -0.182,-0.214 -0.44,-0.322 -0.774,-0.322 z"
       id="path9"
       style="fill:#ffffff;fill-opacity:1"
       inkscape:connector-curvature="0" /><polygon
       points="20.002,16.208 23.663,5.36 20.467,5.36 18.521,12.77 18.323,12.77 16.28,5.36 13.113,5.36 16.858,16.554 16.858,23.898 20.002,23.898 "
       id="polygon11"
       style="fill:#ffffff;fill-opacity:1" /><path
       d="m 27.923,24.243 c 1.27,0 2.266,-0.333 2.992,-0.999 0.721,-0.669 1.082,-1.582 1.082,-2.752 v -7.064 c 0,-1.041 -0.369,-1.898 -1.104,-2.559 -0.74,-0.659 -1.688,-0.991 -2.844,-0.991 -1.27,0 -2.281,0.314 -3.033,0.941 -0.75,0.627 -1.127,1.468 -1.127,2.531 v 7.088 c 0,1.163 0.367,2.083 1.1,2.773 0.733,0.687 1.713,1.032 2.934,1.032 z M 26.765,13.246 c 0,-0.297 0.107,-0.537 0.316,-0.725 0.217,-0.184 0.492,-0.273 0.834,-0.273 0.369,0 0.668,0.089 0.896,0.273 0.227,0.188 0.34,0.428 0.34,0.725 v 7.451 c 0,0.365 -0.111,0.655 -0.336,0.864 -0.223,0.21 -0.523,0.313 -0.9,0.313 -0.369,0 -0.654,-0.1 -0.854,-0.31 -0.197,-0.205 -0.297,-0.493 -0.297,-0.868 v -7.45 z"
       id="path13"
       style="fill:#ffffff;fill-opacity:1"
       inkscape:connector-curvature="0" /><path
       d="m 36.214,24.098 c 0.525,0 1.064,-0.15 1.619,-0.438 0.561,-0.292 1.098,-0.719 1.609,-1.276 v 1.515 h 2.793 V 10.224 h -2.793 v 10.38 c -0.26,0.297 -0.549,0.541 -0.859,0.735 -0.316,0.192 -0.576,0.288 -0.781,0.288 -0.262,0 -0.455,-0.072 -0.568,-0.221 -0.115,-0.143 -0.18,-0.377 -0.18,-0.698 V 10.224 h -2.789 v 11.429 c 0,0.815 0.164,1.424 0.488,1.828 0.33,0.41 0.812,0.617 1.461,0.617 z"
       id="path15"
       style="fill:#ffffff;fill-opacity:1"
       inkscape:connector-curvature="0" /></g></svg>