<svg height="9.274375mm" viewBox="0 0 13.744381 9.2743749" width="13.744381mm" xmlns="http://www.w3.org/2000/svg" xmlns:xlink="http://www.w3.org/1999/xlink"><clipPath id="a"><path d="m9.525001 2.862686h3.175v2.645833h-3.175z"/></clipPath><path d="m9.5249988 1.8434151v3.6400872c0 .149516-.1202373.2697506-.2697507.2697506h-4.7712841v1.3089652c0 .1495134.1202346.2697506.2697507.2697506h8.7209123c.149516 0 .269754-.1202372.269754-.2697506v-4.9490524c0-.149516-.120238-.2697506-.269754-.2697506z" fill="#525f88"/><path d="m13.062062 6.7795055v2.49487l-1.949562-2.49487z" fill="#525f88"/><g clip-path="url(#a)" fill="#fff"><rect height=".511601" ry=".255801" width="6.614582" x="5.806907" y="4.459029"/><rect height=".511601" ry=".255801" width="6.614583" x="5.806907" y="3.40071"/></g><path d="m.7101949 4.9519724v2.49487l1.949562-2.49487z" fill="#00a0e9"/><rect fill="#00a0e9" height="5.488732" ry=".269883" width="9.260417"/><g fill="#fff"><rect height=".511601" ry=".255801" width="6.614583" x="1.322917" y="1.804353"/><rect height=".511601" ry=".255801" width="6.614583" x="1.322917" y="2.862687"/></g></svg>