<svg viewBox="0 0 233 233" xmlns="http://www.w3.org/2000/svg" xmlns:xlink="http://www.w3.org/1999/xlink"><linearGradient id="a" x1="50%" x2="50%" y2="100%"><stop offset="0" stop-color="#111d2e"/><stop offset=".21248" stop-color="#051839"/><stop offset=".40695" stop-color="#0a1b48"/><stop offset=".5811" stop-color="#132e62"/><stop offset=".7376" stop-color="#144b7e"/><stop offset=".87279" stop-color="#136497"/><stop offset="1" stop-color="#1387b8"/></linearGradient><path d="m4.8911 150.01c14.393 48.01 58.916 82.99 111.61 82.99 64.34 0 116.5-52.16 116.5-116.5 0-64.341-52.16-116.5-116.5-116.5-61.741 0-112.26 48.029-116.25 108.76 7.5391 12.66 10.481 20.49 4.6411 41.25z" fill="url(#a)"/><ellipse cx="155.54944" cy="89.449455" fill="#fff" rx="34.251423" ry="33.50967"/><path d="m110.5 87.322c0 .196 0 .392.01.576l-28.508 41.412c-4.618-.21-9.252.6-13.646 2.41-1.937.79-3.752 1.76-5.455 2.88l-62.599-25.77c.00049 0-1.4485 23.83 4.588 41.59l44.254 18.26c2.222 9.93 9.034 18.64 19.084 22.83 16.443 6.87 35.402-.96 42.242-17.41 1.78-4.3 2.61-8.81 2.49-13.31l40.79-29.15c.33.01.67.02 1 .02 24.41 0 44.25-19.9 44.25-44.338 0-24.44-19.84-44.322-44.25-44.322-24.4 0-44.25 19.882-44.25 44.322zm-6.84 83.918c-5.294 12.71-19.9 18.74-32.596 13.45-5.857-2.44-10.279-6.91-12.83-12.24l14.405 5.97c9.363 3.9 20.105-.54 23.997-9.9 3.904-9.37-.525-20.13-9.883-24.03l-14.891-6.17c5.746-2.18 12.278-2.26 18.381.28 6.153 2.56 10.927 7.38 13.457 13.54s2.52 12.96-.04 19.1m51.09-54.38c-16.25 0-29.48-13.25-29.48-29.538 0-16.275 13.23-29.529 29.48-29.529 16.26 0 29.49 13.254 29.49 29.529 0 16.288-13.23 29.538-29.49 29.538m-22.09-29.583c0-12.253 9.92-22.191 22.14-22.191 12.23 0 22.15 9.938 22.15 22.191 0 12.254-9.92 22.183-22.15 22.183-12.22 0-22.14-9.929-22.14-22.183z" fill="#fff"/><g transform="matrix(.19518173 0 0 .19518173 116.787431 49.474203)"><path d="m305.96 193.68c12.269-12.141 23.233-24.17 32.628-35.791.873.107 1.703.159 2.514.159 12.131 0 22-9.869 22-22 0-3.39-.797-6.75-2.31-9.789 15.994-27.479 18.688-48.68 8.007-63.023-7.004-9.405-18.667-14.174-34.665-14.174-17.733 0-41.544 6.159-68.947 17.825-.971-2.368-1.942-4.635-2.902-6.76-17.508-38.773-41.886-60.127-68.645-60.127s-51.137 21.354-68.643 60.127c-.959 2.124-1.933 4.391-2.902 6.759-5.487-2.335-10.879-4.472-16.067-6.366-2.267-9.969-11.097-17.087-21.428-17.087-6.082 0-11.854 2.511-16.012 6.929-5.57-.863-10.761-1.301-15.441-1.301-15.998 0-27.661 4.769-34.665 14.174-13.319 17.885-5.506 47.233 22.598 84.872 10.912 14.616 24.446 29.941 40.242 45.573-15.795 15.629-29.329 30.957-40.242 45.572-28.103 37.639-35.917 66.987-22.598 84.872 7.003 9.404 18.665 14.173 34.671 14.175 17.733 0 41.54-6.16 68.942-17.824.97 2.367 1.943 4.635 2.902 6.759 17.506 38.772 41.883 60.127 68.643 60.127 26.761 0 51.138-21.354 68.645-60.127.957-2.122 1.932-4.39 2.901-6.761 27.403 11.666 51.213 17.826 68.947 17.826 15.998 0 27.661-4.77 34.665-14.175 13.319-17.885 5.505-47.233-22.598-84.873-10.912-14.614-24.446-29.94-40.24-45.571zm-43.498 38.987c-2.024 20.117-5.592 39.011-10.62 56.263-11.993-6.028-24.419-12.938-37.008-20.582 7.596-5.205 15.14-10.594 22.462-16.047 8.566-6.381 17.014-12.971 25.166-19.634zm-112.476 19.632c7.329 5.459 14.874 10.851 22.463 16.049-12.594 7.646-25.021 14.558-37.009 20.584-5.029-17.252-8.595-36.146-10.621-56.266 8.155 6.666 16.604 13.256 25.167 19.633zm-25.167-97.606c2.025-20.118 5.592-39.012 10.62-56.263 11.99 6.028 24.417 12.939 37.009 20.582-7.595 5.205-15.139 10.595-22.463 16.049-8.567 6.378-17.013 12.969-25.166 19.632zm112.477-19.633c-7.316-5.45-14.86-10.84-22.462-16.049 12.593-7.644 25.021-14.554 37.008-20.581 5.028 17.251 8.596 36.145 10.62 56.262-8.155-6.665-16.603-13.255-25.166-19.632zm-43.656 229.299c-16.934 0-34.312-16.98-47.681-46.591-.986-2.188-1.978-4.506-2.953-6.918 16.335-8.057 33.354-17.655 50.635-28.56 17.279 10.903 34.299 20.503 50.634 28.56-.976 2.408-1.966 4.729-2.953 6.918-13.37 29.611-30.748 46.591-47.682 46.591zm.001-109.464c-10.062-6.67-20.121-13.745-29.919-21.043-14.24-10.604-27.951-21.657-40.766-32.864-.046-2.496-.069-4.95-.069-7.307s.023-4.811.069-7.307c12.816-11.209 26.527-22.263 40.766-32.866 9.791-7.292 19.852-14.367 29.918-21.041 10.073 6.679 20.134 13.753 29.919 21.041 14.24 10.606 27.95 21.659 40.766 32.866.046 2.497.068 4.951.068 7.308s-.022 4.811-.068 7.308c-12.814 11.207-26.524 22.261-40.768 32.865-9.786 7.288-19.846 14.364-29.916 21.04zm-.001-231.895c16.935 0 34.313 16.982 47.682 46.592.988 2.191 1.979 4.512 2.954 6.918-16.337 8.057-33.355 17.656-50.636 28.558-17.278-10.903-34.298-20.502-50.634-28.559.975-2.409 1.965-4.729 2.953-6.918 13.369-29.609 30.747-46.591 47.681-46.591zm156.713 287.387c-2.359 3.168-8.119 4.912-16.22 4.912-15.112 0-36.266-5.703-61.251-16.507 7.92-25.972 12.794-56.062 14.124-87.206.763-.688 1.521-1.375 2.273-2.063 15.17 14.969 28.113 29.594 38.49 43.491 25.812 34.566 26.34 52.328 22.584 57.373zm-9.252-196.338c-12.132 0-22 9.869-22 22 0 2.632.464 5.203 1.38 7.658-8.953 11.057-19.438 22.527-31.199 34.134-.754-.689-1.513-1.377-2.273-2.066-1.33-31.148-6.205-61.237-14.124-87.205 24.985-10.803 46.139-16.507 61.251-16.507 8.101 0 13.859 1.744 16.22 4.912 3.2 4.299 2.689 16.562-9.082 37.076-.06-.002-.117-.002-.173-.002zm-304.172-37.076c2.359-3.167 8.119-4.912 16.219-4.912 3.223 0 6.838.278 10.763.827 3.113 8.626 11.441 14.545 20.69 14.545 5.186 0 10.151-1.821 14.116-5.151 5.111 1.884 10.373 3.993 15.682 6.287-7.92 25.97-12.795 56.059-14.125 87.207-.761.688-1.519 1.376-2.273 2.065-15.171-14.97-28.114-29.595-38.491-43.493-25.81-34.569-26.338-52.33-22.581-57.375zm61.07 132.547c.755.688 1.513 1.378 2.273 2.064 1.33 31.146 6.205 61.236 14.125 87.208-24.982 10.804-46.133 16.507-61.25 16.507-8.102 0-13.861-1.746-16.22-4.912-3.757-5.045-3.229-22.806 22.581-57.373 10.38-13.9 23.322-28.525 38.491-43.494z"/><path d="m193.64 158.68c-19.299 0-35 15.701-35 35 0 19.297 15.701 35 35 35 19.3 0 35.001-15.701 35.001-35s-15.702-35-35.001-35z"/></g></svg>