<?xml version="1.0" encoding="UTF-8" standalone="no"?>
<!-- Created with Inkscape (http://www.inkscape.org/) -->

<svg
   xmlns:dc="http://purl.org/dc/elements/1.1/"
   xmlns:cc="http://creativecommons.org/ns#"
   xmlns:rdf="http://www.w3.org/1999/02/22-rdf-syntax-ns#"
   xmlns:svg="http://www.w3.org/2000/svg"
   xmlns="http://www.w3.org/2000/svg"
   xmlns:xlink="http://www.w3.org/1999/xlink"
   xmlns:sodipodi="http://sodipodi.sourceforge.net/DTD/sodipodi-0.dtd"
   xmlns:inkscape="http://www.inkscape.org/namespaces/inkscape"
   width="300"
   height="263"
   id="svg2"
   version="1.1"
   inkscape:version="0.48.4 r9939"
   sodipodi:docname="goty.svg"
   inkscape:export-xdpi="180"
   inkscape:export-ydpi="180">
  <defs
     id="defs4">
    <linearGradient
       id="linearGradient3871">
      <stop
         style="stop-color:#2a2a2a;stop-opacity:1;"
         offset="0"
         id="stop3873" />
      <stop
         style="stop-color:#515151;stop-opacity:1;"
         offset="1"
         id="stop3875" />
    </linearGradient>
    <linearGradient
       id="linearGradient3863">
      <stop
         style="stop-color:#490d0d;stop-opacity:1;"
         offset="0"
         id="stop3865" />
      <stop
         style="stop-color:#490d0d;stop-opacity:0;"
         offset="1"
         id="stop3867" />
    </linearGradient>
    <linearGradient
       id="linearGradient3787">
      <stop
         style="stop-color:#5e98bc;stop-opacity:1;"
         offset="0"
         id="stop3789" />
      <stop
         style="stop-color:#5e98bc;stop-opacity:1;"
         offset="1"
         id="stop3791" />
    </linearGradient>
    <linearGradient
       id="linearGradient3779">
      <stop
         style="stop-color:#6ab4d6;stop-opacity:1;"
         offset="0"
         id="stop3781" />
      <stop
         style="stop-color:#6ab4d6;stop-opacity:1;"
         offset="1"
         id="stop3783" />
    </linearGradient>
    <linearGradient
       inkscape:collect="always"
       xlink:href="#linearGradient3871-2"
       id="linearGradient3877-8"
       x1="281.60336"
       y1="340.81024"
       x2="360.37408"
       y2="340.81024"
       gradientUnits="userSpaceOnUse" />
    <linearGradient
       id="linearGradient3871-2">
      <stop
         style="stop-color:#2a2a2a;stop-opacity:1;"
         offset="0"
         id="stop3873-7" />
      <stop
         style="stop-color:#2a2a2a;stop-opacity:1;"
         offset="1"
         id="stop3875-7" />
    </linearGradient>
    <filter
       inkscape:collect="always"
       id="filter4138"
       x="-0.14681664"
       width="1.2936333"
       y="-0.11989979"
       height="1.2397996"
       color-interpolation-filters="sRGB">
      <feGaussianBlur
         inkscape:collect="always"
         stdDeviation="0.14193438"
         id="feGaussianBlur4140" />
    </filter>
  </defs>
  <sodipodi:namedview
     id="base"
     pagecolor="#ffffff"
     bordercolor="#666666"
     borderopacity="1.0"
     inkscape:pageopacity="0.0"
     inkscape:pageshadow="2"
     inkscape:zoom="1.979899"
     inkscape:cx="181.82809"
     inkscape:cy="122.82926"
     inkscape:document-units="px"
     inkscape:current-layer="layer1"
     showgrid="false"
     inkscape:window-width="1920"
     inkscape:window-height="1028"
     inkscape:window-x="0"
     inkscape:window-y="0"
     inkscape:window-maximized="1" />
  <metadata
     id="metadata7">
    <rdf:RDF>
      <cc:Work
         rdf:about="">
        <dc:format>image/svg+xml</dc:format>
        <dc:type
           rdf:resource="http://purl.org/dc/dcmitype/StillImage" />
        <dc:title />
      </cc:Work>
    </rdf:RDF>
  </metadata>
  <g
     inkscape:label="Layer 1"
     inkscape:groupmode="layer"
     id="layer1"
     transform="translate(0,-789.36218)">
    <g
       id="g3945"
       transform="matrix(1.4285845,0,0,1.4285845,-32.086715,-451.16862)">
      <path
         sodipodi:nodetypes="cccccccccccc"
         inkscape:connector-curvature="0"
         id="path3913"
         d="m 35.924712,1044.1969 c -0.828553,1.4312 -3.682561,7.5687 -3.682561,7.5687 l 55.437733,0 15.215256,-46.5496 2.76516,-6.20416 c -4.51455,-16.86719 -12.388254,-29.81539 -19.267042,-43.92432 4.703824,-7.96355 9.562101,-15.76076 13.008146,-24.13711 l -13.549519,-21.9359 -35.516606,4.95521 -5.272876,36.0047 14.274062,12.35666 z"
         style="fill:#ffffff;stroke:#023c59;stroke-width:1.19305551;stroke-opacity:1" />
      <path
         sodipodi:nodetypes="ccccccc"
         inkscape:connector-curvature="0"
         id="path3813-8-0-4"
         d="m 95.621399,944.61647 c 0.982016,1.27041 0.834172,1.7323 2.469684,3.99598 l -0.13089,-8.49192 c 0,0 3.520157,1.60915 3.267617,0.96554 -1.03015,-2.53626 -2.602321,-4.87383 -3.772828,-7.03052 -3.688987,7.43708 -7.649538,14.37267 -10.89484,19.62015 2.918846,-2.56445 6.488683,-4.93576 9.061257,-9.05923 z"
         style="fill:#000c14;fill-opacity:1;stroke:none" />
      <path
         sodipodi:nodetypes="ccccc"
         inkscape:connector-curvature="0"
         id="path4010-9"
         d="m 87.226692,1051.2328 c -7.71654,0.067 -47.687647,-0.077 -54.095727,-0.074 0.881203,-2.2184 14.80963,-34.324 15.844069,-36.2471 5.421662,0.9189 37.804508,16.2872 44.233801,18.6427 z"
         style="fill:#000000;fill-opacity:0.11640212;stroke:none" />
      <path
         sodipodi:nodetypes="ccsccssccsccccccccccccccc"
         inkscape:connector-curvature="0"
         id="path3813"
         d="m 27.959569,997.50325 c 1.589474,1.323 -2.580863,51.69925 -4.902545,54.36215 4.577267,0 6.409616,-0.028 9.808794,-0.028 0.455673,0 14.940614,-34.7184 15.34124,-34.9261 m 9.220089,-34.64658 c 7.529566,-22.5365 5.826215,-17.73619 8.149607,-24.81245 0.228219,-0.69508 -7.06024,-9.7332 -8.919856,-11.86171 -0.275381,-0.31519 -2.169858,2.38772 -4.614989,4.22499 l 0.575112,-7.23012 c 0,0 -4.63236,0.7909 -4.293401,0.18832 0.338947,-0.60258 6.101167,-7.38167 6.101167,-7.38167 l -6.967373,1.01687 c 4.369876,-4.93247 4.850117,-10.74694 5.041733,-17.33074 l 3.658064,-3.83502 c -1.085776,-14.8371 21.94863,-10.38004 31.314581,-14.70379 2.29971,-7.85249 15.693168,-16.45939 16.336358,-23.55227 l -22.517794,1.01797 c -3.895994,1.85866 -7.792,3.13917 -11.687994,6.16735 -0.457668,-6.05639 -0.766336,-10.50146 -0.37283,-12.01826 -12.104264,3.10345 -21.972754,13.80856 -32.016062,23.9193 -5.011645,8.25154 -0.48036,27.67082 -9.34005,37.81215 4.543382,4.98269 9.295656,9.7147 11.901039,17.02299 -19.389693,20.15451 -14.661879,44.21959 -9.744294,50.50197 26.029105,26.4636 57.637451,38.6995 89.060375,29.9533 -36.30924,-8.9701 -43.224352,-13.9275 -63.783939,-51.85988"
         style="fill:#006ea1;fill-opacity:1;stroke:#023c59;stroke-width:1.19305551px;stroke-linecap:round;stroke-linejoin:round;stroke-opacity:1" />
      <path
         sodipodi:nodetypes="ccccccccsc"
         inkscape:connector-curvature="0"
         id="path3813-8-0"
         d="m 56.723996,945.36313 c -0.275382,-0.31519 -2.169858,2.38772 -4.61499,4.22499 l 0.575113,-7.23012 c 0,0 -4.63236,0.7909 -4.293401,0.18831 2.304995,-3.28818 4.367513,-5.68737 6.488217,-7.40802 0.163914,1.09538 1.607153,5.62243 2.12661,7.00897 0.956973,-0.69884 1.152277,-1.17405 2.027884,-2.3049 1.174981,6.94194 6.77714,14.69451 6.676076,17.42281 0.162613,-0.73541 -7.125846,-9.77353 -8.985462,-11.90204 z"
         style="fill:#000c14;fill-opacity:1;stroke:none" />
      <path
         sodipodi:nodetypes="ccccc"
         inkscape:connector-curvature="0"
         id="path3815"
         d="m 34.948645,903.39811 c 0.74566,0 25.186738,1.09107 25.186738,1.09107 -2.951954,3.05478 -3.519287,5.63299 -3.728299,10.75881 l -21.940469,-7.23007 z"
         style="fill:#000000;stroke:#000000;stroke-width:1.19305551px;stroke-linecap:round;stroke-linejoin:round;stroke-opacity:1" />
      <path
         sodipodi:nodetypes="cccccccccccsccc"
         inkscape:connector-curvature="0"
         id="path4008"
         d="m 61.857212,902.80646 c -3.740921,-2.57217 -9.044267,-3.76573 -14.462016,-4.85834 l 11.788057,0.0377 0,-4.18043 c 2.756531,1.34496 4.952445,3.53083 7.118019,5.76221 l 0,-5.0843 c 2.266985,1.6446 4.160519,3.92941 5.724555,6.77907 l 6.779061,-0.56492 c 1.246874,-2.79843 2.689469,-5.54466 5.42326,-7.94658 l 0,3.91679 c 1.721209,-2.00594 3.316945,-4.26283 5.611561,-5.12196 0,0 -0.0377,4.40639 0,4.40639 0.0377,0 8.398514,0 8.398514,0 -4.037956,1.21425 -8.76341,1.92432 -9.942638,5.23496 z"
         style="fill:#000c14;fill-opacity:1;stroke:#000000;stroke-width:1.19305551px;stroke-linecap:round;stroke-linejoin:round;stroke-opacity:1" />
      <path
         sodipodi:nodetypes="csccccccccscc"
         inkscape:connector-curvature="0"
         id="path3855"
         d="m 86.587702,955.16388 c 2.594192,0.6779 27.664328,35.25163 26.902128,34.42307 -0.79331,-0.86235 14.12953,-13.75605 14.12953,-13.75605 1.2876,-5.7966 1.57802,-11.59321 1.0583,-17.38982 l 0.83593,-3.45278 5.61979,-1.14257 6.26094,-1.35739 8.57769,17.17522 -5.72454,3.23889 c -5.76054,18.34168 -18.47915,32.74045 -29.97857,47.83015 0,0 -7.98423,-11.7881 -11.29845,-14.7633 -0.752,-0.6751 2.78696,-7.0051 2.78696,-7.0051 -3.79609,-14.44043 -12.283141,-29.89736 -19.169708,-43.80032 z"
         style="fill:#006ea1;fill-opacity:1;stroke:#023c59;stroke-width:1.19305551px;stroke-linecap:round;stroke-linejoin:round;stroke-opacity:1" />
      <path
         inkscape:connector-curvature="0"
         id="path3857"
         d="m 135.28402,953.84573 c -0.45195,0.71556 -4.55705,6.66608 -4.55705,6.66608 l 13.48282,12.4283"
         style="fill:none;stroke:#023c59;stroke-width:1.19305551px;stroke-linecap:round;stroke-linejoin:round;stroke-opacity:1" />
      <path
         sodipodi:nodetypes="cccc"
         inkscape:connector-curvature="0"
         id="path4076"
         d="m 72.169006,918.43731 -9.107691,6.12505 9.85335,9.10771 c -2.218355,-4.31155 -8.042315,-7.22093 -0.745659,-15.23276 z"
         style="fill:#000000;fill-opacity:0.11640212;stroke:none" />
      <path
         sodipodi:nodetypes="ccccc"
         inkscape:connector-curvature="0"
         id="path3915"
         d="m 80.960596,911.30665 c -0.246259,0.21304 -15.189649,13.47513 -14.913194,13.47513 3.677463,5.47001 9.053347,10.45477 15.712112,15.07298 13.77787,-4.95504 19.664156,-17.56955 46.497216,-9.85336 -12.36544,-9.24296 -30.14867,-13.68731 -47.296134,-18.69475 z"
         style="fill:#ffe300;fill-opacity:1;stroke:#a59c00;stroke-width:1.19305551px;stroke-linecap:butt;stroke-linejoin:miter;stroke-opacity:0.99215686" />
      <path
         sodipodi:nodetypes="cccccc"
         inkscape:connector-curvature="0"
         id="path3817"
         d="m 56.886442,915.40777 c 1.945396,8.96227 10.7532,4.2535 16.730062,1.04503 3.827513,-1.57304 6.16725,-5.89607 7.350558,-5.71108 2.949842,1.03765 12.459162,4.0509 13.186759,1.55262 1.74352,-2.92507 -1.804639,-12.04548 -6.002942,-11.53346 -9.813824,1.56979 -32.806127,-5.12925 -31.264437,14.64689 z"
         style="fill:#96d8ff;fill-opacity:1;stroke:#000000;stroke-width:1.19305551px;stroke-linecap:butt;stroke-linejoin:miter;stroke-opacity:1" />
      <path
         sodipodi:nodetypes="cccc"
         inkscape:connector-curvature="0"
         id="path3955"
         d="m 71.993865,925.90089 c 0.80672,2.178 1.132556,5.27023 2.427284,8.01947 2.480016,-1.65318 5.834912,-2.85746 8.551046,-3.51892 -4.37194,-0.2067 -9.199651,-1.40136 -10.97833,-4.50055 z"
         style="fill:#ffffff;fill-opacity:1;stroke:none" />
      <path
         sodipodi:nodetypes="cccc"
         inkscape:connector-curvature="0"
         id="path3917"
         d="m 121.70556,928.24377 c -16.11926,-7.87118 -41.35551,10.08427 -49.799408,-2.92938 0.333709,2.67915 0.727131,6.04355 2.454485,8.82223 3.898535,-2.05084 7.552029,-2.86512 11.718632,-4.11178"
         style="fill:none;stroke:#a59c00;stroke-width:1.19305551px;stroke-linecap:round;stroke-linejoin:round;stroke-opacity:0.99215686" />
      <path
         sodipodi:nodetypes="scs"
         inkscape:connector-curvature="0"
         id="path3917-2"
         d="m 88.439849,918.80191 c -0.373319,0.0934 4.323967,1.07407 4.477943,1.31608 -0.787799,-1.23658 -2.625044,-1.77986 -4.477943,-1.31608 z"
         style="fill:none;stroke:#a59c00;stroke-width:1.19305551px;stroke-linecap:round;stroke-linejoin:round;stroke-opacity:0.99215686" />
      <path
         sodipodi:nodetypes="ccccc"
         inkscape:connector-curvature="0"
         id="path4006"
         d="m 124.71284,1006.2684 -10.40922,13.4337 c -3.74793,-5.3767 -7.03688,-10.0767 -10.85525,-14.0652 0.14551,-0.8851 0.56975,-1.8031 0.81415,-2.3999 6.88447,7.9526 13.68974,8.6419 20.45032,3.0314 z"
         style="fill:#000000;fill-opacity:0.2962963;stroke:none" />
      <path
         sodipodi:nodetypes="ccc"
         inkscape:connector-curvature="0"
         id="path4010"
         d="m 86.260005,954.13356 c -4.094805,3.544 -5.489892,4.34545 -10.565735,3.60179 6.129513,2.57759 7.266901,2.10884 10.565735,-3.60179 z"
         style="fill:#000000;fill-opacity:0.11640212;stroke:none" />
      <path
         sodipodi:nodetypes="ccc"
         inkscape:connector-curvature="0"
         id="path4006-0-3"
         d="m 30.146981,1000.1507 c 2.93685,2.7337 39.333441,24.1326 87.092989,30.9705 -37.993868,10.3563 -74.460528,-14.5407 -87.092989,-30.9705 z"
         style="fill:#000000;fill-opacity:0.2962963;stroke:none" />
      <path
         transform="matrix(1.1930555,0,0,1.1930555,-434.60982,607.24192)"
         sodipodi:nodetypes="ccccc"
         inkscape:connector-curvature="0"
         id="path4092"
         d="m 432.7241,279.37451 -1.1522,1.27847 0.99436,1.56259 1.32583,-1.51524 z"
         style="fill:#000000;fill-opacity:0.11764706;stroke:none;filter:url(#filter4138)" />
      <g
         transform="matrix(1.5264296,-0.70177492,0.70177492,1.5264296,-796.85956,-297.55897)"
         id="g3847">
        <g
           id="g3842">
          <path
             sodipodi:nodetypes="ccccc"
             transform="translate(0,752.36218)"
             inkscape:connector-curvature="0"
             id="path3040"
             d="m 205,157.8125 c -2.36714,-0.33199 -4.41453,-1.26792 -5.71429,-3.61607 l -7.99107,0 c -0.22584,17.91263 12.31393,21.28218 20.89286,21.69643 z"
             style="fill:none;stroke:#fed65e;stroke-width:1px;stroke-linecap:round;stroke-linejoin:round;stroke-opacity:1" />
          <path
             style="fill:none;stroke:#fed65e;stroke-width:1px;stroke-linecap:round;stroke-linejoin:round;stroke-opacity:1"
             d="m 235.03403,910.17468 c 2.36714,-0.33199 4.41453,-1.26792 5.71429,-3.61607 l 7.99107,0 c 0.22584,17.91263 -12.31393,21.28218 -20.89286,21.69643 z"
             id="path3812"
             inkscape:connector-curvature="0"
             sodipodi:nodetypes="ccccc" />
          <path
             sodipodi:nodetypes="ccccccc"
             transform="translate(0,752.36218)"
             inkscape:connector-curvature="0"
             id="path3810"
             d="m 203.16964,152.1875 33.52679,0 c -0.16889,9.4444 -3.69313,23.38395 -14.84168,29.05644 0.6861,4.09952 1.98586,7.99449 5.42957,11.17481 l -14.67878,0 c 2.60828,-3.0159 4.63571,-6.58624 5.39801,-11.36421 -9.30572,-4.61385 -14.07198,-14.99452 -14.83391,-28.86704 z"
             style="fill:#fed65e;fill-opacity:1;stroke:none" />
        </g>
        <g
           id="g3835"
           transform="translate(0,-0.85231621)">
          <rect
             transform="translate(0,752.36218)"
             y="192.54503"
             x="207.83888"
             height="17.740805"
             width="24.306795"
             id="rect3814"
             style="fill:#b9522c;fill-opacity:1;stroke:none" />
          <g
             transform="translate(-0.0300436,0.86857081)"
             id="g3830">
            <rect
               style="fill:#fed65e;fill-opacity:1;stroke:none"
               id="rect3816"
               width="18.4375"
               height="6.4508929"
               x="210.80357"
               y="949.68359" />
            <g
               id="text3826"
               style="font-size:5.36794376px;font-style:normal;font-variant:normal;font-weight:normal;font-stretch:normal;line-height:125%;letter-spacing:0px;word-spacing:0px;fill:#000000;fill-opacity:1;stroke:none;font-family:Open Sans;-inkscape-font-specification:Open Sans">
              <path
                 id="path3937"
                 style="font-weight:bold;-inkscape-font-specification:Open Sans Bold"
                 d="m 214.48795,952.67708 1.52022,0 0,1.98677 c -0.24639,0.0804 -0.47835,0.13673 -0.6959,0.16906 -0.21755,0.0323 -0.4399,0.0485 -0.66706,0.0485 -0.57838,0 -1.02003,-0.16993 -1.32495,-0.5098 -0.30492,-0.33986 -0.45737,-0.82782 -0.45737,-1.46386 0,-0.61857 0.17692,-1.10085 0.53076,-1.44683 0.35385,-0.34598 0.84442,-0.51897 1.47173,-0.51897 0.39316,0 0.77234,0.0786 1.13754,0.23589 l -0.26997,0.65003 c -0.27958,-0.13979 -0.57052,-0.20968 -0.87281,-0.20969 -0.35123,10e-6 -0.63255,0.11795 -0.84398,0.35385 -0.21144,0.2359 -0.31715,0.55304 -0.31715,0.95144 0,0.41588 0.0852,0.73347 0.25555,0.95276 0.17037,0.2193 0.41806,0.32895 0.74307,0.32895 0.1695,0 0.34161,-0.0175 0.51635,-0.0524 l 0,-0.79942 -0.72603,0 z"
                 inkscape:connector-curvature="0" />
              <path
                 id="path3939"
                 style="font-weight:bold;-inkscape-font-specification:Open Sans Bold"
                 d="m 220.40107,952.90774 c 0,0.6343 -0.15726,1.12182 -0.47179,1.46255 -0.31453,0.34074 -0.76535,0.51111 -1.35247,0.51111 -0.58712,0 -1.03794,-0.17037 -1.35247,-0.51111 -0.31453,-0.34073 -0.47179,-0.83 -0.47179,-1.46779 0,-0.63779 0.1577,-1.12488 0.4731,-1.46125 0.3154,-0.33637 0.76754,-0.50455 1.3564,-0.50455 0.58887,0 1.03925,0.1695 1.35116,0.50848 0.31191,0.339 0.46786,0.82652 0.46786,1.46256 z m -2.79667,0 c -1e-5,0.42811 0.0813,0.7505 0.24375,0.96717 0.16251,0.21668 0.40539,0.32501 0.72866,0.32501 0.64828,0 0.97241,-0.43072 0.97242,-1.29218 -1e-5,-0.8632 -0.3224,-1.29481 -0.96718,-1.29481 -0.32326,0 -0.56702,0.10878 -0.73127,0.32632 -0.16426,0.21756 -0.24639,0.54038 -0.24638,0.96849 z"
                 inkscape:connector-curvature="0" />
              <path
                 id="path3941"
                 style="font-weight:bold;-inkscape-font-specification:Open Sans Bold"
                 d="m 222.67878,954.82898 -0.81253,0 0,-3.15576 -1.04056,0 0,-0.67624 2.89365,0 0,0.67624 -1.04056,0 z"
                 inkscape:connector-curvature="0" />
              <path
                 id="path3943"
                 style="font-weight:bold;-inkscape-font-specification:Open Sans Bold"
                 d="m 225.50691,952.57486 0.79942,-1.57788 0.87544,0 -1.27122,2.34061 0,1.49139 -0.80728,0 0,-1.46518 -1.27122,-2.36682 0.88068,0 z"
                 inkscape:connector-curvature="0" />
            </g>
          </g>
        </g>
      </g>
      <path
         style="fill:#006ea1;fill-opacity:1;stroke:#023c59;stroke-width:1.19305551px;stroke-linecap:round;stroke-linejoin:round;stroke-opacity:1"
         d="m 130.72953,960.49295 c 1.83085,-2.64819 3.58368,-5.0174 4.40385,-6.64722 l 6.26094,-1.35739 8.57769,17.17522 -5.72454,3.23889 c -7.80001,-7.13853 -11.3022,-10.34414 -13.51794,-12.4095 z"
         id="path3932"
         inkscape:connector-curvature="0"
         sodipodi:nodetypes="cccccc" />
      <path
         sodipodi:nodetypes="cccc"
         inkscape:connector-curvature="0"
         id="path4006-0"
         d="m 139.45482,967.75663 c -3.56905,-3.31478 -4.13118,-3.85079 -7.94014,-7.34031 1.81204,-2.6646 3.45662,-5.02509 3.91757,-5.71604 -0.21258,3.84929 0.85217,6.20412 4.02257,13.05635 z"
         style="fill:#000000;fill-opacity:0.2962963;stroke:none" />
      <path
         transform="translate(0,752.36218)"
         sodipodi:nodetypes="cccc"
         inkscape:connector-curvature="0"
         id="path3934"
         d="m 178.52678,176.42857 19.64287,-9.33035 c 5.40285,13.67453 10.58891,32.28805 -2.07655,50.95467 3.82691,-19.49184 -1.70021,-39.1132 -17.56632,-41.62432 z"
         style="opacity:0.07522122;fill:#000000;fill-opacity:1;stroke:none" />
    </g>
  </g>
</svg>
