<svg height="1160" viewBox="0 0 827.5 1160" width="827.5" xmlns="http://www.w3.org/2000/svg"><path d="m0 167.3 448.9-167.3 378.5 57.2v1023.9l.1 28.9-375.4 50-452.1-150.5z" fill="#365798"/><path d="m25.3 986.6-1.2-795 388.9-143.7-1 1060.8zm452.8 123.1.2-1056.3 309.8 42v975.8z" fill="#a5b6d9"/><path d="m215.5 738.1-174-10-1.2-306.5 175.6-16.4zm16.7-334.5 156.1-19.4-1.2 359.8-155.2-4.8zm-192.9-2.6v-194.4l176-57.4 1.2 232.1zm350.8-317.2.9 274.5-158.7 20.4v-238zm-253 909.7v-235.1l141.7 9.3v268.4zm247 80.8-17.3-6.4c3.8-22.5-18.9-31.9-19.1-5.7l-18.7-5.5c-.9-22.1-13.9-31.7-21.2-6.8l-9.7-3-.6-277.7 12.3.9c-4.3 27.5 23.5 28.2 20.3 1.7l20.3 1.3c-4.4 28.6 23.2 28.9 20.4 1.3l12.7.8zm-341.3-322.1 82.2 5.9-.5 108-81.9-11.2zm83.1 129.3-.9 110.4-82.7-20.2v-102.4zm368.4-810.4 278.6 36.6v950l-278.3 35.1z" fill="#365798"/><path d="m279 508.6c-.1-5.1 0-10 3.2-14.2 6 .2 4.9 9.7 5 14.3 10.3 5.1 4.9-10.8 10.2-15.3 7.6-.8-.6 16 6.9 15.8 4.9-.1 3.9-2.4 3.8-6.7-.1-3.9.4-7.8 3.8-10.3 8.2 3.1.8 18.2 11.2 15.8 0-6.4-1-14.2 5.8-17.6 2.6 5.2-.1 14.8 5.4 16.1 7.4 1.7 8.4 3.6 10.2 10.5.8 3.1-.4 4.6 2.8 6.4 3.5 2 7.6 1.4 7.7 6.1.1 6.4-2.7 5.5-7.6 5.5-1.8 0-2.4 3.4-2.5 4.7-.4 4.7.4 5.7 5 7 5.9 1.7 4.9 3.3 4.9 8.7 0 2.7.5 1.2-3.1 1.9-5.7 1.1-7 .3-6.7 6.8.4 7.8 13.4 1.4 9.7 12.6-1.6 4.8-9.5 1.1-9.5 5.3 0 5.3-1.1 7.7 5.4 8.2 6.4.5 6 9.1.4 11-3.4 1.2-4.6-.1-5.8 4s-1.1 8.4-2.6 12.5c-6.1 4.5-11.6-1.7-11.6 8.4 0 2.7-.6 4.7-1.1 7.3-.9 5-2.2.7-5.8 1.8-1-1.2 0-7.9 0-9.5 0-4.7-1.6-5.8-7-5.4-.3 5.8-.2 12-4.9 16.2-2.9-1.9-4-4.8-4.2-8.1-.3-6.5.2-6.7-6.5-8.3-1.2 2.9-2 11.4-1.5 14.5-5.2 2.6-6-5.4-6-8.6 0-2.7 1.1-5.7-2.3-6.7-3.4-.9-4.6.8-4.7 3.9-.2 6.1-.5 8.8-5.3 12.2-1.9-5.4-.3-14.7-6.6-16.4-7-1.8-7.9-6.9-8-13.6-.1-7.3-8.9-.3-8.9-8.2 0-.8-.6-4.9 0-5.5 2.9-2.1 5.8 1.2 8.5.1 1.3-3.6 1.8-9-2.1-9.9-4-.9-7.8-1.4-6.9-6 1.1-5.7.1-5.4 6.3-5.8 4.7-.3 3-5.2 3.1-8.4-6.2-2.9-8.8.8-8.8-7.4 0-5.6-.4-5.1 5.2-5.1 4.8 0 3.4-1.7 3.4-6.3 0-5.1-9.2-.6-9.6-7.6-.2-3 1-5.6 3.9-6.7 5.1-2 5.7-2.3 5.9-7.8.3-8 5.6-8.9 12-12.1zm-190.7-139.2 24.3-92.2-15.7 7.5 21.6-79 25.5-7.3-19.1 53.1 19.2-10.3-55.7 128.3z" fill="#a5b6d9"/><path d="m278.8 319c1.2-3.2 2.5-6.5 3.8-9.9 13.8 5.9 26.4 10.2 40.6 1.9 13.7-8 22.8-24.3 28-38.8 10.2-28.4 10.2-66.8-8.3-91.8-22.5-30.5-54.5-14.5-69.8 13.9-4.7 8.8-11.2 31.3-12.1 45.3-.5 6.9-.2 14.1.8 21.3 1 8.1 5.2 16.5 4.2 24.7-.3 2.5-1.8 4.1-4.6 4.6-16.7-28-7.6-72.9 4.9-100.6 12.5-27.6 47.9-55.5 75.9-29 25.7 24.2 28.2 68.1 21.3 100.3-6.2 28.8-26 71.4-61.9 68.2-6.4-.6-19.1-3.8-22.7-10zm20.5-45.9c-3.2-11.6 11.5-19.5 14.8-28.4 1.9-5.2-.1-9.6-2.2-14-4.9-2.6-9-1.1-10.8 4-3.2 8.9-6.5 14.9-12.6 22.1-3.3-13.7-1.4-29.1 6.6-40.9 4.3-6.3 12.9-9.4 19.4-6.9 20.5 7.8 14.2 42.7 5.3 56.4-4.7 7.3-12.7 7.6-20.5 7.6zm3.4-25.8c.5.7.5 1.4.2 2-9.4 21.3-18.7 42.6-28.2 64-.9-.4-1.4-.4-1.7-.7-3.3-3.9-5.6-8.5-7.8-13.1-.9-1.8.1-3.6 1.2-5.1l32.8-43.7c.9-1.3 2-2.6 3.4-3.4z" fill="#a5b6d8"/><g fill="#a5b6d9"><path d="m188.7 922.8c-6.1 11.9-4.4 25.1-6 38-9.7-2.4-16.7-21.7-18.6-30 1.7-9.9 6.9-17.2 12.9-24.9 2.8-3.6 3.7-7.2 1.9-11.4-.7-1.6-.6-3.6-2-4.9-8.7 1.5-13.9 8.2-19.9 14-6.7-7-5.2-33.4.2-41.1 8.4-1.5 15.8 1 22.6 5.8 5.3-5.2 5.6-10.3.9-15.7-3.6-4.1-14.7-8.9-16.7-13.1-1.6-6.3 10.2-27.5 17.3-27.2 7.8 11.5 12.4 24.5 15 38.1 2.7 1.1 5.1 2.1 8.2 1.5 1.6-15.5-1.9-30.3-6.8-44.8.5-.5.8-.9 1-.9 8.6.6 16.8 2.3 23.4 8.6 14.9 14.2-11.5 41.7.4 58.4 10.7-10.3 10.5-23.1 18.6-34 8 10.3 15 31 13.7 44.1-6.9 8.3-12.4 13-28.9 14.2.5 3.7-1.8 7.2-.8 11.5 8.8 9.4 18.5 7.9 30.1 7.2 1.6 8.2-6.7 33.6-12.9 39.7-12.6-5.7-19.1-17.9-26.1-29.1-2.5 1.9-4.6 3.7-6.4 6.1 1.7 12.9 18 29.3 15.9 40.7-5.5 2.6-11.4 4.3-17.7 3.4-6.2-.9-8.7-4.3-10.2-10.9-3.3-14.7 3.2-32.8-9.2-43.3zm118.5 22.1v-63.8l67.8 10.9v67.4zm-.1-139.6 67.9 7.1v66.8l-67.9-9.9zm67.7 165.5v66.8l-67.6-18.6v-63.6zm-320.5-31.7v-28.9l13.7 2 16.5-16.6.7 67.6-16.3-20.9z"/><path d="m89.1 915.5c1.4-.6 2.3-.5 3.4-.2 2.8 6.5 3.9 13.4 3.6 20.5-.1 2.7-1.1 5.1-1.7 7.6-.5 1.9-1.8 3-3.4 3.9-1.3-1.3-.9-2.5-.6-3.8.8-3.7 1.6-7.3 1.7-11.1.2-5.8-1.6-11.2-2.9-16.9zm7 42.4c-.3-3.3.9-6.2 1.6-9.1 1-4.4 2.5-8.8 3.1-13.2.8-5.6-1-11-2.4-16.4-.7-2.5-1.5-5-2.2-7.5-.4-1.6-.7-3.1.2-4.5 1.3-.1 1.8.6 2.1 1.3 2.1 4.3 3.6 8.6 4.5 13.3 1 5.5.5 10.9.9 16.3.3 3.5-.8 6.9-1.3 10.2-.6 3.8-2.6 7.4-6.6 9.6zm7.6 10.4c-1.9-3.7-1.4-6.5-.1-9.8 3.1-8.1 5.9-16.4 5.3-25.2-.5-7.7-1.8-15.2-4.6-22.4-1.2-3-2.3-6.1-3.3-9 .8-1.2 1.7-2 3.4-1.6 1.8 4.1 3.9 8.3 5.1 12.8 5 19 5 37.4-5.7 55.3z"/><path d="m598.7 1048.2-70.3 8.4-.2-378.8 70.5-3.8zm89.8-514c-11 50.3-65.8 45.6-78.3 2.8l-92.4 3.1-.2-67.9 89.4-3.3c22.8-54 64.5-46.2 81.8.2l66.2.4 1.6 61.8zm-172.4-237.1v-24l241.7 7.5.1 19.4z"/><path d="m52.3 828.6 62.6 9.7-19.2-43.4-8.2 15-13.4-29.3-21.8 48.1zm64.1-39.5c0 4.4-3.5 7.9-7.9 7.9s-7.9-3.5-7.9-7.9 3.5-7.9 7.9-7.9 7.9 3.5 7.9 7.9z"/></g><ellipse cx="649.40002" cy="502.89999" fill="#365798" rx="31" ry="51.799999"/><path d="m177.7 628.2c-1.8 3-1.6 6.7.4 9.3l-26.3 40 6.6-.1 25-36.7c3.2.6 6.6-.9 8.5-3.8 2.4-3.9 1.2-9-2.7-11.4s-9-1.2-11.5 2.7zm-110.8 29.7-9.7 12.9 4.6 4.3 7.9-11 7.1.3c.4.7.9 1.4 1.5 2 3.3 3.3 8.6 3.3 11.8 0 3.3-3.3 3.3-8.6 0-11.8-3.3-3.3-8.6-3.3-11.8 0-1 1-1.7 2.3-2.1 3.6zm20.1-68.7c-4.4 0-8 3.6-8 8s3.6 8 8 8c3.7 0 6.8-2.5 7.7-6l44.5 1.3 17.4 21.5c-.2.8-.4 1.6-.4 2.4 0 4.6 3.8 8.4 8.4 8.4s8.4-3.8 8.4-8.4-3.8-8.4-8.4-8.4c-1.5 0-2.9.4-4.1 1.1l-18.9-22.9-48-1.3c-1.4-2.2-3.9-3.7-6.8-3.7zm13.5 27c-4.6.1-8.3 4-8.1 8.6.1 4.6 4 8.3 8.6 8.1 3.3-.1 6-2.1 7.3-4.9l22.2-.5c1.4 2.9 4.4 4.8 7.8 4.7 4.6-.1 8.3-4 8.1-8.6-.1-4.6-4-8.3-8.6-8.1-3.6.1-6.6 2.5-7.7 5.7l-21.5.5c-1.2-3.3-4.4-5.7-8.1-5.6zm-26 16.7c0 4.4-3.6 8-8 8s-8-3.6-8-8 3.6-8 8-8 8 3.6 8 8zm13.1-155.3c-3.5.2-6.4 2.5-7.5 5.6l-22.6 1 .3 6.2 22.6-1c1.4 3 4.4 5 7.9 4.9 4.6-.2 8.1-4.1 7.9-8.7s-4.1-8.2-8.7-8zm56.3 20c-4.6.1-8.3 4-8.1 8.6.1 4.6 4 8.3 8.6 8.1 3.3-.1 6-2.1 7.3-4.9l25.3-.7c1.4 2.9 4.4 4.8 7.8 4.7 4.6-.1 8.3-4 8.1-8.6-.1-4.6-4-8.3-8.6-8.1-3.6.1-6.6 2.5-7.7 5.7l-24.6.7c-1.2-3.3-4.4-5.7-8.1-5.6zm-44.4-30.4-4.1 4.7 19.8 17.1 80.9-3-.5-6.2-78.3 2.8zm-41.6 51.7-.2-6 68.2-4 71.4 103.9-5.3 3.3-70.1-101.1zm132.6 25.4c2.3-2.6 2.6-6.3 1.1-9.3l6.6-9.5.4-9-11.7 14.4c-3.1-1.1-6.7-.2-9 2.4-3 3.5-2.7 8.7.8 11.7s8.7 2.7 11.8-.8zm-32.3.4c2 2.9 5.5 4.1 8.7 3.3l30.7 44.3-.1-9.8-25.5-38c1.8-2.8 1.8-6.4-.2-9.3-2.6-3.8-7.8-4.7-11.6-2-3.8 2.6-4.7 7.8-2.1 11.6zm-34.8-9.6c-3.5.2-6.4 2.5-7.5 5.6l-57.2 2.9.3 6.2 57.2-2.9c1.4 3 4.4 5 7.9 4.9 4.6-.2 8.1-4.1 7.9-8.7s-4.1-8.2-8.7-8zm17.5 33-81.3 2 .2 6.3 78.7-2 17.5 22.3c-.2.8-.4 1.6-.4 2.4 0 4.6 3.8 8.4 8.4 8.4s8.4-3.8 8.4-8.4-3.8-8.4-8.4-8.4c-1.5 0-2.9.4-4.1 1.1zm38.3 105.5c1.2 2.6 5 .2 5.7 3.6-1 4.1-8.9.5-11.6.9-1.4-4.3 8.4-15.3 10.9-18.8 2.8-1.4 9.4 0 12.6 0 .3 2.8.5 5.3-1.5 7.8-3.4.1-6.7-1.4-10.1-1.7-2 2.7-4 5.5-6 8.2zm-111.9-67.6h-8.1v-6.7c6.2 0 9.7-1.6 13.2 3.9 6.6 10.3 12.8 20.9 19.1 31.4 3.1 5.2 6.3 10.4 9.5 15.5 4.6 7.4 5.8 8 14.6 8.6 6.3.4 12.7.4 19.1.4 6.6 0 6.4-5.5 12.7-4.9 5.4 5.1 5.4 11.7 0 16.8-6 .4-5.3-5.8-9.8-5.8h-19.2c-9.5 0-12.4 2.1-17.3-5.6-11.2-17.9-22.4-35.7-33.6-53.6z" fill="#a5b6d9"/><path d="m297.59918 233.57187c0 2.99091-1.54644 5.5145-3.50923 5.5145-1.90331 0-3.50923-2.43012-3.50923-5.5145 0-2.99092 1.54644-5.51451 3.50923-5.51451 1.90331 0 3.50923 2.43012 3.50923 5.51451zm8.56489-12.80486c0 2.99091-1.54644 5.5145-3.50922 5.5145-1.90331 0-3.50923-2.43012-3.50923-5.5145 0-2.99092 1.54644-5.5145 3.50923-5.5145 1.90331 0 3.50922 2.43011 3.50922 5.5145zm13.68005 0c0 2.99091-1.54644 5.5145-3.50923 5.5145-1.90331 0-3.50923-2.43012-3.50923-5.5145 0-2.99092 1.54644-5.5145 3.50923-5.5145 1.90331 0 3.50923 2.43011 3.50923 5.5145zm-7.67272 43.55521c0 2.99092-1.54644 5.5145-3.50923 5.5145-1.90331 0-3.50923-2.43012-3.50923-5.5145 0-2.99091 1.54644-5.5145 3.50923-5.5145 1.90331 0 3.50923 2.43012 3.50923 5.5145zm8.74333-10.7486c0 2.99091-1.54644 5.5145-3.50923 5.5145-1.90331 0-3.50923-2.43012-3.50923-5.5145 0-2.99092 1.54644-5.5145 3.50923-5.5145 1.90331 0 3.50923 2.43011 3.50923 5.5145zm4.4014-17.1043c0 2.99091-1.54644 5.5145-3.50923 5.5145-1.90331 0-3.50922-2.43012-3.50922-5.5145 0-2.99092 1.54644-5.51451 3.50922-5.51451 1.90331 0 3.50923 2.43012 3.50923 5.51451z" fill="#365798" stroke-width=".745602"/></svg>