<svg height="490.66599" viewBox="0 0 512 490.66599" width="512" xmlns="http://www.w3.org/2000/svg"><path d="m512 293.333c0-12.821-5.099-24.768-13.888-33.579 9.963-10.901 15.04-25.515 13.653-40.725-2.496-27.115-26.923-48.363-55.637-48.363h-131.776c6.528-19.819 16.981-56.149 16.981-85.333 0-46.272-39.317-85.333-64-85.333-22.144 0-37.995 12.48-38.656 12.992-2.539 2.027-4.011 5.099-4.011 8.341v72.341l-61.461 133.099-2.539 1.301v-4.075c0-5.888-4.779-10.667-10.667-10.667h-106.666c-29.418.001-53.333 23.916-53.333 53.334v170.667c0 29.419 23.915 53.333 53.333 53.333h64c23.061 0 42.773-14.72 50.197-35.264 17.75 9.131 41.643 13.931 56.47 13.931h195.819c23.232 0 43.563-15.659 48.341-37.248 2.453-11.136 1.024-22.336-3.84-32.064 15.744-7.915 26.347-24.192 26.347-42.688 0-7.552-1.728-14.784-4.992-21.312 15.744-7.936 26.325-24.192 26.325-42.688zm-44.992 26.325c-4.117.491-7.595 3.285-8.917 7.232-1.301 3.947-.213 8.277 2.816 11.136 5.419 5.099 8.427 11.968 8.427 19.307 0 13.461-10.176 24.768-23.637 26.325-4.117.491-7.595 3.285-8.917 7.232-1.301 3.947-.213 8.277 2.816 11.136 7.019 6.613 9.835 15.893 7.723 25.451-2.624 11.904-14.187 20.523-27.499 20.523h-195.82c-17.323 0-46.379-8.128-56.448-18.219-3.051-3.029-7.659-3.925-11.627-2.304-3.989 1.643-6.592 5.547-6.592 9.856 0 17.643-14.357 32-32 32h-64c-17.643 0-32-14.357-32-32v-170.667c0-17.643 14.357-32 32-32h96v10.667c0 3.691 1.92 7.125 5.077 9.088 3.115 1.877 7.04 2.069 10.368.448l21.333-10.667c2.155-1.067 3.883-2.859 4.907-5.056l64-138.667c.64-1.408.981-2.944.981-4.48v-68.885c4.438-2.453 12.14-5.781 21.334-5.781 11.691 0 42.667 29.056 42.667 64 0 37.547-20.437 91.669-20.629 92.203-1.237 3.264-.811 6.955 1.173 9.856 2.005 2.88 5.291 4.608 8.789 4.608h146.795c17.792 0 32.896 12.736 34.389 28.992 1.131 12.16-4.715 23.723-15.189 30.187-3.264 2.005-5.205 5.632-5.056 9.493s2.368 7.317 5.781 9.088c9.024 4.587 14.613 13.632 14.613 23.573.001 13.461-10.175 24.768-23.658 26.325z"/></svg>