<?xml version="1.0" encoding="UTF-8" standalone="no"?>
<!-- GamingOnLinux Block Icon -->

<svg
   xmlns:dc="http://purl.org/dc/elements/1.1/"
   xmlns:cc="http://creativecommons.org/ns#"
   xmlns:rdf="http://www.w3.org/1999/02/22-rdf-syntax-ns#"
   xmlns:svg="http://www.w3.org/2000/svg"
   xmlns="http://www.w3.org/2000/svg"
   xmlns:sodipodi="http://sodipodi.sourceforge.net/DTD/sodipodi-0.dtd"
   xmlns:inkscape="http://www.inkscape.org/namespaces/inkscape"
   version="1.1"
   x="0px"
   y="0px"
   viewBox="0 0 13.999999 13.999957"
   enable-background="new 0 0 1000 1000"
   xml:space="preserve"
   id="svg8"
   sodipodi:docname="block_user.svg"
   inkscape:version="0.92.1 r15371"
   width="13.999999"
   height="13.999957"><metadata
     id="metadata14"><rdf:RDF><cc:Work
         rdf:about=""><dc:format>image/svg+xml</dc:format><dc:type
           rdf:resource="http://purl.org/dc/dcmitype/StillImage" /><dc:title /></cc:Work></rdf:RDF></metadata><defs
     id="defs12" /><sodipodi:namedview
     pagecolor="#ffffff"
     bordercolor="#666666"
     borderopacity="1"
     objecttolerance="10"
     gridtolerance="10"
     guidetolerance="10"
     inkscape:pageopacity="0"
     inkscape:pageshadow="2"
     inkscape:window-width="1920"
     inkscape:window-height="1029"
     id="namedview10"
     showgrid="false"
     inkscape:zoom="22.627417"
     inkscape:cx="2.1686815"
     inkscape:cy="9.1920188"
     inkscape:window-x="0"
     inkscape:window-y="0"
     inkscape:window-maximized="1"
     inkscape:current-layer="svg8"
     fit-margin-top="0"
     fit-margin-left="0"
     fit-margin-right="0"
     fit-margin-bottom="0" /><g
     id="g6"
     transform="matrix(0.01428392,0,0,0.01428392,-0.14198177,-0.14198204)"><g
       id="g4"><path
         d="M 431.80518,14.768666 C 699.77172,-22.891576 947.57111,163.83866 985.23136,431.8052 1022.9055,699.87077 836.16136,947.57113 568.19482,985.23137 300.22829,1022.8917 52.428888,836.16138 14.768647,568.19484 -22.891594,300.2283 163.83864,52.428906 431.80518,14.768666 Z M 884.12498,446.01477 C 854.31411,233.89935 658.2292,86.050236 446.01475,115.87504 353.62274,128.85988 273.44851,173.45195 214.74115,237.14227 L 831.28917,701.65598 C 876.3442,627.76644 897.10983,538.40679 884.12498,446.01477 Z M 553.97133,884.02598 C 646.36334,871.04113 726.53758,826.44906 785.1459,762.77267 L 168.71084,298.34406 c -45.04113,73.98857 -65.82067,163.24919 -52.83582,255.64121 29.81087,212.11541 225.98089,359.85158 438.09631,330.04071 z"
         id="path2"
         inkscape:connector-curvature="0" /></g></g><path
     style="fill:#ffffff;stroke-width:0.04419417"
     d="M 6.1815125,13.936033 C 3.1729444,13.540542 0.80793414,11.363511 0.1636645,8.3965052 0.07628763,7.9941151 0.06290169,7.8062333 0.06290666,6.9822917 0.06291158,6.1649067 0.07645427,5.9718458 0.15981123,5.6008476 0.80412915,2.7331704 2.9938461,0.6135839 5.8103522,0.13127752 6.4845051,0.01583372 7.4950235,0.00758063 8.1125266,0.11247525 10.994876,0.60209682 13.192304,2.7086215 13.837743,5.6008476 c 0.08265,0.3703362 0.09638,0.568639 0.0972,1.4035412 8.31e-4,0.8417023 -0.012,1.0297388 -0.09554,1.4001934 -0.135144,0.5992575 -0.288983,1.0404254 -0.560854,1.6083688 -0.808233,1.688418 -2.22745,2.956059 -4.0004615,3.573204 -0.7664454,0.266782 -1.2019865,0.339751 -2.1243021,0.355898 -0.4496758,0.0079 -0.8871981,0.0052 -0.9722719,-0.006 z m 1.9666408,-1.494816 c 1.0336871,-0.230461 2.0224347,-0.756744 2.6909717,-1.432331 l 0.256529,-0.259235 -0.545672,-0.417362 C 10.249861,10.10274 8.9105028,9.0922241 7.573629,8.0866988 6.2367553,7.0811739 4.5028463,5.7749912 3.7204979,5.1840709 2.9381496,4.5931506 2.2876763,4.1096703 2.2750017,4.1096703 c -0.041862,0 -0.2529953,0.390791 -0.4019513,0.7439794 -0.4892712,1.1601068 -0.5546181,2.59937 -0.1732086,3.8149131 0.442875,1.4114312 1.4788178,2.6321852 2.7875573,3.2848542 0.4859746,0.242356 1.0846453,0.44452 1.5675259,0.529335 0.465769,0.08181 1.6449376,0.05841 2.0932283,-0.04153 z M 11.976911,9.4868414 C 12.60623,8.253138 12.721145,6.5918711 12.270914,5.2366218 11.633299,3.3173215 9.9539684,1.871282 7.9585263,1.523306 7.473249,1.4386807 6.5634868,1.4398587 6.0657676,1.525757 4.998986,1.709866 4.1193972,2.1358471 3.2499215,2.889459 3.1081076,3.0123753 2.9739335,3.1468464 2.9517569,3.1882839 c -0.033824,0.0632 0.2285038,0.2778014 1.6278627,1.3317028 0.9175015,0.6909989 2.9007584,2.1849538 4.4072375,3.3198995 2.5206759,1.8990171 2.7438209,2.0571995 2.7988559,1.9840396 0.03289,-0.043724 0.118931,-0.195412 0.191198,-0.3370844 z"
     id="path9"
     inkscape:connector-curvature="0" /></svg>