<?xml version="1.0" encoding="UTF-8"?>
<!-- Created with Inkscape (http://www.inkscape.org/) -->
<svg id="svg2424" width="32" height="32" version="1.0" xmlns="http://www.w3.org/2000/svg" xmlns:cc="http://creativecommons.org/ns#" xmlns:dc="http://purl.org/dc/elements/1.1/" xmlns:rdf="http://www.w3.org/1999/02/22-rdf-syntax-ns#" xmlns:xlink="http://www.w3.org/1999/xlink">
 <metadata id="metadata37">
  <rdf:RDF>
   <cc:Work rdf:about="">
    <dc:format>image/svg+xml</dc:format>
    <dc:type rdf:resource="http://purl.org/dc/dcmitype/StillImage"/>
    <dc:title/>
   </cc:Work>
  </rdf:RDF>
 </metadata>
 <path id="path2518" d="m15.997-0.0030095c-1.4246 3.4926-2.2838 5.7772-3.8699 9.1661 0.97246 1.0308 2.1661 2.2312 4.1046 3.587-2.084-0.85757-3.5056-1.7186-4.568-2.612-2.0299 4.2356-5.2101 10.269-11.664 21.865 5.0724-2.9284 9.0044-4.7337 12.669-5.4226-0.15735-0.67677-0.24681-1.4088-0.24074-2.1727l6e-3 -0.1625c0.08049-3.2497 1.771-5.7488 3.7736-5.5791 2.0026 0.16968 3.5591 2.9432 3.4787 6.193-0.01514 0.6115-0.08411 1.1997-0.20463 1.7453 3.6247 0.70905 7.5146 2.5098 12.518 5.3985-0.98664-1.8165-1.8673-3.4539-2.7083-5.0134-1.3247-1.0267-2.7064-2.363-5.5249-3.8097 1.9373 0.50338 3.3243 1.0842 4.4055 1.7333-8.5506-15.92-9.2431-18.035-12.175-24.916z" fill="#222" fill-rule="evenodd"/>
</svg>
