<svg height="32" preserveAspectRatio="xMidYMid meet" viewBox="0 0 32 32" width="32" xmlns="http://www.w3.org/2000/svg" xmlns:xlink="http://www.w3.org/1999/xlink"><filter id="a" color-interpolation-filters="sRGB"><feColorMatrix values="0.21 0.72 0.072 0 0 0.21 0.72 0.072 0 0 0.21 0.72 0.072 0 0 0 0 0 1 0"/></filter><filter id="b" color-interpolation-filters="sRGB"><feColorMatrix values="0.21 0.72 0.072 0 0 0.21 0.72 0.072 0 0 0.21 0.72 0.072 0 0 0 0 0 1 0"/></filter><g fill="#0d88ad"><path d="m0 2627c0-9 681-1402 690-1411 8-8 1360 552 1360 564 0 3-453 193-1008 422-1128 467-1042 432-1042 425z" filter="url(#b)" transform="matrix(.01186256568 0 0 .01149590493 1.14225875966 .99513983523)"/><path d="m2058 2456c-268-94-490-175-493-178-5-5 608-363 634-370 8-2 361 700 361 718 0 8-21 1-502-170z" filter="url(#b)" transform="matrix(.01186256568 0 0 .01149590493 1.14225875966 .99513983523)"/><path d="m1451 1280c-332-187-608-343-614-349-8-8 430-930 443-930 5 0 699 1422 762 1560 15 32 24 59 20 59s-279-153-611-340z" filter="url(#b)" transform="matrix(.01186256568 0 0 .01149590493 1.14225875966 .99513983523)"/></g><path d="m0 2626c0-8 682-1402 690-1410 5-5 279 105 685 275l677 284-311 3-311 2-147 88c-190 113-625 371-913 542-124 73-258 152-297 176-40 23-73 41-73 40z" fill="#25a8d0" filter="url(#a)" transform="matrix(.01186256568 0 0 .01149590493 1.14225875966 .99513983523)"/><path d="m2271 2436c-150-102-277-188-282-193-8-8-283 14-394 32-25 4-36 2-30-3 7-7 450-263 637-369 4-2 16 16 26 39 11 24 90 186 175 361 86 174 153 317 149 317s-130-83-281-184z" fill="#25a8d0" filter="url(#a)" transform="matrix(.01186256568 0 0 .01149590493 1.14225875966 .99513983523)"/><path d="m1974 1537c-178-157-420-372-429-383-9-9-176-159-332-297-30-26-60-47-67-47-6 0-79 26-161 59-83 32-152 57-153 55-5-3 442-923 448-923 7 0 783 1599 779 1603-2 2-41-28-85-67z" fill="#25a8d0" filter="url(#a)" transform="matrix(.01186256568 0 0 .01149590493 1.14225875966 .99513983523)"/></svg>