<?xml version="1.0" encoding="UTF-8"?>
<!-- Created with Inkscape (http://www.inkscape.org/) -->
<svg id="svg4095" width="32" height="32" version="1.1" viewBox="0 0 32 32" xmlns="http://www.w3.org/2000/svg" xmlns:cc="http://creativecommons.org/ns#" xmlns:dc="http://purl.org/dc/elements/1.1/" xmlns:rdf="http://www.w3.org/1999/02/22-rdf-syntax-ns#">
 <metadata id="metadata4092">
  <rdf:RDF>
   <cc:Work rdf:about="">
    <dc:format>image/svg+xml</dc:format>
    <dc:type rdf:resource="http://purl.org/dc/dcmitype/StillImage"/>
    <dc:title/>
   </cc:Work>
  </rdf:RDF>
 </metadata>
 <g id="layer1" transform="translate(0 -288.53)">
  <rect id="rect10098-6" y="288.53" width="32" height="32" stroke-miterlimit="1" stroke-width="0" style="paint-order:markers fill stroke"/>
  <path id="path8901-0-9-6-2-5-5" d="m2 296.53h1l2 4h-1z" fill="#fff" style="paint-order:markers stroke fill"/>
  <path id="path8901-0-2-2-0-0-3" d="m2 295.53v-1h8v1z" fill="#fff" style="paint-order:markers stroke fill"/>
  <path id="path8901-0-2-8-3-2-9-01" d="m14 316.53v-1h12v1z" fill="#fff" style="paint-order:markers stroke fill"/>
  <path id="path8901-0-2-8-6-4-2-3-2" d="m14 302.53v-1h12v1z" fill="#fff" style="paint-order:markers stroke fill"/>
  <path id="path8901-0-2-4-0-4-5-4" d="m18 309.53v-1h4v1z" fill="#fff" style="paint-order:markers stroke fill"/>
  <path id="path8901-0-9-6-2-9-1-8" d="m6 303.53h1l2 4h-1z" fill="#fff" style="paint-order:markers stroke fill"/>
  <path id="path8901-0-9-6-2-4-8-0" d="m10 310.53h1l2 4h-1z" fill="#fff" style="paint-order:markers stroke fill"/>
  <path id="path8901-0-9-6-2-7-3-46" d="m10 296.53h1l2 4h-1z" fill="#fff" style="paint-order:markers stroke fill"/>
  <path id="path8901-0-9-6-2-6-5-3" d="m27 303.53h1l2 4h-1z" fill="#fff" style="paint-order:markers stroke fill"/>
  <path id="path8901-0-9-6-2-6-9-3-3" d="m30 310.53h-1l-2 4h1z" fill="#fff" style="paint-order:markers stroke fill"/>
 </g>
</svg>
