<?xml version="1.0" encoding="UTF-8"?>
<!-- Created using Karbon, part of Calligra: http://www.calligra.org/karbon -->
<svg id="svg2" width="32" height="32" version="1.1" xmlns="http://www.w3.org/2000/svg" xmlns:cc="http://creativecommons.org/ns#" xmlns:dc="http://purl.org/dc/elements/1.1/" xmlns:rdf="http://www.w3.org/1999/02/22-rdf-syntax-ns#">
 <metadata id="metadata19">
  <rdf:RDF>
   <cc:Work rdf:about="">
    <dc:format>image/svg+xml</dc:format>
    <dc:type rdf:resource="http://purl.org/dc/dcmitype/StillImage"/>
    <dc:title/>
   </cc:Work>
  </rdf:RDF>
 </metadata>
 <g id="g3788" transform="translate(-2.0595 -94.71)">
  <path id="path7797" d="m34.059 110.71c0-8.8366-7.1634-16-16-16-8.8366 0-16 7.1634-16 16-2e-7 8.8366 7.1634 16 16 16 8.8366 0 16-7.1634 16-16z" fill="#222"/>
  <path id="path7946" d="m33.054 110.71c0-8.2813-6.7133-14.995-14.995-14.995-8.2813 0-14.995 6.7133-14.995 14.995-2e-7 8.2813 6.7133 14.995 14.995 14.995 8.2813 0 14.995-6.7133 14.995-14.995z" fill="#fff"/>
  <path id="path7948" d="m32.384 110.71c0-7.9114-6.4135-14.325-14.325-14.325s-14.325 6.4135-14.325 14.325c-2e-7 7.9114 6.4135 14.325 14.325 14.325s14.325-6.4135 14.325-14.325z" fill="#222"/>
  <path id="path7811" d="m28.057 114.28c3.2208-2.3335 0.77832-2.2093 0.45038-5.9382-0.3131-3.5613-10.334 10.505-11.833 3.1173 0.2756 6.2719 8.1316 5.1766 11.383 2.821z" fill="#fff" fill-rule="evenodd"/>
  <path id="path7813" d="m17.25 121.53c3.2145 2.342 2.3417 0.0575 5.7868-1.4067 3.2902-1.3983-13.184-6.5819-6.6214-10.291-5.8798 2.2003-2.4104 9.3333 0.83464 11.698z" fill="#fff" fill-rule="evenodd"/>
  <path id="path7815" d="m7.0128 113.49c-1.2341 3.7809 0.66894 2.2448 3.126 5.0689 2.3466 2.697 2.1856-14.573 7.7412-9.4775-3.9096-4.9121-9.6214 0.59167-10.867 4.4086z" fill="#fff" fill-rule="evenodd"/>
  <path id="path7817" d="m11.495 101.27c-3.9773-5e-3 -1.9283 1.3299-3.8548 4.5394-1.8399 3.0652 14.535-2.4246 11.406 4.4336 3.4636-5.2361-3.5358-8.9676-7.5509-8.9729z" fill="#fff" fill-rule="evenodd"/>
  <path id="path7819" d="m24.499 101.76c-1.224-3.7842-1.8607-1.4229-5.5084-2.2634-3.4837-0.80269 6.7974 13.074-0.69205 12.218 6.0502 1.676 7.436-6.134 6.2004-9.9542z" fill="#fff" fill-rule="evenodd"/>
 </g>
</svg>
