<svg height="32" viewBox="32 32 32 32" width="32" xmlns="http://www.w3.org/2000/svg"><path d="m53.512374 32.935413c-2.29946-.838858-4.65492-1.065144-6.94067-.852572-2.65032.209143-3.94406 1.029715-3.86748.881145-4.33378 1.54743-7.99783 4.875436-9.695 9.542871-3.02176 8.312012 1.2583 17.504025 9.55785 20.530317 8.30298 3.026289 17.4814-1.259432 20.50316-9.571445 3.0229-8.312011-1.25716-17.502883-9.55786-20.530316zm-10.399 28.598901c-.88459-.323428-1.71089-.734858-2.48918-1.204574 3.86748.297143 8.91441-.594288 12.31789-3.779434 0 0 6.48809-5.184009 1.79431-13.691449 0 0 .75659 3.428576-.208 6.249152 0 0-.92001 3.835435-5.00922 4.949723-6.02294 1.641144-12.8859-2.574863-15.75451-4.617151-.216-2.099432-.024-4.268579.74515-6.385152 1.14059-3.136005 3.28462-5.582865 5.90409-7.226297-.65487 4.581722-.13715 8.800014.60686 10.566874.99888 2.369146 2.7349 5.132577 6.12124 5.486863 3.38633.35543 5.25378-2.813717 5.25378-2.813717 1.73717-2.640004 2.00918-6.430866 1.98289-6.522296-.0263-.09257-.46286-.342857-.46286-.342857-1.16916 4.731436-3.09719 6.312008-3.09719 6.312008-3.04004 2.934864-5.19322.899431-5.19322.899431-2.31432-2.485717-.69372-6.525724-.69372-6.525724.9063-2.752004 3.54748-6.779438 6.54066-8.827441.4983.123428 1.00002.2 1.4926.379429 1.81145.660573 3.39776 1.656002 4.73949 2.878861-2.1886.798858-5.72236 2.488004-5.72236 2.488004-5.60123 2.358861-5.97952 5.926866-5.97952 5.926866-.57944 3.677718 2.33832 2.121145 2.33832 2.121145 3.00347-1.462859 4.47892-6.021722 4.47892-6.021722-.93715-.178286-1.67545.106286-1.67545.106286-1.19887 2.958862-3.64462 4.176005-3.64462 4.176005-.96231.509716-1.18631-.390857-1.18631-.390857-.16228-.674287.69601-.789715.69601-.789715 1.33259-.517715 2.18518-1.917717 2.37832-2.49029.192-.573715.54973-.618286.54973-.618286 1.82631-.582858 3.49147-.713144 3.49147-.713144 2.26747-.278858 5.73837.802287 5.73837.802287.7783.313143 1.5246.54743 2.18746.734858 1.27202 3.178292 1.47317 6.797722.21258 10.267442-2.71776 7.480013-10.98073 11.338303-18.45398 8.614872z" fill="#303030" fill-rule="evenodd" opacity=".8" stroke-width=".155809"/></svg>