<svg height="32" width="32" xmlns="http://www.w3.org/2000/svg"><path d="m112 924.36c-8.8366 0-16 7.1634-16 16s7.1634 16 16 16 16-7.1634 16-16-7.1634-16-16-16zm0 1.3333c6.7183 0 12.382 4.5173 14.118 10.68-1.4959 3.0855-3.6245 5.8635-6.2167 8.1083-1.2453 1.0784-2.6048 2.0398-4.1067 2.7167-1.5018.6769-3.1537 1.061-4.7983.96667-1.2356-.0709-2.4562-.41506-3.5383-1.015 2.8677-1.5539 5.4552-3.6258 7.5733-6.1067 1.3903-1.6284 2.6066-3.479 3.075-5.5683.23417-1.0446.27386-2.1387.055-3.1867s-.7034-2.0466-1.4367-2.8267c-.71636-.76205-1.6568-1.3018-2.665-1.58-1.0082-.27816-2.0812-.29969-3.11-.11167-2.0577.37604-3.8948 1.572-5.3683 3.0567-2.5972 2.617-4.2029 6.3097-3.9083 9.985.14727 1.8376.76309 3.6434 1.8183 5.155.23554.33742.4945.6588.77166.96333-1.5373.53801-3.129.92098-4.7433 1.1367-1.386-2.2396-2.1867-4.8793-2.1867-7.7067 0-8.1002 6.5665-14.667 14.667-14.667zm.0933 2.9633c1.031.001 2.069.31352 2.8917.935.74116.55992 1.2903 1.3565 1.6017 2.2317.31132.87517.39122 1.8255.285 2.7483-.21244 1.8456-1.1435 3.5381-2.2683 5.0167-1.9917 2.6179-4.639 4.7132-7.5833 6.18-.30137.15014-.60752.29284-.915.43-.64066-.56063-1.1898-1.2256-1.6083-1.9667-.8746-1.5485-1.163-3.388-.99334-5.1583.16969-1.7703.77722-3.4765 1.5933-5.0567.94625-1.8321 2.2361-3.5675 4.0417-4.5633.9028-.49793 1.924-.79806 2.955-.79666zm14.442 9.74c.0859.64226.13167 1.2976.13167 1.9633 0 8.1002-6.5665 14.667-14.667 14.667-4.5491 0-8.6148-2.0709-11.305-5.3217 1.6605-.37712 3.2834-.91882 4.84-1.6083.68073.51842 1.4325.94362 2.2317 1.25 2.3014.88229 4.9142.75463 7.2433-.0517 2.3291-.8063 4.3945-2.2535 6.195-3.9367 2.1449-2.0051 3.9533-4.3684 5.33-6.9617z" fill="#222" transform="translate(-96 -924.36)"/></svg>