<svg height="32" viewBox="0 0 8.4666659 8.4666659" width="32" xmlns="http://www.w3.org/2000/svg"><g stroke-width=".585391" transform="matrix(.16806197 0 0 .2023987 26.243077 8.569708)"><path d="m-126.6517-42.323767c4.56539 6.44904 23.84413 31.44422 10.69937 36.6116992-6.11941 2.812881-34.03039-1.647039-33.61942-.920848-1.99562 3.279839-3.591 5.91592003-3.591 5.91592003s21.45211.966808 38.13326-1.26942103c23.737184-3.182149-4.87875-33.5051802-11.62221-40.3373502z" fill="#6e6e6e"/><path d="m-126.70389-42.339787c-1.52445.20891-29.4473 34.4743892-29.4473 34.4743892s2.00676.56982 6.57944 1.232482c1.4847-1.15443 22.28852-36.2425012 22.92005-35.6908512-.0107-.0141-.028-.0193-.0522-.016z" fill="#979797"/><path d="m-126.67651-42.336167c-.95961-.15608-22.89524 35.7032512-22.89524 35.7032512s19.91462 2.100009 28.07942 1.96215c23.119264-.39036.17566-30.5991912-5.15937-37.6530012-.007-.007-.0151-.0108-.0248-.0124z" fill="#303030"/></g></svg>