<svg height="32" preserveAspectRatio="xMidYMid meet" viewBox="0 0 23.999999 23.999999" width="32" xmlns="http://www.w3.org/2000/svg"><g transform="matrix(.02732449 0 0 -.02741791 -.048975 24.05462)"><path d="m331 865c-221-62-361-276-323-495 32-189 173-330 362-362 235-40 461 124 503 365 17 100 22 98-207 95l-191-3v-25-25l173-3 172-2-6-28c-34-157-125-259-268-303-134-42-269-7-372 95-102 102-137 238-96 372 79 255 379 353 590 194 56-43 76-49 86-25 8 23-1 37-49 74-102 76-259 108-374 76z"/><path d="m415 728c-3-8-4-68-3-134l3-119h25 25v130c0 127 0 130-23 133-12 2-24-3-27-10z"/><path d="m144 455c-16-40 0-45 130-45 129 0 145 5 130 45-9 22-252 22-260 0z"/><path d="m414 397c-2-7-3-67-2-133l3-119h25 25l3 124c2 93-1 126-10 133-19 12-38 10-44-5z"/></g></svg>