<?xml version="1.0" encoding="UTF-8"?>
<svg id="svg2" width="32" height="32" version="1.1" xml:space="preserve" xmlns="http://www.w3.org/2000/svg" xmlns:cc="http://creativecommons.org/ns#" xmlns:dc="http://purl.org/dc/elements/1.1/" xmlns:rdf="http://www.w3.org/1999/02/22-rdf-syntax-ns#"><metadata id="metadata18"><rdf:RDF><cc:Work rdf:about=""><dc:format>image/svg+xml</dc:format><dc:type rdf:resource="http://purl.org/dc/dcmitype/StillImage"/><dc:title/></cc:Work></rdf:RDF></metadata><g id="g3763" transform="translate(0,-68)"><path id="path4" d="m31.989 83.983c0.099194 6.2926-3.9582 12.361-9.7723 14.742-5.7117 2.4741-12.806 1.2003-17.263-3.1591-4.5147-4.1961-6.1626-11.11-4.0548-16.9 2.038-6.0013 7.9299-10.423 14.269-10.661 6.1629-0.3982 12.319 3.1747 15.071 8.6959 1.1519 2.2405 1.7535 4.7594 1.7503 7.2816z" fill="#222"/><path id="path6" d="m10.752 89.699c0.17919-3.9337 0.36158-7.8641 0.54397-11.798-1.2063-1.0978-2.4127-2.1957-3.6158-3.2935-0.56957 0.05761-0.89596 0.77777-1.3599 1.117-0.52477 0.36168-0.83516 0.88339-0.28479 1.3891 0.54077 0.893 1.0847 1.786 1.6255 2.679-0.58237 0.82258-0.52478 2.1797-1.7983 2.0773-0.90556 0.22085-1.8591 0.32327-2.7375 0.62094-0.078716 0.85779-0.081276 1.7732 0 2.631 1.1663 0.39368 2.4079 0.60493 3.6046 0.9282 0.099196 1.0914 1.3599 2.0933 0.30719 2.9991-0.48638 0.80018-1.0943 1.5491-1.5039 2.3845 0.55037 0.66254 1.1935 1.3091 1.8591 1.8628 0.67517-0.4673 1.1711-1.2515 1.7759-1.8436 0.52797-0.58573 1.0559-1.1683 1.5871-1.754z" fill="#fff"/><path id="path8" d="m13.497 76.637c3.3694 2.0644 6.7357 4.1321 10.105 6.1966 1.5807-0.34568 3.1614-0.69455 4.7422-1.0402 0.24639-0.51531-0.19519-1.1683-0.24639-1.7412-0.0352-0.63374-0.31998-1.1715-1.0368-0.96341h-3.1358c-0.39998-0.9282-1.5871-1.5843-0.84156-2.615 0.28159-0.893 0.69437-1.7604 0.89596-2.663-0.69437-0.51531-1.4719-0.99222-2.2495-1.3699-0.94076 0.79057-1.7663 1.7412-2.6623 2.5958-0.98555-0.4801-2.4959 0.07682-2.7231-1.2931-0.43198-0.83218-0.75516-1.7412-1.2543-2.5254-0.85116 0.12483-1.7407 0.33927-2.5567 0.62094 0.0384 0.97941 0.39998 1.978 0.56637 2.9638 0.13119 0.61133 0.26559 1.2259 0.39678 1.8372z" fill="#fff"/><path id="path10" d="m23.404 85.618c-3.3982 1.866-6.7965 3.7288-10.195 5.5916-0.41278 1.5555-0.82236 3.1111-1.2351 4.6698 0.33278 0.4641 1.1199 0.38728 1.6447 0.62094 0.57597 0.27206 1.1839 0.28166 1.3471-0.4481 0.50238-0.9154 1.0048-1.8308 1.5071-2.7462 1.0048 0.09282 2.1535-0.63374 2.7007 0.52171 0.64317 0.67215 1.2063 1.4531 1.9039 2.0612 0.78076-0.35848 1.5743-0.81298 2.2783-1.3091-0.23999-1.2067-0.67517-2.3909-0.99195-3.588 0.89276-0.63054 1.1327-2.2213 2.4415-1.7636 0.93756 0.03201 1.8911 0.17284 2.8191 0.11522 0.29759-0.80978 0.53758-1.69 0.68477-2.5414-0.74236-0.35848-1.6671-0.40329-2.4799-0.64014-0.80956-0.17924-1.6191-0.36168-2.4255-0.54412z" fill="#fff"/><path id="path12" d="m23.714 83.983c0.09279 3.9113-3.2254 7.4928-7.1293 7.7009-3.8942 0.39369-7.718-2.6438-8.2268-6.523-0.67197-3.7928 1.9583-7.7745 5.7021-8.6579 3.7118-1.0434 7.9356 1.1811 9.1836 4.8267 0.31038 0.84818 0.47038 1.7508 0.47038 2.6534z" fill="#222"/></g></svg>
