<svg height="32" viewBox="0 0 32.000001 32" width="32" xmlns="http://www.w3.org/2000/svg"><g transform="matrix(.12927536 0 0 .14272 -3.441061 -112.77045)"><rect fill="#fff" height="224.21524" ry="17.040359" width="247.53363" x="26.233185" y="790.25458"/><rect height="209.35854" ry="11.522169" width="233.11211" x="33.443947" y="797.2345"/><path d="m202.73892 829.9786-46.22749 53.89687-46.07728-53.68684-18.903811 16.22726 48.567701 56.59143-7.09341 8.26967-12.03835-14.22886-32.87466 38.85187-32.880628 38.8458h65.755288 41.63644 24.11886 16.97129 41.09614l-20.54822-24.683-20.54792-24.68298-5.68888 6.8354-31.57845-36.79341 47.73367-55.64924zm-52.72678 84.57503 31.82433 37.08753-7.2735 8.73779-20.72237-24.47895-10.99397-12.99264z" fill="#fff" fill-rule="evenodd"/></g></svg>