<?xml version="1.0" encoding="UTF-8"?>
<!-- Created with Inkscape (http://www.inkscape.org/) -->
<svg id="svg2" width="32" height="32" version="1.1" viewBox="0 0 30 30" xmlns="http://www.w3.org/2000/svg" xmlns:cc="http://creativecommons.org/ns#" xmlns:dc="http://purl.org/dc/elements/1.1/" xmlns:rdf="http://www.w3.org/1999/02/22-rdf-syntax-ns#" xmlns:xlink="http://www.w3.org/1999/xlink">
 <defs id="defs4">
  <linearGradient id="linearGradient5855" x1="213.96" x2="282.26" y1="338.62" y2="515.97" gradientTransform="translate(983.36 601.39)" gradientUnits="userSpaceOnUse">
   <stop id="stop5962" stop-color="#637ddf" offset="0"/>
   <stop id="stop5964" stop-color="#649afa" offset=".23169"/>
   <stop id="stop5966" stop-color="#719efa" offset="1"/>
  </linearGradient>
  <linearGradient id="linearGradient68" x1="200.6" x2="290.09" y1="351.41" y2="506.19" gradientTransform="translate(70.65 -1055.2)" gradientUnits="userSpaceOnUse">
   <stop id="stop5564" stop-color="#699ad7" offset="0"/>
   <stop id="stop5566" stop-color="#7eb1dd" offset=".24345"/>
   <stop id="stop5568" stop-color="#7ebae4" offset="1"/>
  </linearGradient>
  <linearGradient id="linearGradient70" x1="-584.2" x2="-496.3" y1="782.34" y2="937.71" gradientTransform="translate(864.7 -1491.3)" gradientUnits="userSpaceOnUse">
   <stop id="stop5055" stop-color="#415e9a" offset="0"/>
   <stop id="stop5057" stop-color="#4a6baf" offset=".23169"/>
   <stop id="stop5059" stop-color="#5277c3" offset="1"/>
  </linearGradient>
  <filter id="filter352" color-interpolation-filters="sRGB">
   <feColorMatrix id="feColorMatrix350" values="0.21 0.72 0.072 0 0 0.21 0.72 0.072 0 0 0.21 0.72 0.072 0 0 0 0 0 1 0 "/>
  </filter>
  <filter id="filter356" color-interpolation-filters="sRGB">
   <feColorMatrix id="feColorMatrix354" values="0.21 0.72 0.072 0 0 0.21 0.72 0.072 0 0 0.21 0.72 0.072 0 0 0 0 0 1 0 "/>
  </filter>
  <filter id="filter360" color-interpolation-filters="sRGB">
   <feColorMatrix id="feColorMatrix358" values="0.21 0.72 0.072 0 0 0.21 0.72 0.072 0 0 0.21 0.72 0.072 0 0 0 0 0 1 0 "/>
  </filter>
  <filter id="filter364" color-interpolation-filters="sRGB">
   <feColorMatrix id="feColorMatrix362" values="0.21 0.72 0.072 0 0 0.21 0.72 0.072 0 0 0.21 0.72 0.072 0 0 0 0 0 1 0 "/>
  </filter>
  <filter id="filter368" color-interpolation-filters="sRGB">
   <feColorMatrix id="feColorMatrix366" values="0.21 0.72 0.072 0 0 0.21 0.72 0.072 0 0 0.21 0.72 0.072 0 0 0 0 0 1 0 "/>
  </filter>
  <filter id="filter372" color-interpolation-filters="sRGB">
   <feColorMatrix id="feColorMatrix370" values="0.21 0.72 0.072 0 0 0.21 0.72 0.072 0 0 0.21 0.72 0.072 0 0 0 0 0 1 0 "/>
  </filter>
  <filter id="filter376" color-interpolation-filters="sRGB">
   <feColorMatrix id="feColorMatrix374" values="0.21 0.72 0.072 0 0 0.21 0.72 0.072 0 0 0.21 0.72 0.072 0 0 0 0 0 1 0 "/>
  </filter>
 </defs>
 <metadata id="metadata7">
  <rdf:RDF>
   <cc:Work rdf:about="">
    <dc:format>image/svg+xml</dc:format>
    <dc:type rdf:resource="http://purl.org/dc/dcmitype/StillImage"/>
    <dc:title/>
   </cc:Work>
  </rdf:RDF>
 </metadata>
 <g id="layer7" transform="translate(0 -454.32)" display="none">
  <rect id="rect5389" transform="translate(-132.58 958.04)" x="132.58" y="-957.78" width="1543.4" height="483.74" color="#000000" color-rendering="auto" display="inline" fill="#fff" fill-rule="evenodd" image-rendering="auto" shape-rendering="auto" solid-color="#000000" style="isolation:auto;mix-blend-mode:normal"/>
 </g>
 <g id="layer5" transform="translate(-132.58 503.72)" display="none" fill-rule="evenodd" opacity=".516" shape-rendering="auto">
  <rect id="rect5350" x="132.58" y="-957.78" width="1543.4" height="483.74" color="#000000" color-rendering="auto" display="inline" fill="#d4d4d4" image-rendering="auto" opacity="1" solid-color="#000000" style="isolation:auto;mix-blend-mode:normal"/>
  <rect id="rect5346" x="155.78" y="-933.39" width="1496.4" height="435.68" color="#000000" color-rendering="auto" display="inline" fill="#9b9b9b" image-rendering="auto" opacity="1" solid-color="#000000" style="isolation:auto;mix-blend-mode:normal"/>
  <rect id="rect5348" x="159.03" y="-851.66" width="1492.6" height="272.58" color="#000000" color-rendering="auto" display="inline" fill="#848484" image-rendering="auto" opacity="1" solid-color="#000000" style="isolation:auto;mix-blend-mode:normal"/>
 </g>
 <g id="layer6" transform="translate(-132.58 503.72)" display="none" fill-rule="evenodd" shape-rendering="auto">
  <rect id="rect5379" x="132.65" y="-958.03" width="550.42" height="484.3" color="#000000" color-rendering="auto" display="inline" fill="#5c201e" image-rendering="auto" solid-color="#000000" style="isolation:auto;mix-blend-mode:normal"/>
  <rect id="rect5372" x="156.12" y="-933.03" width="501.94" height="434.3" color="#000000" color-rendering="auto" display="inline" fill="#c24a46" image-rendering="auto" solid-color="#000000" style="isolation:auto;mix-blend-mode:normal"/>
  <rect id="rect5381" x="658.03" y="-958.04" width="24.94" height="24.94" color="#000000" color-rendering="auto" display="inline" fill="#d98d8a" image-rendering="auto" solid-color="#000000" style="isolation:auto;mix-blend-mode:normal"/>
 </g>
 <g id="layer1" transform="translate(-132.58 503.72)">
  <path id="path4861" d="m141.79-488.31 7.3069 14.594-3.358 0.0363-1.9508-3.9208-1.9647 3.8998-1.6685-7.6e-4 -0.85454-1.7022 2.7991-5.5493-1.987-3.9867z" color="#000000" color-rendering="auto" fill="#5277c3" fill-rule="evenodd" filter="url(#filter376)" image-rendering="auto" shape-rendering="auto" solid-color="#000000" style="isolation:auto;mix-blend-mode:normal"/>
  <path id="use4863" d="m144.43-494.32-7.3082 14.593-1.7063-3.3348 1.9696-3.9082-3.9116-0.0118-0.83364-1.6664 0.85128-1.7044 5.5677 0.0203 2.001-3.9774z" color="#000000" color-rendering="auto" fill="#7ebae4" fill-rule="evenodd" filter="url(#filter372)" image-rendering="auto" shape-rendering="auto" solid-color="#000000" style="isolation:auto;mix-blend-mode:normal"/>
  <path id="use4865" d="m144.99-482.66 14.615 8.3e-4 -1.6517 3.3711-3.9204-0.0125 1.9469 3.9116-0.83482 1.6656-1.7058 2e-3 -2.7686-5.5695-3.988-9e-3z" color="#000000" color-rendering="auto" fill="#7ebae4" fill-rule="evenodd" filter="url(#filter368)" image-rendering="auto" shape-rendering="auto" solid-color="#000000" style="isolation:auto;mix-blend-mode:normal"/>
  <path id="use4867" d="m153.49-489.05-7.3069-14.594 3.358-0.0363 1.9508 3.9208 1.9647-3.8998 1.6685 7.6e-4 0.85454 1.7022-2.7991 5.5493 1.987 3.9867z" color="#000000" color-rendering="auto" fill="#7ebae4" fill-rule="evenodd" filter="url(#filter364)" image-rendering="auto" shape-rendering="auto" solid-color="#000000" style="isolation:auto;mix-blend-mode:normal"/>
  <path id="path4873" d="m141.79-488.31 7.3069 14.594-3.358 0.0363-1.9508-3.9208-1.9647 3.8998-1.6685-7.6e-4 -0.85454-1.7022 2.7991-5.5493-1.987-3.9867z" color="#000000" color-rendering="auto" fill="#5277c3" fill-rule="evenodd" filter="url(#filter360)" image-rendering="auto" shape-rendering="auto" solid-color="#000000" style="isolation:auto;mix-blend-mode:normal"/>
  <path id="use4875" d="m150.28-494.74-14.615-8.3e-4 1.6517-3.3711 3.9204 0.0125-1.9469-3.9116 0.83481-1.6656 1.7058-2e-3 2.7686 5.5695 3.988 9e-3z" color="#000000" color-rendering="auto" fill="#5277c3" fill-rule="evenodd" filter="url(#filter356)" image-rendering="auto" shape-rendering="auto" solid-color="#000000" style="isolation:auto;mix-blend-mode:normal"/>
  <path id="use4877" d="m150.85-483.05 7.3082-14.593 1.7063 3.3348-1.9696 3.9082 3.9116 0.0118 0.83364 1.6663-0.85128 1.7044-5.5677-0.0203-2.001 3.9774z" color="#000000" color-rendering="auto" fill="#5277c3" fill-rule="evenodd" filter="url(#filter352)" image-rendering="auto" shape-rendering="auto" solid-color="#000000" style="isolation:auto;mix-blend-mode:normal"/>
  <g id="layer2" transform="translate(72.039 -1799.4)" display="none">
   <path id="path6032" d="m460.61 594.73-250.86-1e-5 -125.43-217.26 125.43-217.25 250.86 1e-5 125.43 217.26z" color="#000000" display="inline" fill="#4e4d52" opacity=".236"/>
   <path id="path5875" transform="translate(0 -308.27)" d="m385.59 773.07h-100.83l-50.417-87.326 50.417-87.326 100.83 1e-5 50.417 87.326z" color="#000000" display="inline" fill="#4e4d52"/>
   <path id="path5851" transform="translate(0 -308.27)" d="m1216.6 938.53 123.05 228.14-42.681-1.2616-43.482-79.772-39.651 80.327-32.688-19.798 53.474-100.28-37.116-73.89z" fill="url(#linearGradient5855)" fill-rule="evenodd"/>
   <rect id="rect5884" transform="rotate(-30)" x="-34.742" y="446.17" width="48.835" height="226.23" color="#000000" color-rendering="auto" display="inline" fill="#c53a3a" image-rendering="auto" opacity=".415" shape-rendering="auto" solid-color="#000000" style="isolation:auto;mix-blend-mode:normal"/>
   <path id="path3428" transform="translate(0 -308.27)" d="m251.99 878.64-14.024 24.291h-28.049l-14.024-24.291 14.024-24.291h28.049z" color="#000000" color-rendering="auto" display="inline" fill-rule="evenodd" image-rendering="auto" opacity=".509" shape-rendering="auto" solid-color="#000000" style="isolation:auto;mix-blend-mode:normal"/>
   <use id="use4252" transform="rotate(60 268.3 489.45)" width="100%" height="100%" xlink:href="#rect5884"/>
   <rect id="rect4254" transform="rotate(30 575.24 -154.13)" x="545.71" y="467.07" width="5.3947" height="115.13" color="#000000" color-rendering="auto" display="inline" fill-opacity=".65079" fill-rule="evenodd" image-rendering="auto" shape-rendering="auto" solid-color="#000000" style="isolation:auto;mix-blend-mode:normal"/>
  </g>
 </g>
 <g id="layer3" transform="translate(-132.58 503.72)" display="none">
  <path id="path3336-6" d="m309.55-710.39 122.2 211.68-56.157 0.5268-32.624-56.869-32.856 56.565-27.902-0.011-14.291-24.69 46.81-80.49-33.229-57.826z" fill="url(#linearGradient68)" fill-rule="evenodd"/>
  <use id="use3439-6" transform="rotate(60 407.11 -715.79)" width="100%" height="100%" xlink:href="#path3336-6"/>
  <use id="use3445-0" transform="rotate(-60 407.31 -715.7)" width="100%" height="100%" xlink:href="#path3336-6"/>
  <use id="use3449-5" transform="rotate(180 407.42 -715.76)" width="100%" height="100%" xlink:href="#path3336-6"/>
  <path id="path4260-0" d="m309.55-710.39 122.2 211.68-56.157 0.5268-32.624-56.869-32.856 56.565-27.902-0.011-14.291-24.69 46.81-80.49-33.229-57.826z" color="#000000" color-rendering="auto" display="inline" fill="url(#linearGradient70)" fill-rule="evenodd" image-rendering="auto" shape-rendering="auto" solid-color="#000000" style="isolation:auto;mix-blend-mode:normal"/>
  <use id="use4354-5" transform="rotate(120 407.34 -716.08)" width="100%" height="100%" display="inline" xlink:href="#path4260-0"/>
  <use id="use4362-2" transform="rotate(240 407.29 -715.87)" width="100%" height="100%" display="inline" xlink:href="#path4260-0"/>
 </g>
</svg>
