<?xml version="1.0" encoding="UTF-8"?>
<svg width="34.133" height="34.133" xmlns="http://www.w3.org/2000/svg">
 <g transform="matrix(1.214 0 0 1.214 -83.149 -28.718)" fill-rule="evenodd" stroke-width=".10337">
  <path d="m88.87 23.709c-1.4902 0.0016-2.8233 0.11566-3.4259 0.29233-0.03431 0.01007-0.06598 0.02545-0.09395 0.04462-0.90231-0.1826-1.8358-0.27866-2.7919-0.27866-2.2455 0-4.3672 0.52824-6.2479 1.4671-0.36341-0.15718-0.73379-0.25759-1.1-0.28686-1.1298-0.09026-2.1595 0.06138-3.0182 0.30324-1.3475 0.37959-2.3015 1.0091-2.5621 1.2813-0.60522 0.44314-0.90211 1.5614-1.0188 2.8659-0.17686 1.977 0.0342 4.4363 0.19519 5.4385 0.0053 0.03989 0.01801 0.07825 0.0374 0.11383-0.18301 0.90152-0.27911 1.8349-0.27911 2.7903 0 3.8582 1.5668 7.351 4.099 9.8798 2.5332 2.5297 6.0314 4.0943 9.8945 4.0943 3.863 0 7.3608-1.5647 9.8936-4.0943 2.5319-2.5288 4.0981-6.0215 4.0981-9.8798 0-2.4052-0.60888-4.6688-1.681-6.6451 0.0282-0.02902 0.0559-0.05873 0.083-0.08924 0.45049-0.50743 0.73611-1.2178 0.87744-1.9825 0.13798-0.74655 0.13954-1.5514 0.0237-2.2685-0.13792-0.85382-0.44791-1.5975-0.90116-2.0035-0.0102-0.0096-0.0211-0.01892-0.0328-0.02732-0.73301-0.52913-2.3012-0.81993-3.9731-0.94254-0.68826-0.05047-1.3986-0.07356-2.0759-0.07286z" fill="#fff"/>
  <path d="m88.87 23.709c-1.4902 0.0016-2.8233 0.11566-3.4259 0.29233-0.03431 0.01007-0.06598 0.02545-0.09395 0.04462-0.90231-0.1826-1.8358-0.27866-2.7919-0.27866-2.2455 0-4.3672 0.52824-6.2479 1.4671-0.36341-0.15718-0.73379-0.25759-1.1-0.28686-1.1298-0.09026-2.1595 0.06138-3.0182 0.30324-1.3475 0.37959-2.3015 1.0091-2.5621 1.2813-0.60522 0.44314-0.90211 1.5614-1.0188 2.8659-0.17686 1.977 0.0342 4.4363 0.19519 5.4385 0.0053 0.03989 0.01801 0.07825 0.0374 0.11383-0.18301 0.90152-0.27911 1.8349-0.27911 2.7903 0 3.8582 1.5668 7.351 4.099 9.8798 2.5332 2.5297 6.0314 4.0943 9.8945 4.0943 3.863 0 7.3608-1.5647 9.8936-4.0943 2.5319-2.5288 4.0981-6.0215 4.0981-9.8798 0-2.4052-0.60888-4.6688-1.681-6.6451 0.02824-0.02902 0.05591-0.05873 0.08301-0.08924 0.4505-0.50743 0.73611-1.2178 0.87744-1.9825 0.13798-0.74655 0.13954-1.5514 0.02371-2.2685-0.13792-0.85382-0.44791-1.5975-0.90116-2.0035-0.01024-0.0096-0.02115-0.01892-0.03283-0.02732-0.73301-0.52913-2.3012-0.81993-3.9731-0.94254-0.68826-0.05047-1.3986-0.07356-2.0759-0.07286zm0.06202 0.65659c0.64058 0.0017 1.3126 0.02483 1.9674 0.07286 1.5563 0.11412 2.9931 0.36669 3.622 0.80958 0.33205 0.30327 0.56704 0.90335 0.68135 1.611 0.10459 0.64744 0.10344 1.3731-0.02098 2.0463-0.12107 0.65503-0.35675 1.2537-0.72239 1.6656-0.24864 0.28007-0.56053 0.4734-0.94037 0.53457-0.83809 0.13497-1.3253-0.68693-2.0012-1.8277-0.59998-1.0126-1.3327-2.2481-2.5703-3.3467-0.49605-0.35758-0.92999 0.0068-0.66775 0.29947l0.0048 0.0045c1.312 1.0883 2.0579 2.3515 2.6659 3.3778 0.80872 1.365 1.3909 2.3481 2.6716 2.1419 0.26321-0.04239 0.50269-0.12826 0.71873-0.24952 0.98862 1.8599 1.5487 3.9824 1.5487 6.2353 0 3.678-1.4924 7.007-3.9047 9.4163-2.4116 2.4086-5.7442 3.8985-9.4266 3.8985-3.6824 0-7.0155-1.4898-9.4275-3.8985-2.4125-2.4093-3.9047-5.7383-3.9047-9.4162 0-0.9034 0.08994-1.7862 0.26178-2.6391-0.09227-0.49149-0.13424-1.0229-0.16053-1.4288-3.62e-4 -0.0037-5.59e-4 -0.0072-9.2e-4 -0.01093-0.11024-1.1674-0.185-2.8122-0.06019-4.2073 0.10298-1.1512 0.33047-2.1088 0.76707-2.4023 0.03051-0.0204 0.05632-0.04531 0.07753-0.07285 0.14438-0.18598 0.97928-0.73495 2.2593-1.0955 0.64442-0.18154 1.3935-0.30799 2.2119-0.30416 0.18886 8.79e-4 0.38156 0.0089 0.57736 0.02459 1.1543 0.09225 2.3844 1.067 3.238 2.2566 0.35245 0.49127 0.63788 1.0145 0.82454 1.5254 0.18187 0.49781 0.27034 0.98241 0.23623 1.4079-0.03579 0.44659-0.21258 0.82711-0.57006 1.0828-0.62645 0.44797-1.5056 0.17255-2.5119-0.14297-1.5682-0.49171-3.4078-1.0676-5.3723 0.41162l2.1e-5 4.97e-4c-0.49192 0.34516-0.14065 0.85203 0.15138 0.74442 1.8418-1.5256 3.5642-0.98614 5.0248-0.52818 1.1735 0.36793 2.1987 0.68889 3.092 0.05009 0.53082-0.37963 0.79261-0.92998 0.84368-1.5673 0.04171-0.52041-0.06194-1.0985-0.27545-1.6829-0.20872-0.57128-0.52221-1.1498-0.90664-1.6856-0.52479-0.73147-1.1879-1.3909-1.9045-1.8541 1.6844-0.7676 3.5568-1.1948 5.5292-1.1948 0.99238 0 1.9592 0.10888 2.8895 0.31418 0.39347-0.16916 0.92266-0.22814 1.384-0.29341l0.0051-0.0016c0.52561-0.04642 1.1515-0.07554 1.8224-0.08014 0.09007-6.21e-4 0.1812-0.0011 0.27272-9.2e-4zm1.4256 7.0886c-1.2888 0-2.3341 1.0436-2.3341 2.3304 0 1.2867 1.0453 2.3304 2.3341 2.3304s2.3341-1.0437 2.3341-2.3304c0-1.2867-1.0453-2.3304-2.3341-2.3304zm-14.554 1.702c-2.5196 0-4.5632 2.0404-4.5632 4.556 0 2.5156 2.0436 4.5551 4.5632 4.5551s4.5632-2.0395 4.5632-4.5551c0-2.5156-2.0436-4.556-4.5632-4.556zm1.2605 2.3841c1.155 1e-5 2.0924 0.9359 2.0924 2.0891 0 1.1532-0.93737 2.0891-2.0924 2.0891-1.155 0-2.0924-0.9359-2.0924-2.0891 0-1.1532 0.93737-2.0891 2.0924-2.0891zm11.596 1.8186c-0.05736 0-0.11221 0.01082-0.16327 0.02914l-6.4996 1.8924c-0.01276 0.0032-0.02506 0.0068-0.0374 0.01092l-0.0018 9.3e-4 -0.0036 9.3e-4 -9.3e-4 9.3e-4c-0.18746 0.0663-0.32198 0.24436-0.32198 0.45442 0 0.19987 0.12137 0.37111 0.29461 0.4444 0.0011 5.17e-4 0.0025 4.14e-4 0.0036 9.31e-4l4.0005 2.2539v0.01731c0 0.69323-0.30823 1.3229-0.80721 1.7803-0.50841 0.46608-1.2144 0.75403-1.9966 0.75403-0.49338 0-0.96613-0.11481-1.3782-0.3251-0.40261-0.20548-0.74981-0.50272-1.0033-0.8715-0.0034-0.0056-0.0073-0.011-0.01094-0.0164-0.07878-0.1162-0.21204-0.19306-0.36301-0.19306-0.2417 0-0.43782 0.19579-0.43782 0.43712 0 0.097 0.03215 0.1861 0.08574 0.25863 0.33569 0.49099 0.79684 0.88676 1.3326 1.1602 0.53732 0.27423 1.1464 0.42528 1.7749 0.42528 1.0078 0 1.9236-0.37761 2.5885-0.98716 0.48318-0.44293 0.83391-1.0076 0.99419-1.641 0.65252 0.53985 1.513 0.86604 2.4499 0.86604 1.0078 0 1.9236-0.37671 2.5885-0.98625 0.67438-0.61821 1.0909-1.4746 1.0909-2.4224 0-0.04013-1e-3 -0.08887-0.0036-0.14206 5.1e-5 -0.0028 0-0.0054 0-0.0082 0-0.24132-0.19612-0.43712-0.43782-0.43712-0.2417 0-0.4378 0.1958-0.4378 0.43712 0 0.0038-9.4e-5 0.0081 0 0.01183 2.06e-4 0.0068 0.0013 0.01331 0.0018 0.02004 0.0015 0.03203 0.0018 0.07055 0.0018 0.11838 0 0.69323-0.30823 1.3229-0.80721 1.7803-0.50842 0.46608-1.2144 0.75403-1.9966 0.75403-0.75082 0-1.4336-0.26597-1.9382-0.70212-0.10407-0.08996-0.20034-0.18688-0.28823-0.2905l2.1453-4.1617c0.04148-0.07122 0.06567-0.15396 0.06567-0.24224 0-0.2665-0.2165-0.48265-0.48341-0.48265z" fill="#222"/>
 </g>
</svg>
