<?xml version="1.0" encoding="UTF-8"?>
<!-- Created with Inkscape (http://www.inkscape.org/) -->
<svg id="svg2" width="32" height="32" version="1.1" xmlns="http://www.w3.org/2000/svg" xmlns:cc="http://creativecommons.org/ns#" xmlns:dc="http://purl.org/dc/elements/1.1/" xmlns:rdf="http://www.w3.org/1999/02/22-rdf-syntax-ns#" xmlns:xlink="http://www.w3.org/1999/xlink">
 <metadata id="metadata7">
  <rdf:RDF>
   <cc:Work rdf:about="">
    <dc:format>image/svg+xml</dc:format>
    <dc:type rdf:resource="http://purl.org/dc/dcmitype/StillImage"/>
    <dc:title/>
   </cc:Work>
  </rdf:RDF>
 </metadata>
 <g id="layer1" transform="translate(822.25 -589.19)">
  <path id="path3171-7-3-3-8-7-0-9-6-6" transform="translate(-822.25 589.19)" d="m16 0c-8.8366 0-16 7.1632-16 16 0 8.8363 7.1634 16 16 16 8.8365 0 16-7.1638 16-16 0-8.8368-7.1635-16-16-16zm2.6738 4.3262 6.2148 3.6738-6.2227 3.6738 0.007812-7.3477zm-2.6738 1.8887c0.45584 0 0.90114 0.036756 1.3398 0.097656v1.3613c-0.43629-0.07057-0.88266-0.11133-1.3398-0.11133-3.554 0-6.593 2.1777-7.8398 5.2773l-1.1523-0.67969c1.4969-3.4896 4.9631-5.9453 8.9922-5.9453zm0 3.3262c0.45644 0 0.90322 0.054984 1.334 0.14648v1.3828c-0.42511-0.11371-0.87248-0.17383-1.334-0.17383-2.334 0-4.2833 1.5501-4.8965 3.6797l-1.1934-0.70898c0.88357-2.514 3.2834-4.3262 6.0898-4.3262zm7.8477 0.61914c1.217 1.6316 1.9375 3.6544 1.9375 5.8398 0 2.2195-0.74804 4.2716-2 5.916l-1.1602-0.6875c1.1348-1.4365 1.8125-3.2493 1.8125-5.2285 0-1.942-0.65337-3.7288-1.75-5.1523l1.1602-0.6875zm-2.8965 1.7148c0.93762 1.1215 1.5078 2.5584 1.5078 4.125 0 1.602-0.59458 3.0765-1.5703 4.209l-1.1875-0.70117c0.86804-0.91162 1.4023-2.1407 1.4023-3.5078 0-1.3282-0.50216-2.5314-1.3262-3.4375l1.1738-0.6875zm-16.277 0.45117 6.2148 3.6738-6.2227 3.6738 0.0078125-7.3477zm6.4297 5.0977c0.61317 2.1279 2.5625 3.6738 4.8965 3.6738 0.46159 0 0.90876-0.062128 1.334-0.17383v1.3887c-0.43076 0.09154-0.87754 0.14648-1.334 0.14648-2.8086 0-5.2082-1.8169-6.0898-4.334l1.1934-0.70117zm-2.9434 1.7363c1.2468 3.0997 4.2858 5.2773 7.8398 5.2773 0.45274 0 0.89369-0.035216 1.3262-0.10352v1.3535c-0.43345 0.0603-0.87579 0.097656-1.3262 0.097656-4.0291 0-7.4953-2.4557-8.9922-5.9453l1.1523-0.67969zm10.506 1.2852 6.2168 3.666-6.2227 3.6738 0.00586-7.3398z" fill="#222"/>
 </g>
</svg>
