<svg height="32" width="32" xmlns="http://www.w3.org/2000/svg"><path d="m16.053438-.01890398c-8.8485797 0-15.99999976 7.13648998-15.99999976 15.96659998s7.15142006 16.0334 15.99999976 16.0334c8.84858 0 16-7.20329 16-16.0334s-7.15142-15.96659998-16-15.96659998zm3.34728 2.47181998c.17374-.0218.35654-.05.53557 0 2.38758.66799 4.42597 1.83771 6.15899 3.60751.15061.14987.26899.39939.33473.60126.12511.37377.0525.74517-.13389 1.06889-.11182.19433-.26508.34658-.46861.4676403-.54279.32287-1.24177.25989-1.67365-.2003103-1.44729-1.47802-2.96002-2.3816-4.95397-2.93946-.71614-.19988-1.07068-.95552-.87029-1.67014.15038-.53599.54989-.87021 1.07112-.93529zm-3.41422 4.14196c2.43508 0 4.84485.89319 6.69456 2.7390503 3.69942 3.6916897 3.69942 9.7362497 0 13.4279697-3.69945 3.69172-9.68969 3.6917-13.3891297 0-.33211-.32219-.51942-.82228-.40167-1.26932.11783-.44702.48928-.75096.93724-.86847.4479697-.11758.9491097.002 1.2719597.33403 2.71678 2.7111 7.0573 2.7111 9.77407 0 2.71677-2.71111 2.71677-7.10936 0-9.82046-2.71677-2.7110997-7.05729-2.7110997-9.77407 0-.47738.52457-1.2818597.60999-1.8075297.13361s-.61127-1.3459897-.13388-1.8705697c.0276-.0306.10326-.0391.13388-.0667 1.8497197-1.8458603 4.2594797-2.7390503 6.6945697-2.7390503zm0 4.40919c1.29408 0 2.56735.49101 3.54812 1.46972 1.96155 1.95747 1.96155 5.19077 0 7.14824-1.96157 1.95745-5.13468 1.95745-7.09624 0-1.96156-1.95747-1.96156-5.19077 0-7.14824.98077-.97871 2.25404-1.46972 3.54812-1.46972zm-12.1840997.46764c.22448-.002.46129.0214.66945.13361.55511.30126.77906.93107.60251 1.53653-.53597 1.99609-.53597 3.74921 0 5.74531.19281.71671-.21904 1.41091-.93724 1.60333-.71821.19241-1.48081-.21858-1.67364-.93527-.64177-2.39018-.64177-4.69127 0-7.08143.0525-.20565.1943-.37507.33474-.53444.25835-.29808.63005-.46259 1.00418-.46764zm4.08368 1.1357c.27256-.0278.55703.05.80335.20031.49263.30059.76147.91576.6025 1.46973-.34087 1.26948-.34087 2.27122 0 3.54071.18381.68399-.25182 1.41982-.93723 1.60333-.68542.18343-1.35586-.25129-1.53975-.93528-.44197-1.64598-.44197-3.23084 0-4.87682.0604-.23931.15381-.49986.33473-.66806.21079-.19689.46384-.30628.7364-.33403zm8.1004197.86848c-.65532 0-1.30263.29781-1.80753.80166-1.00983 1.00772-1.00983 2.59981 0 3.60752 1.00981 1.00771 2.60524 1.00771 3.61506 0s1.0098-2.5998 0-3.60752c-.50491-.50385-1.15222-.80166-1.80753-.80166zm8.76987 10.2881c.2945-.04.59956.0378.87029.20031.20309.12185.35753.27295.46862.46764.1851.32447.26057.76241.1339 1.13569-.0666.2016-.1836.38515-.33473.53446-1.74003 1.76292-3.76877 2.88216-6.159 3.5407-.71691.19711-1.47608-.21985-1.67364-.93528-.19751-.71541.22031-1.4062.93724-1.60334 1.99616-.54997 3.50081-1.46719 4.95398-2.93946.21685-.2293.50885-.36092.80334-.40083z" fill="#464646" stroke-width=".062158"/></svg>