<?xml version="1.0" encoding="UTF-8"?>
<!-- Generator: Adobe Illustrator 14.0.0, SVG Export Plug-In  -->
<svg id="svg2" width="32" height="32" enable-background="new -0.866 -0.866 285 285" version="1.1" viewBox="-.866 -.866 32 32" xml:space="preserve" xmlns="http://www.w3.org/2000/svg" xmlns:cc="http://creativecommons.org/ns#" xmlns:dc="http://purl.org/dc/elements/1.1/" xmlns:rdf="http://www.w3.org/1999/02/22-rdf-syntax-ns#"><metadata id="metadata12"><rdf:RDF><cc:Work rdf:about=""><dc:format>image/svg+xml</dc:format><dc:type rdf:resource="http://purl.org/dc/dcmitype/StillImage"/><dc:title/></cc:Work></rdf:RDF></metadata>


<g id="g3757" transform="translate(-.866 -252.33)"><path id="path6" d="m32 267.46c0 8.8361-7.1636 16-16 16-8.8366 0-16-7.1635-16-16 0-8.8368 7.1631-16 16-16 8.8366 0 16 7.1634 16 16z" fill="#222"/><path id="path8" d="m5.1202 265.33c-1.18 0-2.1362 0.95617-2.1362 2.1362 0 1.1796 0.95617 2.1358 2.1362 2.1358 1.1796 0 2.1359-0.95628 2.1359-2.1358 0-1.1801-0.95617-2.1362-2.1359-2.1362zm15.252 9.7087c-1.0218 0.58984-1.3715 1.8957-0.78187 2.917 0.58996 1.0218 1.8957 1.3717 2.9175 0.78187 1.0214-0.58973 1.3714-1.8956 0.78153-2.9173-0.58973-1.0213-1.8957-1.3714-2.9172-0.78164zm-10.612-7.5728c0-2.1111 1.0491-3.9758 2.6533-5.1049l-1.5617-2.616c-1.8694 1.249-3.26 3.1584-3.8377 5.3947 0.67474 0.55 1.1059 1.3875 1.1059 2.3264 0 0.93867-0.43112 1.7762-1.106 2.3261 0.57754 2.2366 1.9682 4.146 3.8377 5.3948l1.5618-2.6162c-1.6043-1.1289-2.6533-2.9935-2.6533-5.1049zm6.2399-6.2399c3.2599 0 5.9339 2.4995 6.2142 5.6866l3.0444-0.0445c-0.1498-2.353-1.1777-4.4661-2.7573-6.0191-0.81212 0.30684-1.7503 0.26033-2.5612-0.20794-0.8119-0.46871-1.3214-1.2594-1.4609-2.1174-0.78932-0.21844-1.6201-0.33754-2.479-0.33754-1.4773 0-2.8729 0.3468-4.1126 0.96091l1.484 2.6597c0.79891-0.37174 1.6892-0.58059 2.6285-0.58059zm0 12.48c-0.93946 0-1.8296-0.20884-2.6286-0.58058l-1.4843 2.6599c1.2399 0.61389 2.6356 0.9608 4.1129 0.9608 0.85897 0 1.6897-0.1191 2.4792-0.33754 0.13953-0.85807 0.64911-1.6487 1.4611-2.1178 0.81088-0.46804 1.7491-0.51455 2.5612-0.20761 1.5795-1.5531 2.6074-3.6662 2.757-6.0192l-3.0444-0.0445c-0.28008 3.1875-2.9542 5.6865-6.2141 5.6865zm4.3718-13.813c1.0216 0.59007 2.3277 0.24 2.9173-0.7813 0.58996-1.0218 0.24023-2.3276-0.78153-2.9176-1.0215-0.58973-2.3274-0.23977-2.9174 0.78198-0.58973 1.0213-0.23978 2.3273 0.78164 2.9169z" fill="#fff"/></g>
</svg>
